G04 #@! TF.FileFunction,Profile,NP*
%FSLAX46Y46*%
G04 Gerber Fmt 4.6, Leading zero omitted, Abs format (unit mm)*
G04 Created by KiCad (PCBNEW 4.0.4+e1-6308~48~ubuntu15.10.1-stable) date Wed Nov  1 16:06:56 2017*
%MOMM*%
%LPD*%
G01*
G04 APERTURE LIST*
%ADD10C,0.100000*%
G04 APERTURE END LIST*
D10*
X70947522Y-95748040D02*
X70947522Y-106048040D01*
X56487522Y-95748040D02*
X70947522Y-95748040D01*
X56487522Y-106048040D02*
X56487522Y-95748040D01*
X70947522Y-106048040D02*
X56487522Y-106048040D01*
X119562522Y-95748040D02*
X119562522Y-106048040D01*
X112712522Y-95748040D02*
X119562522Y-95748040D01*
X112712522Y-106048040D02*
X112712522Y-95748040D01*
X119562522Y-106048040D02*
X112712522Y-106048040D01*
X138535722Y-108448040D02*
X138535722Y-106848040D01*
X105925522Y-106648040D02*
X91225522Y-106648040D01*
X105925522Y-92848040D02*
X105925522Y-106648040D01*
X91225522Y-92848040D02*
X105925522Y-92848040D01*
X91225522Y-106648040D02*
X91225522Y-92848040D01*
X91725522Y-106648040D02*
X91225522Y-106648040D01*
X88175522Y-106648040D02*
X73475522Y-106648040D01*
X88175522Y-92848040D02*
X88175522Y-106648040D01*
X73475522Y-92848040D02*
X88175522Y-92848040D01*
X73475522Y-106648040D02*
X73475522Y-92848040D01*
X73975522Y-106648040D02*
X73475522Y-106648040D01*
X54417522Y-94848040D02*
X54614822Y-94848040D01*
X54614822Y-94848040D02*
X54617522Y-95048040D01*
X54614822Y-106148040D02*
X54617522Y-105948040D01*
X54417522Y-106148040D02*
X54614822Y-106148040D01*
X45617522Y-94848040D02*
X45420222Y-94848040D01*
X45420222Y-94848040D02*
X45417522Y-95048040D01*
X45420222Y-106148040D02*
X45417522Y-105948040D01*
X45617522Y-106148040D02*
X45420222Y-106148040D01*
X54617522Y-105948040D02*
X54617522Y-95048040D01*
X45617522Y-106148040D02*
X54417522Y-106148040D01*
X45617522Y-94848040D02*
X54417522Y-94848040D01*
X45417522Y-95048040D02*
X45417522Y-105948040D01*
X138535722Y-66728040D02*
X138535722Y-111748040D01*
X35535722Y-111748040D02*
X35535722Y-66728040D01*
X35535722Y-66728040D02*
G75*
G02X39525722Y-62738040I3990000J0D01*
G01*
X39525722Y-115738040D02*
G75*
G02X35535722Y-111748040I0J3990000D01*
G01*
X134545722Y-115738040D02*
X39525722Y-115738040D01*
X138535722Y-111748040D02*
G75*
G02X134545722Y-115738040I-3990000J0D01*
G01*
X134545722Y-62738040D02*
G75*
G02X138535722Y-66728040I0J-3990000D01*
G01*
X39525722Y-62738040D02*
X134545722Y-62738040D01*
X15145404Y-62850000D02*
X15145404Y-62850000D01*
X-20150000Y64200000D02*
X-20150000Y64200000D01*
X20150000Y-64200000D02*
X20150000Y-64200000D01*
X10254596Y-62850000D02*
X10254596Y-62850000D01*
M02*
