G04 #@! TF.FileFunction,Copper,L2,Bot,Signal*
%FSLAX46Y46*%
G04 Gerber Fmt 4.6, Leading zero omitted, Abs format (unit mm)*
G04 Created by KiCad (PCBNEW 4.0.4+e1-6308~48~ubuntu15.10.1-stable) date Wed Nov  1 16:06:56 2017*
%MOMM*%
%LPD*%
G01*
G04 APERTURE LIST*
%ADD10C,0.100000*%
%ADD11C,6.000000*%
%ADD12C,3.000000*%
%ADD13C,0.254000*%
G04 APERTURE END LIST*
D10*
D11*
X39532560Y-66746120D03*
X134548880Y-66715640D03*
X134543800Y-111739680D03*
D12*
X124495560Y-101371400D03*
D11*
X39517320Y-111739680D03*
D13*
G36*
X136003567Y-63208491D02*
X137239468Y-64034294D01*
X138065271Y-65270195D01*
X138358722Y-66745473D01*
X138358722Y-111730607D01*
X138065271Y-113205885D01*
X137239468Y-114441786D01*
X136003567Y-115267589D01*
X134528289Y-115561040D01*
X39543155Y-115561040D01*
X38067877Y-115267589D01*
X36831976Y-114441786D01*
X36006173Y-113205885D01*
X35712722Y-111730607D01*
X35712722Y-95048040D01*
X45240522Y-95048040D01*
X45240522Y-105948040D01*
X45240759Y-105949233D01*
X45240538Y-105950429D01*
X45243238Y-106150429D01*
X45250189Y-106183065D01*
X45256695Y-106215775D01*
X45257371Y-106216786D01*
X45257624Y-106217976D01*
X45276529Y-106245459D01*
X45295064Y-106273198D01*
X45296076Y-106273874D01*
X45296765Y-106274876D01*
X45324728Y-106293019D01*
X45352487Y-106311567D01*
X45353682Y-106311805D01*
X45354701Y-106312466D01*
X45387492Y-106318530D01*
X45420222Y-106325040D01*
X54614822Y-106325040D01*
X54647552Y-106318530D01*
X54680343Y-106312466D01*
X54681362Y-106311805D01*
X54682557Y-106311567D01*
X54710316Y-106293019D01*
X54738279Y-106274876D01*
X54738968Y-106273874D01*
X54739980Y-106273198D01*
X54758515Y-106245459D01*
X54777420Y-106217976D01*
X54777673Y-106216786D01*
X54778349Y-106215775D01*
X54784855Y-106183065D01*
X54791806Y-106150429D01*
X54794506Y-105950430D01*
X54794285Y-105949233D01*
X54794522Y-105948040D01*
X54794522Y-95748040D01*
X56310522Y-95748040D01*
X56310522Y-106048040D01*
X56323995Y-106115775D01*
X56362364Y-106173198D01*
X56419787Y-106211567D01*
X56487522Y-106225040D01*
X70947522Y-106225040D01*
X71015257Y-106211567D01*
X71072680Y-106173198D01*
X71111049Y-106115775D01*
X71124522Y-106048040D01*
X71124522Y-95748040D01*
X71111049Y-95680305D01*
X71072680Y-95622882D01*
X71015257Y-95584513D01*
X70947522Y-95571040D01*
X56487522Y-95571040D01*
X56419787Y-95584513D01*
X56362364Y-95622882D01*
X56323995Y-95680305D01*
X56310522Y-95748040D01*
X54794522Y-95748040D01*
X54794522Y-95048040D01*
X54794285Y-95046847D01*
X54794506Y-95045650D01*
X54791806Y-94845651D01*
X54784855Y-94813015D01*
X54778349Y-94780305D01*
X54777673Y-94779294D01*
X54777420Y-94778104D01*
X54758515Y-94750621D01*
X54739980Y-94722882D01*
X54738968Y-94722206D01*
X54738279Y-94721204D01*
X54710316Y-94703061D01*
X54682557Y-94684513D01*
X54681362Y-94684275D01*
X54680343Y-94683614D01*
X54647552Y-94677550D01*
X54614822Y-94671040D01*
X45420222Y-94671040D01*
X45387492Y-94677550D01*
X45354701Y-94683614D01*
X45353682Y-94684275D01*
X45352487Y-94684513D01*
X45324728Y-94703061D01*
X45296765Y-94721204D01*
X45296076Y-94722206D01*
X45295064Y-94722882D01*
X45276529Y-94750621D01*
X45257624Y-94778104D01*
X45257371Y-94779294D01*
X45256695Y-94780305D01*
X45250189Y-94813015D01*
X45243238Y-94845651D01*
X45240538Y-95045651D01*
X45240759Y-95046847D01*
X45240522Y-95048040D01*
X35712722Y-95048040D01*
X35712722Y-92848040D01*
X73298522Y-92848040D01*
X73298522Y-106648040D01*
X73311995Y-106715775D01*
X73350364Y-106773198D01*
X73407787Y-106811567D01*
X73475522Y-106825040D01*
X88175522Y-106825040D01*
X88243257Y-106811567D01*
X88300680Y-106773198D01*
X88339049Y-106715775D01*
X88352522Y-106648040D01*
X88352522Y-92848040D01*
X91048522Y-92848040D01*
X91048522Y-106648040D01*
X91061995Y-106715775D01*
X91100364Y-106773198D01*
X91157787Y-106811567D01*
X91225522Y-106825040D01*
X105925522Y-106825040D01*
X105993257Y-106811567D01*
X106050680Y-106773198D01*
X106089049Y-106715775D01*
X106102522Y-106648040D01*
X106102522Y-95748040D01*
X112535522Y-95748040D01*
X112535522Y-106048040D01*
X112548995Y-106115775D01*
X112587364Y-106173198D01*
X112644787Y-106211567D01*
X112712522Y-106225040D01*
X119562522Y-106225040D01*
X119630257Y-106211567D01*
X119687680Y-106173198D01*
X119726049Y-106115775D01*
X119739522Y-106048040D01*
X119739522Y-101733218D01*
X122668244Y-101733218D01*
X122945802Y-102404960D01*
X123459296Y-102919352D01*
X124130553Y-103198082D01*
X124857378Y-103198716D01*
X125529120Y-102921158D01*
X126043512Y-102407664D01*
X126322242Y-101736407D01*
X126322876Y-101009582D01*
X126045318Y-100337840D01*
X125531824Y-99823448D01*
X124860567Y-99544718D01*
X124133742Y-99544084D01*
X123462000Y-99821642D01*
X122947608Y-100335136D01*
X122668878Y-101006393D01*
X122668244Y-101733218D01*
X119739522Y-101733218D01*
X119739522Y-95748040D01*
X119726049Y-95680305D01*
X119687680Y-95622882D01*
X119630257Y-95584513D01*
X119562522Y-95571040D01*
X112712522Y-95571040D01*
X112644787Y-95584513D01*
X112587364Y-95622882D01*
X112548995Y-95680305D01*
X112535522Y-95748040D01*
X106102522Y-95748040D01*
X106102522Y-92848040D01*
X106089049Y-92780305D01*
X106050680Y-92722882D01*
X105993257Y-92684513D01*
X105925522Y-92671040D01*
X91225522Y-92671040D01*
X91157787Y-92684513D01*
X91100364Y-92722882D01*
X91061995Y-92780305D01*
X91048522Y-92848040D01*
X88352522Y-92848040D01*
X88339049Y-92780305D01*
X88300680Y-92722882D01*
X88243257Y-92684513D01*
X88175522Y-92671040D01*
X73475522Y-92671040D01*
X73407787Y-92684513D01*
X73350364Y-92722882D01*
X73311995Y-92780305D01*
X73298522Y-92848040D01*
X35712722Y-92848040D01*
X35712722Y-66745473D01*
X36006173Y-65270195D01*
X36831976Y-64034294D01*
X38067877Y-63208491D01*
X39543155Y-62915040D01*
X134528289Y-62915040D01*
X136003567Y-63208491D01*
X136003567Y-63208491D01*
G37*
X136003567Y-63208491D02*
X137239468Y-64034294D01*
X138065271Y-65270195D01*
X138358722Y-66745473D01*
X138358722Y-111730607D01*
X138065271Y-113205885D01*
X137239468Y-114441786D01*
X136003567Y-115267589D01*
X134528289Y-115561040D01*
X39543155Y-115561040D01*
X38067877Y-115267589D01*
X36831976Y-114441786D01*
X36006173Y-113205885D01*
X35712722Y-111730607D01*
X35712722Y-95048040D01*
X45240522Y-95048040D01*
X45240522Y-105948040D01*
X45240759Y-105949233D01*
X45240538Y-105950429D01*
X45243238Y-106150429D01*
X45250189Y-106183065D01*
X45256695Y-106215775D01*
X45257371Y-106216786D01*
X45257624Y-106217976D01*
X45276529Y-106245459D01*
X45295064Y-106273198D01*
X45296076Y-106273874D01*
X45296765Y-106274876D01*
X45324728Y-106293019D01*
X45352487Y-106311567D01*
X45353682Y-106311805D01*
X45354701Y-106312466D01*
X45387492Y-106318530D01*
X45420222Y-106325040D01*
X54614822Y-106325040D01*
X54647552Y-106318530D01*
X54680343Y-106312466D01*
X54681362Y-106311805D01*
X54682557Y-106311567D01*
X54710316Y-106293019D01*
X54738279Y-106274876D01*
X54738968Y-106273874D01*
X54739980Y-106273198D01*
X54758515Y-106245459D01*
X54777420Y-106217976D01*
X54777673Y-106216786D01*
X54778349Y-106215775D01*
X54784855Y-106183065D01*
X54791806Y-106150429D01*
X54794506Y-105950430D01*
X54794285Y-105949233D01*
X54794522Y-105948040D01*
X54794522Y-95748040D01*
X56310522Y-95748040D01*
X56310522Y-106048040D01*
X56323995Y-106115775D01*
X56362364Y-106173198D01*
X56419787Y-106211567D01*
X56487522Y-106225040D01*
X70947522Y-106225040D01*
X71015257Y-106211567D01*
X71072680Y-106173198D01*
X71111049Y-106115775D01*
X71124522Y-106048040D01*
X71124522Y-95748040D01*
X71111049Y-95680305D01*
X71072680Y-95622882D01*
X71015257Y-95584513D01*
X70947522Y-95571040D01*
X56487522Y-95571040D01*
X56419787Y-95584513D01*
X56362364Y-95622882D01*
X56323995Y-95680305D01*
X56310522Y-95748040D01*
X54794522Y-95748040D01*
X54794522Y-95048040D01*
X54794285Y-95046847D01*
X54794506Y-95045650D01*
X54791806Y-94845651D01*
X54784855Y-94813015D01*
X54778349Y-94780305D01*
X54777673Y-94779294D01*
X54777420Y-94778104D01*
X54758515Y-94750621D01*
X54739980Y-94722882D01*
X54738968Y-94722206D01*
X54738279Y-94721204D01*
X54710316Y-94703061D01*
X54682557Y-94684513D01*
X54681362Y-94684275D01*
X54680343Y-94683614D01*
X54647552Y-94677550D01*
X54614822Y-94671040D01*
X45420222Y-94671040D01*
X45387492Y-94677550D01*
X45354701Y-94683614D01*
X45353682Y-94684275D01*
X45352487Y-94684513D01*
X45324728Y-94703061D01*
X45296765Y-94721204D01*
X45296076Y-94722206D01*
X45295064Y-94722882D01*
X45276529Y-94750621D01*
X45257624Y-94778104D01*
X45257371Y-94779294D01*
X45256695Y-94780305D01*
X45250189Y-94813015D01*
X45243238Y-94845651D01*
X45240538Y-95045651D01*
X45240759Y-95046847D01*
X45240522Y-95048040D01*
X35712722Y-95048040D01*
X35712722Y-92848040D01*
X73298522Y-92848040D01*
X73298522Y-106648040D01*
X73311995Y-106715775D01*
X73350364Y-106773198D01*
X73407787Y-106811567D01*
X73475522Y-106825040D01*
X88175522Y-106825040D01*
X88243257Y-106811567D01*
X88300680Y-106773198D01*
X88339049Y-106715775D01*
X88352522Y-106648040D01*
X88352522Y-92848040D01*
X91048522Y-92848040D01*
X91048522Y-106648040D01*
X91061995Y-106715775D01*
X91100364Y-106773198D01*
X91157787Y-106811567D01*
X91225522Y-106825040D01*
X105925522Y-106825040D01*
X105993257Y-106811567D01*
X106050680Y-106773198D01*
X106089049Y-106715775D01*
X106102522Y-106648040D01*
X106102522Y-95748040D01*
X112535522Y-95748040D01*
X112535522Y-106048040D01*
X112548995Y-106115775D01*
X112587364Y-106173198D01*
X112644787Y-106211567D01*
X112712522Y-106225040D01*
X119562522Y-106225040D01*
X119630257Y-106211567D01*
X119687680Y-106173198D01*
X119726049Y-106115775D01*
X119739522Y-106048040D01*
X119739522Y-101733218D01*
X122668244Y-101733218D01*
X122945802Y-102404960D01*
X123459296Y-102919352D01*
X124130553Y-103198082D01*
X124857378Y-103198716D01*
X125529120Y-102921158D01*
X126043512Y-102407664D01*
X126322242Y-101736407D01*
X126322876Y-101009582D01*
X126045318Y-100337840D01*
X125531824Y-99823448D01*
X124860567Y-99544718D01*
X124133742Y-99544084D01*
X123462000Y-99821642D01*
X122947608Y-100335136D01*
X122668878Y-101006393D01*
X122668244Y-101733218D01*
X119739522Y-101733218D01*
X119739522Y-95748040D01*
X119726049Y-95680305D01*
X119687680Y-95622882D01*
X119630257Y-95584513D01*
X119562522Y-95571040D01*
X112712522Y-95571040D01*
X112644787Y-95584513D01*
X112587364Y-95622882D01*
X112548995Y-95680305D01*
X112535522Y-95748040D01*
X106102522Y-95748040D01*
X106102522Y-92848040D01*
X106089049Y-92780305D01*
X106050680Y-92722882D01*
X105993257Y-92684513D01*
X105925522Y-92671040D01*
X91225522Y-92671040D01*
X91157787Y-92684513D01*
X91100364Y-92722882D01*
X91061995Y-92780305D01*
X91048522Y-92848040D01*
X88352522Y-92848040D01*
X88339049Y-92780305D01*
X88300680Y-92722882D01*
X88243257Y-92684513D01*
X88175522Y-92671040D01*
X73475522Y-92671040D01*
X73407787Y-92684513D01*
X73350364Y-92722882D01*
X73311995Y-92780305D01*
X73298522Y-92848040D01*
X35712722Y-92848040D01*
X35712722Y-66745473D01*
X36006173Y-65270195D01*
X36831976Y-64034294D01*
X38067877Y-63208491D01*
X39543155Y-62915040D01*
X134528289Y-62915040D01*
X136003567Y-63208491D01*
M02*
