G04 #@! TF.FileFunction,Copper,L2,Bot,Signal*
%FSLAX46Y46*%
G04 Gerber Fmt 4.6, Leading zero omitted, Abs format (unit mm)*
G04 Created by KiCad (PCBNEW 4.0.4+e1-6308~48~ubuntu15.10.1-stable) date Tue Jun 20 15:04:26 2017*
%MOMM*%
%LPD*%
G01*
G04 APERTURE LIST*
%ADD10C,0.150000*%
%ADD11R,1.727200X1.727200*%
%ADD12O,1.800000X1.500000*%
%ADD13O,1.727200X1.727200*%
%ADD14C,5.500000*%
%ADD15C,1.160000*%
%ADD16O,3.200000X1.800000*%
%ADD17C,0.406400*%
%ADD18C,0.254000*%
G04 APERTURE END LIST*
D10*
D11*
X86671200Y-84290000D03*
D12*
X89211200Y-84290000D03*
X86671200Y-86830000D03*
X89211200Y-86830000D03*
X86671200Y-89370000D03*
X89211200Y-89370000D03*
X86671200Y-91910000D03*
X89211200Y-91910000D03*
D13*
X86671200Y-94450000D03*
X89211200Y-94450000D03*
D12*
X86671200Y-96990000D03*
X89211200Y-96990000D03*
X86671200Y-99530000D03*
X89211200Y-99530000D03*
X86671200Y-102070000D03*
X89211200Y-102070000D03*
X86671200Y-104610000D03*
X89211200Y-104610000D03*
X86671200Y-107150000D03*
X89211200Y-107150000D03*
D14*
X91287600Y-117449600D03*
X69941200Y-138694400D03*
D15*
X70081200Y-126230000D03*
X70081200Y-124190000D03*
X67531200Y-125210000D03*
X67531200Y-127250000D03*
D16*
X67731200Y-131100000D03*
X67731200Y-120340000D03*
D15*
X70081200Y-106230000D03*
X70081200Y-104190000D03*
X67531200Y-105210000D03*
X67531200Y-107250000D03*
D16*
X67731200Y-111100000D03*
X67731200Y-100340000D03*
D15*
X70081200Y-86230000D03*
X70081200Y-84190000D03*
X67531200Y-85210000D03*
X67531200Y-87250000D03*
D16*
X67731200Y-91100000D03*
X67731200Y-80340000D03*
D15*
X70081200Y-66230000D03*
X70081200Y-64190000D03*
X67531200Y-65210000D03*
X67531200Y-67250000D03*
D16*
X67731200Y-71100000D03*
X67731200Y-60340000D03*
D14*
X69941200Y-52720000D03*
D17*
X86671200Y-84290000D02*
X86671200Y-77273200D01*
X75698000Y-66300000D02*
X70091200Y-66300000D01*
X86671200Y-77273200D02*
X75698000Y-66300000D01*
X89211200Y-84290000D02*
X89211200Y-76714400D01*
X76706800Y-64210000D02*
X70031200Y-64210000D01*
X89211200Y-76714400D02*
X76706800Y-64210000D01*
X67551200Y-67250000D02*
X73701600Y-67250000D01*
X88030000Y-85648800D02*
X89211200Y-86830000D01*
X85140800Y-85648800D02*
X88030000Y-85648800D01*
X83921600Y-84429600D02*
X85140800Y-85648800D01*
X83921600Y-77470000D02*
X83921600Y-84429600D01*
X73701600Y-67250000D02*
X83921600Y-77470000D01*
X70141200Y-86230000D02*
X66815600Y-86230000D01*
X87877600Y-93116400D02*
X89211200Y-94450000D01*
X73863200Y-93116400D02*
X87877600Y-93116400D01*
X69748400Y-89001600D02*
X73863200Y-93116400D01*
X66636800Y-89001600D02*
X69748400Y-89001600D01*
X66110000Y-88474800D02*
X66636800Y-89001600D01*
X66110000Y-86935600D02*
X66110000Y-88474800D01*
X66815600Y-86230000D02*
X66110000Y-86935600D01*
D18*
X89211200Y-91910000D02*
X88963600Y-91910000D01*
D17*
X88963600Y-91910000D02*
X87680800Y-90627200D01*
X87680800Y-90627200D02*
X76628400Y-90627200D01*
X76628400Y-90627200D02*
X70201200Y-84200000D01*
X86671200Y-91910000D02*
X74536400Y-91910000D01*
X69916400Y-87290000D02*
X67571200Y-87290000D01*
X74536400Y-91910000D02*
X69916400Y-87290000D01*
X86671200Y-99530000D02*
X72652400Y-99530000D01*
X68942400Y-105191200D02*
X69971200Y-106220000D01*
X68942400Y-103240000D02*
X68942400Y-105191200D01*
X72652400Y-99530000D02*
X68942400Y-103240000D01*
X70091200Y-104180000D02*
X75042400Y-104180000D01*
X87954000Y-100787200D02*
X89211200Y-99530000D01*
X78435200Y-100787200D02*
X87954000Y-100787200D01*
X75042400Y-104180000D02*
X78435200Y-100787200D01*
X67514400Y-107250000D02*
X68163600Y-107899200D01*
X68163600Y-107899200D02*
X74269600Y-107899200D01*
X74269600Y-107899200D02*
X78841600Y-103327200D01*
X78841600Y-103327200D02*
X87954000Y-103327200D01*
X87954000Y-103327200D02*
X89211200Y-102070000D01*
X86671200Y-107150000D02*
X85128000Y-107150000D01*
X74320400Y-122140800D02*
X70201200Y-126260000D01*
X74320400Y-117957600D02*
X74320400Y-122140800D01*
X85128000Y-107150000D02*
X74320400Y-117957600D01*
X87928400Y-105867200D02*
X89211200Y-107150000D01*
X83972400Y-105867200D02*
X87928400Y-105867200D01*
X72542400Y-117297200D02*
X83972400Y-105867200D01*
X72542400Y-121779600D02*
X72542400Y-117297200D01*
X70121200Y-124200800D02*
X72542400Y-121779600D01*
X86671200Y-104610000D02*
X83248400Y-104610000D01*
X66579200Y-127260000D02*
X67651200Y-127260000D01*
X65883600Y-126564400D02*
X66579200Y-127260000D01*
X65883600Y-124357600D02*
X65883600Y-126564400D01*
X67508400Y-122732800D02*
X65883600Y-124357600D01*
X70205600Y-122732800D02*
X67508400Y-122732800D01*
X71272400Y-121666000D02*
X70205600Y-122732800D01*
X71272400Y-116586000D02*
X71272400Y-121666000D01*
X83248400Y-104610000D02*
X71272400Y-116586000D01*
X86715600Y-104597200D02*
X86106000Y-104597200D01*
D18*
G36*
X96873700Y-144626900D02*
X64008700Y-144626900D01*
X64008700Y-141110666D01*
X67704539Y-141110666D01*
X68016687Y-141559332D01*
X69259543Y-142077731D01*
X70606176Y-142081048D01*
X71851571Y-141568780D01*
X71865713Y-141559332D01*
X72177861Y-141110666D01*
X69941200Y-138874005D01*
X67704539Y-141110666D01*
X64008700Y-141110666D01*
X64008700Y-139359376D01*
X66554552Y-139359376D01*
X67066820Y-140604771D01*
X67076268Y-140618913D01*
X67524934Y-140931061D01*
X69761595Y-138694400D01*
X70120805Y-138694400D01*
X72357466Y-140931061D01*
X72806132Y-140618913D01*
X73324531Y-139376057D01*
X73327848Y-138029424D01*
X72815580Y-136784029D01*
X72806132Y-136769887D01*
X72357466Y-136457739D01*
X70120805Y-138694400D01*
X69761595Y-138694400D01*
X67524934Y-136457739D01*
X67076268Y-136769887D01*
X66557869Y-138012743D01*
X66554552Y-139359376D01*
X64008700Y-139359376D01*
X64008700Y-136278134D01*
X67704539Y-136278134D01*
X69941200Y-138514795D01*
X72177861Y-136278134D01*
X71865713Y-135829468D01*
X70622857Y-135311069D01*
X69276224Y-135307752D01*
X68030829Y-135820020D01*
X68016687Y-135829468D01*
X67704539Y-136278134D01*
X64008700Y-136278134D01*
X64008700Y-131100000D01*
X65205673Y-131100000D01*
X65340939Y-131780028D01*
X65726144Y-132356529D01*
X66302645Y-132741734D01*
X66982673Y-132877000D01*
X68479727Y-132877000D01*
X69159755Y-132741734D01*
X69736256Y-132356529D01*
X70121461Y-131780028D01*
X70256727Y-131100000D01*
X70121461Y-130419972D01*
X69736256Y-129843471D01*
X69159755Y-129458266D01*
X68479727Y-129323000D01*
X66982673Y-129323000D01*
X66302645Y-129458266D01*
X65726144Y-129843471D01*
X65340939Y-130419972D01*
X65205673Y-131100000D01*
X64008700Y-131100000D01*
X64008700Y-124357600D01*
X64803400Y-124357600D01*
X64803400Y-126564400D01*
X64885625Y-126977775D01*
X65119783Y-127328217D01*
X65815383Y-128023817D01*
X66165825Y-128257975D01*
X66556223Y-128335630D01*
X66704798Y-128484464D01*
X67240113Y-128706746D01*
X67819744Y-128707252D01*
X68355446Y-128485904D01*
X68765664Y-128076402D01*
X68987946Y-127541087D01*
X68988246Y-127197446D01*
X69254798Y-127464464D01*
X69790113Y-127686746D01*
X70369744Y-127687252D01*
X70905446Y-127465904D01*
X71315664Y-127056402D01*
X71537946Y-126521087D01*
X71538007Y-126450827D01*
X75084214Y-122904619D01*
X75084217Y-122904617D01*
X75318375Y-122554175D01*
X75318376Y-122554174D01*
X75400601Y-122140800D01*
X75400600Y-122140795D01*
X75400600Y-119865866D01*
X89050939Y-119865866D01*
X89363087Y-120314532D01*
X90605943Y-120832931D01*
X91952576Y-120836248D01*
X93197971Y-120323980D01*
X93212113Y-120314532D01*
X93524261Y-119865866D01*
X91287600Y-117629205D01*
X89050939Y-119865866D01*
X75400600Y-119865866D01*
X75400600Y-118405034D01*
X75691057Y-118114576D01*
X87900952Y-118114576D01*
X88413220Y-119359971D01*
X88422668Y-119374113D01*
X88871334Y-119686261D01*
X91107995Y-117449600D01*
X91467205Y-117449600D01*
X93703866Y-119686261D01*
X94152532Y-119374113D01*
X94670931Y-118131257D01*
X94674248Y-116784624D01*
X94161980Y-115539229D01*
X94152532Y-115525087D01*
X93703866Y-115212939D01*
X91467205Y-117449600D01*
X91107995Y-117449600D01*
X88871334Y-115212939D01*
X88422668Y-115525087D01*
X87904269Y-116767943D01*
X87900952Y-118114576D01*
X75691057Y-118114576D01*
X78772299Y-115033334D01*
X89050939Y-115033334D01*
X91287600Y-117269995D01*
X93524261Y-115033334D01*
X93212113Y-114584668D01*
X91969257Y-114066269D01*
X90622624Y-114062952D01*
X89377229Y-114575220D01*
X89363087Y-114584668D01*
X89050939Y-115033334D01*
X78772299Y-115033334D01*
X85437380Y-108368253D01*
X85863761Y-108653152D01*
X86486387Y-108777000D01*
X86856013Y-108777000D01*
X87478639Y-108653152D01*
X87941200Y-108344079D01*
X88403761Y-108653152D01*
X89026387Y-108777000D01*
X89396013Y-108777000D01*
X90018639Y-108653152D01*
X90546476Y-108300463D01*
X90899165Y-107772626D01*
X91023013Y-107150000D01*
X90899165Y-106527374D01*
X90546476Y-105999537D01*
X90146107Y-105732019D01*
X90469020Y-105443308D01*
X90703518Y-104951185D01*
X90580856Y-104737000D01*
X89338200Y-104737000D01*
X89338200Y-104757000D01*
X89084200Y-104757000D01*
X89084200Y-104737000D01*
X89064200Y-104737000D01*
X89064200Y-104483000D01*
X89084200Y-104483000D01*
X89084200Y-104463000D01*
X89338200Y-104463000D01*
X89338200Y-104483000D01*
X90580856Y-104483000D01*
X90703518Y-104268815D01*
X90469020Y-103776692D01*
X90146107Y-103487981D01*
X90546476Y-103220463D01*
X90899165Y-102692626D01*
X91023013Y-102070000D01*
X90899165Y-101447374D01*
X90546476Y-100919537D01*
X90367576Y-100800000D01*
X90546476Y-100680463D01*
X90899165Y-100152626D01*
X91023013Y-99530000D01*
X90899165Y-98907374D01*
X90546476Y-98379537D01*
X90146107Y-98112019D01*
X90469020Y-97823308D01*
X90703518Y-97331185D01*
X90580856Y-97117000D01*
X89338200Y-97117000D01*
X89338200Y-97137000D01*
X89084200Y-97137000D01*
X89084200Y-97117000D01*
X86798200Y-97117000D01*
X86798200Y-97137000D01*
X86544200Y-97137000D01*
X86544200Y-97117000D01*
X85301544Y-97117000D01*
X85178882Y-97331185D01*
X85413380Y-97823308D01*
X85736293Y-98112019D01*
X85335924Y-98379537D01*
X85288976Y-98449800D01*
X72652400Y-98449800D01*
X72239025Y-98532025D01*
X71888583Y-98766183D01*
X70242316Y-100412450D01*
X70256727Y-100340000D01*
X70121461Y-99659972D01*
X69736256Y-99083471D01*
X69159755Y-98698266D01*
X68479727Y-98563000D01*
X66982673Y-98563000D01*
X66302645Y-98698266D01*
X65726144Y-99083471D01*
X65340939Y-99659972D01*
X65205673Y-100340000D01*
X65340939Y-101020028D01*
X65726144Y-101596529D01*
X66302645Y-101981734D01*
X66982673Y-102117000D01*
X68479727Y-102117000D01*
X68552177Y-102102589D01*
X68178583Y-102476183D01*
X67944425Y-102826625D01*
X67862200Y-103240000D01*
X67862200Y-104039130D01*
X67695377Y-103982125D01*
X67212993Y-104012763D01*
X66909632Y-104138419D01*
X66862588Y-104361783D01*
X67531200Y-105030395D01*
X67545343Y-105016253D01*
X67724948Y-105195858D01*
X67710805Y-105210000D01*
X67724948Y-105224143D01*
X67545343Y-105403748D01*
X67531200Y-105389605D01*
X67517058Y-105403748D01*
X67337453Y-105224143D01*
X67351595Y-105210000D01*
X66682983Y-104541388D01*
X66459619Y-104588432D01*
X66303325Y-105045823D01*
X66333963Y-105528207D01*
X66459619Y-105831568D01*
X66682981Y-105878611D01*
X66567189Y-105994403D01*
X66646866Y-106074080D01*
X66296736Y-106423598D01*
X66074454Y-106958913D01*
X66073948Y-107538544D01*
X66295296Y-108074246D01*
X66704798Y-108484464D01*
X67240113Y-108706746D01*
X67465523Y-108706943D01*
X67750225Y-108897175D01*
X68163600Y-108979400D01*
X74269600Y-108979400D01*
X74682975Y-108897175D01*
X75033417Y-108663017D01*
X75033418Y-108663016D01*
X79289033Y-104407400D01*
X81923367Y-104407400D01*
X70508583Y-115822183D01*
X70274425Y-116172625D01*
X70192200Y-116586000D01*
X70192200Y-120015601D01*
X70121461Y-119659972D01*
X69736256Y-119083471D01*
X69159755Y-118698266D01*
X68479727Y-118563000D01*
X66982673Y-118563000D01*
X66302645Y-118698266D01*
X65726144Y-119083471D01*
X65340939Y-119659972D01*
X65205673Y-120340000D01*
X65340939Y-121020028D01*
X65726144Y-121596529D01*
X66302645Y-121981734D01*
X66660625Y-122052941D01*
X65119783Y-123593783D01*
X64885625Y-123944225D01*
X64803400Y-124357600D01*
X64008700Y-124357600D01*
X64008700Y-111100000D01*
X65205673Y-111100000D01*
X65340939Y-111780028D01*
X65726144Y-112356529D01*
X66302645Y-112741734D01*
X66982673Y-112877000D01*
X68479727Y-112877000D01*
X69159755Y-112741734D01*
X69736256Y-112356529D01*
X70121461Y-111780028D01*
X70256727Y-111100000D01*
X70121461Y-110419972D01*
X69736256Y-109843471D01*
X69159755Y-109458266D01*
X68479727Y-109323000D01*
X66982673Y-109323000D01*
X66302645Y-109458266D01*
X65726144Y-109843471D01*
X65340939Y-110419972D01*
X65205673Y-111100000D01*
X64008700Y-111100000D01*
X64008700Y-96648815D01*
X85178882Y-96648815D01*
X85301544Y-96863000D01*
X86544200Y-96863000D01*
X86544200Y-94577000D01*
X85337383Y-94577000D01*
X85216242Y-94809026D01*
X85388512Y-95224947D01*
X85782710Y-95656821D01*
X85967389Y-95743376D01*
X85816601Y-95796179D01*
X85413380Y-96156692D01*
X85178882Y-96648815D01*
X64008700Y-96648815D01*
X64008700Y-86935600D01*
X65029800Y-86935600D01*
X65029800Y-88474800D01*
X65112025Y-88888175D01*
X65346183Y-89238617D01*
X65860958Y-89753392D01*
X65726144Y-89843471D01*
X65340939Y-90419972D01*
X65205673Y-91100000D01*
X65340939Y-91780028D01*
X65726144Y-92356529D01*
X66302645Y-92741734D01*
X66982673Y-92877000D01*
X68479727Y-92877000D01*
X69159755Y-92741734D01*
X69736256Y-92356529D01*
X70121461Y-91780028D01*
X70256727Y-91100000D01*
X70241223Y-91022057D01*
X73099383Y-93880217D01*
X73449825Y-94114375D01*
X73863200Y-94196600D01*
X85271389Y-94196600D01*
X85337383Y-94323000D01*
X86544200Y-94323000D01*
X86544200Y-94303000D01*
X86798200Y-94303000D01*
X86798200Y-94323000D01*
X86818200Y-94323000D01*
X86818200Y-94577000D01*
X86798200Y-94577000D01*
X86798200Y-96863000D01*
X89084200Y-96863000D01*
X89084200Y-96843000D01*
X89338200Y-96843000D01*
X89338200Y-96863000D01*
X90580856Y-96863000D01*
X90703518Y-96648815D01*
X90469020Y-96156692D01*
X90167420Y-95887037D01*
X90476090Y-95680790D01*
X90853405Y-95116099D01*
X90985900Y-94450000D01*
X90853405Y-93783901D01*
X90476090Y-93219210D01*
X90392492Y-93163352D01*
X90546476Y-93060463D01*
X90899165Y-92532626D01*
X91023013Y-91910000D01*
X90899165Y-91287374D01*
X90546476Y-90759537D01*
X90146107Y-90492019D01*
X90469020Y-90203308D01*
X90703518Y-89711185D01*
X90580856Y-89497000D01*
X89338200Y-89497000D01*
X89338200Y-89517000D01*
X89084200Y-89517000D01*
X89084200Y-89497000D01*
X86798200Y-89497000D01*
X86798200Y-89517000D01*
X86544200Y-89517000D01*
X86544200Y-89497000D01*
X85301544Y-89497000D01*
X85272909Y-89547000D01*
X77075833Y-89547000D01*
X74700019Y-87171185D01*
X85178882Y-87171185D01*
X85413380Y-87663308D01*
X85816601Y-88023821D01*
X86034143Y-88100000D01*
X85816601Y-88176179D01*
X85413380Y-88536692D01*
X85178882Y-89028815D01*
X85301544Y-89243000D01*
X86544200Y-89243000D01*
X86544200Y-88142698D01*
X86480393Y-88100000D01*
X86544200Y-88057302D01*
X86544200Y-86957000D01*
X85301544Y-86957000D01*
X85178882Y-87171185D01*
X74700019Y-87171185D01*
X71538358Y-84009524D01*
X71538452Y-83901456D01*
X71317104Y-83365754D01*
X70907602Y-82955536D01*
X70372287Y-82733254D01*
X69792656Y-82732748D01*
X69256954Y-82954096D01*
X68846736Y-83363598D01*
X68624454Y-83898913D01*
X68623948Y-84478544D01*
X68845296Y-85014246D01*
X68980613Y-85149800D01*
X68744824Y-85149800D01*
X68728437Y-84891793D01*
X68602781Y-84588432D01*
X68379417Y-84541388D01*
X67771005Y-85149800D01*
X67291395Y-85149800D01*
X66682983Y-84541388D01*
X66459619Y-84588432D01*
X66303325Y-85045823D01*
X66318696Y-85287837D01*
X66051783Y-85466183D01*
X65346183Y-86171783D01*
X65112025Y-86522225D01*
X65029800Y-86935600D01*
X64008700Y-86935600D01*
X64008700Y-84361783D01*
X66862588Y-84361783D01*
X67531200Y-85030395D01*
X68199812Y-84361783D01*
X68152768Y-84138419D01*
X67695377Y-83982125D01*
X67212993Y-84012763D01*
X66909632Y-84138419D01*
X66862588Y-84361783D01*
X64008700Y-84361783D01*
X64008700Y-80340000D01*
X65205673Y-80340000D01*
X65340939Y-81020028D01*
X65726144Y-81596529D01*
X66302645Y-81981734D01*
X66982673Y-82117000D01*
X68479727Y-82117000D01*
X69159755Y-81981734D01*
X69736256Y-81596529D01*
X70121461Y-81020028D01*
X70256727Y-80340000D01*
X70121461Y-79659972D01*
X69736256Y-79083471D01*
X69159755Y-78698266D01*
X68479727Y-78563000D01*
X66982673Y-78563000D01*
X66302645Y-78698266D01*
X65726144Y-79083471D01*
X65340939Y-79659972D01*
X65205673Y-80340000D01*
X64008700Y-80340000D01*
X64008700Y-71100000D01*
X65205673Y-71100000D01*
X65340939Y-71780028D01*
X65726144Y-72356529D01*
X66302645Y-72741734D01*
X66982673Y-72877000D01*
X68479727Y-72877000D01*
X69159755Y-72741734D01*
X69736256Y-72356529D01*
X70121461Y-71780028D01*
X70256727Y-71100000D01*
X70121461Y-70419972D01*
X69736256Y-69843471D01*
X69159755Y-69458266D01*
X68479727Y-69323000D01*
X66982673Y-69323000D01*
X66302645Y-69458266D01*
X65726144Y-69843471D01*
X65340939Y-70419972D01*
X65205673Y-71100000D01*
X64008700Y-71100000D01*
X64008700Y-67538544D01*
X66073948Y-67538544D01*
X66295296Y-68074246D01*
X66704798Y-68484464D01*
X67240113Y-68706746D01*
X67819744Y-68707252D01*
X68355446Y-68485904D01*
X68511422Y-68330200D01*
X73254166Y-68330200D01*
X82841400Y-77917433D01*
X82841400Y-84429600D01*
X82923625Y-84842975D01*
X83157783Y-85193417D01*
X84376983Y-86412617D01*
X84727425Y-86646775D01*
X85140800Y-86729000D01*
X86818200Y-86729000D01*
X86818200Y-86957000D01*
X86798200Y-86957000D01*
X86798200Y-88057302D01*
X86862007Y-88100000D01*
X86798200Y-88142698D01*
X86798200Y-89243000D01*
X89084200Y-89243000D01*
X89084200Y-89223000D01*
X89338200Y-89223000D01*
X89338200Y-89243000D01*
X90580856Y-89243000D01*
X90703518Y-89028815D01*
X90469020Y-88536692D01*
X90146107Y-88247981D01*
X90546476Y-87980463D01*
X90899165Y-87452626D01*
X91023013Y-86830000D01*
X90899165Y-86207374D01*
X90546476Y-85679537D01*
X90367576Y-85560000D01*
X90546476Y-85440463D01*
X90899165Y-84912626D01*
X91023013Y-84290000D01*
X90899165Y-83667374D01*
X90546476Y-83139537D01*
X90291400Y-82969101D01*
X90291400Y-76714400D01*
X90209175Y-76301025D01*
X89975017Y-75950583D01*
X77470617Y-63446183D01*
X77120175Y-63212025D01*
X76706800Y-63129800D01*
X71081562Y-63129800D01*
X70907602Y-62955536D01*
X70372287Y-62733254D01*
X69792656Y-62732748D01*
X69256954Y-62954096D01*
X68846736Y-63363598D01*
X68624454Y-63898913D01*
X68623948Y-64478544D01*
X68845296Y-65014246D01*
X69040690Y-65209982D01*
X68846736Y-65403598D01*
X68624454Y-65938913D01*
X68624252Y-66169800D01*
X68511597Y-66169800D01*
X68415789Y-66073825D01*
X68495211Y-65994403D01*
X68379419Y-65878611D01*
X68602781Y-65831568D01*
X68759075Y-65374177D01*
X68728437Y-64891793D01*
X68602781Y-64588432D01*
X68379417Y-64541388D01*
X67710805Y-65210000D01*
X67724948Y-65224143D01*
X67545343Y-65403748D01*
X67531200Y-65389605D01*
X67517058Y-65403748D01*
X67337453Y-65224143D01*
X67351595Y-65210000D01*
X66682983Y-64541388D01*
X66459619Y-64588432D01*
X66303325Y-65045823D01*
X66333963Y-65528207D01*
X66459619Y-65831568D01*
X66682981Y-65878611D01*
X66567189Y-65994403D01*
X66646866Y-66074080D01*
X66296736Y-66423598D01*
X66074454Y-66958913D01*
X66073948Y-67538544D01*
X64008700Y-67538544D01*
X64008700Y-64361783D01*
X66862588Y-64361783D01*
X67531200Y-65030395D01*
X68199812Y-64361783D01*
X68152768Y-64138419D01*
X67695377Y-63982125D01*
X67212993Y-64012763D01*
X66909632Y-64138419D01*
X66862588Y-64361783D01*
X64008700Y-64361783D01*
X64008700Y-60340000D01*
X65205673Y-60340000D01*
X65340939Y-61020028D01*
X65726144Y-61596529D01*
X66302645Y-61981734D01*
X66982673Y-62117000D01*
X68479727Y-62117000D01*
X69159755Y-61981734D01*
X69736256Y-61596529D01*
X70121461Y-61020028D01*
X70256727Y-60340000D01*
X70121461Y-59659972D01*
X69736256Y-59083471D01*
X69159755Y-58698266D01*
X68479727Y-58563000D01*
X66982673Y-58563000D01*
X66302645Y-58698266D01*
X65726144Y-59083471D01*
X65340939Y-59659972D01*
X65205673Y-60340000D01*
X64008700Y-60340000D01*
X64008700Y-55136266D01*
X67704539Y-55136266D01*
X68016687Y-55584932D01*
X69259543Y-56103331D01*
X70606176Y-56106648D01*
X71851571Y-55594380D01*
X71865713Y-55584932D01*
X72177861Y-55136266D01*
X69941200Y-52899605D01*
X67704539Y-55136266D01*
X64008700Y-55136266D01*
X64008700Y-53384976D01*
X66554552Y-53384976D01*
X67066820Y-54630371D01*
X67076268Y-54644513D01*
X67524934Y-54956661D01*
X69761595Y-52720000D01*
X70120805Y-52720000D01*
X72357466Y-54956661D01*
X72806132Y-54644513D01*
X73324531Y-53401657D01*
X73327848Y-52055024D01*
X72815580Y-50809629D01*
X72806132Y-50795487D01*
X72357466Y-50483339D01*
X70120805Y-52720000D01*
X69761595Y-52720000D01*
X67524934Y-50483339D01*
X67076268Y-50795487D01*
X66557869Y-52038343D01*
X66554552Y-53384976D01*
X64008700Y-53384976D01*
X64008700Y-50303734D01*
X67704539Y-50303734D01*
X69941200Y-52540395D01*
X72177861Y-50303734D01*
X71865713Y-49855068D01*
X70622857Y-49336669D01*
X69276224Y-49333352D01*
X68030829Y-49845620D01*
X68016687Y-49855068D01*
X67704539Y-50303734D01*
X64008700Y-50303734D01*
X64008700Y-46787500D01*
X96873700Y-46787500D01*
X96873700Y-144626900D01*
X96873700Y-144626900D01*
G37*
X96873700Y-144626900D02*
X64008700Y-144626900D01*
X64008700Y-141110666D01*
X67704539Y-141110666D01*
X68016687Y-141559332D01*
X69259543Y-142077731D01*
X70606176Y-142081048D01*
X71851571Y-141568780D01*
X71865713Y-141559332D01*
X72177861Y-141110666D01*
X69941200Y-138874005D01*
X67704539Y-141110666D01*
X64008700Y-141110666D01*
X64008700Y-139359376D01*
X66554552Y-139359376D01*
X67066820Y-140604771D01*
X67076268Y-140618913D01*
X67524934Y-140931061D01*
X69761595Y-138694400D01*
X70120805Y-138694400D01*
X72357466Y-140931061D01*
X72806132Y-140618913D01*
X73324531Y-139376057D01*
X73327848Y-138029424D01*
X72815580Y-136784029D01*
X72806132Y-136769887D01*
X72357466Y-136457739D01*
X70120805Y-138694400D01*
X69761595Y-138694400D01*
X67524934Y-136457739D01*
X67076268Y-136769887D01*
X66557869Y-138012743D01*
X66554552Y-139359376D01*
X64008700Y-139359376D01*
X64008700Y-136278134D01*
X67704539Y-136278134D01*
X69941200Y-138514795D01*
X72177861Y-136278134D01*
X71865713Y-135829468D01*
X70622857Y-135311069D01*
X69276224Y-135307752D01*
X68030829Y-135820020D01*
X68016687Y-135829468D01*
X67704539Y-136278134D01*
X64008700Y-136278134D01*
X64008700Y-131100000D01*
X65205673Y-131100000D01*
X65340939Y-131780028D01*
X65726144Y-132356529D01*
X66302645Y-132741734D01*
X66982673Y-132877000D01*
X68479727Y-132877000D01*
X69159755Y-132741734D01*
X69736256Y-132356529D01*
X70121461Y-131780028D01*
X70256727Y-131100000D01*
X70121461Y-130419972D01*
X69736256Y-129843471D01*
X69159755Y-129458266D01*
X68479727Y-129323000D01*
X66982673Y-129323000D01*
X66302645Y-129458266D01*
X65726144Y-129843471D01*
X65340939Y-130419972D01*
X65205673Y-131100000D01*
X64008700Y-131100000D01*
X64008700Y-124357600D01*
X64803400Y-124357600D01*
X64803400Y-126564400D01*
X64885625Y-126977775D01*
X65119783Y-127328217D01*
X65815383Y-128023817D01*
X66165825Y-128257975D01*
X66556223Y-128335630D01*
X66704798Y-128484464D01*
X67240113Y-128706746D01*
X67819744Y-128707252D01*
X68355446Y-128485904D01*
X68765664Y-128076402D01*
X68987946Y-127541087D01*
X68988246Y-127197446D01*
X69254798Y-127464464D01*
X69790113Y-127686746D01*
X70369744Y-127687252D01*
X70905446Y-127465904D01*
X71315664Y-127056402D01*
X71537946Y-126521087D01*
X71538007Y-126450827D01*
X75084214Y-122904619D01*
X75084217Y-122904617D01*
X75318375Y-122554175D01*
X75318376Y-122554174D01*
X75400601Y-122140800D01*
X75400600Y-122140795D01*
X75400600Y-119865866D01*
X89050939Y-119865866D01*
X89363087Y-120314532D01*
X90605943Y-120832931D01*
X91952576Y-120836248D01*
X93197971Y-120323980D01*
X93212113Y-120314532D01*
X93524261Y-119865866D01*
X91287600Y-117629205D01*
X89050939Y-119865866D01*
X75400600Y-119865866D01*
X75400600Y-118405034D01*
X75691057Y-118114576D01*
X87900952Y-118114576D01*
X88413220Y-119359971D01*
X88422668Y-119374113D01*
X88871334Y-119686261D01*
X91107995Y-117449600D01*
X91467205Y-117449600D01*
X93703866Y-119686261D01*
X94152532Y-119374113D01*
X94670931Y-118131257D01*
X94674248Y-116784624D01*
X94161980Y-115539229D01*
X94152532Y-115525087D01*
X93703866Y-115212939D01*
X91467205Y-117449600D01*
X91107995Y-117449600D01*
X88871334Y-115212939D01*
X88422668Y-115525087D01*
X87904269Y-116767943D01*
X87900952Y-118114576D01*
X75691057Y-118114576D01*
X78772299Y-115033334D01*
X89050939Y-115033334D01*
X91287600Y-117269995D01*
X93524261Y-115033334D01*
X93212113Y-114584668D01*
X91969257Y-114066269D01*
X90622624Y-114062952D01*
X89377229Y-114575220D01*
X89363087Y-114584668D01*
X89050939Y-115033334D01*
X78772299Y-115033334D01*
X85437380Y-108368253D01*
X85863761Y-108653152D01*
X86486387Y-108777000D01*
X86856013Y-108777000D01*
X87478639Y-108653152D01*
X87941200Y-108344079D01*
X88403761Y-108653152D01*
X89026387Y-108777000D01*
X89396013Y-108777000D01*
X90018639Y-108653152D01*
X90546476Y-108300463D01*
X90899165Y-107772626D01*
X91023013Y-107150000D01*
X90899165Y-106527374D01*
X90546476Y-105999537D01*
X90146107Y-105732019D01*
X90469020Y-105443308D01*
X90703518Y-104951185D01*
X90580856Y-104737000D01*
X89338200Y-104737000D01*
X89338200Y-104757000D01*
X89084200Y-104757000D01*
X89084200Y-104737000D01*
X89064200Y-104737000D01*
X89064200Y-104483000D01*
X89084200Y-104483000D01*
X89084200Y-104463000D01*
X89338200Y-104463000D01*
X89338200Y-104483000D01*
X90580856Y-104483000D01*
X90703518Y-104268815D01*
X90469020Y-103776692D01*
X90146107Y-103487981D01*
X90546476Y-103220463D01*
X90899165Y-102692626D01*
X91023013Y-102070000D01*
X90899165Y-101447374D01*
X90546476Y-100919537D01*
X90367576Y-100800000D01*
X90546476Y-100680463D01*
X90899165Y-100152626D01*
X91023013Y-99530000D01*
X90899165Y-98907374D01*
X90546476Y-98379537D01*
X90146107Y-98112019D01*
X90469020Y-97823308D01*
X90703518Y-97331185D01*
X90580856Y-97117000D01*
X89338200Y-97117000D01*
X89338200Y-97137000D01*
X89084200Y-97137000D01*
X89084200Y-97117000D01*
X86798200Y-97117000D01*
X86798200Y-97137000D01*
X86544200Y-97137000D01*
X86544200Y-97117000D01*
X85301544Y-97117000D01*
X85178882Y-97331185D01*
X85413380Y-97823308D01*
X85736293Y-98112019D01*
X85335924Y-98379537D01*
X85288976Y-98449800D01*
X72652400Y-98449800D01*
X72239025Y-98532025D01*
X71888583Y-98766183D01*
X70242316Y-100412450D01*
X70256727Y-100340000D01*
X70121461Y-99659972D01*
X69736256Y-99083471D01*
X69159755Y-98698266D01*
X68479727Y-98563000D01*
X66982673Y-98563000D01*
X66302645Y-98698266D01*
X65726144Y-99083471D01*
X65340939Y-99659972D01*
X65205673Y-100340000D01*
X65340939Y-101020028D01*
X65726144Y-101596529D01*
X66302645Y-101981734D01*
X66982673Y-102117000D01*
X68479727Y-102117000D01*
X68552177Y-102102589D01*
X68178583Y-102476183D01*
X67944425Y-102826625D01*
X67862200Y-103240000D01*
X67862200Y-104039130D01*
X67695377Y-103982125D01*
X67212993Y-104012763D01*
X66909632Y-104138419D01*
X66862588Y-104361783D01*
X67531200Y-105030395D01*
X67545343Y-105016253D01*
X67724948Y-105195858D01*
X67710805Y-105210000D01*
X67724948Y-105224143D01*
X67545343Y-105403748D01*
X67531200Y-105389605D01*
X67517058Y-105403748D01*
X67337453Y-105224143D01*
X67351595Y-105210000D01*
X66682983Y-104541388D01*
X66459619Y-104588432D01*
X66303325Y-105045823D01*
X66333963Y-105528207D01*
X66459619Y-105831568D01*
X66682981Y-105878611D01*
X66567189Y-105994403D01*
X66646866Y-106074080D01*
X66296736Y-106423598D01*
X66074454Y-106958913D01*
X66073948Y-107538544D01*
X66295296Y-108074246D01*
X66704798Y-108484464D01*
X67240113Y-108706746D01*
X67465523Y-108706943D01*
X67750225Y-108897175D01*
X68163600Y-108979400D01*
X74269600Y-108979400D01*
X74682975Y-108897175D01*
X75033417Y-108663017D01*
X75033418Y-108663016D01*
X79289033Y-104407400D01*
X81923367Y-104407400D01*
X70508583Y-115822183D01*
X70274425Y-116172625D01*
X70192200Y-116586000D01*
X70192200Y-120015601D01*
X70121461Y-119659972D01*
X69736256Y-119083471D01*
X69159755Y-118698266D01*
X68479727Y-118563000D01*
X66982673Y-118563000D01*
X66302645Y-118698266D01*
X65726144Y-119083471D01*
X65340939Y-119659972D01*
X65205673Y-120340000D01*
X65340939Y-121020028D01*
X65726144Y-121596529D01*
X66302645Y-121981734D01*
X66660625Y-122052941D01*
X65119783Y-123593783D01*
X64885625Y-123944225D01*
X64803400Y-124357600D01*
X64008700Y-124357600D01*
X64008700Y-111100000D01*
X65205673Y-111100000D01*
X65340939Y-111780028D01*
X65726144Y-112356529D01*
X66302645Y-112741734D01*
X66982673Y-112877000D01*
X68479727Y-112877000D01*
X69159755Y-112741734D01*
X69736256Y-112356529D01*
X70121461Y-111780028D01*
X70256727Y-111100000D01*
X70121461Y-110419972D01*
X69736256Y-109843471D01*
X69159755Y-109458266D01*
X68479727Y-109323000D01*
X66982673Y-109323000D01*
X66302645Y-109458266D01*
X65726144Y-109843471D01*
X65340939Y-110419972D01*
X65205673Y-111100000D01*
X64008700Y-111100000D01*
X64008700Y-96648815D01*
X85178882Y-96648815D01*
X85301544Y-96863000D01*
X86544200Y-96863000D01*
X86544200Y-94577000D01*
X85337383Y-94577000D01*
X85216242Y-94809026D01*
X85388512Y-95224947D01*
X85782710Y-95656821D01*
X85967389Y-95743376D01*
X85816601Y-95796179D01*
X85413380Y-96156692D01*
X85178882Y-96648815D01*
X64008700Y-96648815D01*
X64008700Y-86935600D01*
X65029800Y-86935600D01*
X65029800Y-88474800D01*
X65112025Y-88888175D01*
X65346183Y-89238617D01*
X65860958Y-89753392D01*
X65726144Y-89843471D01*
X65340939Y-90419972D01*
X65205673Y-91100000D01*
X65340939Y-91780028D01*
X65726144Y-92356529D01*
X66302645Y-92741734D01*
X66982673Y-92877000D01*
X68479727Y-92877000D01*
X69159755Y-92741734D01*
X69736256Y-92356529D01*
X70121461Y-91780028D01*
X70256727Y-91100000D01*
X70241223Y-91022057D01*
X73099383Y-93880217D01*
X73449825Y-94114375D01*
X73863200Y-94196600D01*
X85271389Y-94196600D01*
X85337383Y-94323000D01*
X86544200Y-94323000D01*
X86544200Y-94303000D01*
X86798200Y-94303000D01*
X86798200Y-94323000D01*
X86818200Y-94323000D01*
X86818200Y-94577000D01*
X86798200Y-94577000D01*
X86798200Y-96863000D01*
X89084200Y-96863000D01*
X89084200Y-96843000D01*
X89338200Y-96843000D01*
X89338200Y-96863000D01*
X90580856Y-96863000D01*
X90703518Y-96648815D01*
X90469020Y-96156692D01*
X90167420Y-95887037D01*
X90476090Y-95680790D01*
X90853405Y-95116099D01*
X90985900Y-94450000D01*
X90853405Y-93783901D01*
X90476090Y-93219210D01*
X90392492Y-93163352D01*
X90546476Y-93060463D01*
X90899165Y-92532626D01*
X91023013Y-91910000D01*
X90899165Y-91287374D01*
X90546476Y-90759537D01*
X90146107Y-90492019D01*
X90469020Y-90203308D01*
X90703518Y-89711185D01*
X90580856Y-89497000D01*
X89338200Y-89497000D01*
X89338200Y-89517000D01*
X89084200Y-89517000D01*
X89084200Y-89497000D01*
X86798200Y-89497000D01*
X86798200Y-89517000D01*
X86544200Y-89517000D01*
X86544200Y-89497000D01*
X85301544Y-89497000D01*
X85272909Y-89547000D01*
X77075833Y-89547000D01*
X74700019Y-87171185D01*
X85178882Y-87171185D01*
X85413380Y-87663308D01*
X85816601Y-88023821D01*
X86034143Y-88100000D01*
X85816601Y-88176179D01*
X85413380Y-88536692D01*
X85178882Y-89028815D01*
X85301544Y-89243000D01*
X86544200Y-89243000D01*
X86544200Y-88142698D01*
X86480393Y-88100000D01*
X86544200Y-88057302D01*
X86544200Y-86957000D01*
X85301544Y-86957000D01*
X85178882Y-87171185D01*
X74700019Y-87171185D01*
X71538358Y-84009524D01*
X71538452Y-83901456D01*
X71317104Y-83365754D01*
X70907602Y-82955536D01*
X70372287Y-82733254D01*
X69792656Y-82732748D01*
X69256954Y-82954096D01*
X68846736Y-83363598D01*
X68624454Y-83898913D01*
X68623948Y-84478544D01*
X68845296Y-85014246D01*
X68980613Y-85149800D01*
X68744824Y-85149800D01*
X68728437Y-84891793D01*
X68602781Y-84588432D01*
X68379417Y-84541388D01*
X67771005Y-85149800D01*
X67291395Y-85149800D01*
X66682983Y-84541388D01*
X66459619Y-84588432D01*
X66303325Y-85045823D01*
X66318696Y-85287837D01*
X66051783Y-85466183D01*
X65346183Y-86171783D01*
X65112025Y-86522225D01*
X65029800Y-86935600D01*
X64008700Y-86935600D01*
X64008700Y-84361783D01*
X66862588Y-84361783D01*
X67531200Y-85030395D01*
X68199812Y-84361783D01*
X68152768Y-84138419D01*
X67695377Y-83982125D01*
X67212993Y-84012763D01*
X66909632Y-84138419D01*
X66862588Y-84361783D01*
X64008700Y-84361783D01*
X64008700Y-80340000D01*
X65205673Y-80340000D01*
X65340939Y-81020028D01*
X65726144Y-81596529D01*
X66302645Y-81981734D01*
X66982673Y-82117000D01*
X68479727Y-82117000D01*
X69159755Y-81981734D01*
X69736256Y-81596529D01*
X70121461Y-81020028D01*
X70256727Y-80340000D01*
X70121461Y-79659972D01*
X69736256Y-79083471D01*
X69159755Y-78698266D01*
X68479727Y-78563000D01*
X66982673Y-78563000D01*
X66302645Y-78698266D01*
X65726144Y-79083471D01*
X65340939Y-79659972D01*
X65205673Y-80340000D01*
X64008700Y-80340000D01*
X64008700Y-71100000D01*
X65205673Y-71100000D01*
X65340939Y-71780028D01*
X65726144Y-72356529D01*
X66302645Y-72741734D01*
X66982673Y-72877000D01*
X68479727Y-72877000D01*
X69159755Y-72741734D01*
X69736256Y-72356529D01*
X70121461Y-71780028D01*
X70256727Y-71100000D01*
X70121461Y-70419972D01*
X69736256Y-69843471D01*
X69159755Y-69458266D01*
X68479727Y-69323000D01*
X66982673Y-69323000D01*
X66302645Y-69458266D01*
X65726144Y-69843471D01*
X65340939Y-70419972D01*
X65205673Y-71100000D01*
X64008700Y-71100000D01*
X64008700Y-67538544D01*
X66073948Y-67538544D01*
X66295296Y-68074246D01*
X66704798Y-68484464D01*
X67240113Y-68706746D01*
X67819744Y-68707252D01*
X68355446Y-68485904D01*
X68511422Y-68330200D01*
X73254166Y-68330200D01*
X82841400Y-77917433D01*
X82841400Y-84429600D01*
X82923625Y-84842975D01*
X83157783Y-85193417D01*
X84376983Y-86412617D01*
X84727425Y-86646775D01*
X85140800Y-86729000D01*
X86818200Y-86729000D01*
X86818200Y-86957000D01*
X86798200Y-86957000D01*
X86798200Y-88057302D01*
X86862007Y-88100000D01*
X86798200Y-88142698D01*
X86798200Y-89243000D01*
X89084200Y-89243000D01*
X89084200Y-89223000D01*
X89338200Y-89223000D01*
X89338200Y-89243000D01*
X90580856Y-89243000D01*
X90703518Y-89028815D01*
X90469020Y-88536692D01*
X90146107Y-88247981D01*
X90546476Y-87980463D01*
X90899165Y-87452626D01*
X91023013Y-86830000D01*
X90899165Y-86207374D01*
X90546476Y-85679537D01*
X90367576Y-85560000D01*
X90546476Y-85440463D01*
X90899165Y-84912626D01*
X91023013Y-84290000D01*
X90899165Y-83667374D01*
X90546476Y-83139537D01*
X90291400Y-82969101D01*
X90291400Y-76714400D01*
X90209175Y-76301025D01*
X89975017Y-75950583D01*
X77470617Y-63446183D01*
X77120175Y-63212025D01*
X76706800Y-63129800D01*
X71081562Y-63129800D01*
X70907602Y-62955536D01*
X70372287Y-62733254D01*
X69792656Y-62732748D01*
X69256954Y-62954096D01*
X68846736Y-63363598D01*
X68624454Y-63898913D01*
X68623948Y-64478544D01*
X68845296Y-65014246D01*
X69040690Y-65209982D01*
X68846736Y-65403598D01*
X68624454Y-65938913D01*
X68624252Y-66169800D01*
X68511597Y-66169800D01*
X68415789Y-66073825D01*
X68495211Y-65994403D01*
X68379419Y-65878611D01*
X68602781Y-65831568D01*
X68759075Y-65374177D01*
X68728437Y-64891793D01*
X68602781Y-64588432D01*
X68379417Y-64541388D01*
X67710805Y-65210000D01*
X67724948Y-65224143D01*
X67545343Y-65403748D01*
X67531200Y-65389605D01*
X67517058Y-65403748D01*
X67337453Y-65224143D01*
X67351595Y-65210000D01*
X66682983Y-64541388D01*
X66459619Y-64588432D01*
X66303325Y-65045823D01*
X66333963Y-65528207D01*
X66459619Y-65831568D01*
X66682981Y-65878611D01*
X66567189Y-65994403D01*
X66646866Y-66074080D01*
X66296736Y-66423598D01*
X66074454Y-66958913D01*
X66073948Y-67538544D01*
X64008700Y-67538544D01*
X64008700Y-64361783D01*
X66862588Y-64361783D01*
X67531200Y-65030395D01*
X68199812Y-64361783D01*
X68152768Y-64138419D01*
X67695377Y-63982125D01*
X67212993Y-64012763D01*
X66909632Y-64138419D01*
X66862588Y-64361783D01*
X64008700Y-64361783D01*
X64008700Y-60340000D01*
X65205673Y-60340000D01*
X65340939Y-61020028D01*
X65726144Y-61596529D01*
X66302645Y-61981734D01*
X66982673Y-62117000D01*
X68479727Y-62117000D01*
X69159755Y-61981734D01*
X69736256Y-61596529D01*
X70121461Y-61020028D01*
X70256727Y-60340000D01*
X70121461Y-59659972D01*
X69736256Y-59083471D01*
X69159755Y-58698266D01*
X68479727Y-58563000D01*
X66982673Y-58563000D01*
X66302645Y-58698266D01*
X65726144Y-59083471D01*
X65340939Y-59659972D01*
X65205673Y-60340000D01*
X64008700Y-60340000D01*
X64008700Y-55136266D01*
X67704539Y-55136266D01*
X68016687Y-55584932D01*
X69259543Y-56103331D01*
X70606176Y-56106648D01*
X71851571Y-55594380D01*
X71865713Y-55584932D01*
X72177861Y-55136266D01*
X69941200Y-52899605D01*
X67704539Y-55136266D01*
X64008700Y-55136266D01*
X64008700Y-53384976D01*
X66554552Y-53384976D01*
X67066820Y-54630371D01*
X67076268Y-54644513D01*
X67524934Y-54956661D01*
X69761595Y-52720000D01*
X70120805Y-52720000D01*
X72357466Y-54956661D01*
X72806132Y-54644513D01*
X73324531Y-53401657D01*
X73327848Y-52055024D01*
X72815580Y-50809629D01*
X72806132Y-50795487D01*
X72357466Y-50483339D01*
X70120805Y-52720000D01*
X69761595Y-52720000D01*
X67524934Y-50483339D01*
X67076268Y-50795487D01*
X66557869Y-52038343D01*
X66554552Y-53384976D01*
X64008700Y-53384976D01*
X64008700Y-50303734D01*
X67704539Y-50303734D01*
X69941200Y-52540395D01*
X72177861Y-50303734D01*
X71865713Y-49855068D01*
X70622857Y-49336669D01*
X69276224Y-49333352D01*
X68030829Y-49845620D01*
X68016687Y-49855068D01*
X67704539Y-50303734D01*
X64008700Y-50303734D01*
X64008700Y-46787500D01*
X96873700Y-46787500D01*
X96873700Y-144626900D01*
G36*
X68624454Y-123898913D02*
X68623948Y-124478544D01*
X68845296Y-125014246D01*
X69040690Y-125209982D01*
X68846736Y-125403598D01*
X68624454Y-125938913D01*
X68624154Y-126282554D01*
X68415789Y-126073825D01*
X68495211Y-125994403D01*
X68379419Y-125878611D01*
X68602781Y-125831568D01*
X68759075Y-125374177D01*
X68728437Y-124891793D01*
X68602781Y-124588432D01*
X68379417Y-124541388D01*
X67710805Y-125210000D01*
X67724948Y-125224143D01*
X67545343Y-125403748D01*
X67531200Y-125389605D01*
X67517058Y-125403748D01*
X67337453Y-125224143D01*
X67351595Y-125210000D01*
X67337453Y-125195858D01*
X67517058Y-125016253D01*
X67531200Y-125030395D01*
X68199812Y-124361783D01*
X68152768Y-124138419D01*
X67763448Y-124005386D01*
X67955834Y-123813000D01*
X68660128Y-123813000D01*
X68624454Y-123898913D01*
X68624454Y-123898913D01*
G37*
X68624454Y-123898913D02*
X68623948Y-124478544D01*
X68845296Y-125014246D01*
X69040690Y-125209982D01*
X68846736Y-125403598D01*
X68624454Y-125938913D01*
X68624154Y-126282554D01*
X68415789Y-126073825D01*
X68495211Y-125994403D01*
X68379419Y-125878611D01*
X68602781Y-125831568D01*
X68759075Y-125374177D01*
X68728437Y-124891793D01*
X68602781Y-124588432D01*
X68379417Y-124541388D01*
X67710805Y-125210000D01*
X67724948Y-125224143D01*
X67545343Y-125403748D01*
X67531200Y-125389605D01*
X67517058Y-125403748D01*
X67337453Y-125224143D01*
X67351595Y-125210000D01*
X67337453Y-125195858D01*
X67517058Y-125016253D01*
X67531200Y-125030395D01*
X68199812Y-124361783D01*
X68152768Y-124138419D01*
X67763448Y-124005386D01*
X67955834Y-123813000D01*
X68660128Y-123813000D01*
X68624454Y-123898913D01*
G36*
X85301544Y-101943000D02*
X86544200Y-101943000D01*
X86544200Y-101923000D01*
X86798200Y-101923000D01*
X86798200Y-101943000D01*
X86818200Y-101943000D01*
X86818200Y-102197000D01*
X86798200Y-102197000D01*
X86798200Y-102217000D01*
X86544200Y-102217000D01*
X86544200Y-102197000D01*
X85301544Y-102197000D01*
X85272909Y-102247000D01*
X78841600Y-102247000D01*
X78428225Y-102329225D01*
X78405876Y-102344158D01*
X78882634Y-101867400D01*
X85258248Y-101867400D01*
X85301544Y-101943000D01*
X85301544Y-101943000D01*
G37*
X85301544Y-101943000D02*
X86544200Y-101943000D01*
X86544200Y-101923000D01*
X86798200Y-101923000D01*
X86798200Y-101943000D01*
X86818200Y-101943000D01*
X86818200Y-102197000D01*
X86798200Y-102197000D01*
X86798200Y-102217000D01*
X86544200Y-102217000D01*
X86544200Y-102197000D01*
X85301544Y-102197000D01*
X85272909Y-102247000D01*
X78841600Y-102247000D01*
X78428225Y-102329225D01*
X78405876Y-102344158D01*
X78882634Y-101867400D01*
X85258248Y-101867400D01*
X85301544Y-101943000D01*
M02*
