G04 #@! TF.FileFunction,Drawing*
%FSLAX46Y46*%
G04 Gerber Fmt 4.6, Leading zero omitted, Abs format (unit mm)*
G04 Created by KiCad (PCBNEW 4.0.4+e1-6308~48~ubuntu15.10.1-stable) date Tue Jun 20 15:04:26 2017*
%MOMM*%
%LPD*%
G01*
G04 APERTURE LIST*
%ADD10C,0.150000*%
%ADD11C,0.381000*%
G04 APERTURE END LIST*
D10*
D11*
X62941200Y-95720000D02*
X65125600Y-95720000D01*
D10*
X89954267Y-114151981D02*
X89620933Y-113675790D01*
X89382838Y-114151981D02*
X89382838Y-113151981D01*
X89763791Y-113151981D01*
X89859029Y-113199600D01*
X89906648Y-113247219D01*
X89954267Y-113342457D01*
X89954267Y-113485314D01*
X89906648Y-113580552D01*
X89859029Y-113628171D01*
X89763791Y-113675790D01*
X89382838Y-113675790D01*
X90382838Y-113628171D02*
X90716172Y-113628171D01*
X90859029Y-114151981D02*
X90382838Y-114151981D01*
X90382838Y-113151981D01*
X90859029Y-113151981D01*
X91620934Y-113628171D02*
X91287600Y-113628171D01*
X91287600Y-114151981D02*
X91287600Y-113151981D01*
X91763791Y-113151981D01*
X92287600Y-113151981D02*
X92287600Y-113390076D01*
X92049505Y-113294838D02*
X92287600Y-113390076D01*
X92525696Y-113294838D01*
X92144743Y-113580552D02*
X92287600Y-113390076D01*
X92430458Y-113580552D01*
X93049505Y-113151981D02*
X93049505Y-113390076D01*
X92811410Y-113294838D02*
X93049505Y-113390076D01*
X93287601Y-113294838D01*
X92906648Y-113580552D02*
X93049505Y-113390076D01*
X93192363Y-113580552D01*
X68607867Y-135396781D02*
X68274533Y-134920590D01*
X68036438Y-135396781D02*
X68036438Y-134396781D01*
X68417391Y-134396781D01*
X68512629Y-134444400D01*
X68560248Y-134492019D01*
X68607867Y-134587257D01*
X68607867Y-134730114D01*
X68560248Y-134825352D01*
X68512629Y-134872971D01*
X68417391Y-134920590D01*
X68036438Y-134920590D01*
X69036438Y-134872971D02*
X69369772Y-134872971D01*
X69512629Y-135396781D02*
X69036438Y-135396781D01*
X69036438Y-134396781D01*
X69512629Y-134396781D01*
X70274534Y-134872971D02*
X69941200Y-134872971D01*
X69941200Y-135396781D02*
X69941200Y-134396781D01*
X70417391Y-134396781D01*
X70941200Y-134396781D02*
X70941200Y-134634876D01*
X70703105Y-134539638D02*
X70941200Y-134634876D01*
X71179296Y-134539638D01*
X70798343Y-134825352D02*
X70941200Y-134634876D01*
X71084058Y-134825352D01*
X71703105Y-134396781D02*
X71703105Y-134634876D01*
X71465010Y-134539638D02*
X71703105Y-134634876D01*
X71941201Y-134539638D01*
X71560248Y-134825352D02*
X71703105Y-134634876D01*
X71845963Y-134825352D01*
X68607867Y-49422381D02*
X68274533Y-48946190D01*
X68036438Y-49422381D02*
X68036438Y-48422381D01*
X68417391Y-48422381D01*
X68512629Y-48470000D01*
X68560248Y-48517619D01*
X68607867Y-48612857D01*
X68607867Y-48755714D01*
X68560248Y-48850952D01*
X68512629Y-48898571D01*
X68417391Y-48946190D01*
X68036438Y-48946190D01*
X69036438Y-48898571D02*
X69369772Y-48898571D01*
X69512629Y-49422381D02*
X69036438Y-49422381D01*
X69036438Y-48422381D01*
X69512629Y-48422381D01*
X70274534Y-48898571D02*
X69941200Y-48898571D01*
X69941200Y-49422381D02*
X69941200Y-48422381D01*
X70417391Y-48422381D01*
X70941200Y-48422381D02*
X70941200Y-48660476D01*
X70703105Y-48565238D02*
X70941200Y-48660476D01*
X71179296Y-48565238D01*
X70798343Y-48850952D02*
X70941200Y-48660476D01*
X71084058Y-48850952D01*
X71703105Y-48422381D02*
X71703105Y-48660476D01*
X71465010Y-48565238D02*
X71703105Y-48660476D01*
X71941201Y-48565238D01*
X71560248Y-48850952D02*
X71703105Y-48660476D01*
X71845963Y-48850952D01*
M02*
