G04 #@! TF.FileFunction,Soldermask,Top*
%FSLAX46Y46*%
G04 Gerber Fmt 4.6, Leading zero omitted, Abs format (unit mm)*
G04 Created by KiCad (PCBNEW 4.0.4+e1-6308~48~ubuntu15.10.1-stable) date Tue Jun 20 15:04:26 2017*
%MOMM*%
%LPD*%
G01*
G04 APERTURE LIST*
%ADD10C,0.150000*%
%ADD11R,2.235200X2.235200*%
%ADD12O,2.308000X2.008000*%
%ADD13O,2.235200X2.235200*%
%ADD14C,6.008000*%
%ADD15C,1.668000*%
%ADD16O,3.708000X2.308000*%
G04 APERTURE END LIST*
D10*
D11*
X86671200Y-84290000D03*
D12*
X89211200Y-84290000D03*
X86671200Y-86830000D03*
X89211200Y-86830000D03*
X86671200Y-89370000D03*
X89211200Y-89370000D03*
X86671200Y-91910000D03*
X89211200Y-91910000D03*
D13*
X86671200Y-94450000D03*
X89211200Y-94450000D03*
D12*
X86671200Y-96990000D03*
X89211200Y-96990000D03*
X86671200Y-99530000D03*
X89211200Y-99530000D03*
X86671200Y-102070000D03*
X89211200Y-102070000D03*
X86671200Y-104610000D03*
X89211200Y-104610000D03*
X86671200Y-107150000D03*
X89211200Y-107150000D03*
D14*
X91287600Y-117449600D03*
X69941200Y-138694400D03*
D15*
X70081200Y-126230000D03*
X70081200Y-124190000D03*
X67531200Y-125210000D03*
X67531200Y-127250000D03*
D16*
X67731200Y-131100000D03*
X67731200Y-120340000D03*
D15*
X70081200Y-106230000D03*
X70081200Y-104190000D03*
X67531200Y-105210000D03*
X67531200Y-107250000D03*
D16*
X67731200Y-111100000D03*
X67731200Y-100340000D03*
D15*
X70081200Y-86230000D03*
X70081200Y-84190000D03*
X67531200Y-85210000D03*
X67531200Y-87250000D03*
D16*
X67731200Y-91100000D03*
X67731200Y-80340000D03*
D15*
X70081200Y-66230000D03*
X70081200Y-64190000D03*
X67531200Y-65210000D03*
X67531200Y-67250000D03*
D16*
X67731200Y-71100000D03*
X67731200Y-60340000D03*
D14*
X69941200Y-52720000D03*
M02*
