G04 #@! TF.FileFunction,Profile,NP*
%FSLAX46Y46*%
G04 Gerber Fmt 4.6, Leading zero omitted, Abs format (unit mm)*
G04 Created by KiCad (PCBNEW 4.0.4+e1-6308~48~ubuntu15.10.1-stable) date Wed Nov  1 08:52:22 2017*
%MOMM*%
%LPD*%
G01*
G04 APERTURE LIST*
%ADD10C,0.100000*%
G04 APERTURE END LIST*
D10*
X221265754Y-104899645D02*
X221265754Y-93099645D01*
X221265754Y-105199645D02*
X221265754Y-104899645D01*
X232065754Y-105199645D02*
X221265754Y-105199645D01*
X232065754Y-93099645D02*
X232065754Y-105199645D01*
X221265754Y-93099645D02*
X232065754Y-93099645D01*
X221265754Y-83899645D02*
X221265754Y-72099645D01*
X221265754Y-84199645D02*
X221265754Y-83899645D01*
X232065754Y-84199645D02*
X221265754Y-84199645D01*
X232065754Y-72099645D02*
X232065754Y-84199645D01*
X221265754Y-72099645D02*
X232065754Y-72099645D01*
X201265754Y-83899645D02*
X201265754Y-72099645D01*
X201265754Y-84199645D02*
X201265754Y-83899645D01*
X212065754Y-84199645D02*
X201265754Y-84199645D01*
X212065754Y-72099645D02*
X212065754Y-84199645D01*
X201265754Y-72099645D02*
X212065754Y-72099645D01*
X201265754Y-104899645D02*
X201265754Y-93099645D01*
X201265754Y-105199645D02*
X201265754Y-104899645D01*
X212065754Y-105199645D02*
X201265754Y-105199645D01*
X212065754Y-93099645D02*
X212065754Y-105199645D01*
X201265754Y-93099645D02*
X212065754Y-93099645D01*
X181275754Y-104899645D02*
X181275754Y-93099645D01*
X181275754Y-105199645D02*
X181275754Y-104899645D01*
X192075754Y-105199645D02*
X181275754Y-105199645D01*
X192075754Y-93099645D02*
X192075754Y-105199645D01*
X181275754Y-93099645D02*
X192075754Y-93099645D01*
X181275754Y-83899645D02*
X181275754Y-72099645D01*
X181275754Y-84199645D02*
X181275754Y-83899645D01*
X192075754Y-84199645D02*
X181275754Y-84199645D01*
X192075754Y-72099645D02*
X192075754Y-84199645D01*
X181275754Y-72099645D02*
X192075754Y-72099645D01*
X161275754Y-83899645D02*
X161275754Y-72099645D01*
X161275754Y-84199645D02*
X161275754Y-83899645D01*
X172075754Y-84199645D02*
X161275754Y-84199645D01*
X172075754Y-72099645D02*
X172075754Y-84199645D01*
X161275754Y-72099645D02*
X172075754Y-72099645D01*
X161275754Y-105199645D02*
X161275754Y-104899645D01*
X172075754Y-105199645D02*
X161275754Y-105199645D01*
X172075754Y-93099645D02*
X172075754Y-105199645D01*
X161275754Y-93099645D02*
X172075754Y-93099645D01*
X161275754Y-104899645D02*
X161275754Y-93099645D01*
X248170754Y-68089645D02*
X248170754Y-113109645D01*
X145170754Y-113109645D02*
X145170754Y-68089645D01*
X145170754Y-68089645D02*
G75*
G02X149160754Y-64099645I3990000J0D01*
G01*
X149160754Y-117099645D02*
G75*
G02X145170754Y-113109645I0J3990000D01*
G01*
X244180754Y-117099645D02*
X149160754Y-117099645D01*
X248170754Y-113109645D02*
G75*
G02X244180754Y-117099645I-3990000J0D01*
G01*
X244180754Y-64099645D02*
G75*
G02X248170754Y-68089645I0J-3990000D01*
G01*
X149160754Y-64099645D02*
X244180754Y-64099645D01*
X15145404Y-62850000D02*
X15145404Y-62850000D01*
X-20150000Y64200000D02*
X-20150000Y64200000D01*
X20150000Y-64200000D02*
X20150000Y-64200000D01*
X10254596Y-62850000D02*
X10254596Y-62850000D01*
M02*
