M48
;DRILL file {KiCad 4.0.4+e1-6308~48~ubuntu15.10.1-stable} date Tue Aug  8 09:27:25 2017
;FORMAT={-:-/ absolute / inch / decimal}
FMAT,2
INCH,TZ
T1C0.031
T2C0.039
T3C0.040
T4C0.118
T5C0.126
%
G90
G05
M72
T1
X2.6587Y-2.5673
X2.6587Y-2.6476
X2.6587Y-3.3547
X2.6587Y-3.435
X2.6587Y-4.1421
X2.6587Y-4.2224
X2.6587Y-4.9295
X2.6587Y-5.0098
X2.7591Y-2.5272
X2.7591Y-2.6075
X2.7591Y-3.3146
X2.7591Y-3.3949
X2.7591Y-4.102
X2.7591Y-4.1823
X2.7591Y-4.8894
X2.7591Y-4.9697
T3
X3.4123Y-3.3185
X3.4123Y-3.4185
X3.4123Y-3.5185
X3.4123Y-3.6185
X3.4123Y-3.7185
X3.4123Y-3.8185
X3.4123Y-3.9185
X3.4123Y-4.0185
X3.4123Y-4.1185
X3.4123Y-4.2185
X3.5123Y-3.3185
X3.5123Y-3.4185
X3.5123Y-3.5185
X3.5123Y-3.6185
X3.5123Y-3.7185
X3.5123Y-3.8185
X3.5123Y-3.9185
X3.5123Y-4.0185
X3.5123Y-4.1185
X3.5123Y-4.2185
T4
X2.5894Y-2.0195
X2.5894Y-5.5235
X3.18Y-2.0195
X3.18Y-5.5235
T5
X3.594Y-4.624
T2
X2.6941Y-2.3756G85X2.639Y-2.3756
G05
X2.6941Y-2.7992G85X2.639Y-2.7992
G05
X2.6941Y-3.163G85X2.639Y-3.163
G05
X2.6941Y-3.5866G85X2.639Y-3.5866
G05
X2.6941Y-3.9504G85X2.639Y-3.9504
G05
X2.6941Y-4.374G85X2.639Y-4.374
G05
X2.6941Y-4.7378G85X2.639Y-4.7378
G05
X2.6941Y-5.1614G85X2.639Y-5.1614
G05
T0
M30
