G04 #@! TF.FileFunction,Legend,Top*
%FSLAX46Y46*%
G04 Gerber Fmt 4.6, Leading zero omitted, Abs format (unit mm)*
G04 Created by KiCad (PCBNEW 4.0.4+e1-6308~48~ubuntu15.10.1-stable) date Tue Aug  8 09:27:19 2017*
%MOMM*%
%LPD*%
G01*
G04 APERTURE LIST*
%ADD10C,0.150000*%
%ADD11C,0.200000*%
%ADD12C,0.300000*%
%ADD13C,0.250000*%
%ADD14C,0.010000*%
%ADD15C,0.100000*%
%ADD16C,0.304800*%
G04 APERTURE END LIST*
D10*
X86323555Y-52443571D02*
X86573555Y-52443571D01*
X86615221Y-52967381D02*
X86258078Y-52967381D01*
X86383078Y-51967381D01*
X86740221Y-51967381D01*
X87341412Y-52300714D02*
X87258078Y-52967381D01*
X87019983Y-52300714D02*
X86954507Y-52824524D01*
X86978317Y-52919762D01*
X87043792Y-52967381D01*
X87150935Y-52967381D01*
X87228317Y-52919762D01*
X87269983Y-52872143D01*
X87615220Y-52967381D02*
X87698554Y-52300714D01*
X87674744Y-52491190D02*
X87722364Y-52395952D01*
X87764030Y-52348333D01*
X87841412Y-52300714D01*
X87912840Y-52300714D01*
X88186649Y-52967381D02*
X88121174Y-52919762D01*
X88091411Y-52872143D01*
X88067602Y-52776905D01*
X88103316Y-52491190D01*
X88150935Y-52395952D01*
X88192602Y-52348333D01*
X88269983Y-52300714D01*
X88377126Y-52300714D01*
X88442602Y-52348333D01*
X88472364Y-52395952D01*
X88496173Y-52491190D01*
X88460459Y-52776905D01*
X88412840Y-52872143D01*
X88371174Y-52919762D01*
X88293792Y-52967381D01*
X88186649Y-52967381D01*
X89085459Y-52919762D02*
X89008077Y-52967381D01*
X88865220Y-52967381D01*
X88799745Y-52919762D01*
X88769982Y-52872143D01*
X88746173Y-52776905D01*
X88781887Y-52491190D01*
X88829506Y-52395952D01*
X88871173Y-52348333D01*
X88948554Y-52300714D01*
X89091411Y-52300714D01*
X89156887Y-52348333D01*
X89722363Y-52967381D02*
X89787840Y-52443571D01*
X89764030Y-52348333D01*
X89698554Y-52300714D01*
X89555697Y-52300714D01*
X89478315Y-52348333D01*
X89728316Y-52919762D02*
X89650934Y-52967381D01*
X89472363Y-52967381D01*
X89406887Y-52919762D01*
X89383078Y-52824524D01*
X89394982Y-52729286D01*
X89442601Y-52634048D01*
X89519982Y-52586429D01*
X89698553Y-52586429D01*
X89775935Y-52538810D01*
X90079505Y-52967381D02*
X90162839Y-52300714D01*
X90139029Y-52491190D02*
X90186649Y-52395952D01*
X90228315Y-52348333D01*
X90305697Y-52300714D01*
X90377125Y-52300714D01*
X90865220Y-52967381D02*
X90990220Y-51967381D01*
X90871173Y-52919762D02*
X90793791Y-52967381D01*
X90650934Y-52967381D01*
X90585459Y-52919762D01*
X90555696Y-52872143D01*
X90531887Y-52776905D01*
X90567601Y-52491190D01*
X90615220Y-52395952D01*
X90656887Y-52348333D01*
X90734268Y-52300714D01*
X90877125Y-52300714D01*
X90942601Y-52348333D01*
X91764030Y-52919762D02*
X91865220Y-52967381D01*
X92043791Y-52967381D01*
X92121173Y-52919762D01*
X92162839Y-52872143D01*
X92210459Y-52776905D01*
X92222364Y-52681667D01*
X92198553Y-52586429D01*
X92168792Y-52538810D01*
X92103315Y-52491190D01*
X91966411Y-52443571D01*
X91900935Y-52395952D01*
X91871172Y-52348333D01*
X91847363Y-52253095D01*
X91859268Y-52157857D01*
X91906887Y-52062619D01*
X91948554Y-52015000D01*
X92025934Y-51967381D01*
X92204506Y-51967381D01*
X92305697Y-52015000D01*
X92484269Y-52300714D02*
X92769983Y-52300714D01*
X92633077Y-51967381D02*
X92525935Y-52824524D01*
X92549745Y-52919762D01*
X92615220Y-52967381D01*
X92686649Y-52967381D01*
X93258077Y-52967381D02*
X93323554Y-52443571D01*
X93299744Y-52348333D01*
X93234268Y-52300714D01*
X93091411Y-52300714D01*
X93014029Y-52348333D01*
X93264030Y-52919762D02*
X93186648Y-52967381D01*
X93008077Y-52967381D01*
X92942601Y-52919762D01*
X92918792Y-52824524D01*
X92930696Y-52729286D01*
X92978315Y-52634048D01*
X93055696Y-52586429D01*
X93234267Y-52586429D01*
X93311649Y-52538810D01*
X93942601Y-52919762D02*
X93865219Y-52967381D01*
X93722362Y-52967381D01*
X93656887Y-52919762D01*
X93627124Y-52872143D01*
X93603315Y-52776905D01*
X93639029Y-52491190D01*
X93686648Y-52395952D01*
X93728315Y-52348333D01*
X93805696Y-52300714D01*
X93948553Y-52300714D01*
X94014029Y-52348333D01*
X94258076Y-52967381D02*
X94383076Y-51967381D01*
X94377124Y-52586429D02*
X94543791Y-52967381D01*
X94627125Y-52300714D02*
X94293791Y-52681667D01*
X89394982Y-53950714D02*
X89490219Y-54617381D01*
X89752125Y-53950714D01*
X90031887Y-53712619D02*
X90073553Y-53665000D01*
X90150934Y-53617381D01*
X90329505Y-53617381D01*
X90394982Y-53665000D01*
X90424744Y-53712619D01*
X90448554Y-53807857D01*
X90436649Y-53903095D01*
X90383077Y-54045952D01*
X89883077Y-54617381D01*
X90347363Y-54617381D01*
X90680696Y-54522143D02*
X90710459Y-54569762D01*
X90668791Y-54617381D01*
X90639030Y-54569762D01*
X90680696Y-54522143D01*
X90668791Y-54617381D01*
X91508077Y-53617381D02*
X91150934Y-53617381D01*
X91055697Y-54093571D01*
X91097363Y-54045952D01*
X91174744Y-53998333D01*
X91353315Y-53998333D01*
X91418792Y-54045952D01*
X91448554Y-54093571D01*
X91472364Y-54188810D01*
X91442602Y-54426905D01*
X91394982Y-54522143D01*
X91353316Y-54569762D01*
X91275934Y-54617381D01*
X91097363Y-54617381D01*
X91031887Y-54569762D01*
X91002125Y-54522143D01*
D11*
X86822250Y-141718143D02*
X86688322Y-142789571D01*
X86625822Y-142908619D01*
X86523143Y-142968143D01*
X86475524Y-142968143D01*
X86874334Y-141301476D02*
X86819274Y-141361000D01*
X86859453Y-141420524D01*
X86914512Y-141361000D01*
X86874334Y-141301476D01*
X86859453Y-141420524D01*
X87727012Y-141718143D02*
X87622846Y-142551476D01*
X87298440Y-141718143D02*
X87216595Y-142372905D01*
X87249333Y-142491952D01*
X87337131Y-142551476D01*
X87479989Y-142551476D01*
X87582667Y-142491952D01*
X87637726Y-142432429D01*
X88241893Y-142551476D02*
X88154095Y-142491952D01*
X88121357Y-142372905D01*
X88255286Y-141301476D01*
X89500822Y-141241952D02*
X88442786Y-142849095D01*
X89764215Y-141420524D02*
X89819274Y-141361000D01*
X89921953Y-141301476D01*
X90160049Y-141301476D01*
X90247846Y-141361000D01*
X90288025Y-141420524D01*
X90320763Y-141539571D01*
X90305882Y-141658619D01*
X90235941Y-141837190D01*
X89575227Y-142551476D01*
X90194275Y-142551476D01*
X90969572Y-141301476D02*
X91064811Y-141301476D01*
X91152608Y-141361000D01*
X91192787Y-141420524D01*
X91225525Y-141539571D01*
X91243382Y-141777667D01*
X91206179Y-142075286D01*
X91128798Y-142313381D01*
X91066298Y-142432429D01*
X91011239Y-142491952D01*
X90908561Y-142551476D01*
X90813322Y-142551476D01*
X90725524Y-142491952D01*
X90685345Y-142432429D01*
X90652607Y-142313381D01*
X90634750Y-142075286D01*
X90671953Y-141777667D01*
X90749334Y-141539571D01*
X90811834Y-141420524D01*
X90866893Y-141361000D01*
X90969572Y-141301476D01*
X92099037Y-142551476D02*
X91527608Y-142551476D01*
X91813322Y-142551476D02*
X91969572Y-141301476D01*
X91852012Y-141480048D01*
X91741893Y-141599095D01*
X91639215Y-141658619D01*
X92588620Y-141301476D02*
X93255287Y-141301476D01*
X92670465Y-142551476D01*
D12*
X86131702Y-50449238D02*
X86385702Y-48417238D01*
X86712274Y-49868667D01*
X87401702Y-48417238D01*
X87147702Y-50449238D01*
X88514464Y-49384857D02*
X88720083Y-49481619D01*
X88780559Y-49578381D01*
X88828940Y-49771905D01*
X88792654Y-50062190D01*
X88695893Y-50255714D01*
X88611226Y-50352476D01*
X88453988Y-50449238D01*
X87873416Y-50449238D01*
X88127416Y-48417238D01*
X88635416Y-48417238D01*
X88768464Y-48514000D01*
X88828940Y-48610762D01*
X88877321Y-48804286D01*
X88853131Y-48997810D01*
X88756368Y-49191333D01*
X88671702Y-49288095D01*
X88514464Y-49384857D01*
X88006464Y-49384857D01*
X89433702Y-48417238D02*
X90304559Y-48417238D01*
X89615130Y-50449238D02*
X89869130Y-48417238D01*
X91151227Y-50352476D02*
X90993988Y-50449238D01*
X90703702Y-50449238D01*
X90570655Y-50352476D01*
X90522274Y-50158952D01*
X90619036Y-49384857D01*
X90715797Y-49191333D01*
X90873036Y-49094571D01*
X91163322Y-49094571D01*
X91296369Y-49191333D01*
X91344750Y-49384857D01*
X91320559Y-49578381D01*
X90570655Y-49771905D01*
X91864845Y-50449238D02*
X92034179Y-49094571D01*
X92009988Y-49288095D02*
X92094655Y-49191333D01*
X92251893Y-49094571D01*
X92469608Y-49094571D01*
X92602655Y-49191333D01*
X92651036Y-49384857D01*
X92517988Y-50449238D01*
X92651036Y-49384857D02*
X92747797Y-49191333D01*
X92905036Y-49094571D01*
X93122751Y-49094571D01*
X93255797Y-49191333D01*
X93304179Y-49384857D01*
X93171131Y-50449238D01*
X94066179Y-49094571D02*
X93812179Y-51126571D01*
X94054083Y-49191333D02*
X94211322Y-49094571D01*
X94501608Y-49094571D01*
X94634655Y-49191333D01*
X94695131Y-49288095D01*
X94743512Y-49481619D01*
X94670940Y-50062190D01*
X94574179Y-50255714D01*
X94489513Y-50352476D01*
X94332274Y-50449238D01*
X94041988Y-50449238D01*
X93908941Y-50352476D01*
D10*
X82272000Y-140296000D02*
G75*
G03X82272000Y-140296000I-1500000J0D01*
G01*
X82272000Y-51296000D02*
G75*
G03X82272000Y-51296000I-1500000J0D01*
G01*
X67172000Y-51296000D02*
G75*
G03X67172000Y-51296000I-1400000J0D01*
G01*
X67172000Y-140296000D02*
G75*
G03X67172000Y-140296000I-1400000J0D01*
G01*
X90481200Y-108420000D02*
X90481200Y-83020000D01*
X85401200Y-85560000D02*
X85401200Y-108420000D01*
X90481200Y-108420000D02*
X85401200Y-108420000D01*
X90481200Y-83020000D02*
X87941200Y-83020000D01*
X86671200Y-82740000D02*
X85121200Y-82740000D01*
X87941200Y-83020000D02*
X87941200Y-85560000D01*
X87941200Y-85560000D02*
X85401200Y-85560000D01*
X85121200Y-82740000D02*
X85121200Y-84290000D01*
X59241200Y-120620000D02*
X59241200Y-130820000D01*
X61741200Y-130820000D02*
X59241200Y-130820000D01*
X61741200Y-120620000D02*
X59241200Y-120620000D01*
D13*
X73241200Y-132120000D02*
X61741200Y-132120000D01*
X73241200Y-119320000D02*
X61741200Y-119320000D01*
X73241200Y-119320000D02*
X73241200Y-132120000D01*
X61741200Y-119320000D02*
X61741200Y-132120000D01*
D10*
X59241200Y-100620000D02*
X59241200Y-110820000D01*
X61741200Y-110820000D02*
X59241200Y-110820000D01*
X61741200Y-100620000D02*
X59241200Y-100620000D01*
D13*
X73241200Y-112120000D02*
X61741200Y-112120000D01*
X73241200Y-99320000D02*
X61741200Y-99320000D01*
X73241200Y-99320000D02*
X73241200Y-112120000D01*
X61741200Y-99320000D02*
X61741200Y-112120000D01*
D10*
X59241200Y-80620000D02*
X59241200Y-90820000D01*
X61741200Y-90820000D02*
X59241200Y-90820000D01*
X61741200Y-80620000D02*
X59241200Y-80620000D01*
D13*
X73241200Y-92120000D02*
X61741200Y-92120000D01*
X73241200Y-79320000D02*
X61741200Y-79320000D01*
X73241200Y-79320000D02*
X73241200Y-92120000D01*
X61741200Y-79320000D02*
X61741200Y-92120000D01*
D10*
X59241200Y-60620000D02*
X59241200Y-70820000D01*
X61741200Y-70820000D02*
X59241200Y-70820000D01*
X61741200Y-60620000D02*
X59241200Y-60620000D01*
D13*
X73241200Y-72120000D02*
X61741200Y-72120000D01*
X73241200Y-59320000D02*
X61741200Y-59320000D01*
X73241200Y-59320000D02*
X73241200Y-72120000D01*
X61741200Y-59320000D02*
X61741200Y-72120000D01*
D14*
G36*
X90518287Y-137008795D02*
X90523937Y-137029488D01*
X90541860Y-137120207D01*
X90561997Y-137259123D01*
X90580056Y-137416552D01*
X90580423Y-137420257D01*
X90596664Y-137564152D01*
X90613204Y-137677088D01*
X90626737Y-137736875D01*
X90627941Y-137739323D01*
X90665517Y-137737959D01*
X90731803Y-137691841D01*
X90740584Y-137683810D01*
X90821171Y-137625416D01*
X90860132Y-137627280D01*
X90847749Y-137678314D01*
X90795231Y-137746153D01*
X90740563Y-137817599D01*
X90726479Y-137865078D01*
X90728706Y-137868501D01*
X90776047Y-137882456D01*
X90883177Y-137899752D01*
X91031961Y-137917742D01*
X91135912Y-137927968D01*
X91343872Y-137947713D01*
X91477016Y-137963446D01*
X91538486Y-137976652D01*
X91531427Y-137988810D01*
X91458981Y-138001405D01*
X91324292Y-138015917D01*
X91322769Y-138016065D01*
X91149103Y-138033439D01*
X90975010Y-138051764D01*
X90860260Y-138064549D01*
X90671289Y-138086564D01*
X90779257Y-138199259D01*
X90846237Y-138285092D01*
X90859054Y-138334823D01*
X90823727Y-138337612D01*
X90746272Y-138282621D01*
X90737481Y-138274505D01*
X90684580Y-138228908D01*
X90648411Y-138216849D01*
X90624076Y-138248153D01*
X90606677Y-138332645D01*
X90591317Y-138480149D01*
X90582473Y-138585455D01*
X90560980Y-138770987D01*
X90533105Y-138886732D01*
X90499891Y-138929825D01*
X90466419Y-138904330D01*
X90451841Y-138848402D01*
X90435498Y-138736141D01*
X90420397Y-138589222D01*
X90417139Y-138549232D01*
X90401231Y-138380215D01*
X90382552Y-138280962D01*
X90356852Y-138243098D01*
X90319880Y-138258248D01*
X90287231Y-138293230D01*
X90230821Y-138342354D01*
X90204292Y-138351846D01*
X90170907Y-138326223D01*
X90182649Y-138264816D01*
X90233358Y-138190812D01*
X90251885Y-138172623D01*
X90333769Y-138098518D01*
X90242115Y-138072769D01*
X90148294Y-138056147D01*
X90016862Y-138043841D01*
X89955077Y-138040873D01*
X89800188Y-138030525D01*
X89646865Y-138011983D01*
X89603385Y-138004515D01*
X89526355Y-137988468D01*
X89502454Y-137977148D01*
X89538742Y-137967081D01*
X89642276Y-137954792D01*
X89720615Y-137946815D01*
X89889889Y-137929185D01*
X90055507Y-137910932D01*
X90164617Y-137898072D01*
X90335081Y-137876818D01*
X90226082Y-137763047D01*
X90159384Y-137677719D01*
X90145127Y-137626892D01*
X90177981Y-137621783D01*
X90252616Y-137673611D01*
X90263724Y-137683810D01*
X90331596Y-137734502D01*
X90373525Y-137741960D01*
X90375672Y-137739323D01*
X90388984Y-137686217D01*
X90405520Y-137579265D01*
X90420441Y-137453076D01*
X90438416Y-137294964D01*
X90457964Y-137146871D01*
X90471210Y-137062307D01*
X90488407Y-136974892D01*
X90501121Y-136958909D01*
X90518287Y-137008795D01*
X90518287Y-137008795D01*
G37*
X90518287Y-137008795D02*
X90523937Y-137029488D01*
X90541860Y-137120207D01*
X90561997Y-137259123D01*
X90580056Y-137416552D01*
X90580423Y-137420257D01*
X90596664Y-137564152D01*
X90613204Y-137677088D01*
X90626737Y-137736875D01*
X90627941Y-137739323D01*
X90665517Y-137737959D01*
X90731803Y-137691841D01*
X90740584Y-137683810D01*
X90821171Y-137625416D01*
X90860132Y-137627280D01*
X90847749Y-137678314D01*
X90795231Y-137746153D01*
X90740563Y-137817599D01*
X90726479Y-137865078D01*
X90728706Y-137868501D01*
X90776047Y-137882456D01*
X90883177Y-137899752D01*
X91031961Y-137917742D01*
X91135912Y-137927968D01*
X91343872Y-137947713D01*
X91477016Y-137963446D01*
X91538486Y-137976652D01*
X91531427Y-137988810D01*
X91458981Y-138001405D01*
X91324292Y-138015917D01*
X91322769Y-138016065D01*
X91149103Y-138033439D01*
X90975010Y-138051764D01*
X90860260Y-138064549D01*
X90671289Y-138086564D01*
X90779257Y-138199259D01*
X90846237Y-138285092D01*
X90859054Y-138334823D01*
X90823727Y-138337612D01*
X90746272Y-138282621D01*
X90737481Y-138274505D01*
X90684580Y-138228908D01*
X90648411Y-138216849D01*
X90624076Y-138248153D01*
X90606677Y-138332645D01*
X90591317Y-138480149D01*
X90582473Y-138585455D01*
X90560980Y-138770987D01*
X90533105Y-138886732D01*
X90499891Y-138929825D01*
X90466419Y-138904330D01*
X90451841Y-138848402D01*
X90435498Y-138736141D01*
X90420397Y-138589222D01*
X90417139Y-138549232D01*
X90401231Y-138380215D01*
X90382552Y-138280962D01*
X90356852Y-138243098D01*
X90319880Y-138258248D01*
X90287231Y-138293230D01*
X90230821Y-138342354D01*
X90204292Y-138351846D01*
X90170907Y-138326223D01*
X90182649Y-138264816D01*
X90233358Y-138190812D01*
X90251885Y-138172623D01*
X90333769Y-138098518D01*
X90242115Y-138072769D01*
X90148294Y-138056147D01*
X90016862Y-138043841D01*
X89955077Y-138040873D01*
X89800188Y-138030525D01*
X89646865Y-138011983D01*
X89603385Y-138004515D01*
X89526355Y-137988468D01*
X89502454Y-137977148D01*
X89538742Y-137967081D01*
X89642276Y-137954792D01*
X89720615Y-137946815D01*
X89889889Y-137929185D01*
X90055507Y-137910932D01*
X90164617Y-137898072D01*
X90335081Y-137876818D01*
X90226082Y-137763047D01*
X90159384Y-137677719D01*
X90145127Y-137626892D01*
X90177981Y-137621783D01*
X90252616Y-137673611D01*
X90263724Y-137683810D01*
X90331596Y-137734502D01*
X90373525Y-137741960D01*
X90375672Y-137739323D01*
X90388984Y-137686217D01*
X90405520Y-137579265D01*
X90420441Y-137453076D01*
X90438416Y-137294964D01*
X90457964Y-137146871D01*
X90471210Y-137062307D01*
X90488407Y-136974892D01*
X90501121Y-136958909D01*
X90518287Y-137008795D01*
G36*
X92481469Y-137611974D02*
X92555775Y-137623448D01*
X92587010Y-137649364D01*
X92592769Y-137687538D01*
X92583826Y-137731936D01*
X92544871Y-137755541D01*
X92457714Y-137764698D01*
X92368077Y-137765905D01*
X92143385Y-137766119D01*
X92407154Y-137924378D01*
X92550533Y-138016537D01*
X92633813Y-138087401D01*
X92668277Y-138147493D01*
X92670923Y-138170349D01*
X92656315Y-138256341D01*
X92604265Y-138311264D01*
X92502436Y-138341025D01*
X92338491Y-138351531D01*
X92291877Y-138351846D01*
X92144445Y-138349901D01*
X92058734Y-138341073D01*
X92018346Y-138320869D01*
X92006884Y-138284797D01*
X92006615Y-138273692D01*
X92014882Y-138230712D01*
X92051387Y-138207039D01*
X92133692Y-138197016D01*
X92250846Y-138195007D01*
X92495077Y-138194477D01*
X92250846Y-138049715D01*
X92118678Y-137966151D01*
X92043366Y-137902032D01*
X92011084Y-137843452D01*
X92006615Y-137804060D01*
X92022143Y-137707587D01*
X92077111Y-137647788D01*
X92184101Y-137617460D01*
X92346585Y-137609384D01*
X92481469Y-137611974D01*
X92481469Y-137611974D01*
G37*
X92481469Y-137611974D02*
X92555775Y-137623448D01*
X92587010Y-137649364D01*
X92592769Y-137687538D01*
X92583826Y-137731936D01*
X92544871Y-137755541D01*
X92457714Y-137764698D01*
X92368077Y-137765905D01*
X92143385Y-137766119D01*
X92407154Y-137924378D01*
X92550533Y-138016537D01*
X92633813Y-138087401D01*
X92668277Y-138147493D01*
X92670923Y-138170349D01*
X92656315Y-138256341D01*
X92604265Y-138311264D01*
X92502436Y-138341025D01*
X92338491Y-138351531D01*
X92291877Y-138351846D01*
X92144445Y-138349901D01*
X92058734Y-138341073D01*
X92018346Y-138320869D01*
X92006884Y-138284797D01*
X92006615Y-138273692D01*
X92014882Y-138230712D01*
X92051387Y-138207039D01*
X92133692Y-138197016D01*
X92250846Y-138195007D01*
X92495077Y-138194477D01*
X92250846Y-138049715D01*
X92118678Y-137966151D01*
X92043366Y-137902032D01*
X92011084Y-137843452D01*
X92006615Y-137804060D01*
X92022143Y-137707587D01*
X92077111Y-137647788D01*
X92184101Y-137617460D01*
X92346585Y-137609384D01*
X92481469Y-137611974D01*
G36*
X93087411Y-137611962D02*
X93115954Y-137629455D01*
X93131635Y-137676504D01*
X93138307Y-137767746D01*
X93139821Y-137917821D01*
X93139846Y-137980615D01*
X93139168Y-138152593D01*
X93134564Y-138261056D01*
X93122183Y-138320644D01*
X93098172Y-138345996D01*
X93058678Y-138351752D01*
X93042154Y-138351846D01*
X92996896Y-138349268D01*
X92968353Y-138331774D01*
X92952672Y-138284726D01*
X92946001Y-138193484D01*
X92944486Y-138043409D01*
X92944461Y-137980615D01*
X92945140Y-137808637D01*
X92949743Y-137700174D01*
X92962124Y-137640586D01*
X92986136Y-137615233D01*
X93025629Y-137609478D01*
X93042154Y-137609384D01*
X93087411Y-137611962D01*
X93087411Y-137611962D01*
G37*
X93087411Y-137611962D02*
X93115954Y-137629455D01*
X93131635Y-137676504D01*
X93138307Y-137767746D01*
X93139821Y-137917821D01*
X93139846Y-137980615D01*
X93139168Y-138152593D01*
X93134564Y-138261056D01*
X93122183Y-138320644D01*
X93098172Y-138345996D01*
X93058678Y-138351752D01*
X93042154Y-138351846D01*
X92996896Y-138349268D01*
X92968353Y-138331774D01*
X92952672Y-138284726D01*
X92946001Y-138193484D01*
X92944486Y-138043409D01*
X92944461Y-137980615D01*
X92945140Y-137808637D01*
X92949743Y-137700174D01*
X92962124Y-137640586D01*
X92986136Y-137615233D01*
X93025629Y-137609478D01*
X93042154Y-137609384D01*
X93087411Y-137611962D01*
G36*
X93888238Y-137611974D02*
X93962545Y-137623448D01*
X93993779Y-137649364D01*
X93999538Y-137687538D01*
X93990210Y-137732703D01*
X93949876Y-137756231D01*
X93860016Y-137764858D01*
X93784615Y-137765692D01*
X93569692Y-137765692D01*
X93569692Y-138058769D01*
X93567846Y-138208615D01*
X93559429Y-138296536D01*
X93540122Y-138338728D01*
X93505607Y-138351386D01*
X93491538Y-138351846D01*
X93453171Y-138345532D01*
X93429907Y-138316288D01*
X93418023Y-138248660D01*
X93413796Y-138127196D01*
X93413385Y-138027507D01*
X93419283Y-137846362D01*
X93435900Y-137717926D01*
X93460277Y-137656276D01*
X93523803Y-137630708D01*
X93640700Y-137613891D01*
X93753354Y-137609384D01*
X93888238Y-137611974D01*
X93888238Y-137611974D01*
G37*
X93888238Y-137611974D02*
X93962545Y-137623448D01*
X93993779Y-137649364D01*
X93999538Y-137687538D01*
X93990210Y-137732703D01*
X93949876Y-137756231D01*
X93860016Y-137764858D01*
X93784615Y-137765692D01*
X93569692Y-137765692D01*
X93569692Y-138058769D01*
X93567846Y-138208615D01*
X93559429Y-138296536D01*
X93540122Y-138338728D01*
X93505607Y-138351386D01*
X93491538Y-138351846D01*
X93453171Y-138345532D01*
X93429907Y-138316288D01*
X93418023Y-138248660D01*
X93413796Y-138127196D01*
X93413385Y-138027507D01*
X93419283Y-137846362D01*
X93435900Y-137717926D01*
X93460277Y-137656276D01*
X93523803Y-137630708D01*
X93640700Y-137613891D01*
X93753354Y-137609384D01*
X93888238Y-137611974D01*
G36*
X94416026Y-137611962D02*
X94444569Y-137629455D01*
X94460251Y-137676504D01*
X94466922Y-137767746D01*
X94468437Y-137917821D01*
X94468461Y-137980615D01*
X94467783Y-138152593D01*
X94463179Y-138261056D01*
X94450798Y-138320644D01*
X94426787Y-138345996D01*
X94387294Y-138351752D01*
X94370769Y-138351846D01*
X94325512Y-138349268D01*
X94296969Y-138331774D01*
X94281288Y-138284726D01*
X94274616Y-138193484D01*
X94273102Y-138043409D01*
X94273077Y-137980615D01*
X94273755Y-137808637D01*
X94278359Y-137700174D01*
X94290740Y-137640586D01*
X94314751Y-137615233D01*
X94354244Y-137609478D01*
X94370769Y-137609384D01*
X94416026Y-137611962D01*
X94416026Y-137611962D01*
G37*
X94416026Y-137611962D02*
X94444569Y-137629455D01*
X94460251Y-137676504D01*
X94466922Y-137767746D01*
X94468437Y-137917821D01*
X94468461Y-137980615D01*
X94467783Y-138152593D01*
X94463179Y-138261056D01*
X94450798Y-138320644D01*
X94426787Y-138345996D01*
X94387294Y-138351752D01*
X94370769Y-138351846D01*
X94325512Y-138349268D01*
X94296969Y-138331774D01*
X94281288Y-138284726D01*
X94274616Y-138193484D01*
X94273102Y-138043409D01*
X94273077Y-137980615D01*
X94273755Y-137808637D01*
X94278359Y-137700174D01*
X94290740Y-137640586D01*
X94314751Y-137615233D01*
X94354244Y-137609478D01*
X94370769Y-137609384D01*
X94416026Y-137611962D01*
G36*
X95366521Y-137615698D02*
X95389785Y-137644942D01*
X95401669Y-137712570D01*
X95405896Y-137834033D01*
X95406308Y-137933723D01*
X95400409Y-138114868D01*
X95383792Y-138243304D01*
X95359415Y-138304953D01*
X95300323Y-138327101D01*
X95190520Y-138342859D01*
X95056108Y-138351308D01*
X94923189Y-138351526D01*
X94817863Y-138342596D01*
X94768051Y-138325794D01*
X94756392Y-138277406D01*
X94747429Y-138170289D01*
X94742523Y-138023856D01*
X94742000Y-137954564D01*
X94743352Y-137789317D01*
X94749676Y-137687202D01*
X94764367Y-137633211D01*
X94790824Y-137612336D01*
X94820154Y-137609384D01*
X94860113Y-137616306D01*
X94883558Y-137647870D01*
X94894810Y-137720271D01*
X94898185Y-137849705D01*
X94898308Y-137902461D01*
X94898308Y-138195538D01*
X95250000Y-138195538D01*
X95250000Y-137902461D01*
X95251846Y-137752614D01*
X95260263Y-137664693D01*
X95279570Y-137622502D01*
X95314086Y-137609844D01*
X95328154Y-137609384D01*
X95366521Y-137615698D01*
X95366521Y-137615698D01*
G37*
X95366521Y-137615698D02*
X95389785Y-137644942D01*
X95401669Y-137712570D01*
X95405896Y-137834033D01*
X95406308Y-137933723D01*
X95400409Y-138114868D01*
X95383792Y-138243304D01*
X95359415Y-138304953D01*
X95300323Y-138327101D01*
X95190520Y-138342859D01*
X95056108Y-138351308D01*
X94923189Y-138351526D01*
X94817863Y-138342596D01*
X94768051Y-138325794D01*
X94756392Y-138277406D01*
X94747429Y-138170289D01*
X94742523Y-138023856D01*
X94742000Y-137954564D01*
X94743352Y-137789317D01*
X94749676Y-137687202D01*
X94764367Y-137633211D01*
X94790824Y-137612336D01*
X94820154Y-137609384D01*
X94860113Y-137616306D01*
X94883558Y-137647870D01*
X94894810Y-137720271D01*
X94898185Y-137849705D01*
X94898308Y-137902461D01*
X94898308Y-138195538D01*
X95250000Y-138195538D01*
X95250000Y-137902461D01*
X95251846Y-137752614D01*
X95260263Y-137664693D01*
X95279570Y-137622502D01*
X95314086Y-137609844D01*
X95328154Y-137609384D01*
X95366521Y-137615698D01*
G36*
X96154700Y-137611974D02*
X96229006Y-137623448D01*
X96260240Y-137649364D01*
X96266000Y-137687538D01*
X96257057Y-137731936D01*
X96218102Y-137755541D01*
X96130945Y-137764698D01*
X96041308Y-137765905D01*
X95816615Y-137766119D01*
X96080385Y-137924378D01*
X96223764Y-138016537D01*
X96307044Y-138087401D01*
X96341508Y-138147493D01*
X96344154Y-138170349D01*
X96329545Y-138256341D01*
X96277495Y-138311264D01*
X96175667Y-138341025D01*
X96011722Y-138351531D01*
X95965108Y-138351846D01*
X95817676Y-138349901D01*
X95731964Y-138341073D01*
X95691576Y-138320869D01*
X95680115Y-138284797D01*
X95679846Y-138273692D01*
X95688112Y-138230712D01*
X95724618Y-138207039D01*
X95806923Y-138197016D01*
X95924077Y-138195007D01*
X96168308Y-138194477D01*
X95924077Y-138049715D01*
X95791909Y-137966151D01*
X95716597Y-137902032D01*
X95684315Y-137843452D01*
X95679846Y-137804060D01*
X95695373Y-137707587D01*
X95750342Y-137647788D01*
X95857332Y-137617460D01*
X96019815Y-137609384D01*
X96154700Y-137611974D01*
X96154700Y-137611974D01*
G37*
X96154700Y-137611974D02*
X96229006Y-137623448D01*
X96260240Y-137649364D01*
X96266000Y-137687538D01*
X96257057Y-137731936D01*
X96218102Y-137755541D01*
X96130945Y-137764698D01*
X96041308Y-137765905D01*
X95816615Y-137766119D01*
X96080385Y-137924378D01*
X96223764Y-138016537D01*
X96307044Y-138087401D01*
X96341508Y-138147493D01*
X96344154Y-138170349D01*
X96329545Y-138256341D01*
X96277495Y-138311264D01*
X96175667Y-138341025D01*
X96011722Y-138351531D01*
X95965108Y-138351846D01*
X95817676Y-138349901D01*
X95731964Y-138341073D01*
X95691576Y-138320869D01*
X95680115Y-138284797D01*
X95679846Y-138273692D01*
X95688112Y-138230712D01*
X95724618Y-138207039D01*
X95806923Y-138197016D01*
X95924077Y-138195007D01*
X96168308Y-138194477D01*
X95924077Y-138049715D01*
X95791909Y-137966151D01*
X95716597Y-137902032D01*
X95684315Y-137843452D01*
X95679846Y-137804060D01*
X95695373Y-137707587D01*
X95750342Y-137647788D01*
X95857332Y-137617460D01*
X96019815Y-137609384D01*
X96154700Y-137611974D01*
G36*
X90130923Y-137550769D02*
X90111385Y-137570307D01*
X90091846Y-137550769D01*
X90111385Y-137531230D01*
X90130923Y-137550769D01*
X90130923Y-137550769D01*
G37*
X90130923Y-137550769D02*
X90111385Y-137570307D01*
X90091846Y-137550769D01*
X90111385Y-137531230D01*
X90130923Y-137550769D01*
G36*
X93118760Y-137197855D02*
X93139846Y-137257692D01*
X93116950Y-137318977D01*
X93042154Y-137335846D01*
X92965547Y-137317529D01*
X92944461Y-137257692D01*
X92967358Y-137196406D01*
X93042154Y-137179538D01*
X93118760Y-137197855D01*
X93118760Y-137197855D01*
G37*
X93118760Y-137197855D02*
X93139846Y-137257692D01*
X93116950Y-137318977D01*
X93042154Y-137335846D01*
X92965547Y-137317529D01*
X92944461Y-137257692D01*
X92967358Y-137196406D01*
X93042154Y-137179538D01*
X93118760Y-137197855D01*
G36*
X94447376Y-137197855D02*
X94468461Y-137257692D01*
X94445565Y-137318977D01*
X94370769Y-137335846D01*
X94294162Y-137317529D01*
X94273077Y-137257692D01*
X94295973Y-137196406D01*
X94370769Y-137179538D01*
X94447376Y-137197855D01*
X94447376Y-137197855D01*
G37*
X94447376Y-137197855D02*
X94468461Y-137257692D01*
X94445565Y-137318977D01*
X94370769Y-137335846D01*
X94294162Y-137317529D01*
X94273077Y-137257692D01*
X94295973Y-137196406D01*
X94370769Y-137179538D01*
X94447376Y-137197855D01*
G36*
X96461385Y-136788769D02*
X81807538Y-136788769D01*
X81807538Y-136476153D01*
X96461385Y-136476153D01*
X96461385Y-136788769D01*
X96461385Y-136788769D01*
G37*
X96461385Y-136788769D02*
X81807538Y-136788769D01*
X81807538Y-136476153D01*
X96461385Y-136476153D01*
X96461385Y-136788769D01*
G36*
X82471846Y-134641314D02*
X82471575Y-134921233D01*
X82477148Y-135132666D01*
X82498144Y-135285193D01*
X82544142Y-135388394D01*
X82624723Y-135451848D01*
X82749465Y-135485135D01*
X82927948Y-135497833D01*
X83169752Y-135499523D01*
X83329762Y-135499230D01*
X83995846Y-135499230D01*
X83995846Y-135850923D01*
X83163972Y-135850923D01*
X82886105Y-135850482D01*
X82674390Y-135848461D01*
X82516830Y-135843811D01*
X82401424Y-135835483D01*
X82316174Y-135822430D01*
X82249081Y-135803602D01*
X82188145Y-135777952D01*
X82157741Y-135763000D01*
X82008519Y-135661041D01*
X81904068Y-135517370D01*
X81895461Y-135500720D01*
X81863227Y-135431245D01*
X81839966Y-135361052D01*
X81824230Y-135276154D01*
X81814574Y-135162570D01*
X81809551Y-135006315D01*
X81807715Y-134793405D01*
X81807538Y-134650796D01*
X81807538Y-133975230D01*
X82471846Y-133975230D01*
X82471846Y-134641314D01*
X82471846Y-134641314D01*
G37*
X82471846Y-134641314D02*
X82471575Y-134921233D01*
X82477148Y-135132666D01*
X82498144Y-135285193D01*
X82544142Y-135388394D01*
X82624723Y-135451848D01*
X82749465Y-135485135D01*
X82927948Y-135497833D01*
X83169752Y-135499523D01*
X83329762Y-135499230D01*
X83995846Y-135499230D01*
X83995846Y-135850923D01*
X83163972Y-135850923D01*
X82886105Y-135850482D01*
X82674390Y-135848461D01*
X82516830Y-135843811D01*
X82401424Y-135835483D01*
X82316174Y-135822430D01*
X82249081Y-135803602D01*
X82188145Y-135777952D01*
X82157741Y-135763000D01*
X82008519Y-135661041D01*
X81904068Y-135517370D01*
X81895461Y-135500720D01*
X81863227Y-135431245D01*
X81839966Y-135361052D01*
X81824230Y-135276154D01*
X81814574Y-135162570D01*
X81809551Y-135006315D01*
X81807715Y-134793405D01*
X81807538Y-134650796D01*
X81807538Y-133975230D01*
X82471846Y-133975230D01*
X82471846Y-134641314D01*
G36*
X88255231Y-135850923D02*
X87689478Y-135850923D01*
X87054047Y-135216367D01*
X86418615Y-134581811D01*
X86418615Y-135850923D01*
X85793385Y-135850923D01*
X85793385Y-133975230D01*
X86057154Y-133976116D01*
X86320923Y-133977003D01*
X87590923Y-135193827D01*
X87590923Y-133975230D01*
X88255231Y-133975230D01*
X88255231Y-135850923D01*
X88255231Y-135850923D01*
G37*
X88255231Y-135850923D02*
X87689478Y-135850923D01*
X87054047Y-135216367D01*
X86418615Y-134581811D01*
X86418615Y-135850923D01*
X85793385Y-135850923D01*
X85793385Y-133975230D01*
X86057154Y-133976116D01*
X86320923Y-133977003D01*
X87590923Y-135193827D01*
X87590923Y-133975230D01*
X88255231Y-133975230D01*
X88255231Y-135850923D01*
G36*
X90834308Y-134641314D02*
X90834667Y-134884149D01*
X90836798Y-135061373D01*
X90842279Y-135185531D01*
X90852689Y-135269167D01*
X90869607Y-135324823D01*
X90894612Y-135365044D01*
X90929284Y-135402374D01*
X90930224Y-135403314D01*
X90967636Y-135438231D01*
X91007646Y-135463444D01*
X91062798Y-135480534D01*
X91145635Y-135491078D01*
X91268702Y-135496656D01*
X91444541Y-135498847D01*
X91685696Y-135499230D01*
X92358308Y-135499230D01*
X92358308Y-135850923D01*
X91526434Y-135850923D01*
X91248566Y-135850482D01*
X91036852Y-135848461D01*
X90879291Y-135843811D01*
X90763886Y-135835483D01*
X90678636Y-135822430D01*
X90611542Y-135803602D01*
X90550607Y-135777952D01*
X90520203Y-135763000D01*
X90370981Y-135661041D01*
X90266529Y-135517370D01*
X90257923Y-135500720D01*
X90225689Y-135431245D01*
X90202427Y-135361052D01*
X90186692Y-135276154D01*
X90177036Y-135162570D01*
X90172013Y-135006315D01*
X90170176Y-134793405D01*
X90170000Y-134650796D01*
X90170000Y-133975230D01*
X90834308Y-133975230D01*
X90834308Y-134641314D01*
X90834308Y-134641314D01*
G37*
X90834308Y-134641314D02*
X90834667Y-134884149D01*
X90836798Y-135061373D01*
X90842279Y-135185531D01*
X90852689Y-135269167D01*
X90869607Y-135324823D01*
X90894612Y-135365044D01*
X90929284Y-135402374D01*
X90930224Y-135403314D01*
X90967636Y-135438231D01*
X91007646Y-135463444D01*
X91062798Y-135480534D01*
X91145635Y-135491078D01*
X91268702Y-135496656D01*
X91444541Y-135498847D01*
X91685696Y-135499230D01*
X92358308Y-135499230D01*
X92358308Y-135850923D01*
X91526434Y-135850923D01*
X91248566Y-135850482D01*
X91036852Y-135848461D01*
X90879291Y-135843811D01*
X90763886Y-135835483D01*
X90678636Y-135822430D01*
X90611542Y-135803602D01*
X90550607Y-135777952D01*
X90520203Y-135763000D01*
X90370981Y-135661041D01*
X90266529Y-135517370D01*
X90257923Y-135500720D01*
X90225689Y-135431245D01*
X90202427Y-135361052D01*
X90186692Y-135276154D01*
X90177036Y-135162570D01*
X90172013Y-135006315D01*
X90170176Y-134793405D01*
X90170000Y-134650796D01*
X90170000Y-133975230D01*
X90834308Y-133975230D01*
X90834308Y-134641314D01*
G36*
X96305077Y-134326923D02*
X94743802Y-134326923D01*
X94681508Y-134421994D01*
X94646442Y-134533362D01*
X94683325Y-134634732D01*
X94786087Y-134711541D01*
X94805535Y-134719562D01*
X94878185Y-134732672D01*
X95012443Y-134743778D01*
X95191770Y-134751986D01*
X95399629Y-134756403D01*
X95496775Y-134756915D01*
X95730338Y-134758018D01*
X95900130Y-134762241D01*
X96020517Y-134771154D01*
X96105864Y-134786329D01*
X96170540Y-134809335D01*
X96219505Y-134835924D01*
X96351880Y-134959042D01*
X96432549Y-135122998D01*
X96457122Y-135306428D01*
X96421208Y-135487967D01*
X96372682Y-135581375D01*
X96315585Y-135660431D01*
X96255662Y-135722354D01*
X96182969Y-135769224D01*
X96087561Y-135803121D01*
X95959493Y-135826122D01*
X95788823Y-135840309D01*
X95565604Y-135847760D01*
X95279893Y-135850555D01*
X95083923Y-135850862D01*
X94155846Y-135850923D01*
X94155846Y-135499230D01*
X94911790Y-135499230D01*
X95175521Y-135498621D01*
X95372186Y-135496150D01*
X95512866Y-135490852D01*
X95608643Y-135481762D01*
X95670599Y-135467915D01*
X95709816Y-135448347D01*
X95732405Y-135427769D01*
X95790508Y-135317833D01*
X95778101Y-135208954D01*
X95710228Y-135130215D01*
X95660730Y-135106108D01*
X95584062Y-135089015D01*
X95468211Y-135077901D01*
X95301161Y-135071728D01*
X95070899Y-135069462D01*
X95004903Y-135069384D01*
X94733027Y-135066982D01*
X94527023Y-135057620D01*
X94374699Y-135038069D01*
X94263862Y-135005097D01*
X94182318Y-134955473D01*
X94117876Y-134885966D01*
X94076110Y-134823256D01*
X94014707Y-134658272D01*
X94003104Y-134469259D01*
X94041466Y-134290776D01*
X94073225Y-134226103D01*
X94122871Y-134153156D01*
X94178941Y-134095815D01*
X94250981Y-134052221D01*
X94348540Y-134020518D01*
X94481166Y-133998850D01*
X94658406Y-133985360D01*
X94889808Y-133978192D01*
X95184921Y-133975488D01*
X95363367Y-133975230D01*
X96305077Y-133975230D01*
X96305077Y-134326923D01*
X96305077Y-134326923D01*
G37*
X96305077Y-134326923D02*
X94743802Y-134326923D01*
X94681508Y-134421994D01*
X94646442Y-134533362D01*
X94683325Y-134634732D01*
X94786087Y-134711541D01*
X94805535Y-134719562D01*
X94878185Y-134732672D01*
X95012443Y-134743778D01*
X95191770Y-134751986D01*
X95399629Y-134756403D01*
X95496775Y-134756915D01*
X95730338Y-134758018D01*
X95900130Y-134762241D01*
X96020517Y-134771154D01*
X96105864Y-134786329D01*
X96170540Y-134809335D01*
X96219505Y-134835924D01*
X96351880Y-134959042D01*
X96432549Y-135122998D01*
X96457122Y-135306428D01*
X96421208Y-135487967D01*
X96372682Y-135581375D01*
X96315585Y-135660431D01*
X96255662Y-135722354D01*
X96182969Y-135769224D01*
X96087561Y-135803121D01*
X95959493Y-135826122D01*
X95788823Y-135840309D01*
X95565604Y-135847760D01*
X95279893Y-135850555D01*
X95083923Y-135850862D01*
X94155846Y-135850923D01*
X94155846Y-135499230D01*
X94911790Y-135499230D01*
X95175521Y-135498621D01*
X95372186Y-135496150D01*
X95512866Y-135490852D01*
X95608643Y-135481762D01*
X95670599Y-135467915D01*
X95709816Y-135448347D01*
X95732405Y-135427769D01*
X95790508Y-135317833D01*
X95778101Y-135208954D01*
X95710228Y-135130215D01*
X95660730Y-135106108D01*
X95584062Y-135089015D01*
X95468211Y-135077901D01*
X95301161Y-135071728D01*
X95070899Y-135069462D01*
X95004903Y-135069384D01*
X94733027Y-135066982D01*
X94527023Y-135057620D01*
X94374699Y-135038069D01*
X94263862Y-135005097D01*
X94182318Y-134955473D01*
X94117876Y-134885966D01*
X94076110Y-134823256D01*
X94014707Y-134658272D01*
X94003104Y-134469259D01*
X94041466Y-134290776D01*
X94073225Y-134226103D01*
X94122871Y-134153156D01*
X94178941Y-134095815D01*
X94250981Y-134052221D01*
X94348540Y-134020518D01*
X94481166Y-133998850D01*
X94658406Y-133985360D01*
X94889808Y-133978192D01*
X95184921Y-133975488D01*
X95363367Y-133975230D01*
X96305077Y-133975230D01*
X96305077Y-134326923D01*
G36*
X96559077Y-133447692D02*
X89143043Y-133457562D01*
X88217127Y-133458703D01*
X87366554Y-133459549D01*
X86588515Y-133460086D01*
X85880201Y-133460298D01*
X85238800Y-133460170D01*
X84661504Y-133459689D01*
X84145504Y-133458839D01*
X83687988Y-133457605D01*
X83286147Y-133455973D01*
X82937173Y-133453928D01*
X82638254Y-133451455D01*
X82386581Y-133448539D01*
X82179345Y-133445166D01*
X82013735Y-133441320D01*
X81886942Y-133436988D01*
X81796157Y-133432154D01*
X81738569Y-133426803D01*
X81711368Y-133420921D01*
X81708392Y-133418485D01*
X81706368Y-133374551D01*
X81704532Y-133256691D01*
X81702889Y-133069130D01*
X81701445Y-132816096D01*
X81700206Y-132501815D01*
X81699178Y-132130513D01*
X81698367Y-131706419D01*
X81697778Y-131233757D01*
X81697418Y-130716756D01*
X81697292Y-130159642D01*
X81697407Y-129566640D01*
X81697767Y-128941979D01*
X81698380Y-128289885D01*
X81699251Y-127614584D01*
X81699810Y-127254000D01*
X81709429Y-121392461D01*
X81963846Y-121392461D01*
X81963846Y-133193692D01*
X82921231Y-133193692D01*
X83185461Y-133193258D01*
X83421754Y-133192039D01*
X83619541Y-133190158D01*
X83768251Y-133187737D01*
X83857317Y-133184900D01*
X83878615Y-133182568D01*
X83866289Y-133143064D01*
X83834126Y-133050961D01*
X83793499Y-132938337D01*
X83729734Y-132694854D01*
X83693409Y-132406609D01*
X83685255Y-132102288D01*
X83706003Y-131810577D01*
X83756384Y-131560163D01*
X83758221Y-131554049D01*
X83914515Y-131166098D01*
X84131180Y-130819841D01*
X84400667Y-130520974D01*
X84715426Y-130275195D01*
X85067908Y-130088200D01*
X85450563Y-129965685D01*
X85855842Y-129913348D01*
X85934589Y-129911808D01*
X86249178Y-129926754D01*
X86525321Y-129978244D01*
X86797257Y-130074103D01*
X86946154Y-130142989D01*
X87309615Y-130363215D01*
X87618293Y-130635101D01*
X87868322Y-130951526D01*
X88055841Y-131305370D01*
X88176984Y-131689511D01*
X88227888Y-132096829D01*
X88210882Y-132473916D01*
X88181279Y-132653882D01*
X88139782Y-132835174D01*
X88097394Y-132972657D01*
X88055317Y-133084969D01*
X88027492Y-133162325D01*
X88020789Y-133183923D01*
X88058794Y-133185585D01*
X88168546Y-133187159D01*
X88343637Y-133188619D01*
X88577659Y-133189942D01*
X88864205Y-133191104D01*
X89196867Y-133192080D01*
X89569237Y-133192847D01*
X89974909Y-133193381D01*
X90407475Y-133193658D01*
X90625783Y-133193692D01*
X93230797Y-133193692D01*
X92745706Y-132701758D01*
X92065478Y-132057027D01*
X91370749Y-131488352D01*
X90659605Y-130994657D01*
X89930132Y-130574864D01*
X89180417Y-130227897D01*
X88408545Y-129952677D01*
X87612603Y-129748128D01*
X87434615Y-129712606D01*
X87216315Y-129670616D01*
X87022437Y-129632159D01*
X86867103Y-129600128D01*
X86764437Y-129577418D01*
X86731231Y-129568526D01*
X86729018Y-129551226D01*
X86796047Y-129529830D01*
X86923587Y-129505575D01*
X87102909Y-129479696D01*
X87325281Y-129453431D01*
X87581974Y-129428016D01*
X87864257Y-129404686D01*
X87914044Y-129401025D01*
X88761564Y-129378111D01*
X89620554Y-129429525D01*
X90483990Y-129553656D01*
X91344850Y-129748898D01*
X92196110Y-130013643D01*
X93030748Y-130346281D01*
X93841740Y-130745206D01*
X93883365Y-130767860D01*
X94054041Y-130862571D01*
X94276508Y-130988084D01*
X94535228Y-131135517D01*
X94814662Y-131295986D01*
X95099274Y-131460609D01*
X95316432Y-131587099D01*
X95562117Y-131730252D01*
X95785571Y-131859584D01*
X95977997Y-131970074D01*
X96130598Y-132056699D01*
X96234576Y-132114438D01*
X96281136Y-132138269D01*
X96282528Y-132138615D01*
X96285220Y-132100282D01*
X96287819Y-131988256D01*
X96290308Y-131807000D01*
X96292669Y-131560974D01*
X96294881Y-131254642D01*
X96296927Y-130892463D01*
X96298788Y-130478899D01*
X96300444Y-130018413D01*
X96301878Y-129515466D01*
X96303071Y-128974519D01*
X96304004Y-128400033D01*
X96304657Y-127796472D01*
X96305014Y-127168295D01*
X96305077Y-126765538D01*
X96305077Y-121392461D01*
X81963846Y-121392461D01*
X81709429Y-121392461D01*
X81709846Y-121138461D01*
X96559077Y-121138461D01*
X96559077Y-133447692D01*
X96559077Y-133447692D01*
G37*
X96559077Y-133447692D02*
X89143043Y-133457562D01*
X88217127Y-133458703D01*
X87366554Y-133459549D01*
X86588515Y-133460086D01*
X85880201Y-133460298D01*
X85238800Y-133460170D01*
X84661504Y-133459689D01*
X84145504Y-133458839D01*
X83687988Y-133457605D01*
X83286147Y-133455973D01*
X82937173Y-133453928D01*
X82638254Y-133451455D01*
X82386581Y-133448539D01*
X82179345Y-133445166D01*
X82013735Y-133441320D01*
X81886942Y-133436988D01*
X81796157Y-133432154D01*
X81738569Y-133426803D01*
X81711368Y-133420921D01*
X81708392Y-133418485D01*
X81706368Y-133374551D01*
X81704532Y-133256691D01*
X81702889Y-133069130D01*
X81701445Y-132816096D01*
X81700206Y-132501815D01*
X81699178Y-132130513D01*
X81698367Y-131706419D01*
X81697778Y-131233757D01*
X81697418Y-130716756D01*
X81697292Y-130159642D01*
X81697407Y-129566640D01*
X81697767Y-128941979D01*
X81698380Y-128289885D01*
X81699251Y-127614584D01*
X81699810Y-127254000D01*
X81709429Y-121392461D01*
X81963846Y-121392461D01*
X81963846Y-133193692D01*
X82921231Y-133193692D01*
X83185461Y-133193258D01*
X83421754Y-133192039D01*
X83619541Y-133190158D01*
X83768251Y-133187737D01*
X83857317Y-133184900D01*
X83878615Y-133182568D01*
X83866289Y-133143064D01*
X83834126Y-133050961D01*
X83793499Y-132938337D01*
X83729734Y-132694854D01*
X83693409Y-132406609D01*
X83685255Y-132102288D01*
X83706003Y-131810577D01*
X83756384Y-131560163D01*
X83758221Y-131554049D01*
X83914515Y-131166098D01*
X84131180Y-130819841D01*
X84400667Y-130520974D01*
X84715426Y-130275195D01*
X85067908Y-130088200D01*
X85450563Y-129965685D01*
X85855842Y-129913348D01*
X85934589Y-129911808D01*
X86249178Y-129926754D01*
X86525321Y-129978244D01*
X86797257Y-130074103D01*
X86946154Y-130142989D01*
X87309615Y-130363215D01*
X87618293Y-130635101D01*
X87868322Y-130951526D01*
X88055841Y-131305370D01*
X88176984Y-131689511D01*
X88227888Y-132096829D01*
X88210882Y-132473916D01*
X88181279Y-132653882D01*
X88139782Y-132835174D01*
X88097394Y-132972657D01*
X88055317Y-133084969D01*
X88027492Y-133162325D01*
X88020789Y-133183923D01*
X88058794Y-133185585D01*
X88168546Y-133187159D01*
X88343637Y-133188619D01*
X88577659Y-133189942D01*
X88864205Y-133191104D01*
X89196867Y-133192080D01*
X89569237Y-133192847D01*
X89974909Y-133193381D01*
X90407475Y-133193658D01*
X90625783Y-133193692D01*
X93230797Y-133193692D01*
X92745706Y-132701758D01*
X92065478Y-132057027D01*
X91370749Y-131488352D01*
X90659605Y-130994657D01*
X89930132Y-130574864D01*
X89180417Y-130227897D01*
X88408545Y-129952677D01*
X87612603Y-129748128D01*
X87434615Y-129712606D01*
X87216315Y-129670616D01*
X87022437Y-129632159D01*
X86867103Y-129600128D01*
X86764437Y-129577418D01*
X86731231Y-129568526D01*
X86729018Y-129551226D01*
X86796047Y-129529830D01*
X86923587Y-129505575D01*
X87102909Y-129479696D01*
X87325281Y-129453431D01*
X87581974Y-129428016D01*
X87864257Y-129404686D01*
X87914044Y-129401025D01*
X88761564Y-129378111D01*
X89620554Y-129429525D01*
X90483990Y-129553656D01*
X91344850Y-129748898D01*
X92196110Y-130013643D01*
X93030748Y-130346281D01*
X93841740Y-130745206D01*
X93883365Y-130767860D01*
X94054041Y-130862571D01*
X94276508Y-130988084D01*
X94535228Y-131135517D01*
X94814662Y-131295986D01*
X95099274Y-131460609D01*
X95316432Y-131587099D01*
X95562117Y-131730252D01*
X95785571Y-131859584D01*
X95977997Y-131970074D01*
X96130598Y-132056699D01*
X96234576Y-132114438D01*
X96281136Y-132138269D01*
X96282528Y-132138615D01*
X96285220Y-132100282D01*
X96287819Y-131988256D01*
X96290308Y-131807000D01*
X96292669Y-131560974D01*
X96294881Y-131254642D01*
X96296927Y-130892463D01*
X96298788Y-130478899D01*
X96300444Y-130018413D01*
X96301878Y-129515466D01*
X96303071Y-128974519D01*
X96304004Y-128400033D01*
X96304657Y-127796472D01*
X96305014Y-127168295D01*
X96305077Y-126765538D01*
X96305077Y-121392461D01*
X81963846Y-121392461D01*
X81709429Y-121392461D01*
X81709846Y-121138461D01*
X96559077Y-121138461D01*
X96559077Y-133447692D01*
G36*
X86124153Y-121780797D02*
X86195733Y-121823002D01*
X86325063Y-121898168D01*
X86502034Y-122000491D01*
X86716535Y-122124164D01*
X86958457Y-122263380D01*
X87217689Y-122412335D01*
X87484122Y-122565221D01*
X87747646Y-122716233D01*
X87998150Y-122859565D01*
X88225525Y-122989409D01*
X88419661Y-123099960D01*
X88538472Y-123167344D01*
X88698897Y-123259922D01*
X88831066Y-123339684D01*
X88921913Y-123398493D01*
X88958371Y-123428208D01*
X88958549Y-123429006D01*
X88928102Y-123458742D01*
X88844771Y-123522973D01*
X88720650Y-123612768D01*
X88567833Y-123719194D01*
X88538538Y-123739204D01*
X87767531Y-124291227D01*
X87069878Y-124848317D01*
X86440779Y-125415616D01*
X85875435Y-125998268D01*
X85369046Y-126601417D01*
X84916812Y-127230204D01*
X84513934Y-127889775D01*
X84310386Y-128270000D01*
X84095126Y-128712850D01*
X83915790Y-129132258D01*
X83764940Y-129550124D01*
X83635139Y-129988347D01*
X83518948Y-130468826D01*
X83448444Y-130807868D01*
X83394140Y-131076454D01*
X83351947Y-131270242D01*
X83321263Y-131391545D01*
X83301487Y-131442677D01*
X83292017Y-131425952D01*
X83291222Y-131412435D01*
X83285327Y-131360675D01*
X83270434Y-131249936D01*
X83249057Y-131098541D01*
X83232705Y-130985846D01*
X83211064Y-130806580D01*
X83189743Y-130574034D01*
X83170670Y-130313065D01*
X83155776Y-130048530D01*
X83150796Y-129930769D01*
X83156475Y-129032929D01*
X83239959Y-128138195D01*
X83400918Y-127247859D01*
X83639024Y-126363216D01*
X83953947Y-125485559D01*
X84345360Y-124616181D01*
X84646765Y-124045171D01*
X84744807Y-123871716D01*
X84873410Y-123646957D01*
X85023353Y-123386859D01*
X85185410Y-123107387D01*
X85350360Y-122824506D01*
X85464006Y-122630627D01*
X86005537Y-121709065D01*
X86124153Y-121780797D01*
X86124153Y-121780797D01*
G37*
X86124153Y-121780797D02*
X86195733Y-121823002D01*
X86325063Y-121898168D01*
X86502034Y-122000491D01*
X86716535Y-122124164D01*
X86958457Y-122263380D01*
X87217689Y-122412335D01*
X87484122Y-122565221D01*
X87747646Y-122716233D01*
X87998150Y-122859565D01*
X88225525Y-122989409D01*
X88419661Y-123099960D01*
X88538472Y-123167344D01*
X88698897Y-123259922D01*
X88831066Y-123339684D01*
X88921913Y-123398493D01*
X88958371Y-123428208D01*
X88958549Y-123429006D01*
X88928102Y-123458742D01*
X88844771Y-123522973D01*
X88720650Y-123612768D01*
X88567833Y-123719194D01*
X88538538Y-123739204D01*
X87767531Y-124291227D01*
X87069878Y-124848317D01*
X86440779Y-125415616D01*
X85875435Y-125998268D01*
X85369046Y-126601417D01*
X84916812Y-127230204D01*
X84513934Y-127889775D01*
X84310386Y-128270000D01*
X84095126Y-128712850D01*
X83915790Y-129132258D01*
X83764940Y-129550124D01*
X83635139Y-129988347D01*
X83518948Y-130468826D01*
X83448444Y-130807868D01*
X83394140Y-131076454D01*
X83351947Y-131270242D01*
X83321263Y-131391545D01*
X83301487Y-131442677D01*
X83292017Y-131425952D01*
X83291222Y-131412435D01*
X83285327Y-131360675D01*
X83270434Y-131249936D01*
X83249057Y-131098541D01*
X83232705Y-130985846D01*
X83211064Y-130806580D01*
X83189743Y-130574034D01*
X83170670Y-130313065D01*
X83155776Y-130048530D01*
X83150796Y-129930769D01*
X83156475Y-129032929D01*
X83239959Y-128138195D01*
X83400918Y-127247859D01*
X83639024Y-126363216D01*
X83953947Y-125485559D01*
X84345360Y-124616181D01*
X84646765Y-124045171D01*
X84744807Y-123871716D01*
X84873410Y-123646957D01*
X85023353Y-123386859D01*
X85185410Y-123107387D01*
X85350360Y-122824506D01*
X85464006Y-122630627D01*
X86005537Y-121709065D01*
X86124153Y-121780797D01*
G36*
X93658447Y-126995334D02*
X93867065Y-126999786D01*
X95054615Y-127028515D01*
X95054615Y-128743411D01*
X95053970Y-129100879D01*
X95052125Y-129432957D01*
X95049214Y-129731769D01*
X95045373Y-129989439D01*
X95040737Y-130198090D01*
X95035440Y-130349845D01*
X95029617Y-130436827D01*
X95025308Y-130454958D01*
X94980968Y-130437015D01*
X94881489Y-130390540D01*
X94741371Y-130322471D01*
X94575116Y-130239749D01*
X94566154Y-130235240D01*
X93716649Y-129835877D01*
X92888848Y-129505333D01*
X92073088Y-129240841D01*
X91259708Y-129039636D01*
X90439044Y-128898953D01*
X89609981Y-128816580D01*
X88811547Y-128796883D01*
X88028176Y-128844702D01*
X87249285Y-128961586D01*
X86464288Y-129149082D01*
X85732679Y-129383456D01*
X85569248Y-129439373D01*
X85431975Y-129481715D01*
X85338102Y-129505434D01*
X85306900Y-129508094D01*
X85311091Y-129479636D01*
X85373555Y-129416746D01*
X85485617Y-129325313D01*
X85638601Y-129211225D01*
X85823830Y-129080371D01*
X86032629Y-128938640D01*
X86256322Y-128791920D01*
X86486231Y-128646100D01*
X86713683Y-128507070D01*
X86930000Y-128380716D01*
X87126506Y-128272929D01*
X87127502Y-128272405D01*
X87690536Y-127994016D01*
X88251407Y-127753299D01*
X88818431Y-127548685D01*
X89399923Y-127378602D01*
X90004202Y-127241481D01*
X90639582Y-127135751D01*
X91314380Y-127059842D01*
X92036913Y-127012183D01*
X92815497Y-126991204D01*
X93658447Y-126995334D01*
X93658447Y-126995334D01*
G37*
X93658447Y-126995334D02*
X93867065Y-126999786D01*
X95054615Y-127028515D01*
X95054615Y-128743411D01*
X95053970Y-129100879D01*
X95052125Y-129432957D01*
X95049214Y-129731769D01*
X95045373Y-129989439D01*
X95040737Y-130198090D01*
X95035440Y-130349845D01*
X95029617Y-130436827D01*
X95025308Y-130454958D01*
X94980968Y-130437015D01*
X94881489Y-130390540D01*
X94741371Y-130322471D01*
X94575116Y-130239749D01*
X94566154Y-130235240D01*
X93716649Y-129835877D01*
X92888848Y-129505333D01*
X92073088Y-129240841D01*
X91259708Y-129039636D01*
X90439044Y-128898953D01*
X89609981Y-128816580D01*
X88811547Y-128796883D01*
X88028176Y-128844702D01*
X87249285Y-128961586D01*
X86464288Y-129149082D01*
X85732679Y-129383456D01*
X85569248Y-129439373D01*
X85431975Y-129481715D01*
X85338102Y-129505434D01*
X85306900Y-129508094D01*
X85311091Y-129479636D01*
X85373555Y-129416746D01*
X85485617Y-129325313D01*
X85638601Y-129211225D01*
X85823830Y-129080371D01*
X86032629Y-128938640D01*
X86256322Y-128791920D01*
X86486231Y-128646100D01*
X86713683Y-128507070D01*
X86930000Y-128380716D01*
X87126506Y-128272929D01*
X87127502Y-128272405D01*
X87690536Y-127994016D01*
X88251407Y-127753299D01*
X88818431Y-127548685D01*
X89399923Y-127378602D01*
X90004202Y-127241481D01*
X90639582Y-127135751D01*
X91314380Y-127059842D01*
X92036913Y-127012183D01*
X92815497Y-126991204D01*
X93658447Y-126995334D01*
G36*
X91321159Y-123317641D02*
X91370689Y-123399866D01*
X91449921Y-123534141D01*
X91553903Y-123711877D01*
X91677683Y-123924485D01*
X91816311Y-124163377D01*
X91964833Y-124419962D01*
X92118299Y-124685652D01*
X92271756Y-124951858D01*
X92420254Y-125209991D01*
X92558841Y-125451461D01*
X92682564Y-125667679D01*
X92786472Y-125850057D01*
X92865614Y-125990005D01*
X92915038Y-126078934D01*
X92929995Y-126108319D01*
X92891043Y-126113750D01*
X92786456Y-126124583D01*
X92628479Y-126139651D01*
X92429353Y-126157787D01*
X92201424Y-126177813D01*
X91623228Y-126233748D01*
X91108120Y-126296884D01*
X90641184Y-126369535D01*
X90207506Y-126454014D01*
X89802485Y-126549971D01*
X88918322Y-126809423D01*
X88092974Y-127117571D01*
X87322129Y-127477036D01*
X86601476Y-127890437D01*
X85926705Y-128360395D01*
X85293502Y-128889528D01*
X84697558Y-129480457D01*
X84367222Y-129852615D01*
X84232032Y-130011940D01*
X84139510Y-130120112D01*
X84081592Y-130185427D01*
X84050209Y-130216178D01*
X84037297Y-130220661D01*
X84034789Y-130207170D01*
X84034923Y-130194331D01*
X84050611Y-130135419D01*
X84093499Y-130020350D01*
X84157326Y-129863598D01*
X84235830Y-129679633D01*
X84322747Y-129482927D01*
X84411815Y-129287952D01*
X84496773Y-129109180D01*
X84554806Y-128992923D01*
X84941884Y-128298164D01*
X85362847Y-127659008D01*
X85832014Y-127055391D01*
X86339838Y-126492000D01*
X86655642Y-126172650D01*
X86965897Y-125878998D01*
X87280283Y-125603895D01*
X87608479Y-125340191D01*
X87960165Y-125080737D01*
X88345019Y-124818385D01*
X88772722Y-124545984D01*
X89252952Y-124256386D01*
X89779231Y-123951648D01*
X89999810Y-123826363D01*
X90231545Y-123695517D01*
X90461337Y-123566431D01*
X90676088Y-123446424D01*
X90862696Y-123342814D01*
X91008063Y-123262923D01*
X91099089Y-123214069D01*
X91101297Y-123212925D01*
X91218713Y-123152207D01*
X91321159Y-123317641D01*
X91321159Y-123317641D01*
G37*
X91321159Y-123317641D02*
X91370689Y-123399866D01*
X91449921Y-123534141D01*
X91553903Y-123711877D01*
X91677683Y-123924485D01*
X91816311Y-124163377D01*
X91964833Y-124419962D01*
X92118299Y-124685652D01*
X92271756Y-124951858D01*
X92420254Y-125209991D01*
X92558841Y-125451461D01*
X92682564Y-125667679D01*
X92786472Y-125850057D01*
X92865614Y-125990005D01*
X92915038Y-126078934D01*
X92929995Y-126108319D01*
X92891043Y-126113750D01*
X92786456Y-126124583D01*
X92628479Y-126139651D01*
X92429353Y-126157787D01*
X92201424Y-126177813D01*
X91623228Y-126233748D01*
X91108120Y-126296884D01*
X90641184Y-126369535D01*
X90207506Y-126454014D01*
X89802485Y-126549971D01*
X88918322Y-126809423D01*
X88092974Y-127117571D01*
X87322129Y-127477036D01*
X86601476Y-127890437D01*
X85926705Y-128360395D01*
X85293502Y-128889528D01*
X84697558Y-129480457D01*
X84367222Y-129852615D01*
X84232032Y-130011940D01*
X84139510Y-130120112D01*
X84081592Y-130185427D01*
X84050209Y-130216178D01*
X84037297Y-130220661D01*
X84034789Y-130207170D01*
X84034923Y-130194331D01*
X84050611Y-130135419D01*
X84093499Y-130020350D01*
X84157326Y-129863598D01*
X84235830Y-129679633D01*
X84322747Y-129482927D01*
X84411815Y-129287952D01*
X84496773Y-129109180D01*
X84554806Y-128992923D01*
X84941884Y-128298164D01*
X85362847Y-127659008D01*
X85832014Y-127055391D01*
X86339838Y-126492000D01*
X86655642Y-126172650D01*
X86965897Y-125878998D01*
X87280283Y-125603895D01*
X87608479Y-125340191D01*
X87960165Y-125080737D01*
X88345019Y-124818385D01*
X88772722Y-124545984D01*
X89252952Y-124256386D01*
X89779231Y-123951648D01*
X89999810Y-123826363D01*
X90231545Y-123695517D01*
X90461337Y-123566431D01*
X90676088Y-123446424D01*
X90862696Y-123342814D01*
X91008063Y-123262923D01*
X91099089Y-123214069D01*
X91101297Y-123212925D01*
X91218713Y-123152207D01*
X91321159Y-123317641D01*
D15*
X78027234Y-132526886D02*
X77860568Y-132526886D01*
X77860568Y-132788790D02*
X77860568Y-132288790D01*
X78098663Y-132288790D01*
X78265329Y-132336410D02*
X78289139Y-132312600D01*
X78336758Y-132288790D01*
X78455805Y-132288790D01*
X78503424Y-132312600D01*
X78527234Y-132336410D01*
X78551043Y-132384029D01*
X78551043Y-132431648D01*
X78527234Y-132503076D01*
X78241520Y-132788790D01*
X78551043Y-132788790D01*
D10*
X220321524Y-44748381D02*
X220321524Y-43748381D01*
X220702477Y-43748381D01*
X220797715Y-43796000D01*
X220845334Y-43843619D01*
X220892953Y-43938857D01*
X220892953Y-44081714D01*
X220845334Y-44176952D01*
X220797715Y-44224571D01*
X220702477Y-44272190D01*
X220321524Y-44272190D01*
X221464381Y-44653143D02*
X221512000Y-44700762D01*
X221464381Y-44748381D01*
X221416762Y-44700762D01*
X221464381Y-44653143D01*
X221464381Y-44748381D01*
X221273905Y-43796000D02*
X221369143Y-43748381D01*
X221607239Y-43748381D01*
X221702477Y-43796000D01*
X221750096Y-43891238D01*
X221750096Y-43986476D01*
X221702477Y-44081714D01*
X221654858Y-44129333D01*
X221559619Y-44176952D01*
X221512000Y-44224571D01*
X221464381Y-44319810D01*
X221464381Y-44367429D01*
D16*
X75896629Y-126228000D02*
X76985200Y-126228000D01*
X77202914Y-126300572D01*
X77348057Y-126445715D01*
X77420629Y-126663429D01*
X77420629Y-126808572D01*
X76041771Y-125574857D02*
X75969200Y-125502286D01*
X75896629Y-125357143D01*
X75896629Y-124994286D01*
X75969200Y-124849143D01*
X76041771Y-124776572D01*
X76186914Y-124704000D01*
X76332057Y-124704000D01*
X76549771Y-124776572D01*
X77420629Y-125647429D01*
X77420629Y-124704000D01*
X65920629Y-127280286D02*
X65194914Y-127788286D01*
X65920629Y-128151143D02*
X64396629Y-128151143D01*
X64396629Y-127570571D01*
X64469200Y-127425429D01*
X64541771Y-127352857D01*
X64686914Y-127280286D01*
X64904629Y-127280286D01*
X65049771Y-127352857D01*
X65122343Y-127425429D01*
X65194914Y-127570571D01*
X65194914Y-128151143D01*
X64396629Y-126191714D02*
X65485200Y-126191714D01*
X65702914Y-126264286D01*
X65848057Y-126409429D01*
X65920629Y-126627143D01*
X65920629Y-126772286D01*
X65920629Y-124667714D02*
X65920629Y-125538571D01*
X65920629Y-125103143D02*
X64396629Y-125103143D01*
X64614343Y-125248286D01*
X64759486Y-125393428D01*
X64832057Y-125538571D01*
X65920629Y-123216285D02*
X65920629Y-124087142D01*
X65920629Y-123651714D02*
X64396629Y-123651714D01*
X64614343Y-123796857D01*
X64759486Y-123941999D01*
X64832057Y-124087142D01*
X75896629Y-106228000D02*
X76985200Y-106228000D01*
X77202914Y-106300572D01*
X77348057Y-106445715D01*
X77420629Y-106663429D01*
X77420629Y-106808572D01*
X77420629Y-104704000D02*
X77420629Y-105574857D01*
X77420629Y-105139429D02*
X75896629Y-105139429D01*
X76114343Y-105284572D01*
X76259486Y-105429714D01*
X76332057Y-105574857D01*
X65920629Y-107280286D02*
X65194914Y-107788286D01*
X65920629Y-108151143D02*
X64396629Y-108151143D01*
X64396629Y-107570571D01*
X64469200Y-107425429D01*
X64541771Y-107352857D01*
X64686914Y-107280286D01*
X64904629Y-107280286D01*
X65049771Y-107352857D01*
X65122343Y-107425429D01*
X65194914Y-107570571D01*
X65194914Y-108151143D01*
X64396629Y-106191714D02*
X65485200Y-106191714D01*
X65702914Y-106264286D01*
X65848057Y-106409429D01*
X65920629Y-106627143D01*
X65920629Y-106772286D01*
X65920629Y-104667714D02*
X65920629Y-105538571D01*
X65920629Y-105103143D02*
X64396629Y-105103143D01*
X64614343Y-105248286D01*
X64759486Y-105393428D01*
X64832057Y-105538571D01*
X65920629Y-103216285D02*
X65920629Y-104087142D01*
X65920629Y-103651714D02*
X64396629Y-103651714D01*
X64614343Y-103796857D01*
X64759486Y-103941999D01*
X64832057Y-104087142D01*
X75896629Y-86228000D02*
X76985200Y-86228000D01*
X77202914Y-86300572D01*
X77348057Y-86445715D01*
X77420629Y-86663429D01*
X77420629Y-86808572D01*
X76549771Y-85284572D02*
X76477200Y-85429714D01*
X76404629Y-85502286D01*
X76259486Y-85574857D01*
X76186914Y-85574857D01*
X76041771Y-85502286D01*
X75969200Y-85429714D01*
X75896629Y-85284572D01*
X75896629Y-84994286D01*
X75969200Y-84849143D01*
X76041771Y-84776572D01*
X76186914Y-84704000D01*
X76259486Y-84704000D01*
X76404629Y-84776572D01*
X76477200Y-84849143D01*
X76549771Y-84994286D01*
X76549771Y-85284572D01*
X76622343Y-85429714D01*
X76694914Y-85502286D01*
X76840057Y-85574857D01*
X77130343Y-85574857D01*
X77275486Y-85502286D01*
X77348057Y-85429714D01*
X77420629Y-85284572D01*
X77420629Y-84994286D01*
X77348057Y-84849143D01*
X77275486Y-84776572D01*
X77130343Y-84704000D01*
X76840057Y-84704000D01*
X76694914Y-84776572D01*
X76622343Y-84849143D01*
X76549771Y-84994286D01*
X65920629Y-87280286D02*
X65194914Y-87788286D01*
X65920629Y-88151143D02*
X64396629Y-88151143D01*
X64396629Y-87570571D01*
X64469200Y-87425429D01*
X64541771Y-87352857D01*
X64686914Y-87280286D01*
X64904629Y-87280286D01*
X65049771Y-87352857D01*
X65122343Y-87425429D01*
X65194914Y-87570571D01*
X65194914Y-88151143D01*
X64396629Y-86191714D02*
X65485200Y-86191714D01*
X65702914Y-86264286D01*
X65848057Y-86409429D01*
X65920629Y-86627143D01*
X65920629Y-86772286D01*
X65920629Y-84667714D02*
X65920629Y-85538571D01*
X65920629Y-85103143D02*
X64396629Y-85103143D01*
X64614343Y-85248286D01*
X64759486Y-85393428D01*
X64832057Y-85538571D01*
X65920629Y-83216285D02*
X65920629Y-84087142D01*
X65920629Y-83651714D02*
X64396629Y-83651714D01*
X64614343Y-83796857D01*
X64759486Y-83941999D01*
X64832057Y-84087142D01*
X75896629Y-66228000D02*
X76985200Y-66228000D01*
X77202914Y-66300572D01*
X77348057Y-66445715D01*
X77420629Y-66663429D01*
X77420629Y-66808572D01*
X75896629Y-65647429D02*
X75896629Y-64631429D01*
X77420629Y-65284572D01*
X65920629Y-67280286D02*
X65194914Y-67788286D01*
X65920629Y-68151143D02*
X64396629Y-68151143D01*
X64396629Y-67570571D01*
X64469200Y-67425429D01*
X64541771Y-67352857D01*
X64686914Y-67280286D01*
X64904629Y-67280286D01*
X65049771Y-67352857D01*
X65122343Y-67425429D01*
X65194914Y-67570571D01*
X65194914Y-68151143D01*
X64396629Y-66191714D02*
X65485200Y-66191714D01*
X65702914Y-66264286D01*
X65848057Y-66409429D01*
X65920629Y-66627143D01*
X65920629Y-66772286D01*
X65920629Y-64667714D02*
X65920629Y-65538571D01*
X65920629Y-65103143D02*
X64396629Y-65103143D01*
X64614343Y-65248286D01*
X64759486Y-65393428D01*
X64832057Y-65538571D01*
X65920629Y-63216285D02*
X65920629Y-64087142D01*
X65920629Y-63651714D02*
X64396629Y-63651714D01*
X64614343Y-63796857D01*
X64759486Y-63941999D01*
X64832057Y-64087142D01*
D15*
X90866934Y-61203686D02*
X90700268Y-61203686D01*
X90700268Y-61465590D02*
X90700268Y-60965590D01*
X90938363Y-60965590D01*
X91390743Y-61465590D02*
X91105029Y-61465590D01*
X91247886Y-61465590D02*
X91247886Y-60965590D01*
X91200267Y-61037019D01*
X91152648Y-61084638D01*
X91105029Y-61108448D01*
M02*
