G04 #@! TF.FileFunction,Copper,L1,Top,Signal*
%FSLAX46Y46*%
G04 Gerber Fmt 4.6, Leading zero omitted, Abs format (unit mm)*
G04 Created by KiCad (PCBNEW 4.0.4+e1-6308~48~ubuntu15.10.1-stable) date Tue Aug  8 09:27:19 2017*
%MOMM*%
%LPD*%
G01*
G04 APERTURE LIST*
%ADD10C,0.150000*%
%ADD11C,1.000000*%
%ADD12C,5.500000*%
%ADD13C,5.000000*%
%ADD14R,1.727200X1.727200*%
%ADD15O,1.800000X1.500000*%
%ADD16O,1.727200X1.727200*%
%ADD17C,1.160000*%
%ADD18O,3.200000X1.800000*%
%ADD19C,0.254000*%
G04 APERTURE END LIST*
D10*
D11*
X77190600Y-131711700D03*
X89966800Y-60401200D03*
D12*
X80772000Y-51296000D03*
X80772000Y-140296000D03*
D13*
X65772000Y-140296000D03*
X65772000Y-51296000D03*
D14*
X86671200Y-84290000D03*
D15*
X89211200Y-84290000D03*
X86671200Y-86830000D03*
X89211200Y-86830000D03*
X86671200Y-89370000D03*
X89211200Y-89370000D03*
X86671200Y-91910000D03*
X89211200Y-91910000D03*
D16*
X86671200Y-94450000D03*
X89211200Y-94450000D03*
D15*
X86671200Y-96990000D03*
X89211200Y-96990000D03*
X86671200Y-99530000D03*
X89211200Y-99530000D03*
X86671200Y-102070000D03*
X89211200Y-102070000D03*
X86671200Y-104610000D03*
X89211200Y-104610000D03*
X86671200Y-107150000D03*
X89211200Y-107150000D03*
D12*
X91287600Y-117449600D03*
D17*
X70081200Y-126230000D03*
X70081200Y-124190000D03*
X67531200Y-125210000D03*
X67531200Y-127250000D03*
D18*
X67731200Y-131100000D03*
X67731200Y-120340000D03*
D17*
X70081200Y-106230000D03*
X70081200Y-104190000D03*
X67531200Y-105210000D03*
X67531200Y-107250000D03*
D18*
X67731200Y-111100000D03*
X67731200Y-100340000D03*
D17*
X70081200Y-86230000D03*
X70081200Y-84190000D03*
X67531200Y-85210000D03*
X67531200Y-87250000D03*
D18*
X67731200Y-91100000D03*
X67731200Y-80340000D03*
D17*
X70081200Y-66230000D03*
X70081200Y-64190000D03*
X67531200Y-65210000D03*
X67531200Y-67250000D03*
D18*
X67731200Y-71100000D03*
X67731200Y-60340000D03*
D19*
G36*
X97123700Y-144876900D02*
X63758700Y-144876900D01*
X63758700Y-142596364D01*
X63997421Y-142954564D01*
X65149892Y-143431294D01*
X66397072Y-143430705D01*
X67546579Y-142954564D01*
X67828275Y-142531880D01*
X65772000Y-140475605D01*
X65757858Y-140489748D01*
X65578253Y-140310143D01*
X65592395Y-140296000D01*
X65951605Y-140296000D01*
X68007880Y-142352275D01*
X68430564Y-142070579D01*
X68887987Y-140964780D01*
X77394415Y-140964780D01*
X77907450Y-142206418D01*
X78856586Y-143157212D01*
X80097326Y-143672412D01*
X81440780Y-143673585D01*
X82682418Y-143160550D01*
X83633212Y-142211414D01*
X84148412Y-140970674D01*
X84149585Y-139627220D01*
X83636550Y-138385582D01*
X82687414Y-137434788D01*
X81446674Y-136919588D01*
X80103220Y-136918415D01*
X78861582Y-137431450D01*
X77910788Y-138380586D01*
X77395588Y-139621326D01*
X77394415Y-140964780D01*
X68887987Y-140964780D01*
X68907294Y-140918108D01*
X68906705Y-139670928D01*
X68430564Y-138521421D01*
X68007880Y-138239725D01*
X65951605Y-140296000D01*
X65592395Y-140296000D01*
X65578253Y-140281858D01*
X65757858Y-140102253D01*
X65772000Y-140116395D01*
X67828275Y-138060120D01*
X67546579Y-137637436D01*
X66394108Y-137160706D01*
X65146928Y-137161295D01*
X63997421Y-137637436D01*
X63758700Y-137995636D01*
X63758700Y-131100000D01*
X65460570Y-131100000D01*
X65576806Y-131684358D01*
X65907818Y-132179752D01*
X66403212Y-132510764D01*
X66987570Y-132627000D01*
X68474830Y-132627000D01*
X69059188Y-132510764D01*
X69554582Y-132179752D01*
X69682465Y-131988361D01*
X75793358Y-131988361D01*
X76005590Y-132502003D01*
X76398230Y-132895329D01*
X76911500Y-133108457D01*
X77467261Y-133108942D01*
X77980903Y-132896710D01*
X78374229Y-132504070D01*
X78587357Y-131990800D01*
X78587842Y-131435039D01*
X78375610Y-130921397D01*
X77982970Y-130528071D01*
X77469700Y-130314943D01*
X76913939Y-130314458D01*
X76400297Y-130526690D01*
X76006971Y-130919330D01*
X75793843Y-131432600D01*
X75793358Y-131988361D01*
X69682465Y-131988361D01*
X69885594Y-131684358D01*
X70001830Y-131100000D01*
X69885594Y-130515642D01*
X69554582Y-130020248D01*
X69059188Y-129689236D01*
X68474830Y-129573000D01*
X66987570Y-129573000D01*
X66403212Y-129689236D01*
X65907818Y-130020248D01*
X65576806Y-130515642D01*
X65460570Y-131100000D01*
X63758700Y-131100000D01*
X63758700Y-127489034D01*
X66323990Y-127489034D01*
X66507358Y-127932818D01*
X66846596Y-128272649D01*
X67290059Y-128456790D01*
X67770234Y-128457210D01*
X68214018Y-128273842D01*
X68553849Y-127934604D01*
X68737990Y-127491141D01*
X68738410Y-127010966D01*
X68555042Y-126567182D01*
X68215804Y-126227351D01*
X68168341Y-126207643D01*
X68199812Y-126058217D01*
X67531200Y-125389605D01*
X66862588Y-126058217D01*
X66893990Y-126207313D01*
X66848382Y-126226158D01*
X66508551Y-126565396D01*
X66324410Y-127008859D01*
X66323990Y-127489034D01*
X63758700Y-127489034D01*
X63758700Y-125045823D01*
X66303325Y-125045823D01*
X66333963Y-125528207D01*
X66459619Y-125831568D01*
X66682983Y-125878612D01*
X67351595Y-125210000D01*
X67710805Y-125210000D01*
X68379417Y-125878612D01*
X68602781Y-125831568D01*
X68759075Y-125374177D01*
X68728437Y-124891793D01*
X68602781Y-124588432D01*
X68379417Y-124541388D01*
X67710805Y-125210000D01*
X67351595Y-125210000D01*
X66682983Y-124541388D01*
X66459619Y-124588432D01*
X66303325Y-125045823D01*
X63758700Y-125045823D01*
X63758700Y-124361783D01*
X66862588Y-124361783D01*
X67531200Y-125030395D01*
X68132561Y-124429034D01*
X68873990Y-124429034D01*
X69057358Y-124872818D01*
X69394242Y-125210291D01*
X69058551Y-125545396D01*
X68874410Y-125988859D01*
X68873990Y-126469034D01*
X69057358Y-126912818D01*
X69396596Y-127252649D01*
X69840059Y-127436790D01*
X70320234Y-127437210D01*
X70764018Y-127253842D01*
X71103849Y-126914604D01*
X71287990Y-126471141D01*
X71288410Y-125990966D01*
X71105042Y-125547182D01*
X70768158Y-125209709D01*
X71103849Y-124874604D01*
X71287990Y-124431141D01*
X71288410Y-123950966D01*
X71105042Y-123507182D01*
X70765804Y-123167351D01*
X70322341Y-122983210D01*
X69842166Y-122982790D01*
X69398382Y-123166158D01*
X69058551Y-123505396D01*
X68874410Y-123948859D01*
X68873990Y-124429034D01*
X68132561Y-124429034D01*
X68199812Y-124361783D01*
X68152768Y-124138419D01*
X67695377Y-123982125D01*
X67212993Y-124012763D01*
X66909632Y-124138419D01*
X66862588Y-124361783D01*
X63758700Y-124361783D01*
X63758700Y-120340000D01*
X65460570Y-120340000D01*
X65576806Y-120924358D01*
X65907818Y-121419752D01*
X66403212Y-121750764D01*
X66987570Y-121867000D01*
X68474830Y-121867000D01*
X69059188Y-121750764D01*
X69554582Y-121419752D01*
X69885594Y-120924358D01*
X70001830Y-120340000D01*
X69907519Y-119865866D01*
X89050939Y-119865866D01*
X89363087Y-120314532D01*
X90605943Y-120832931D01*
X91952576Y-120836248D01*
X93197971Y-120323980D01*
X93212113Y-120314532D01*
X93524261Y-119865866D01*
X91287600Y-117629205D01*
X89050939Y-119865866D01*
X69907519Y-119865866D01*
X69885594Y-119755642D01*
X69554582Y-119260248D01*
X69059188Y-118929236D01*
X68474830Y-118813000D01*
X66987570Y-118813000D01*
X66403212Y-118929236D01*
X65907818Y-119260248D01*
X65576806Y-119755642D01*
X65460570Y-120340000D01*
X63758700Y-120340000D01*
X63758700Y-118114576D01*
X87900952Y-118114576D01*
X88413220Y-119359971D01*
X88422668Y-119374113D01*
X88871334Y-119686261D01*
X91107995Y-117449600D01*
X91467205Y-117449600D01*
X93703866Y-119686261D01*
X94152532Y-119374113D01*
X94670931Y-118131257D01*
X94674248Y-116784624D01*
X94161980Y-115539229D01*
X94152532Y-115525087D01*
X93703866Y-115212939D01*
X91467205Y-117449600D01*
X91107995Y-117449600D01*
X88871334Y-115212939D01*
X88422668Y-115525087D01*
X87904269Y-116767943D01*
X87900952Y-118114576D01*
X63758700Y-118114576D01*
X63758700Y-115033334D01*
X89050939Y-115033334D01*
X91287600Y-117269995D01*
X93524261Y-115033334D01*
X93212113Y-114584668D01*
X91969257Y-114066269D01*
X90622624Y-114062952D01*
X89377229Y-114575220D01*
X89363087Y-114584668D01*
X89050939Y-115033334D01*
X63758700Y-115033334D01*
X63758700Y-111100000D01*
X65460570Y-111100000D01*
X65576806Y-111684358D01*
X65907818Y-112179752D01*
X66403212Y-112510764D01*
X66987570Y-112627000D01*
X68474830Y-112627000D01*
X69059188Y-112510764D01*
X69554582Y-112179752D01*
X69885594Y-111684358D01*
X70001830Y-111100000D01*
X69885594Y-110515642D01*
X69554582Y-110020248D01*
X69059188Y-109689236D01*
X68474830Y-109573000D01*
X66987570Y-109573000D01*
X66403212Y-109689236D01*
X65907818Y-110020248D01*
X65576806Y-110515642D01*
X65460570Y-111100000D01*
X63758700Y-111100000D01*
X63758700Y-107489034D01*
X66323990Y-107489034D01*
X66507358Y-107932818D01*
X66846596Y-108272649D01*
X67290059Y-108456790D01*
X67770234Y-108457210D01*
X68214018Y-108273842D01*
X68553849Y-107934604D01*
X68737990Y-107491141D01*
X68738410Y-107010966D01*
X68555042Y-106567182D01*
X68215804Y-106227351D01*
X68168341Y-106207643D01*
X68199812Y-106058217D01*
X67531200Y-105389605D01*
X66862588Y-106058217D01*
X66893990Y-106207313D01*
X66848382Y-106226158D01*
X66508551Y-106565396D01*
X66324410Y-107008859D01*
X66323990Y-107489034D01*
X63758700Y-107489034D01*
X63758700Y-105045823D01*
X66303325Y-105045823D01*
X66333963Y-105528207D01*
X66459619Y-105831568D01*
X66682983Y-105878612D01*
X67351595Y-105210000D01*
X67710805Y-105210000D01*
X68379417Y-105878612D01*
X68602781Y-105831568D01*
X68759075Y-105374177D01*
X68728437Y-104891793D01*
X68602781Y-104588432D01*
X68379417Y-104541388D01*
X67710805Y-105210000D01*
X67351595Y-105210000D01*
X66682983Y-104541388D01*
X66459619Y-104588432D01*
X66303325Y-105045823D01*
X63758700Y-105045823D01*
X63758700Y-104361783D01*
X66862588Y-104361783D01*
X67531200Y-105030395D01*
X68132561Y-104429034D01*
X68873990Y-104429034D01*
X69057358Y-104872818D01*
X69394242Y-105210291D01*
X69058551Y-105545396D01*
X68874410Y-105988859D01*
X68873990Y-106469034D01*
X69057358Y-106912818D01*
X69396596Y-107252649D01*
X69840059Y-107436790D01*
X70320234Y-107437210D01*
X70764018Y-107253842D01*
X71103849Y-106914604D01*
X71287990Y-106471141D01*
X71288410Y-105990966D01*
X71105042Y-105547182D01*
X70768158Y-105209709D01*
X71103849Y-104874604D01*
X71287990Y-104431141D01*
X71288410Y-103950966D01*
X71105042Y-103507182D01*
X70765804Y-103167351D01*
X70322341Y-102983210D01*
X69842166Y-102982790D01*
X69398382Y-103166158D01*
X69058551Y-103505396D01*
X68874410Y-103948859D01*
X68873990Y-104429034D01*
X68132561Y-104429034D01*
X68199812Y-104361783D01*
X68152768Y-104138419D01*
X67695377Y-103982125D01*
X67212993Y-104012763D01*
X66909632Y-104138419D01*
X66862588Y-104361783D01*
X63758700Y-104361783D01*
X63758700Y-100340000D01*
X65460570Y-100340000D01*
X65576806Y-100924358D01*
X65907818Y-101419752D01*
X66403212Y-101750764D01*
X66987570Y-101867000D01*
X68474830Y-101867000D01*
X69059188Y-101750764D01*
X69554582Y-101419752D01*
X69885594Y-100924358D01*
X70001830Y-100340000D01*
X69885594Y-99755642D01*
X69734825Y-99530000D01*
X85114284Y-99530000D01*
X85219102Y-100056955D01*
X85517598Y-100503686D01*
X85964329Y-100802182D01*
X86004878Y-100810248D01*
X85816601Y-100876179D01*
X85413380Y-101236692D01*
X85178882Y-101728815D01*
X85301544Y-101943000D01*
X86544200Y-101943000D01*
X86544200Y-101923000D01*
X86798200Y-101923000D01*
X86798200Y-101943000D01*
X86818200Y-101943000D01*
X86818200Y-102197000D01*
X86798200Y-102197000D01*
X86798200Y-102217000D01*
X86544200Y-102217000D01*
X86544200Y-102197000D01*
X85301544Y-102197000D01*
X85178882Y-102411185D01*
X85413380Y-102903308D01*
X85816601Y-103263821D01*
X86004878Y-103329752D01*
X85964329Y-103337818D01*
X85517598Y-103636314D01*
X85219102Y-104083045D01*
X85114284Y-104610000D01*
X85219102Y-105136955D01*
X85517598Y-105583686D01*
X85961063Y-105880000D01*
X85517598Y-106176314D01*
X85219102Y-106623045D01*
X85114284Y-107150000D01*
X85219102Y-107676955D01*
X85517598Y-108123686D01*
X85964329Y-108422182D01*
X86491284Y-108527000D01*
X86851116Y-108527000D01*
X87378071Y-108422182D01*
X87824802Y-108123686D01*
X87941200Y-107949484D01*
X88057598Y-108123686D01*
X88504329Y-108422182D01*
X89031284Y-108527000D01*
X89391116Y-108527000D01*
X89918071Y-108422182D01*
X90364802Y-108123686D01*
X90663298Y-107676955D01*
X90768116Y-107150000D01*
X90663298Y-106623045D01*
X90364802Y-106176314D01*
X89918071Y-105877818D01*
X89877522Y-105869752D01*
X90065799Y-105803821D01*
X90469020Y-105443308D01*
X90703518Y-104951185D01*
X90580856Y-104737000D01*
X89338200Y-104737000D01*
X89338200Y-104757000D01*
X89084200Y-104757000D01*
X89084200Y-104737000D01*
X89064200Y-104737000D01*
X89064200Y-104483000D01*
X89084200Y-104483000D01*
X89084200Y-104463000D01*
X89338200Y-104463000D01*
X89338200Y-104483000D01*
X90580856Y-104483000D01*
X90703518Y-104268815D01*
X90469020Y-103776692D01*
X90065799Y-103416179D01*
X89877522Y-103350248D01*
X89918071Y-103342182D01*
X90364802Y-103043686D01*
X90663298Y-102596955D01*
X90768116Y-102070000D01*
X90663298Y-101543045D01*
X90364802Y-101096314D01*
X89921337Y-100800000D01*
X90364802Y-100503686D01*
X90663298Y-100056955D01*
X90768116Y-99530000D01*
X90663298Y-99003045D01*
X90364802Y-98556314D01*
X89918071Y-98257818D01*
X89877522Y-98249752D01*
X90065799Y-98183821D01*
X90469020Y-97823308D01*
X90703518Y-97331185D01*
X90580856Y-97117000D01*
X89338200Y-97117000D01*
X89338200Y-97137000D01*
X89084200Y-97137000D01*
X89084200Y-97117000D01*
X86798200Y-97117000D01*
X86798200Y-97137000D01*
X86544200Y-97137000D01*
X86544200Y-97117000D01*
X85301544Y-97117000D01*
X85178882Y-97331185D01*
X85413380Y-97823308D01*
X85816601Y-98183821D01*
X86004878Y-98249752D01*
X85964329Y-98257818D01*
X85517598Y-98556314D01*
X85219102Y-99003045D01*
X85114284Y-99530000D01*
X69734825Y-99530000D01*
X69554582Y-99260248D01*
X69059188Y-98929236D01*
X68474830Y-98813000D01*
X66987570Y-98813000D01*
X66403212Y-98929236D01*
X65907818Y-99260248D01*
X65576806Y-99755642D01*
X65460570Y-100340000D01*
X63758700Y-100340000D01*
X63758700Y-96648815D01*
X85178882Y-96648815D01*
X85301544Y-96863000D01*
X86544200Y-96863000D01*
X86544200Y-94577000D01*
X85337383Y-94577000D01*
X85216242Y-94809026D01*
X85388512Y-95224947D01*
X85782710Y-95656821D01*
X85967389Y-95743376D01*
X85816601Y-95796179D01*
X85413380Y-96156692D01*
X85178882Y-96648815D01*
X63758700Y-96648815D01*
X63758700Y-91100000D01*
X65460570Y-91100000D01*
X65576806Y-91684358D01*
X65907818Y-92179752D01*
X66403212Y-92510764D01*
X66987570Y-92627000D01*
X68474830Y-92627000D01*
X69059188Y-92510764D01*
X69554582Y-92179752D01*
X69734824Y-91910000D01*
X85114284Y-91910000D01*
X85219102Y-92436955D01*
X85517598Y-92883686D01*
X85943109Y-93168004D01*
X85782710Y-93243179D01*
X85388512Y-93675053D01*
X85216242Y-94090974D01*
X85337383Y-94323000D01*
X86544200Y-94323000D01*
X86544200Y-94303000D01*
X86798200Y-94303000D01*
X86798200Y-94323000D01*
X86818200Y-94323000D01*
X86818200Y-94577000D01*
X86798200Y-94577000D01*
X86798200Y-96863000D01*
X89084200Y-96863000D01*
X89084200Y-96843000D01*
X89338200Y-96843000D01*
X89338200Y-96863000D01*
X90580856Y-96863000D01*
X90703518Y-96648815D01*
X90469020Y-96156692D01*
X90065799Y-95796179D01*
X89928904Y-95748241D01*
X90294416Y-95504013D01*
X90617538Y-95020428D01*
X90731003Y-94450000D01*
X90617538Y-93879572D01*
X90294416Y-93395987D01*
X89946253Y-93163351D01*
X90364802Y-92883686D01*
X90663298Y-92436955D01*
X90768116Y-91910000D01*
X90663298Y-91383045D01*
X90364802Y-90936314D01*
X89918071Y-90637818D01*
X89877522Y-90629752D01*
X90065799Y-90563821D01*
X90469020Y-90203308D01*
X90703518Y-89711185D01*
X90580856Y-89497000D01*
X89338200Y-89497000D01*
X89338200Y-89517000D01*
X89084200Y-89517000D01*
X89084200Y-89497000D01*
X86798200Y-89497000D01*
X86798200Y-89517000D01*
X86544200Y-89517000D01*
X86544200Y-89497000D01*
X85301544Y-89497000D01*
X85178882Y-89711185D01*
X85413380Y-90203308D01*
X85816601Y-90563821D01*
X86004878Y-90629752D01*
X85964329Y-90637818D01*
X85517598Y-90936314D01*
X85219102Y-91383045D01*
X85114284Y-91910000D01*
X69734824Y-91910000D01*
X69885594Y-91684358D01*
X70001830Y-91100000D01*
X69885594Y-90515642D01*
X69554582Y-90020248D01*
X69059188Y-89689236D01*
X68474830Y-89573000D01*
X66987570Y-89573000D01*
X66403212Y-89689236D01*
X65907818Y-90020248D01*
X65576806Y-90515642D01*
X65460570Y-91100000D01*
X63758700Y-91100000D01*
X63758700Y-87489034D01*
X66323990Y-87489034D01*
X66507358Y-87932818D01*
X66846596Y-88272649D01*
X67290059Y-88456790D01*
X67770234Y-88457210D01*
X68214018Y-88273842D01*
X68553849Y-87934604D01*
X68737990Y-87491141D01*
X68738410Y-87010966D01*
X68555042Y-86567182D01*
X68215804Y-86227351D01*
X68168341Y-86207643D01*
X68199812Y-86058217D01*
X67531200Y-85389605D01*
X66862588Y-86058217D01*
X66893990Y-86207313D01*
X66848382Y-86226158D01*
X66508551Y-86565396D01*
X66324410Y-87008859D01*
X66323990Y-87489034D01*
X63758700Y-87489034D01*
X63758700Y-85045823D01*
X66303325Y-85045823D01*
X66333963Y-85528207D01*
X66459619Y-85831568D01*
X66682983Y-85878612D01*
X67351595Y-85210000D01*
X67710805Y-85210000D01*
X68379417Y-85878612D01*
X68602781Y-85831568D01*
X68759075Y-85374177D01*
X68728437Y-84891793D01*
X68602781Y-84588432D01*
X68379417Y-84541388D01*
X67710805Y-85210000D01*
X67351595Y-85210000D01*
X66682983Y-84541388D01*
X66459619Y-84588432D01*
X66303325Y-85045823D01*
X63758700Y-85045823D01*
X63758700Y-84361783D01*
X66862588Y-84361783D01*
X67531200Y-85030395D01*
X68132561Y-84429034D01*
X68873990Y-84429034D01*
X69057358Y-84872818D01*
X69394242Y-85210291D01*
X69058551Y-85545396D01*
X68874410Y-85988859D01*
X68873990Y-86469034D01*
X69057358Y-86912818D01*
X69396596Y-87252649D01*
X69840059Y-87436790D01*
X70320234Y-87437210D01*
X70764018Y-87253842D01*
X70846819Y-87171185D01*
X85178882Y-87171185D01*
X85413380Y-87663308D01*
X85816601Y-88023821D01*
X86034143Y-88100000D01*
X85816601Y-88176179D01*
X85413380Y-88536692D01*
X85178882Y-89028815D01*
X85301544Y-89243000D01*
X86544200Y-89243000D01*
X86544200Y-88142698D01*
X86480393Y-88100000D01*
X86544200Y-88057302D01*
X86544200Y-86957000D01*
X85301544Y-86957000D01*
X85178882Y-87171185D01*
X70846819Y-87171185D01*
X71103849Y-86914604D01*
X71287990Y-86471141D01*
X71288410Y-85990966D01*
X71105042Y-85547182D01*
X70768158Y-85209709D01*
X71103849Y-84874604D01*
X71287990Y-84431141D01*
X71288410Y-83950966D01*
X71105042Y-83507182D01*
X71024401Y-83426400D01*
X85168317Y-83426400D01*
X85168317Y-85153600D01*
X85212037Y-85385952D01*
X85349357Y-85599353D01*
X85558883Y-85742517D01*
X85672037Y-85765431D01*
X85413380Y-85996692D01*
X85178882Y-86488815D01*
X85301544Y-86703000D01*
X86544200Y-86703000D01*
X86544200Y-86683000D01*
X86798200Y-86683000D01*
X86798200Y-86703000D01*
X86818200Y-86703000D01*
X86818200Y-86957000D01*
X86798200Y-86957000D01*
X86798200Y-88057302D01*
X86862007Y-88100000D01*
X86798200Y-88142698D01*
X86798200Y-89243000D01*
X89084200Y-89243000D01*
X89084200Y-89223000D01*
X89338200Y-89223000D01*
X89338200Y-89243000D01*
X90580856Y-89243000D01*
X90703518Y-89028815D01*
X90469020Y-88536692D01*
X90065799Y-88176179D01*
X89877522Y-88110248D01*
X89918071Y-88102182D01*
X90364802Y-87803686D01*
X90663298Y-87356955D01*
X90768116Y-86830000D01*
X90663298Y-86303045D01*
X90364802Y-85856314D01*
X89921337Y-85560000D01*
X90364802Y-85263686D01*
X90663298Y-84816955D01*
X90768116Y-84290000D01*
X90663298Y-83763045D01*
X90364802Y-83316314D01*
X89918071Y-83017818D01*
X89391116Y-82913000D01*
X89031284Y-82913000D01*
X88504329Y-83017818D01*
X88142673Y-83259469D01*
X88130363Y-83194048D01*
X87993043Y-82980647D01*
X87783517Y-82837483D01*
X87534800Y-82787117D01*
X85807600Y-82787117D01*
X85575248Y-82830837D01*
X85361847Y-82968157D01*
X85218683Y-83177683D01*
X85168317Y-83426400D01*
X71024401Y-83426400D01*
X70765804Y-83167351D01*
X70322341Y-82983210D01*
X69842166Y-82982790D01*
X69398382Y-83166158D01*
X69058551Y-83505396D01*
X68874410Y-83948859D01*
X68873990Y-84429034D01*
X68132561Y-84429034D01*
X68199812Y-84361783D01*
X68152768Y-84138419D01*
X67695377Y-83982125D01*
X67212993Y-84012763D01*
X66909632Y-84138419D01*
X66862588Y-84361783D01*
X63758700Y-84361783D01*
X63758700Y-80340000D01*
X65460570Y-80340000D01*
X65576806Y-80924358D01*
X65907818Y-81419752D01*
X66403212Y-81750764D01*
X66987570Y-81867000D01*
X68474830Y-81867000D01*
X69059188Y-81750764D01*
X69554582Y-81419752D01*
X69885594Y-80924358D01*
X70001830Y-80340000D01*
X69885594Y-79755642D01*
X69554582Y-79260248D01*
X69059188Y-78929236D01*
X68474830Y-78813000D01*
X66987570Y-78813000D01*
X66403212Y-78929236D01*
X65907818Y-79260248D01*
X65576806Y-79755642D01*
X65460570Y-80340000D01*
X63758700Y-80340000D01*
X63758700Y-71100000D01*
X65460570Y-71100000D01*
X65576806Y-71684358D01*
X65907818Y-72179752D01*
X66403212Y-72510764D01*
X66987570Y-72627000D01*
X68474830Y-72627000D01*
X69059188Y-72510764D01*
X69554582Y-72179752D01*
X69885594Y-71684358D01*
X70001830Y-71100000D01*
X69885594Y-70515642D01*
X69554582Y-70020248D01*
X69059188Y-69689236D01*
X68474830Y-69573000D01*
X66987570Y-69573000D01*
X66403212Y-69689236D01*
X65907818Y-70020248D01*
X65576806Y-70515642D01*
X65460570Y-71100000D01*
X63758700Y-71100000D01*
X63758700Y-67489034D01*
X66323990Y-67489034D01*
X66507358Y-67932818D01*
X66846596Y-68272649D01*
X67290059Y-68456790D01*
X67770234Y-68457210D01*
X68214018Y-68273842D01*
X68553849Y-67934604D01*
X68737990Y-67491141D01*
X68738410Y-67010966D01*
X68555042Y-66567182D01*
X68215804Y-66227351D01*
X68168341Y-66207643D01*
X68199812Y-66058217D01*
X67531200Y-65389605D01*
X66862588Y-66058217D01*
X66893990Y-66207313D01*
X66848382Y-66226158D01*
X66508551Y-66565396D01*
X66324410Y-67008859D01*
X66323990Y-67489034D01*
X63758700Y-67489034D01*
X63758700Y-65045823D01*
X66303325Y-65045823D01*
X66333963Y-65528207D01*
X66459619Y-65831568D01*
X66682983Y-65878612D01*
X67351595Y-65210000D01*
X67710805Y-65210000D01*
X68379417Y-65878612D01*
X68602781Y-65831568D01*
X68759075Y-65374177D01*
X68728437Y-64891793D01*
X68602781Y-64588432D01*
X68379417Y-64541388D01*
X67710805Y-65210000D01*
X67351595Y-65210000D01*
X66682983Y-64541388D01*
X66459619Y-64588432D01*
X66303325Y-65045823D01*
X63758700Y-65045823D01*
X63758700Y-64361783D01*
X66862588Y-64361783D01*
X67531200Y-65030395D01*
X68132561Y-64429034D01*
X68873990Y-64429034D01*
X69057358Y-64872818D01*
X69394242Y-65210291D01*
X69058551Y-65545396D01*
X68874410Y-65988859D01*
X68873990Y-66469034D01*
X69057358Y-66912818D01*
X69396596Y-67252649D01*
X69840059Y-67436790D01*
X70320234Y-67437210D01*
X70764018Y-67253842D01*
X71103849Y-66914604D01*
X71287990Y-66471141D01*
X71288410Y-65990966D01*
X71105042Y-65547182D01*
X70768158Y-65209709D01*
X71103849Y-64874604D01*
X71287990Y-64431141D01*
X71288410Y-63950966D01*
X71105042Y-63507182D01*
X70765804Y-63167351D01*
X70322341Y-62983210D01*
X69842166Y-62982790D01*
X69398382Y-63166158D01*
X69058551Y-63505396D01*
X68874410Y-63948859D01*
X68873990Y-64429034D01*
X68132561Y-64429034D01*
X68199812Y-64361783D01*
X68152768Y-64138419D01*
X67695377Y-63982125D01*
X67212993Y-64012763D01*
X66909632Y-64138419D01*
X66862588Y-64361783D01*
X63758700Y-64361783D01*
X63758700Y-60340000D01*
X65460570Y-60340000D01*
X65576806Y-60924358D01*
X65907818Y-61419752D01*
X66403212Y-61750764D01*
X66987570Y-61867000D01*
X68474830Y-61867000D01*
X69059188Y-61750764D01*
X69554582Y-61419752D01*
X69885594Y-60924358D01*
X69934625Y-60677861D01*
X88569558Y-60677861D01*
X88781790Y-61191503D01*
X89174430Y-61584829D01*
X89687700Y-61797957D01*
X90243461Y-61798442D01*
X90757103Y-61586210D01*
X91150429Y-61193570D01*
X91363557Y-60680300D01*
X91364042Y-60124539D01*
X91151810Y-59610897D01*
X90759170Y-59217571D01*
X90245900Y-59004443D01*
X89690139Y-59003958D01*
X89176497Y-59216190D01*
X88783171Y-59608830D01*
X88570043Y-60122100D01*
X88569558Y-60677861D01*
X69934625Y-60677861D01*
X70001830Y-60340000D01*
X69885594Y-59755642D01*
X69554582Y-59260248D01*
X69059188Y-58929236D01*
X68474830Y-58813000D01*
X66987570Y-58813000D01*
X66403212Y-58929236D01*
X65907818Y-59260248D01*
X65576806Y-59755642D01*
X65460570Y-60340000D01*
X63758700Y-60340000D01*
X63758700Y-53596364D01*
X63997421Y-53954564D01*
X65149892Y-54431294D01*
X66397072Y-54430705D01*
X67546579Y-53954564D01*
X67828275Y-53531880D01*
X65772000Y-51475605D01*
X65757858Y-51489748D01*
X65578253Y-51310143D01*
X65592395Y-51296000D01*
X65951605Y-51296000D01*
X68007880Y-53352275D01*
X68430564Y-53070579D01*
X68887987Y-51964780D01*
X77394415Y-51964780D01*
X77907450Y-53206418D01*
X78856586Y-54157212D01*
X80097326Y-54672412D01*
X81440780Y-54673585D01*
X82682418Y-54160550D01*
X83633212Y-53211414D01*
X84148412Y-51970674D01*
X84149585Y-50627220D01*
X83636550Y-49385582D01*
X82687414Y-48434788D01*
X81446674Y-47919588D01*
X80103220Y-47918415D01*
X78861582Y-48431450D01*
X77910788Y-49380586D01*
X77395588Y-50621326D01*
X77394415Y-51964780D01*
X68887987Y-51964780D01*
X68907294Y-51918108D01*
X68906705Y-50670928D01*
X68430564Y-49521421D01*
X68007880Y-49239725D01*
X65951605Y-51296000D01*
X65592395Y-51296000D01*
X65578253Y-51281858D01*
X65757858Y-51102253D01*
X65772000Y-51116395D01*
X67828275Y-49060120D01*
X67546579Y-48637436D01*
X66394108Y-48160706D01*
X65146928Y-48161295D01*
X63997421Y-48637436D01*
X63758700Y-48995636D01*
X63758700Y-46537500D01*
X97123700Y-46537500D01*
X97123700Y-144876900D01*
X97123700Y-144876900D01*
G37*
X97123700Y-144876900D02*
X63758700Y-144876900D01*
X63758700Y-142596364D01*
X63997421Y-142954564D01*
X65149892Y-143431294D01*
X66397072Y-143430705D01*
X67546579Y-142954564D01*
X67828275Y-142531880D01*
X65772000Y-140475605D01*
X65757858Y-140489748D01*
X65578253Y-140310143D01*
X65592395Y-140296000D01*
X65951605Y-140296000D01*
X68007880Y-142352275D01*
X68430564Y-142070579D01*
X68887987Y-140964780D01*
X77394415Y-140964780D01*
X77907450Y-142206418D01*
X78856586Y-143157212D01*
X80097326Y-143672412D01*
X81440780Y-143673585D01*
X82682418Y-143160550D01*
X83633212Y-142211414D01*
X84148412Y-140970674D01*
X84149585Y-139627220D01*
X83636550Y-138385582D01*
X82687414Y-137434788D01*
X81446674Y-136919588D01*
X80103220Y-136918415D01*
X78861582Y-137431450D01*
X77910788Y-138380586D01*
X77395588Y-139621326D01*
X77394415Y-140964780D01*
X68887987Y-140964780D01*
X68907294Y-140918108D01*
X68906705Y-139670928D01*
X68430564Y-138521421D01*
X68007880Y-138239725D01*
X65951605Y-140296000D01*
X65592395Y-140296000D01*
X65578253Y-140281858D01*
X65757858Y-140102253D01*
X65772000Y-140116395D01*
X67828275Y-138060120D01*
X67546579Y-137637436D01*
X66394108Y-137160706D01*
X65146928Y-137161295D01*
X63997421Y-137637436D01*
X63758700Y-137995636D01*
X63758700Y-131100000D01*
X65460570Y-131100000D01*
X65576806Y-131684358D01*
X65907818Y-132179752D01*
X66403212Y-132510764D01*
X66987570Y-132627000D01*
X68474830Y-132627000D01*
X69059188Y-132510764D01*
X69554582Y-132179752D01*
X69682465Y-131988361D01*
X75793358Y-131988361D01*
X76005590Y-132502003D01*
X76398230Y-132895329D01*
X76911500Y-133108457D01*
X77467261Y-133108942D01*
X77980903Y-132896710D01*
X78374229Y-132504070D01*
X78587357Y-131990800D01*
X78587842Y-131435039D01*
X78375610Y-130921397D01*
X77982970Y-130528071D01*
X77469700Y-130314943D01*
X76913939Y-130314458D01*
X76400297Y-130526690D01*
X76006971Y-130919330D01*
X75793843Y-131432600D01*
X75793358Y-131988361D01*
X69682465Y-131988361D01*
X69885594Y-131684358D01*
X70001830Y-131100000D01*
X69885594Y-130515642D01*
X69554582Y-130020248D01*
X69059188Y-129689236D01*
X68474830Y-129573000D01*
X66987570Y-129573000D01*
X66403212Y-129689236D01*
X65907818Y-130020248D01*
X65576806Y-130515642D01*
X65460570Y-131100000D01*
X63758700Y-131100000D01*
X63758700Y-127489034D01*
X66323990Y-127489034D01*
X66507358Y-127932818D01*
X66846596Y-128272649D01*
X67290059Y-128456790D01*
X67770234Y-128457210D01*
X68214018Y-128273842D01*
X68553849Y-127934604D01*
X68737990Y-127491141D01*
X68738410Y-127010966D01*
X68555042Y-126567182D01*
X68215804Y-126227351D01*
X68168341Y-126207643D01*
X68199812Y-126058217D01*
X67531200Y-125389605D01*
X66862588Y-126058217D01*
X66893990Y-126207313D01*
X66848382Y-126226158D01*
X66508551Y-126565396D01*
X66324410Y-127008859D01*
X66323990Y-127489034D01*
X63758700Y-127489034D01*
X63758700Y-125045823D01*
X66303325Y-125045823D01*
X66333963Y-125528207D01*
X66459619Y-125831568D01*
X66682983Y-125878612D01*
X67351595Y-125210000D01*
X67710805Y-125210000D01*
X68379417Y-125878612D01*
X68602781Y-125831568D01*
X68759075Y-125374177D01*
X68728437Y-124891793D01*
X68602781Y-124588432D01*
X68379417Y-124541388D01*
X67710805Y-125210000D01*
X67351595Y-125210000D01*
X66682983Y-124541388D01*
X66459619Y-124588432D01*
X66303325Y-125045823D01*
X63758700Y-125045823D01*
X63758700Y-124361783D01*
X66862588Y-124361783D01*
X67531200Y-125030395D01*
X68132561Y-124429034D01*
X68873990Y-124429034D01*
X69057358Y-124872818D01*
X69394242Y-125210291D01*
X69058551Y-125545396D01*
X68874410Y-125988859D01*
X68873990Y-126469034D01*
X69057358Y-126912818D01*
X69396596Y-127252649D01*
X69840059Y-127436790D01*
X70320234Y-127437210D01*
X70764018Y-127253842D01*
X71103849Y-126914604D01*
X71287990Y-126471141D01*
X71288410Y-125990966D01*
X71105042Y-125547182D01*
X70768158Y-125209709D01*
X71103849Y-124874604D01*
X71287990Y-124431141D01*
X71288410Y-123950966D01*
X71105042Y-123507182D01*
X70765804Y-123167351D01*
X70322341Y-122983210D01*
X69842166Y-122982790D01*
X69398382Y-123166158D01*
X69058551Y-123505396D01*
X68874410Y-123948859D01*
X68873990Y-124429034D01*
X68132561Y-124429034D01*
X68199812Y-124361783D01*
X68152768Y-124138419D01*
X67695377Y-123982125D01*
X67212993Y-124012763D01*
X66909632Y-124138419D01*
X66862588Y-124361783D01*
X63758700Y-124361783D01*
X63758700Y-120340000D01*
X65460570Y-120340000D01*
X65576806Y-120924358D01*
X65907818Y-121419752D01*
X66403212Y-121750764D01*
X66987570Y-121867000D01*
X68474830Y-121867000D01*
X69059188Y-121750764D01*
X69554582Y-121419752D01*
X69885594Y-120924358D01*
X70001830Y-120340000D01*
X69907519Y-119865866D01*
X89050939Y-119865866D01*
X89363087Y-120314532D01*
X90605943Y-120832931D01*
X91952576Y-120836248D01*
X93197971Y-120323980D01*
X93212113Y-120314532D01*
X93524261Y-119865866D01*
X91287600Y-117629205D01*
X89050939Y-119865866D01*
X69907519Y-119865866D01*
X69885594Y-119755642D01*
X69554582Y-119260248D01*
X69059188Y-118929236D01*
X68474830Y-118813000D01*
X66987570Y-118813000D01*
X66403212Y-118929236D01*
X65907818Y-119260248D01*
X65576806Y-119755642D01*
X65460570Y-120340000D01*
X63758700Y-120340000D01*
X63758700Y-118114576D01*
X87900952Y-118114576D01*
X88413220Y-119359971D01*
X88422668Y-119374113D01*
X88871334Y-119686261D01*
X91107995Y-117449600D01*
X91467205Y-117449600D01*
X93703866Y-119686261D01*
X94152532Y-119374113D01*
X94670931Y-118131257D01*
X94674248Y-116784624D01*
X94161980Y-115539229D01*
X94152532Y-115525087D01*
X93703866Y-115212939D01*
X91467205Y-117449600D01*
X91107995Y-117449600D01*
X88871334Y-115212939D01*
X88422668Y-115525087D01*
X87904269Y-116767943D01*
X87900952Y-118114576D01*
X63758700Y-118114576D01*
X63758700Y-115033334D01*
X89050939Y-115033334D01*
X91287600Y-117269995D01*
X93524261Y-115033334D01*
X93212113Y-114584668D01*
X91969257Y-114066269D01*
X90622624Y-114062952D01*
X89377229Y-114575220D01*
X89363087Y-114584668D01*
X89050939Y-115033334D01*
X63758700Y-115033334D01*
X63758700Y-111100000D01*
X65460570Y-111100000D01*
X65576806Y-111684358D01*
X65907818Y-112179752D01*
X66403212Y-112510764D01*
X66987570Y-112627000D01*
X68474830Y-112627000D01*
X69059188Y-112510764D01*
X69554582Y-112179752D01*
X69885594Y-111684358D01*
X70001830Y-111100000D01*
X69885594Y-110515642D01*
X69554582Y-110020248D01*
X69059188Y-109689236D01*
X68474830Y-109573000D01*
X66987570Y-109573000D01*
X66403212Y-109689236D01*
X65907818Y-110020248D01*
X65576806Y-110515642D01*
X65460570Y-111100000D01*
X63758700Y-111100000D01*
X63758700Y-107489034D01*
X66323990Y-107489034D01*
X66507358Y-107932818D01*
X66846596Y-108272649D01*
X67290059Y-108456790D01*
X67770234Y-108457210D01*
X68214018Y-108273842D01*
X68553849Y-107934604D01*
X68737990Y-107491141D01*
X68738410Y-107010966D01*
X68555042Y-106567182D01*
X68215804Y-106227351D01*
X68168341Y-106207643D01*
X68199812Y-106058217D01*
X67531200Y-105389605D01*
X66862588Y-106058217D01*
X66893990Y-106207313D01*
X66848382Y-106226158D01*
X66508551Y-106565396D01*
X66324410Y-107008859D01*
X66323990Y-107489034D01*
X63758700Y-107489034D01*
X63758700Y-105045823D01*
X66303325Y-105045823D01*
X66333963Y-105528207D01*
X66459619Y-105831568D01*
X66682983Y-105878612D01*
X67351595Y-105210000D01*
X67710805Y-105210000D01*
X68379417Y-105878612D01*
X68602781Y-105831568D01*
X68759075Y-105374177D01*
X68728437Y-104891793D01*
X68602781Y-104588432D01*
X68379417Y-104541388D01*
X67710805Y-105210000D01*
X67351595Y-105210000D01*
X66682983Y-104541388D01*
X66459619Y-104588432D01*
X66303325Y-105045823D01*
X63758700Y-105045823D01*
X63758700Y-104361783D01*
X66862588Y-104361783D01*
X67531200Y-105030395D01*
X68132561Y-104429034D01*
X68873990Y-104429034D01*
X69057358Y-104872818D01*
X69394242Y-105210291D01*
X69058551Y-105545396D01*
X68874410Y-105988859D01*
X68873990Y-106469034D01*
X69057358Y-106912818D01*
X69396596Y-107252649D01*
X69840059Y-107436790D01*
X70320234Y-107437210D01*
X70764018Y-107253842D01*
X71103849Y-106914604D01*
X71287990Y-106471141D01*
X71288410Y-105990966D01*
X71105042Y-105547182D01*
X70768158Y-105209709D01*
X71103849Y-104874604D01*
X71287990Y-104431141D01*
X71288410Y-103950966D01*
X71105042Y-103507182D01*
X70765804Y-103167351D01*
X70322341Y-102983210D01*
X69842166Y-102982790D01*
X69398382Y-103166158D01*
X69058551Y-103505396D01*
X68874410Y-103948859D01*
X68873990Y-104429034D01*
X68132561Y-104429034D01*
X68199812Y-104361783D01*
X68152768Y-104138419D01*
X67695377Y-103982125D01*
X67212993Y-104012763D01*
X66909632Y-104138419D01*
X66862588Y-104361783D01*
X63758700Y-104361783D01*
X63758700Y-100340000D01*
X65460570Y-100340000D01*
X65576806Y-100924358D01*
X65907818Y-101419752D01*
X66403212Y-101750764D01*
X66987570Y-101867000D01*
X68474830Y-101867000D01*
X69059188Y-101750764D01*
X69554582Y-101419752D01*
X69885594Y-100924358D01*
X70001830Y-100340000D01*
X69885594Y-99755642D01*
X69734825Y-99530000D01*
X85114284Y-99530000D01*
X85219102Y-100056955D01*
X85517598Y-100503686D01*
X85964329Y-100802182D01*
X86004878Y-100810248D01*
X85816601Y-100876179D01*
X85413380Y-101236692D01*
X85178882Y-101728815D01*
X85301544Y-101943000D01*
X86544200Y-101943000D01*
X86544200Y-101923000D01*
X86798200Y-101923000D01*
X86798200Y-101943000D01*
X86818200Y-101943000D01*
X86818200Y-102197000D01*
X86798200Y-102197000D01*
X86798200Y-102217000D01*
X86544200Y-102217000D01*
X86544200Y-102197000D01*
X85301544Y-102197000D01*
X85178882Y-102411185D01*
X85413380Y-102903308D01*
X85816601Y-103263821D01*
X86004878Y-103329752D01*
X85964329Y-103337818D01*
X85517598Y-103636314D01*
X85219102Y-104083045D01*
X85114284Y-104610000D01*
X85219102Y-105136955D01*
X85517598Y-105583686D01*
X85961063Y-105880000D01*
X85517598Y-106176314D01*
X85219102Y-106623045D01*
X85114284Y-107150000D01*
X85219102Y-107676955D01*
X85517598Y-108123686D01*
X85964329Y-108422182D01*
X86491284Y-108527000D01*
X86851116Y-108527000D01*
X87378071Y-108422182D01*
X87824802Y-108123686D01*
X87941200Y-107949484D01*
X88057598Y-108123686D01*
X88504329Y-108422182D01*
X89031284Y-108527000D01*
X89391116Y-108527000D01*
X89918071Y-108422182D01*
X90364802Y-108123686D01*
X90663298Y-107676955D01*
X90768116Y-107150000D01*
X90663298Y-106623045D01*
X90364802Y-106176314D01*
X89918071Y-105877818D01*
X89877522Y-105869752D01*
X90065799Y-105803821D01*
X90469020Y-105443308D01*
X90703518Y-104951185D01*
X90580856Y-104737000D01*
X89338200Y-104737000D01*
X89338200Y-104757000D01*
X89084200Y-104757000D01*
X89084200Y-104737000D01*
X89064200Y-104737000D01*
X89064200Y-104483000D01*
X89084200Y-104483000D01*
X89084200Y-104463000D01*
X89338200Y-104463000D01*
X89338200Y-104483000D01*
X90580856Y-104483000D01*
X90703518Y-104268815D01*
X90469020Y-103776692D01*
X90065799Y-103416179D01*
X89877522Y-103350248D01*
X89918071Y-103342182D01*
X90364802Y-103043686D01*
X90663298Y-102596955D01*
X90768116Y-102070000D01*
X90663298Y-101543045D01*
X90364802Y-101096314D01*
X89921337Y-100800000D01*
X90364802Y-100503686D01*
X90663298Y-100056955D01*
X90768116Y-99530000D01*
X90663298Y-99003045D01*
X90364802Y-98556314D01*
X89918071Y-98257818D01*
X89877522Y-98249752D01*
X90065799Y-98183821D01*
X90469020Y-97823308D01*
X90703518Y-97331185D01*
X90580856Y-97117000D01*
X89338200Y-97117000D01*
X89338200Y-97137000D01*
X89084200Y-97137000D01*
X89084200Y-97117000D01*
X86798200Y-97117000D01*
X86798200Y-97137000D01*
X86544200Y-97137000D01*
X86544200Y-97117000D01*
X85301544Y-97117000D01*
X85178882Y-97331185D01*
X85413380Y-97823308D01*
X85816601Y-98183821D01*
X86004878Y-98249752D01*
X85964329Y-98257818D01*
X85517598Y-98556314D01*
X85219102Y-99003045D01*
X85114284Y-99530000D01*
X69734825Y-99530000D01*
X69554582Y-99260248D01*
X69059188Y-98929236D01*
X68474830Y-98813000D01*
X66987570Y-98813000D01*
X66403212Y-98929236D01*
X65907818Y-99260248D01*
X65576806Y-99755642D01*
X65460570Y-100340000D01*
X63758700Y-100340000D01*
X63758700Y-96648815D01*
X85178882Y-96648815D01*
X85301544Y-96863000D01*
X86544200Y-96863000D01*
X86544200Y-94577000D01*
X85337383Y-94577000D01*
X85216242Y-94809026D01*
X85388512Y-95224947D01*
X85782710Y-95656821D01*
X85967389Y-95743376D01*
X85816601Y-95796179D01*
X85413380Y-96156692D01*
X85178882Y-96648815D01*
X63758700Y-96648815D01*
X63758700Y-91100000D01*
X65460570Y-91100000D01*
X65576806Y-91684358D01*
X65907818Y-92179752D01*
X66403212Y-92510764D01*
X66987570Y-92627000D01*
X68474830Y-92627000D01*
X69059188Y-92510764D01*
X69554582Y-92179752D01*
X69734824Y-91910000D01*
X85114284Y-91910000D01*
X85219102Y-92436955D01*
X85517598Y-92883686D01*
X85943109Y-93168004D01*
X85782710Y-93243179D01*
X85388512Y-93675053D01*
X85216242Y-94090974D01*
X85337383Y-94323000D01*
X86544200Y-94323000D01*
X86544200Y-94303000D01*
X86798200Y-94303000D01*
X86798200Y-94323000D01*
X86818200Y-94323000D01*
X86818200Y-94577000D01*
X86798200Y-94577000D01*
X86798200Y-96863000D01*
X89084200Y-96863000D01*
X89084200Y-96843000D01*
X89338200Y-96843000D01*
X89338200Y-96863000D01*
X90580856Y-96863000D01*
X90703518Y-96648815D01*
X90469020Y-96156692D01*
X90065799Y-95796179D01*
X89928904Y-95748241D01*
X90294416Y-95504013D01*
X90617538Y-95020428D01*
X90731003Y-94450000D01*
X90617538Y-93879572D01*
X90294416Y-93395987D01*
X89946253Y-93163351D01*
X90364802Y-92883686D01*
X90663298Y-92436955D01*
X90768116Y-91910000D01*
X90663298Y-91383045D01*
X90364802Y-90936314D01*
X89918071Y-90637818D01*
X89877522Y-90629752D01*
X90065799Y-90563821D01*
X90469020Y-90203308D01*
X90703518Y-89711185D01*
X90580856Y-89497000D01*
X89338200Y-89497000D01*
X89338200Y-89517000D01*
X89084200Y-89517000D01*
X89084200Y-89497000D01*
X86798200Y-89497000D01*
X86798200Y-89517000D01*
X86544200Y-89517000D01*
X86544200Y-89497000D01*
X85301544Y-89497000D01*
X85178882Y-89711185D01*
X85413380Y-90203308D01*
X85816601Y-90563821D01*
X86004878Y-90629752D01*
X85964329Y-90637818D01*
X85517598Y-90936314D01*
X85219102Y-91383045D01*
X85114284Y-91910000D01*
X69734824Y-91910000D01*
X69885594Y-91684358D01*
X70001830Y-91100000D01*
X69885594Y-90515642D01*
X69554582Y-90020248D01*
X69059188Y-89689236D01*
X68474830Y-89573000D01*
X66987570Y-89573000D01*
X66403212Y-89689236D01*
X65907818Y-90020248D01*
X65576806Y-90515642D01*
X65460570Y-91100000D01*
X63758700Y-91100000D01*
X63758700Y-87489034D01*
X66323990Y-87489034D01*
X66507358Y-87932818D01*
X66846596Y-88272649D01*
X67290059Y-88456790D01*
X67770234Y-88457210D01*
X68214018Y-88273842D01*
X68553849Y-87934604D01*
X68737990Y-87491141D01*
X68738410Y-87010966D01*
X68555042Y-86567182D01*
X68215804Y-86227351D01*
X68168341Y-86207643D01*
X68199812Y-86058217D01*
X67531200Y-85389605D01*
X66862588Y-86058217D01*
X66893990Y-86207313D01*
X66848382Y-86226158D01*
X66508551Y-86565396D01*
X66324410Y-87008859D01*
X66323990Y-87489034D01*
X63758700Y-87489034D01*
X63758700Y-85045823D01*
X66303325Y-85045823D01*
X66333963Y-85528207D01*
X66459619Y-85831568D01*
X66682983Y-85878612D01*
X67351595Y-85210000D01*
X67710805Y-85210000D01*
X68379417Y-85878612D01*
X68602781Y-85831568D01*
X68759075Y-85374177D01*
X68728437Y-84891793D01*
X68602781Y-84588432D01*
X68379417Y-84541388D01*
X67710805Y-85210000D01*
X67351595Y-85210000D01*
X66682983Y-84541388D01*
X66459619Y-84588432D01*
X66303325Y-85045823D01*
X63758700Y-85045823D01*
X63758700Y-84361783D01*
X66862588Y-84361783D01*
X67531200Y-85030395D01*
X68132561Y-84429034D01*
X68873990Y-84429034D01*
X69057358Y-84872818D01*
X69394242Y-85210291D01*
X69058551Y-85545396D01*
X68874410Y-85988859D01*
X68873990Y-86469034D01*
X69057358Y-86912818D01*
X69396596Y-87252649D01*
X69840059Y-87436790D01*
X70320234Y-87437210D01*
X70764018Y-87253842D01*
X70846819Y-87171185D01*
X85178882Y-87171185D01*
X85413380Y-87663308D01*
X85816601Y-88023821D01*
X86034143Y-88100000D01*
X85816601Y-88176179D01*
X85413380Y-88536692D01*
X85178882Y-89028815D01*
X85301544Y-89243000D01*
X86544200Y-89243000D01*
X86544200Y-88142698D01*
X86480393Y-88100000D01*
X86544200Y-88057302D01*
X86544200Y-86957000D01*
X85301544Y-86957000D01*
X85178882Y-87171185D01*
X70846819Y-87171185D01*
X71103849Y-86914604D01*
X71287990Y-86471141D01*
X71288410Y-85990966D01*
X71105042Y-85547182D01*
X70768158Y-85209709D01*
X71103849Y-84874604D01*
X71287990Y-84431141D01*
X71288410Y-83950966D01*
X71105042Y-83507182D01*
X71024401Y-83426400D01*
X85168317Y-83426400D01*
X85168317Y-85153600D01*
X85212037Y-85385952D01*
X85349357Y-85599353D01*
X85558883Y-85742517D01*
X85672037Y-85765431D01*
X85413380Y-85996692D01*
X85178882Y-86488815D01*
X85301544Y-86703000D01*
X86544200Y-86703000D01*
X86544200Y-86683000D01*
X86798200Y-86683000D01*
X86798200Y-86703000D01*
X86818200Y-86703000D01*
X86818200Y-86957000D01*
X86798200Y-86957000D01*
X86798200Y-88057302D01*
X86862007Y-88100000D01*
X86798200Y-88142698D01*
X86798200Y-89243000D01*
X89084200Y-89243000D01*
X89084200Y-89223000D01*
X89338200Y-89223000D01*
X89338200Y-89243000D01*
X90580856Y-89243000D01*
X90703518Y-89028815D01*
X90469020Y-88536692D01*
X90065799Y-88176179D01*
X89877522Y-88110248D01*
X89918071Y-88102182D01*
X90364802Y-87803686D01*
X90663298Y-87356955D01*
X90768116Y-86830000D01*
X90663298Y-86303045D01*
X90364802Y-85856314D01*
X89921337Y-85560000D01*
X90364802Y-85263686D01*
X90663298Y-84816955D01*
X90768116Y-84290000D01*
X90663298Y-83763045D01*
X90364802Y-83316314D01*
X89918071Y-83017818D01*
X89391116Y-82913000D01*
X89031284Y-82913000D01*
X88504329Y-83017818D01*
X88142673Y-83259469D01*
X88130363Y-83194048D01*
X87993043Y-82980647D01*
X87783517Y-82837483D01*
X87534800Y-82787117D01*
X85807600Y-82787117D01*
X85575248Y-82830837D01*
X85361847Y-82968157D01*
X85218683Y-83177683D01*
X85168317Y-83426400D01*
X71024401Y-83426400D01*
X70765804Y-83167351D01*
X70322341Y-82983210D01*
X69842166Y-82982790D01*
X69398382Y-83166158D01*
X69058551Y-83505396D01*
X68874410Y-83948859D01*
X68873990Y-84429034D01*
X68132561Y-84429034D01*
X68199812Y-84361783D01*
X68152768Y-84138419D01*
X67695377Y-83982125D01*
X67212993Y-84012763D01*
X66909632Y-84138419D01*
X66862588Y-84361783D01*
X63758700Y-84361783D01*
X63758700Y-80340000D01*
X65460570Y-80340000D01*
X65576806Y-80924358D01*
X65907818Y-81419752D01*
X66403212Y-81750764D01*
X66987570Y-81867000D01*
X68474830Y-81867000D01*
X69059188Y-81750764D01*
X69554582Y-81419752D01*
X69885594Y-80924358D01*
X70001830Y-80340000D01*
X69885594Y-79755642D01*
X69554582Y-79260248D01*
X69059188Y-78929236D01*
X68474830Y-78813000D01*
X66987570Y-78813000D01*
X66403212Y-78929236D01*
X65907818Y-79260248D01*
X65576806Y-79755642D01*
X65460570Y-80340000D01*
X63758700Y-80340000D01*
X63758700Y-71100000D01*
X65460570Y-71100000D01*
X65576806Y-71684358D01*
X65907818Y-72179752D01*
X66403212Y-72510764D01*
X66987570Y-72627000D01*
X68474830Y-72627000D01*
X69059188Y-72510764D01*
X69554582Y-72179752D01*
X69885594Y-71684358D01*
X70001830Y-71100000D01*
X69885594Y-70515642D01*
X69554582Y-70020248D01*
X69059188Y-69689236D01*
X68474830Y-69573000D01*
X66987570Y-69573000D01*
X66403212Y-69689236D01*
X65907818Y-70020248D01*
X65576806Y-70515642D01*
X65460570Y-71100000D01*
X63758700Y-71100000D01*
X63758700Y-67489034D01*
X66323990Y-67489034D01*
X66507358Y-67932818D01*
X66846596Y-68272649D01*
X67290059Y-68456790D01*
X67770234Y-68457210D01*
X68214018Y-68273842D01*
X68553849Y-67934604D01*
X68737990Y-67491141D01*
X68738410Y-67010966D01*
X68555042Y-66567182D01*
X68215804Y-66227351D01*
X68168341Y-66207643D01*
X68199812Y-66058217D01*
X67531200Y-65389605D01*
X66862588Y-66058217D01*
X66893990Y-66207313D01*
X66848382Y-66226158D01*
X66508551Y-66565396D01*
X66324410Y-67008859D01*
X66323990Y-67489034D01*
X63758700Y-67489034D01*
X63758700Y-65045823D01*
X66303325Y-65045823D01*
X66333963Y-65528207D01*
X66459619Y-65831568D01*
X66682983Y-65878612D01*
X67351595Y-65210000D01*
X67710805Y-65210000D01*
X68379417Y-65878612D01*
X68602781Y-65831568D01*
X68759075Y-65374177D01*
X68728437Y-64891793D01*
X68602781Y-64588432D01*
X68379417Y-64541388D01*
X67710805Y-65210000D01*
X67351595Y-65210000D01*
X66682983Y-64541388D01*
X66459619Y-64588432D01*
X66303325Y-65045823D01*
X63758700Y-65045823D01*
X63758700Y-64361783D01*
X66862588Y-64361783D01*
X67531200Y-65030395D01*
X68132561Y-64429034D01*
X68873990Y-64429034D01*
X69057358Y-64872818D01*
X69394242Y-65210291D01*
X69058551Y-65545396D01*
X68874410Y-65988859D01*
X68873990Y-66469034D01*
X69057358Y-66912818D01*
X69396596Y-67252649D01*
X69840059Y-67436790D01*
X70320234Y-67437210D01*
X70764018Y-67253842D01*
X71103849Y-66914604D01*
X71287990Y-66471141D01*
X71288410Y-65990966D01*
X71105042Y-65547182D01*
X70768158Y-65209709D01*
X71103849Y-64874604D01*
X71287990Y-64431141D01*
X71288410Y-63950966D01*
X71105042Y-63507182D01*
X70765804Y-63167351D01*
X70322341Y-62983210D01*
X69842166Y-62982790D01*
X69398382Y-63166158D01*
X69058551Y-63505396D01*
X68874410Y-63948859D01*
X68873990Y-64429034D01*
X68132561Y-64429034D01*
X68199812Y-64361783D01*
X68152768Y-64138419D01*
X67695377Y-63982125D01*
X67212993Y-64012763D01*
X66909632Y-64138419D01*
X66862588Y-64361783D01*
X63758700Y-64361783D01*
X63758700Y-60340000D01*
X65460570Y-60340000D01*
X65576806Y-60924358D01*
X65907818Y-61419752D01*
X66403212Y-61750764D01*
X66987570Y-61867000D01*
X68474830Y-61867000D01*
X69059188Y-61750764D01*
X69554582Y-61419752D01*
X69885594Y-60924358D01*
X69934625Y-60677861D01*
X88569558Y-60677861D01*
X88781790Y-61191503D01*
X89174430Y-61584829D01*
X89687700Y-61797957D01*
X90243461Y-61798442D01*
X90757103Y-61586210D01*
X91150429Y-61193570D01*
X91363557Y-60680300D01*
X91364042Y-60124539D01*
X91151810Y-59610897D01*
X90759170Y-59217571D01*
X90245900Y-59004443D01*
X89690139Y-59003958D01*
X89176497Y-59216190D01*
X88783171Y-59608830D01*
X88570043Y-60122100D01*
X88569558Y-60677861D01*
X69934625Y-60677861D01*
X70001830Y-60340000D01*
X69885594Y-59755642D01*
X69554582Y-59260248D01*
X69059188Y-58929236D01*
X68474830Y-58813000D01*
X66987570Y-58813000D01*
X66403212Y-58929236D01*
X65907818Y-59260248D01*
X65576806Y-59755642D01*
X65460570Y-60340000D01*
X63758700Y-60340000D01*
X63758700Y-53596364D01*
X63997421Y-53954564D01*
X65149892Y-54431294D01*
X66397072Y-54430705D01*
X67546579Y-53954564D01*
X67828275Y-53531880D01*
X65772000Y-51475605D01*
X65757858Y-51489748D01*
X65578253Y-51310143D01*
X65592395Y-51296000D01*
X65951605Y-51296000D01*
X68007880Y-53352275D01*
X68430564Y-53070579D01*
X68887987Y-51964780D01*
X77394415Y-51964780D01*
X77907450Y-53206418D01*
X78856586Y-54157212D01*
X80097326Y-54672412D01*
X81440780Y-54673585D01*
X82682418Y-54160550D01*
X83633212Y-53211414D01*
X84148412Y-51970674D01*
X84149585Y-50627220D01*
X83636550Y-49385582D01*
X82687414Y-48434788D01*
X81446674Y-47919588D01*
X80103220Y-47918415D01*
X78861582Y-48431450D01*
X77910788Y-49380586D01*
X77395588Y-50621326D01*
X77394415Y-51964780D01*
X68887987Y-51964780D01*
X68907294Y-51918108D01*
X68906705Y-50670928D01*
X68430564Y-49521421D01*
X68007880Y-49239725D01*
X65951605Y-51296000D01*
X65592395Y-51296000D01*
X65578253Y-51281858D01*
X65757858Y-51102253D01*
X65772000Y-51116395D01*
X67828275Y-49060120D01*
X67546579Y-48637436D01*
X66394108Y-48160706D01*
X65146928Y-48161295D01*
X63997421Y-48637436D01*
X63758700Y-48995636D01*
X63758700Y-46537500D01*
X97123700Y-46537500D01*
X97123700Y-144876900D01*
M02*
