G04 #@! TF.FileFunction,Legend,Bot*
%FSLAX46Y46*%
G04 Gerber Fmt 4.6, Leading zero omitted, Abs format (unit mm)*
G04 Created by KiCad (PCBNEW 4.0.4+e1-6308~48~ubuntu15.10.1-stable) date Fri Nov 17 08:48:54 2017*
%MOMM*%
%LPD*%
G01*
G04 APERTURE LIST*
%ADD10C,0.150000*%
%ADD11C,0.120000*%
%ADD12C,0.100000*%
G04 APERTURE END LIST*
D10*
D11*
X74486000Y-98064000D02*
X74486000Y-99064000D01*
X72786000Y-99064000D02*
X72786000Y-98064000D01*
X72786000Y-103394000D02*
X72786000Y-102394000D01*
X74486000Y-102394000D02*
X74486000Y-103394000D01*
X72786000Y-124730000D02*
X72786000Y-123730000D01*
X74486000Y-123730000D02*
X74486000Y-124730000D01*
X74486000Y-118904000D02*
X74486000Y-119904000D01*
X72786000Y-119904000D02*
X72786000Y-118904000D01*
X72786000Y-67810000D02*
X72786000Y-66810000D01*
X74486000Y-66810000D02*
X74486000Y-67810000D01*
X74486000Y-62746000D02*
X74486000Y-63746000D01*
X72786000Y-63746000D02*
X72786000Y-62746000D01*
X72735200Y-94536200D02*
X72735200Y-93536200D01*
X74435200Y-93536200D02*
X74435200Y-94536200D01*
X74486000Y-85582000D02*
X74486000Y-86582000D01*
X72786000Y-86582000D02*
X72786000Y-85582000D01*
D12*
X78652666Y-132806286D02*
X78819332Y-132806286D01*
X78819332Y-133068190D02*
X78819332Y-132568190D01*
X78581237Y-132568190D01*
X78176476Y-132734857D02*
X78176476Y-133068190D01*
X78295523Y-132544381D02*
X78414571Y-132901524D01*
X78105047Y-132901524D01*
X91352666Y-61432286D02*
X91519332Y-61432286D01*
X91519332Y-61694190D02*
X91519332Y-61194190D01*
X91281237Y-61194190D01*
X91138380Y-61194190D02*
X90828857Y-61194190D01*
X90995523Y-61384667D01*
X90924095Y-61384667D01*
X90876476Y-61408476D01*
X90852666Y-61432286D01*
X90828857Y-61479905D01*
X90828857Y-61598952D01*
X90852666Y-61646571D01*
X90876476Y-61670381D01*
X90924095Y-61694190D01*
X91066952Y-61694190D01*
X91114571Y-61670381D01*
X91138380Y-61646571D01*
D10*
X90258095Y-82652381D02*
X90258095Y-81652381D01*
X89877142Y-81652381D01*
X89781904Y-81700000D01*
X89734285Y-81747619D01*
X89686666Y-81842857D01*
X89686666Y-81985714D01*
X89734285Y-82080952D01*
X89781904Y-82128571D01*
X89877142Y-82176190D01*
X90258095Y-82176190D01*
X89353333Y-81652381D02*
X88734285Y-81652381D01*
X89067619Y-82033333D01*
X88924761Y-82033333D01*
X88829523Y-82080952D01*
X88781904Y-82128571D01*
X88734285Y-82223810D01*
X88734285Y-82461905D01*
X88781904Y-82557143D01*
X88829523Y-82604762D01*
X88924761Y-82652381D01*
X89210476Y-82652381D01*
X89305714Y-82604762D01*
X89353333Y-82557143D01*
X91717857Y-92023573D02*
X91753571Y-91987859D01*
X91789286Y-91880716D01*
X91789286Y-91809287D01*
X91753571Y-91702144D01*
X91682143Y-91630716D01*
X91610714Y-91595001D01*
X91467857Y-91559287D01*
X91360714Y-91559287D01*
X91217857Y-91595001D01*
X91146429Y-91630716D01*
X91075000Y-91702144D01*
X91039286Y-91809287D01*
X91039286Y-91880716D01*
X91075000Y-91987859D01*
X91110714Y-92023573D01*
X91789286Y-92452144D02*
X91753571Y-92380716D01*
X91717857Y-92345001D01*
X91646429Y-92309287D01*
X91432143Y-92309287D01*
X91360714Y-92345001D01*
X91325000Y-92380716D01*
X91289286Y-92452144D01*
X91289286Y-92559287D01*
X91325000Y-92630716D01*
X91360714Y-92666430D01*
X91432143Y-92702144D01*
X91646429Y-92702144D01*
X91717857Y-92666430D01*
X91753571Y-92630716D01*
X91789286Y-92559287D01*
X91789286Y-92452144D01*
X91289286Y-93023572D02*
X91789286Y-93023572D01*
X91360714Y-93023572D02*
X91325000Y-93059287D01*
X91289286Y-93130715D01*
X91289286Y-93237858D01*
X91325000Y-93309287D01*
X91396429Y-93345001D01*
X91789286Y-93345001D01*
X91753571Y-93987858D02*
X91789286Y-93916429D01*
X91789286Y-93773572D01*
X91753571Y-93702143D01*
X91682143Y-93666429D01*
X91396429Y-93666429D01*
X91325000Y-93702143D01*
X91289286Y-93773572D01*
X91289286Y-93916429D01*
X91325000Y-93987858D01*
X91396429Y-94023572D01*
X91467857Y-94023572D01*
X91539286Y-93666429D01*
X91753571Y-94666429D02*
X91789286Y-94595000D01*
X91789286Y-94452143D01*
X91753571Y-94380715D01*
X91717857Y-94345000D01*
X91646429Y-94309286D01*
X91432143Y-94309286D01*
X91360714Y-94345000D01*
X91325000Y-94380715D01*
X91289286Y-94452143D01*
X91289286Y-94595000D01*
X91325000Y-94666429D01*
X91289286Y-94880715D02*
X91289286Y-95166429D01*
X91039286Y-94987857D02*
X91682143Y-94987857D01*
X91753571Y-95023572D01*
X91789286Y-95095000D01*
X91789286Y-95166429D01*
X91789286Y-95523571D02*
X91753571Y-95452143D01*
X91717857Y-95416428D01*
X91646429Y-95380714D01*
X91432143Y-95380714D01*
X91360714Y-95416428D01*
X91325000Y-95452143D01*
X91289286Y-95523571D01*
X91289286Y-95630714D01*
X91325000Y-95702143D01*
X91360714Y-95737857D01*
X91432143Y-95773571D01*
X91646429Y-95773571D01*
X91717857Y-95737857D01*
X91753571Y-95702143D01*
X91789286Y-95630714D01*
X91789286Y-95523571D01*
X91789286Y-96094999D02*
X91289286Y-96094999D01*
X91432143Y-96094999D02*
X91360714Y-96130714D01*
X91325000Y-96166428D01*
X91289286Y-96237857D01*
X91289286Y-96309285D01*
X91753571Y-97095000D02*
X91789286Y-97202143D01*
X91789286Y-97380714D01*
X91753571Y-97452143D01*
X91717857Y-97487857D01*
X91646429Y-97523572D01*
X91575000Y-97523572D01*
X91503571Y-97487857D01*
X91467857Y-97452143D01*
X91432143Y-97380714D01*
X91396429Y-97237857D01*
X91360714Y-97166429D01*
X91325000Y-97130714D01*
X91253571Y-97095000D01*
X91182143Y-97095000D01*
X91110714Y-97130714D01*
X91075000Y-97166429D01*
X91039286Y-97237857D01*
X91039286Y-97416429D01*
X91075000Y-97523572D01*
X91289286Y-97737858D02*
X91289286Y-98023572D01*
X91039286Y-97845000D02*
X91682143Y-97845000D01*
X91753571Y-97880715D01*
X91789286Y-97952143D01*
X91789286Y-98023572D01*
X91789286Y-98595000D02*
X91396429Y-98595000D01*
X91325000Y-98559286D01*
X91289286Y-98487857D01*
X91289286Y-98345000D01*
X91325000Y-98273571D01*
X91753571Y-98595000D02*
X91789286Y-98523571D01*
X91789286Y-98345000D01*
X91753571Y-98273571D01*
X91682143Y-98237857D01*
X91610714Y-98237857D01*
X91539286Y-98273571D01*
X91503571Y-98345000D01*
X91503571Y-98523571D01*
X91467857Y-98595000D01*
X91753571Y-99273571D02*
X91789286Y-99202142D01*
X91789286Y-99059285D01*
X91753571Y-98987857D01*
X91717857Y-98952142D01*
X91646429Y-98916428D01*
X91432143Y-98916428D01*
X91360714Y-98952142D01*
X91325000Y-98987857D01*
X91289286Y-99059285D01*
X91289286Y-99202142D01*
X91325000Y-99273571D01*
X91789286Y-99594999D02*
X91039286Y-99594999D01*
X91503571Y-99666428D02*
X91789286Y-99880714D01*
X91289286Y-99880714D02*
X91575000Y-99594999D01*
X75398440Y-97221214D02*
X75431773Y-97187880D01*
X75465107Y-97087880D01*
X75465107Y-97021214D01*
X75431773Y-96921214D01*
X75365107Y-96854547D01*
X75298440Y-96821214D01*
X75165107Y-96787880D01*
X75065107Y-96787880D01*
X74931773Y-96821214D01*
X74865107Y-96854547D01*
X74798440Y-96921214D01*
X74765107Y-97021214D01*
X74765107Y-97087880D01*
X74798440Y-97187880D01*
X74831773Y-97221214D01*
X75465107Y-97887880D02*
X75465107Y-97487880D01*
X75465107Y-97687880D02*
X74765107Y-97687880D01*
X74865107Y-97621214D01*
X74931773Y-97554547D01*
X74965107Y-97487880D01*
X75465107Y-99280560D02*
X75465107Y-98880560D01*
X75465107Y-99080560D02*
X74765107Y-99080560D01*
X74865107Y-99013894D01*
X74931773Y-98947227D01*
X74965107Y-98880560D01*
X74765107Y-99713894D02*
X74765107Y-99780561D01*
X74798440Y-99847227D01*
X74831773Y-99880561D01*
X74898440Y-99913894D01*
X75031773Y-99947227D01*
X75198440Y-99947227D01*
X75331773Y-99913894D01*
X75398440Y-99880561D01*
X75431773Y-99847227D01*
X75465107Y-99780561D01*
X75465107Y-99713894D01*
X75431773Y-99647227D01*
X75398440Y-99613894D01*
X75331773Y-99580561D01*
X75198440Y-99547227D01*
X75031773Y-99547227D01*
X74898440Y-99580561D01*
X74831773Y-99613894D01*
X74798440Y-99647227D01*
X74765107Y-99713894D01*
X74998440Y-100547228D02*
X75465107Y-100547228D01*
X74998440Y-100247228D02*
X75365107Y-100247228D01*
X75431773Y-100280561D01*
X75465107Y-100347228D01*
X75465107Y-100447228D01*
X75431773Y-100513894D01*
X75398440Y-100547228D01*
X73378000Y-105571334D02*
X73411333Y-105538000D01*
X73444667Y-105438000D01*
X73444667Y-105371334D01*
X73411333Y-105271334D01*
X73344667Y-105204667D01*
X73278000Y-105171334D01*
X73144667Y-105138000D01*
X73044667Y-105138000D01*
X72911333Y-105171334D01*
X72844667Y-105204667D01*
X72778000Y-105271334D01*
X72744667Y-105371334D01*
X72744667Y-105438000D01*
X72778000Y-105538000D01*
X72811333Y-105571334D01*
X72811333Y-105838000D02*
X72778000Y-105871334D01*
X72744667Y-105938000D01*
X72744667Y-106104667D01*
X72778000Y-106171334D01*
X72811333Y-106204667D01*
X72878000Y-106238000D01*
X72944667Y-106238000D01*
X73044667Y-106204667D01*
X73444667Y-105804667D01*
X73444667Y-106238000D01*
X74460667Y-105492000D02*
X74460667Y-105092000D01*
X74460667Y-105292000D02*
X73760667Y-105292000D01*
X73860667Y-105225334D01*
X73927333Y-105158667D01*
X73960667Y-105092000D01*
X73760667Y-105925334D02*
X73760667Y-105992001D01*
X73794000Y-106058667D01*
X73827333Y-106092001D01*
X73894000Y-106125334D01*
X74027333Y-106158667D01*
X74194000Y-106158667D01*
X74327333Y-106125334D01*
X74394000Y-106092001D01*
X74427333Y-106058667D01*
X74460667Y-105992001D01*
X74460667Y-105925334D01*
X74427333Y-105858667D01*
X74394000Y-105825334D01*
X74327333Y-105792001D01*
X74194000Y-105758667D01*
X74027333Y-105758667D01*
X73894000Y-105792001D01*
X73827333Y-105825334D01*
X73794000Y-105858667D01*
X73760667Y-105925334D01*
X73994000Y-106758668D02*
X74460667Y-106758668D01*
X73994000Y-106458668D02*
X74360667Y-106458668D01*
X74427333Y-106492001D01*
X74460667Y-106558668D01*
X74460667Y-106658668D01*
X74427333Y-106725334D01*
X74394000Y-106758668D01*
X73378000Y-126653334D02*
X73411333Y-126620000D01*
X73444667Y-126520000D01*
X73444667Y-126453334D01*
X73411333Y-126353334D01*
X73344667Y-126286667D01*
X73278000Y-126253334D01*
X73144667Y-126220000D01*
X73044667Y-126220000D01*
X72911333Y-126253334D01*
X72844667Y-126286667D01*
X72778000Y-126353334D01*
X72744667Y-126453334D01*
X72744667Y-126520000D01*
X72778000Y-126620000D01*
X72811333Y-126653334D01*
X72744667Y-126886667D02*
X72744667Y-127320000D01*
X73011333Y-127086667D01*
X73011333Y-127186667D01*
X73044667Y-127253334D01*
X73078000Y-127286667D01*
X73144667Y-127320000D01*
X73311333Y-127320000D01*
X73378000Y-127286667D01*
X73411333Y-127253334D01*
X73444667Y-127186667D01*
X73444667Y-126986667D01*
X73411333Y-126920000D01*
X73378000Y-126886667D01*
X74460667Y-126574000D02*
X74460667Y-126174000D01*
X74460667Y-126374000D02*
X73760667Y-126374000D01*
X73860667Y-126307334D01*
X73927333Y-126240667D01*
X73960667Y-126174000D01*
X73760667Y-127007334D02*
X73760667Y-127074001D01*
X73794000Y-127140667D01*
X73827333Y-127174001D01*
X73894000Y-127207334D01*
X74027333Y-127240667D01*
X74194000Y-127240667D01*
X74327333Y-127207334D01*
X74394000Y-127174001D01*
X74427333Y-127140667D01*
X74460667Y-127074001D01*
X74460667Y-127007334D01*
X74427333Y-126940667D01*
X74394000Y-126907334D01*
X74327333Y-126874001D01*
X74194000Y-126840667D01*
X74027333Y-126840667D01*
X73894000Y-126874001D01*
X73827333Y-126907334D01*
X73794000Y-126940667D01*
X73760667Y-127007334D01*
X73994000Y-127840668D02*
X74460667Y-127840668D01*
X73994000Y-127540668D02*
X74360667Y-127540668D01*
X74427333Y-127574001D01*
X74460667Y-127640668D01*
X74460667Y-127740668D01*
X74427333Y-127807334D01*
X74394000Y-127840668D01*
X73378000Y-116493334D02*
X73411333Y-116460000D01*
X73444667Y-116360000D01*
X73444667Y-116293334D01*
X73411333Y-116193334D01*
X73344667Y-116126667D01*
X73278000Y-116093334D01*
X73144667Y-116060000D01*
X73044667Y-116060000D01*
X72911333Y-116093334D01*
X72844667Y-116126667D01*
X72778000Y-116193334D01*
X72744667Y-116293334D01*
X72744667Y-116360000D01*
X72778000Y-116460000D01*
X72811333Y-116493334D01*
X72978000Y-117093334D02*
X73444667Y-117093334D01*
X72711333Y-116926667D02*
X73211333Y-116760000D01*
X73211333Y-117193334D01*
X74460667Y-116160000D02*
X74460667Y-115760000D01*
X74460667Y-115960000D02*
X73760667Y-115960000D01*
X73860667Y-115893334D01*
X73927333Y-115826667D01*
X73960667Y-115760000D01*
X73760667Y-116593334D02*
X73760667Y-116660001D01*
X73794000Y-116726667D01*
X73827333Y-116760001D01*
X73894000Y-116793334D01*
X74027333Y-116826667D01*
X74194000Y-116826667D01*
X74327333Y-116793334D01*
X74394000Y-116760001D01*
X74427333Y-116726667D01*
X74460667Y-116660001D01*
X74460667Y-116593334D01*
X74427333Y-116526667D01*
X74394000Y-116493334D01*
X74327333Y-116460001D01*
X74194000Y-116426667D01*
X74027333Y-116426667D01*
X73894000Y-116460001D01*
X73827333Y-116493334D01*
X73794000Y-116526667D01*
X73760667Y-116593334D01*
X73994000Y-117426668D02*
X74460667Y-117426668D01*
X73994000Y-117126668D02*
X74360667Y-117126668D01*
X74427333Y-117160001D01*
X74460667Y-117226668D01*
X74460667Y-117326668D01*
X74427333Y-117393334D01*
X74394000Y-117426668D01*
X73378000Y-69733334D02*
X73411333Y-69700000D01*
X73444667Y-69600000D01*
X73444667Y-69533334D01*
X73411333Y-69433334D01*
X73344667Y-69366667D01*
X73278000Y-69333334D01*
X73144667Y-69300000D01*
X73044667Y-69300000D01*
X72911333Y-69333334D01*
X72844667Y-69366667D01*
X72778000Y-69433334D01*
X72744667Y-69533334D01*
X72744667Y-69600000D01*
X72778000Y-69700000D01*
X72811333Y-69733334D01*
X72744667Y-70366667D02*
X72744667Y-70033334D01*
X73078000Y-70000000D01*
X73044667Y-70033334D01*
X73011333Y-70100000D01*
X73011333Y-70266667D01*
X73044667Y-70333334D01*
X73078000Y-70366667D01*
X73144667Y-70400000D01*
X73311333Y-70400000D01*
X73378000Y-70366667D01*
X73411333Y-70333334D01*
X73444667Y-70266667D01*
X73444667Y-70100000D01*
X73411333Y-70033334D01*
X73378000Y-70000000D01*
X74460667Y-69654000D02*
X74460667Y-69254000D01*
X74460667Y-69454000D02*
X73760667Y-69454000D01*
X73860667Y-69387334D01*
X73927333Y-69320667D01*
X73960667Y-69254000D01*
X73760667Y-70087334D02*
X73760667Y-70154001D01*
X73794000Y-70220667D01*
X73827333Y-70254001D01*
X73894000Y-70287334D01*
X74027333Y-70320667D01*
X74194000Y-70320667D01*
X74327333Y-70287334D01*
X74394000Y-70254001D01*
X74427333Y-70220667D01*
X74460667Y-70154001D01*
X74460667Y-70087334D01*
X74427333Y-70020667D01*
X74394000Y-69987334D01*
X74327333Y-69954001D01*
X74194000Y-69920667D01*
X74027333Y-69920667D01*
X73894000Y-69954001D01*
X73827333Y-69987334D01*
X73794000Y-70020667D01*
X73760667Y-70087334D01*
X73994000Y-70920668D02*
X74460667Y-70920668D01*
X73994000Y-70620668D02*
X74360667Y-70620668D01*
X74427333Y-70654001D01*
X74460667Y-70720668D01*
X74460667Y-70820668D01*
X74427333Y-70887334D01*
X74394000Y-70920668D01*
X73378000Y-60335334D02*
X73411333Y-60302000D01*
X73444667Y-60202000D01*
X73444667Y-60135334D01*
X73411333Y-60035334D01*
X73344667Y-59968667D01*
X73278000Y-59935334D01*
X73144667Y-59902000D01*
X73044667Y-59902000D01*
X72911333Y-59935334D01*
X72844667Y-59968667D01*
X72778000Y-60035334D01*
X72744667Y-60135334D01*
X72744667Y-60202000D01*
X72778000Y-60302000D01*
X72811333Y-60335334D01*
X72744667Y-60935334D02*
X72744667Y-60802000D01*
X72778000Y-60735334D01*
X72811333Y-60702000D01*
X72911333Y-60635334D01*
X73044667Y-60602000D01*
X73311333Y-60602000D01*
X73378000Y-60635334D01*
X73411333Y-60668667D01*
X73444667Y-60735334D01*
X73444667Y-60868667D01*
X73411333Y-60935334D01*
X73378000Y-60968667D01*
X73311333Y-61002000D01*
X73144667Y-61002000D01*
X73078000Y-60968667D01*
X73044667Y-60935334D01*
X73011333Y-60868667D01*
X73011333Y-60735334D01*
X73044667Y-60668667D01*
X73078000Y-60635334D01*
X73144667Y-60602000D01*
X74460667Y-59748000D02*
X74460667Y-59348000D01*
X74460667Y-59548000D02*
X73760667Y-59548000D01*
X73860667Y-59481334D01*
X73927333Y-59414667D01*
X73960667Y-59348000D01*
X73760667Y-60181334D02*
X73760667Y-60248001D01*
X73794000Y-60314667D01*
X73827333Y-60348001D01*
X73894000Y-60381334D01*
X74027333Y-60414667D01*
X74194000Y-60414667D01*
X74327333Y-60381334D01*
X74394000Y-60348001D01*
X74427333Y-60314667D01*
X74460667Y-60248001D01*
X74460667Y-60181334D01*
X74427333Y-60114667D01*
X74394000Y-60081334D01*
X74327333Y-60048001D01*
X74194000Y-60014667D01*
X74027333Y-60014667D01*
X73894000Y-60048001D01*
X73827333Y-60081334D01*
X73794000Y-60114667D01*
X73760667Y-60181334D01*
X73994000Y-61014668D02*
X74460667Y-61014668D01*
X73994000Y-60714668D02*
X74360667Y-60714668D01*
X74427333Y-60748001D01*
X74460667Y-60814668D01*
X74460667Y-60914668D01*
X74427333Y-60981334D01*
X74394000Y-61014668D01*
X73378000Y-91303334D02*
X73411333Y-91270000D01*
X73444667Y-91170000D01*
X73444667Y-91103334D01*
X73411333Y-91003334D01*
X73344667Y-90936667D01*
X73278000Y-90903334D01*
X73144667Y-90870000D01*
X73044667Y-90870000D01*
X72911333Y-90903334D01*
X72844667Y-90936667D01*
X72778000Y-91003334D01*
X72744667Y-91103334D01*
X72744667Y-91170000D01*
X72778000Y-91270000D01*
X72811333Y-91303334D01*
X72744667Y-91536667D02*
X72744667Y-92003334D01*
X73444667Y-91703334D01*
X74460667Y-90716000D02*
X74460667Y-90316000D01*
X74460667Y-90516000D02*
X73760667Y-90516000D01*
X73860667Y-90449334D01*
X73927333Y-90382667D01*
X73960667Y-90316000D01*
X73760667Y-91149334D02*
X73760667Y-91216001D01*
X73794000Y-91282667D01*
X73827333Y-91316001D01*
X73894000Y-91349334D01*
X74027333Y-91382667D01*
X74194000Y-91382667D01*
X74327333Y-91349334D01*
X74394000Y-91316001D01*
X74427333Y-91282667D01*
X74460667Y-91216001D01*
X74460667Y-91149334D01*
X74427333Y-91082667D01*
X74394000Y-91049334D01*
X74327333Y-91016001D01*
X74194000Y-90982667D01*
X74027333Y-90982667D01*
X73894000Y-91016001D01*
X73827333Y-91049334D01*
X73794000Y-91082667D01*
X73760667Y-91149334D01*
X73994000Y-91982668D02*
X74460667Y-91982668D01*
X73994000Y-91682668D02*
X74360667Y-91682668D01*
X74427333Y-91716001D01*
X74460667Y-91782668D01*
X74460667Y-91882668D01*
X74427333Y-91949334D01*
X74394000Y-91982668D01*
X73378000Y-83425334D02*
X73411333Y-83392000D01*
X73444667Y-83292000D01*
X73444667Y-83225334D01*
X73411333Y-83125334D01*
X73344667Y-83058667D01*
X73278000Y-83025334D01*
X73144667Y-82992000D01*
X73044667Y-82992000D01*
X72911333Y-83025334D01*
X72844667Y-83058667D01*
X72778000Y-83125334D01*
X72744667Y-83225334D01*
X72744667Y-83292000D01*
X72778000Y-83392000D01*
X72811333Y-83425334D01*
X73044667Y-83825334D02*
X73011333Y-83758667D01*
X72978000Y-83725334D01*
X72911333Y-83692000D01*
X72878000Y-83692000D01*
X72811333Y-83725334D01*
X72778000Y-83758667D01*
X72744667Y-83825334D01*
X72744667Y-83958667D01*
X72778000Y-84025334D01*
X72811333Y-84058667D01*
X72878000Y-84092000D01*
X72911333Y-84092000D01*
X72978000Y-84058667D01*
X73011333Y-84025334D01*
X73044667Y-83958667D01*
X73044667Y-83825334D01*
X73078000Y-83758667D01*
X73111333Y-83725334D01*
X73178000Y-83692000D01*
X73311333Y-83692000D01*
X73378000Y-83725334D01*
X73411333Y-83758667D01*
X73444667Y-83825334D01*
X73444667Y-83958667D01*
X73411333Y-84025334D01*
X73378000Y-84058667D01*
X73311333Y-84092000D01*
X73178000Y-84092000D01*
X73111333Y-84058667D01*
X73078000Y-84025334D01*
X73044667Y-83958667D01*
X74460667Y-82838000D02*
X74460667Y-82438000D01*
X74460667Y-82638000D02*
X73760667Y-82638000D01*
X73860667Y-82571334D01*
X73927333Y-82504667D01*
X73960667Y-82438000D01*
X73760667Y-83271334D02*
X73760667Y-83338001D01*
X73794000Y-83404667D01*
X73827333Y-83438001D01*
X73894000Y-83471334D01*
X74027333Y-83504667D01*
X74194000Y-83504667D01*
X74327333Y-83471334D01*
X74394000Y-83438001D01*
X74427333Y-83404667D01*
X74460667Y-83338001D01*
X74460667Y-83271334D01*
X74427333Y-83204667D01*
X74394000Y-83171334D01*
X74327333Y-83138001D01*
X74194000Y-83104667D01*
X74027333Y-83104667D01*
X73894000Y-83138001D01*
X73827333Y-83171334D01*
X73794000Y-83204667D01*
X73760667Y-83271334D01*
X73994000Y-84104668D02*
X74460667Y-84104668D01*
X73994000Y-83804668D02*
X74360667Y-83804668D01*
X74427333Y-83838001D01*
X74460667Y-83904668D01*
X74460667Y-84004668D01*
X74427333Y-84071334D01*
X74394000Y-84104668D01*
M02*
