G04 #@! TF.FileFunction,Drawing*
%FSLAX46Y46*%
G04 Gerber Fmt 4.6, Leading zero omitted, Abs format (unit mm)*
G04 Created by KiCad (PCBNEW 4.0.4+e1-6308~48~ubuntu15.10.1-stable) date Fri Nov 17 08:43:39 2017*
%MOMM*%
%LPD*%
G01*
G04 APERTURE LIST*
%ADD10C,0.150000*%
%ADD11C,0.100000*%
%ADD12C,0.381000*%
G04 APERTURE END LIST*
D10*
X59741200Y-50000000D02*
X59741200Y-150000000D01*
X61341200Y-50000000D02*
X61341200Y-150000000D01*
D11*
X226385714Y-155621428D02*
X226423810Y-155645238D01*
X226461905Y-155716666D01*
X226461905Y-155764285D01*
X226423810Y-155835714D01*
X226347619Y-155883333D01*
X226271429Y-155907142D01*
X226119048Y-155930952D01*
X226004762Y-155930952D01*
X225852381Y-155907142D01*
X225776190Y-155883333D01*
X225700000Y-155835714D01*
X225661905Y-155764285D01*
X225661905Y-155716666D01*
X225700000Y-155645238D01*
X225738095Y-155621428D01*
X226461905Y-155192857D02*
X226042857Y-155192857D01*
X225966667Y-155216666D01*
X225928571Y-155264285D01*
X225928571Y-155359523D01*
X225966667Y-155407142D01*
X226423810Y-155192857D02*
X226461905Y-155240476D01*
X226461905Y-155359523D01*
X226423810Y-155407142D01*
X226347619Y-155430952D01*
X226271429Y-155430952D01*
X226195238Y-155407142D01*
X226157143Y-155359523D01*
X226157143Y-155240476D01*
X226119048Y-155192857D01*
X226461905Y-154954761D02*
X225928571Y-154954761D01*
X225661905Y-154954761D02*
X225700000Y-154978571D01*
X225738095Y-154954761D01*
X225700000Y-154930952D01*
X225661905Y-154954761D01*
X225738095Y-154954761D01*
X226461905Y-154764285D02*
X225928571Y-154502381D01*
X225928571Y-154764285D02*
X226461905Y-154502381D01*
X226461905Y-154097619D02*
X226042857Y-154097619D01*
X225966667Y-154121428D01*
X225928571Y-154169047D01*
X225928571Y-154264285D01*
X225966667Y-154311904D01*
X226423810Y-154097619D02*
X226461905Y-154145238D01*
X226461905Y-154264285D01*
X226423810Y-154311904D01*
X226347619Y-154335714D01*
X226271429Y-154335714D01*
X226195238Y-154311904D01*
X226157143Y-154264285D01*
X226157143Y-154145238D01*
X226119048Y-154097619D01*
X226157143Y-153478571D02*
X226157143Y-153097619D01*
X226461905Y-153288095D02*
X225852381Y-153288095D01*
X226461905Y-152216667D02*
X226461905Y-152502381D01*
X226461905Y-152359524D02*
X225661905Y-152359524D01*
X225776190Y-152407143D01*
X225852381Y-152454762D01*
X225890476Y-152502381D01*
X226385714Y-152002381D02*
X226423810Y-151978572D01*
X226461905Y-152002381D01*
X226423810Y-152026191D01*
X226385714Y-152002381D01*
X226461905Y-152002381D01*
X225661905Y-151550001D02*
X225661905Y-151645239D01*
X225700000Y-151692858D01*
X225738095Y-151716667D01*
X225852381Y-151764286D01*
X226004762Y-151788096D01*
X226309524Y-151788096D01*
X226385714Y-151764286D01*
X226423810Y-151740477D01*
X226461905Y-151692858D01*
X226461905Y-151597620D01*
X226423810Y-151550001D01*
X226385714Y-151526191D01*
X226309524Y-151502382D01*
X226119048Y-151502382D01*
X226042857Y-151526191D01*
X226004762Y-151550001D01*
X225966667Y-151597620D01*
X225966667Y-151692858D01*
X226004762Y-151740477D01*
X226042857Y-151764286D01*
X226119048Y-151788096D01*
X226461905Y-151288096D02*
X225928571Y-151288096D01*
X226004762Y-151288096D02*
X225966667Y-151264287D01*
X225928571Y-151216668D01*
X225928571Y-151145239D01*
X225966667Y-151097620D01*
X226042857Y-151073811D01*
X226461905Y-151073811D01*
X226042857Y-151073811D02*
X225966667Y-151050001D01*
X225928571Y-151002382D01*
X225928571Y-150930954D01*
X225966667Y-150883334D01*
X226042857Y-150859525D01*
X226461905Y-150859525D01*
X226461905Y-150621429D02*
X225928571Y-150621429D01*
X226004762Y-150621429D02*
X225966667Y-150597620D01*
X225928571Y-150550001D01*
X225928571Y-150478572D01*
X225966667Y-150430953D01*
X226042857Y-150407144D01*
X226461905Y-150407144D01*
X226042857Y-150407144D02*
X225966667Y-150383334D01*
X225928571Y-150335715D01*
X225928571Y-150264287D01*
X225966667Y-150216667D01*
X226042857Y-150192858D01*
X226461905Y-150192858D01*
D10*
X226161200Y-50000000D02*
X226161200Y-150000000D01*
D11*
X227661905Y-155842856D02*
X226861905Y-155842856D01*
X226861905Y-155652380D01*
X226900000Y-155604761D01*
X226938095Y-155580952D01*
X227014286Y-155557142D01*
X227128571Y-155557142D01*
X227204762Y-155580952D01*
X227242857Y-155604761D01*
X227280952Y-155652380D01*
X227280952Y-155842856D01*
X227661905Y-155128571D02*
X227242857Y-155128571D01*
X227166667Y-155152380D01*
X227128571Y-155199999D01*
X227128571Y-155295237D01*
X227166667Y-155342856D01*
X227623810Y-155128571D02*
X227661905Y-155176190D01*
X227661905Y-155295237D01*
X227623810Y-155342856D01*
X227547619Y-155366666D01*
X227471429Y-155366666D01*
X227395238Y-155342856D01*
X227357143Y-155295237D01*
X227357143Y-155176190D01*
X227319048Y-155128571D01*
X227661905Y-154890475D02*
X227128571Y-154890475D01*
X226861905Y-154890475D02*
X226900000Y-154914285D01*
X226938095Y-154890475D01*
X226900000Y-154866666D01*
X226861905Y-154890475D01*
X226938095Y-154890475D01*
X227128571Y-154652380D02*
X227661905Y-154652380D01*
X227204762Y-154652380D02*
X227166667Y-154628571D01*
X227128571Y-154580952D01*
X227128571Y-154509523D01*
X227166667Y-154461904D01*
X227242857Y-154438095D01*
X227661905Y-154438095D01*
X227623810Y-154009523D02*
X227661905Y-154057142D01*
X227661905Y-154152380D01*
X227623810Y-154199999D01*
X227547619Y-154223809D01*
X227242857Y-154223809D01*
X227166667Y-154199999D01*
X227128571Y-154152380D01*
X227128571Y-154057142D01*
X227166667Y-154009523D01*
X227242857Y-153985714D01*
X227319048Y-153985714D01*
X227395238Y-154223809D01*
X227661905Y-153700000D02*
X227623810Y-153747619D01*
X227547619Y-153771428D01*
X226861905Y-153771428D01*
X227357143Y-153128571D02*
X227357143Y-152747619D01*
X227661905Y-152938095D02*
X227052381Y-152938095D01*
X226938095Y-152152381D02*
X226900000Y-152128571D01*
X226861905Y-152080952D01*
X226861905Y-151961905D01*
X226900000Y-151914286D01*
X226938095Y-151890476D01*
X227014286Y-151866667D01*
X227090476Y-151866667D01*
X227204762Y-151890476D01*
X227661905Y-152176190D01*
X227661905Y-151866667D01*
X227661905Y-151652381D02*
X227128571Y-151652381D01*
X227204762Y-151652381D02*
X227166667Y-151628572D01*
X227128571Y-151580953D01*
X227128571Y-151509524D01*
X227166667Y-151461905D01*
X227242857Y-151438096D01*
X227661905Y-151438096D01*
X227242857Y-151438096D02*
X227166667Y-151414286D01*
X227128571Y-151366667D01*
X227128571Y-151295239D01*
X227166667Y-151247619D01*
X227242857Y-151223810D01*
X227661905Y-151223810D01*
X227661905Y-150985714D02*
X227128571Y-150985714D01*
X227204762Y-150985714D02*
X227166667Y-150961905D01*
X227128571Y-150914286D01*
X227128571Y-150842857D01*
X227166667Y-150795238D01*
X227242857Y-150771429D01*
X227661905Y-150771429D01*
X227242857Y-150771429D02*
X227166667Y-150747619D01*
X227128571Y-150700000D01*
X227128571Y-150628572D01*
X227166667Y-150580952D01*
X227242857Y-150557143D01*
X227661905Y-150557143D01*
D10*
X227450000Y-49950000D02*
X227450000Y-149950000D01*
D11*
X225711905Y-153647618D02*
X224911905Y-153647618D01*
X224911905Y-153457142D01*
X224950000Y-153409523D01*
X224988095Y-153385714D01*
X225064286Y-153361904D01*
X225178571Y-153361904D01*
X225254762Y-153385714D01*
X225292857Y-153409523D01*
X225330952Y-153457142D01*
X225330952Y-153647618D01*
X225711905Y-152933333D02*
X225292857Y-152933333D01*
X225216667Y-152957142D01*
X225178571Y-153004761D01*
X225178571Y-153099999D01*
X225216667Y-153147618D01*
X225673810Y-152933333D02*
X225711905Y-152980952D01*
X225711905Y-153099999D01*
X225673810Y-153147618D01*
X225597619Y-153171428D01*
X225521429Y-153171428D01*
X225445238Y-153147618D01*
X225407143Y-153099999D01*
X225407143Y-152980952D01*
X225369048Y-152933333D01*
X225711905Y-152695237D02*
X225178571Y-152695237D01*
X224911905Y-152695237D02*
X224950000Y-152719047D01*
X224988095Y-152695237D01*
X224950000Y-152671428D01*
X224911905Y-152695237D01*
X224988095Y-152695237D01*
X225178571Y-152457142D02*
X225711905Y-152457142D01*
X225254762Y-152457142D02*
X225216667Y-152433333D01*
X225178571Y-152385714D01*
X225178571Y-152314285D01*
X225216667Y-152266666D01*
X225292857Y-152242857D01*
X225711905Y-152242857D01*
X225673810Y-151814285D02*
X225711905Y-151861904D01*
X225711905Y-151957142D01*
X225673810Y-152004761D01*
X225597619Y-152028571D01*
X225292857Y-152028571D01*
X225216667Y-152004761D01*
X225178571Y-151957142D01*
X225178571Y-151861904D01*
X225216667Y-151814285D01*
X225292857Y-151790476D01*
X225369048Y-151790476D01*
X225445238Y-152028571D01*
X225711905Y-151504762D02*
X225673810Y-151552381D01*
X225597619Y-151576190D01*
X224911905Y-151576190D01*
D10*
X225450000Y-49950000D02*
X225450000Y-149950000D01*
D11*
X224435714Y-153169047D02*
X224473810Y-153192857D01*
X224511905Y-153264285D01*
X224511905Y-153311904D01*
X224473810Y-153383333D01*
X224397619Y-153430952D01*
X224321429Y-153454761D01*
X224169048Y-153478571D01*
X224054762Y-153478571D01*
X223902381Y-153454761D01*
X223826190Y-153430952D01*
X223750000Y-153383333D01*
X223711905Y-153311904D01*
X223711905Y-153264285D01*
X223750000Y-153192857D01*
X223788095Y-153169047D01*
X224511905Y-152740476D02*
X224092857Y-152740476D01*
X224016667Y-152764285D01*
X223978571Y-152811904D01*
X223978571Y-152907142D01*
X224016667Y-152954761D01*
X224473810Y-152740476D02*
X224511905Y-152788095D01*
X224511905Y-152907142D01*
X224473810Y-152954761D01*
X224397619Y-152978571D01*
X224321429Y-152978571D01*
X224245238Y-152954761D01*
X224207143Y-152907142D01*
X224207143Y-152788095D01*
X224169048Y-152740476D01*
X224511905Y-152502380D02*
X223978571Y-152502380D01*
X223711905Y-152502380D02*
X223750000Y-152526190D01*
X223788095Y-152502380D01*
X223750000Y-152478571D01*
X223711905Y-152502380D01*
X223788095Y-152502380D01*
X224511905Y-152311904D02*
X223978571Y-152050000D01*
X223978571Y-152311904D02*
X224511905Y-152050000D01*
X224511905Y-151645238D02*
X224092857Y-151645238D01*
X224016667Y-151669047D01*
X223978571Y-151716666D01*
X223978571Y-151811904D01*
X224016667Y-151859523D01*
X224473810Y-151645238D02*
X224511905Y-151692857D01*
X224511905Y-151811904D01*
X224473810Y-151859523D01*
X224397619Y-151883333D01*
X224321429Y-151883333D01*
X224245238Y-151859523D01*
X224207143Y-151811904D01*
X224207143Y-151692857D01*
X224169048Y-151645238D01*
D10*
X224561200Y-50000000D02*
X224561200Y-150000000D01*
X223010000Y-137200000D02*
X215340000Y-137200000D01*
D12*
X62941200Y-95720000D02*
X65125600Y-95720000D01*
D10*
X222950000Y-48020000D02*
X62950000Y-48020000D01*
X222950000Y-143020000D02*
X62950000Y-143020000D01*
M02*
