G04 #@! TF.FileFunction,Paste,Top*
%FSLAX46Y46*%
G04 Gerber Fmt 4.6, Leading zero omitted, Abs format (unit mm)*
G04 Created by KiCad (PCBNEW 4.0.4+e1-6308~48~ubuntu15.10.1-stable) date Fri Nov 17 08:43:39 2017*
%MOMM*%
%LPD*%
G01*
G04 APERTURE LIST*
%ADD10C,0.150000*%
%ADD11R,0.508000X1.143000*%
%ADD12R,1.397000X0.889000*%
%ADD13R,0.889000X1.397000*%
%ADD14R,0.406400X1.524000*%
%ADD15R,1.524000X0.406400*%
%ADD16R,1.900000X1.200000*%
%ADD17R,1.270000X2.540000*%
%ADD18R,2.540000X1.270000*%
%ADD19R,0.701040X0.248920*%
%ADD20R,0.248920X0.701040*%
%ADD21R,1.450340X1.450340*%
%ADD22R,1.150620X0.431800*%
%ADD23R,1.000760X0.269240*%
%ADD24R,0.599440X1.399540*%
%ADD25R,4.000500X2.799080*%
%ADD26R,1.143000X0.508000*%
%ADD27R,1.250000X1.000000*%
%ADD28R,1.000000X1.250000*%
%ADD29R,0.700000X1.300000*%
%ADD30R,2.032000X3.657600*%
%ADD31R,2.032000X1.016000*%
%ADD32R,3.657600X2.032000*%
%ADD33R,1.016000X2.032000*%
%ADD34R,1.998980X5.499100*%
%ADD35R,0.600000X2.000000*%
%ADD36R,1.300000X0.700000*%
%ADD37R,0.890000X0.420000*%
%ADD38R,0.495000X0.427500*%
%ADD39R,2.000000X3.800000*%
%ADD40R,2.000000X1.500000*%
G04 APERTURE END LIST*
D10*
D11*
X214866600Y-63042800D03*
X213596600Y-63042800D03*
X212326600Y-63042800D03*
X211056600Y-63042800D03*
X209786600Y-63042800D03*
X208516600Y-63042800D03*
X207246600Y-63042800D03*
X205976600Y-63042800D03*
X205976600Y-73202800D03*
X207246600Y-73202800D03*
X208516600Y-73202800D03*
X209786600Y-73202800D03*
X211056600Y-73202800D03*
X212326600Y-73202800D03*
X213596600Y-73202800D03*
X214866600Y-73202800D03*
D12*
X185206640Y-70693280D03*
X185206640Y-68788280D03*
D13*
X187253880Y-67541140D03*
X189158880Y-67541140D03*
X187253880Y-69842380D03*
X189158880Y-69842380D03*
X176822100Y-72364600D03*
X178727100Y-72364600D03*
X178760120Y-69740780D03*
X176855120Y-69740780D03*
X169210100Y-77142000D03*
X167305100Y-77142000D03*
X169210100Y-79392000D03*
X167305100Y-79392000D03*
D14*
X185320940Y-75209400D03*
X184520840Y-75209400D03*
X183720740Y-75209400D03*
X182920640Y-75209400D03*
X182120540Y-75209400D03*
X181320440Y-75209400D03*
X186121040Y-75209400D03*
X186921140Y-75209400D03*
X187721240Y-75209400D03*
X188521340Y-75209400D03*
X189321440Y-75209400D03*
X185320940Y-86639400D03*
X184520840Y-86639400D03*
X183720740Y-86639400D03*
X182920640Y-86639400D03*
X182120540Y-86639400D03*
X181320440Y-86639400D03*
X186121040Y-86639400D03*
X186921140Y-86639400D03*
X187721240Y-86639400D03*
X188521340Y-86639400D03*
X189321440Y-86639400D03*
D15*
X179605940Y-80924400D03*
X191035940Y-80924400D03*
X179605940Y-81724500D03*
X191035940Y-81724500D03*
X191035940Y-82524600D03*
X179605940Y-82524600D03*
X179605940Y-83324700D03*
X191035940Y-83324700D03*
X191035940Y-84124800D03*
X179605940Y-84124800D03*
X179605940Y-84924900D03*
X191035940Y-84924900D03*
X191035940Y-80124300D03*
X179605940Y-80124300D03*
X179605940Y-79324200D03*
X191035940Y-79324200D03*
X191035940Y-78524100D03*
X179605940Y-78524100D03*
X179605940Y-77724000D03*
X191035940Y-77724000D03*
X191035940Y-76923900D03*
X179605940Y-76923900D03*
D12*
X195507600Y-74439500D03*
X195507600Y-76344500D03*
X195507600Y-83094500D03*
X195507600Y-81189500D03*
X203757600Y-94689500D03*
X203757600Y-96594500D03*
X201257600Y-94689500D03*
X201257600Y-96594500D03*
X198757600Y-94689500D03*
X198757600Y-96594500D03*
X196257600Y-94689500D03*
X196257600Y-96594500D03*
X193757600Y-94689500D03*
X193757600Y-96594500D03*
D13*
X181960100Y-89142000D03*
X180055100Y-89142000D03*
X176305100Y-89142000D03*
X178210100Y-89142000D03*
D12*
X185978800Y-108775500D03*
X185978800Y-110680500D03*
X185978800Y-112331500D03*
X185978800Y-114236500D03*
X188315600Y-111163100D03*
X188315600Y-113068100D03*
D13*
X192952500Y-120500000D03*
X191047500Y-120500000D03*
X192952500Y-122500000D03*
X191047500Y-122500000D03*
D12*
X193000000Y-126952500D03*
X193000000Y-125047500D03*
D16*
X180125000Y-140520000D03*
X180125000Y-137980000D03*
X180125000Y-130360000D03*
X180125000Y-127820000D03*
X180125000Y-125280000D03*
X171225000Y-125280000D03*
X171225000Y-140520000D03*
D13*
X162052000Y-108993940D03*
X163957000Y-108993940D03*
D17*
X163923980Y-111589820D03*
X160875980Y-111589820D03*
D12*
X158507600Y-110344500D03*
X158507600Y-108439500D03*
D17*
X160832800Y-117142260D03*
X163880800Y-117142260D03*
D12*
X167396160Y-113837720D03*
X167396160Y-115742720D03*
X169778680Y-113908840D03*
X169778680Y-115813840D03*
D18*
X174417600Y-113898000D03*
X174417600Y-116946000D03*
D13*
X177431700Y-110810040D03*
X175526700Y-110810040D03*
D12*
X175158400Y-106540300D03*
X175158400Y-108445300D03*
D18*
X172364400Y-106781600D03*
X172364400Y-103733600D03*
D19*
X169108120Y-108790740D03*
X169108120Y-108290360D03*
X169108120Y-107292140D03*
X169108120Y-107792520D03*
D20*
X167459660Y-106641900D03*
X166959280Y-106641900D03*
X167957500Y-106641900D03*
X168457880Y-106641900D03*
X166959280Y-109440980D03*
X167459660Y-109440980D03*
X168457880Y-109440980D03*
X167957500Y-109440980D03*
D19*
X166309040Y-108290360D03*
X166309040Y-108790740D03*
X166309040Y-107792520D03*
X166309040Y-107292140D03*
D21*
X167708580Y-108041440D03*
D12*
X140484860Y-115252500D03*
X140484860Y-113347500D03*
D13*
X146390360Y-104775000D03*
X144485360Y-104775000D03*
X140455100Y-107242000D03*
X142360100Y-107242000D03*
D22*
X151462740Y-95981520D03*
X151462740Y-96616520D03*
X151462740Y-97276920D03*
X151462740Y-97911920D03*
X151462740Y-98572320D03*
X151462740Y-99220020D03*
X151462740Y-99867720D03*
X151462740Y-100515420D03*
X157050740Y-100515420D03*
X157050740Y-99867720D03*
X157050740Y-99220020D03*
X157050740Y-98572320D03*
X157050740Y-97911920D03*
X157050740Y-97264220D03*
X157050740Y-96616520D03*
X157050740Y-95968820D03*
X151462740Y-87480140D03*
X151462740Y-88115140D03*
X151462740Y-88775540D03*
X151462740Y-89410540D03*
X151462740Y-90070940D03*
X151462740Y-90718640D03*
X151462740Y-91366340D03*
X151462740Y-92014040D03*
X157050740Y-92014040D03*
X157050740Y-91366340D03*
X157050740Y-90718640D03*
X157050740Y-90070940D03*
X157050740Y-89410540D03*
X157050740Y-88762840D03*
X157050740Y-88115140D03*
X157050740Y-87467440D03*
X151462740Y-78480920D03*
X151462740Y-79115920D03*
X151462740Y-79776320D03*
X151462740Y-80411320D03*
X151462740Y-81071720D03*
X151462740Y-81719420D03*
X151462740Y-82367120D03*
X151462740Y-83014820D03*
X157050740Y-83014820D03*
X157050740Y-82367120D03*
X157050740Y-81719420D03*
X157050740Y-81071720D03*
X157050740Y-80411320D03*
X157050740Y-79763620D03*
X157050740Y-79115920D03*
X157050740Y-78468220D03*
D23*
X151935180Y-71125080D03*
X151935180Y-71633080D03*
X151935180Y-72141080D03*
X151935180Y-72649080D03*
X151935180Y-73157080D03*
X156380180Y-73157080D03*
X156380180Y-72649080D03*
X156380180Y-72141080D03*
X156380180Y-71633080D03*
X156380180Y-71125080D03*
D12*
X151008080Y-74388980D03*
X151008080Y-76293980D03*
X149057360Y-74388980D03*
X149057360Y-76293980D03*
X149207600Y-70994500D03*
X149207600Y-69089500D03*
X141658340Y-84688680D03*
X141658340Y-86593680D03*
X141658340Y-82692240D03*
X141658340Y-80787240D03*
D13*
X137505440Y-84841080D03*
X139410440Y-84841080D03*
X139410440Y-82539840D03*
X137505440Y-82539840D03*
X132803900Y-84841080D03*
X134708900Y-84841080D03*
X132803900Y-82539840D03*
X134708900Y-82539840D03*
X130360420Y-84841080D03*
X128455420Y-84841080D03*
X128455420Y-82542380D03*
X130360420Y-82542380D03*
D24*
X125361700Y-86360000D03*
X125361700Y-81026000D03*
X124091700Y-86360000D03*
X122821700Y-86360000D03*
X121551700Y-86360000D03*
X124091700Y-81026000D03*
X122821700Y-81026000D03*
X121551700Y-81026000D03*
D25*
X123456700Y-83693000D03*
D26*
X140822680Y-71236840D03*
X135488680Y-71236840D03*
X140822680Y-72506840D03*
X140822680Y-73776840D03*
X140822680Y-75046840D03*
X135488680Y-72506840D03*
X135488680Y-73776840D03*
X135488680Y-75046840D03*
D13*
X137703560Y-78041500D03*
X139608560Y-78041500D03*
D12*
X132455920Y-72788780D03*
X132455920Y-74693780D03*
X127508000Y-78094840D03*
X127508000Y-76189840D03*
D13*
X119710100Y-72642000D03*
X117805100Y-72642000D03*
X119710100Y-74892000D03*
X117805100Y-74892000D03*
X117210100Y-85892000D03*
X115305100Y-85892000D03*
D26*
X128341120Y-98546920D03*
X133675120Y-98546920D03*
X128341120Y-97276920D03*
X128341120Y-96006920D03*
X128341120Y-94736920D03*
X133675120Y-97276920D03*
X133675120Y-96006920D03*
X133675120Y-94736920D03*
D11*
X115953540Y-96573340D03*
X115953540Y-101907340D03*
X117223540Y-96573340D03*
X118493540Y-96573340D03*
X119763540Y-96573340D03*
X117223540Y-101907340D03*
X118493540Y-101907340D03*
X119763540Y-101907340D03*
D13*
X117210100Y-88142000D03*
X115305100Y-88142000D03*
D12*
X127507600Y-89289500D03*
X127507600Y-91194500D03*
D13*
X115704620Y-92141040D03*
X117609620Y-92141040D03*
D12*
X122356880Y-98287840D03*
X122356880Y-100192840D03*
D27*
X184962800Y-140369800D03*
X184962800Y-138369800D03*
D28*
X193050000Y-118400000D03*
X191050000Y-118400000D03*
D29*
X136850000Y-141775000D03*
X134950000Y-141775000D03*
D28*
X164650000Y-142000000D03*
X166650000Y-142000000D03*
D27*
X148725000Y-140650000D03*
X148725000Y-138650000D03*
D30*
X202802000Y-125000000D03*
D31*
X196198000Y-125000000D03*
X196198000Y-127286000D03*
X196198000Y-122714000D03*
D32*
X146326860Y-108585000D03*
D33*
X146326860Y-115189000D03*
X148612860Y-115189000D03*
X144040860Y-115189000D03*
D34*
X199957600Y-71262200D03*
X199957600Y-80761800D03*
D29*
X201450000Y-117500000D03*
X199550000Y-117500000D03*
X201450000Y-119500000D03*
X199550000Y-119500000D03*
D27*
X192176400Y-57235600D03*
X192176400Y-55235600D03*
D28*
X172551600Y-62636400D03*
X170551600Y-62636400D03*
D27*
X192227200Y-51698400D03*
X192227200Y-49698400D03*
D28*
X172551600Y-64922400D03*
X170551600Y-64922400D03*
D35*
X172542200Y-59513200D03*
X173812200Y-59513200D03*
X175082200Y-59513200D03*
X186512200Y-59513200D03*
X187782200Y-59513200D03*
X189052200Y-59513200D03*
X189052200Y-50113200D03*
X187782200Y-50113200D03*
X186512200Y-50113200D03*
X175082200Y-50113200D03*
X173812200Y-50113200D03*
X172542200Y-50113200D03*
D27*
X215188800Y-59198000D03*
X215188800Y-61198000D03*
X155550000Y-127110000D03*
X155550000Y-125110000D03*
X182854600Y-140369800D03*
X182854600Y-138369800D03*
X145905000Y-131785000D03*
X145905000Y-133785000D03*
X147630000Y-126510000D03*
X147630000Y-128510000D03*
X167750000Y-135150000D03*
X167750000Y-133150000D03*
X155450000Y-137250000D03*
X155450000Y-135250000D03*
X183550000Y-128000000D03*
X183550000Y-130000000D03*
D28*
X180050000Y-122500000D03*
X178050000Y-122500000D03*
D27*
X149100000Y-136000000D03*
X149100000Y-134000000D03*
X137225000Y-138300000D03*
X137225000Y-136300000D03*
D29*
X145955000Y-124710000D03*
X144055000Y-124710000D03*
X144055000Y-126510000D03*
X145955000Y-126510000D03*
X145955000Y-128310000D03*
X144055000Y-128310000D03*
X144055000Y-130110000D03*
X145955000Y-130110000D03*
D36*
X167750000Y-139725000D03*
X167750000Y-137825000D03*
D29*
X151300000Y-137250000D03*
X153200000Y-137250000D03*
X153200000Y-139200000D03*
X151300000Y-139200000D03*
X140450000Y-141775000D03*
X138550000Y-141775000D03*
D37*
X153735000Y-127860000D03*
X153735000Y-127210000D03*
X153735000Y-126560000D03*
X153735000Y-125910000D03*
X153735000Y-125260000D03*
X153735000Y-124610000D03*
X149525000Y-124610000D03*
X149525000Y-125260000D03*
X149525000Y-125910000D03*
X149525000Y-126560000D03*
X149525000Y-127210000D03*
X149525000Y-127860000D03*
D38*
X151217500Y-125166250D03*
X151217500Y-125878750D03*
X151217500Y-126591250D03*
X151217500Y-127303750D03*
X152042500Y-125166250D03*
X152042500Y-125878750D03*
X152042500Y-126591250D03*
X152042500Y-127303750D03*
D39*
X158425000Y-137425000D03*
D40*
X164725000Y-137425000D03*
X164725000Y-135125000D03*
X164725000Y-139725000D03*
D39*
X139850000Y-138300000D03*
D40*
X146150000Y-138300000D03*
X146150000Y-136000000D03*
X146150000Y-140600000D03*
D29*
X215850000Y-53620000D03*
X213950000Y-53620000D03*
D27*
X169260000Y-127880000D03*
X169260000Y-129880000D03*
D28*
X158200000Y-129770000D03*
X156200000Y-129770000D03*
D27*
X160670000Y-125250000D03*
X160670000Y-127250000D03*
D29*
X157220000Y-125230000D03*
X159120000Y-125230000D03*
X159140000Y-127200000D03*
X157240000Y-127200000D03*
D37*
X166895000Y-127885000D03*
X166895000Y-127235000D03*
X166895000Y-126585000D03*
X166895000Y-125935000D03*
X166895000Y-125285000D03*
X166895000Y-124635000D03*
X162685000Y-124635000D03*
X162685000Y-125285000D03*
X162685000Y-125935000D03*
X162685000Y-126585000D03*
X162685000Y-127235000D03*
X162685000Y-127885000D03*
D38*
X164377500Y-125191250D03*
X164377500Y-125903750D03*
X164377500Y-126616250D03*
X164377500Y-127328750D03*
X165202500Y-125191250D03*
X165202500Y-125903750D03*
X165202500Y-126616250D03*
X165202500Y-127328750D03*
D29*
X151250000Y-130320000D03*
X153150000Y-130320000D03*
X151250000Y-132290000D03*
X153150000Y-132290000D03*
M02*
