M48
;DRILL file {KiCad 4.0.4+e1-6308~48~ubuntu15.10.1-stable} date Tue Jun 20 15:03:41 2017
;FORMAT={-:-/ absolute / inch / decimal}
FMAT,2
INCH,TZ
T1C0.016
T2C0.025
T3C0.031
T4C0.032
T5C0.032
T6C0.035
T7C0.039
T8C0.040
T9C0.059
T10C0.063
T11C0.118
T12C0.126
T13C0.134
%
G90
G05
M72
T1
X6.585Y-4.2359
X6.585Y-4.2713
X6.6204Y-4.2359
X6.6204Y-4.2713
T2
X4.5397Y-4.1828
X4.6027Y-3.7143
X4.6755Y-3.4898
X4.7909Y-2.7879
X4.8149Y-4.2257
X4.8153Y-4.0213
X4.8271Y-2.8639
X4.8349Y-3.1198
X4.8546Y-3.4623
X4.8625Y-3.6394
X4.9058Y-3.0804
X4.929Y-2.9816
X5.0436Y-3.6473
X5.0475Y-3.4072
X5.0554Y-3.1828
X5.0747Y-4.2257
X5.3349Y-3.6985
X5.3743Y-3.8442
X5.4664Y-3.9796
X5.472Y-3.5355
X5.516Y-3.7812
X5.6027Y-3.919
X5.6597Y-3.5863
X5.6657Y-3.7812
X5.705Y-3.854
X5.7137Y-3.3335
X5.7424Y-3.4217
X5.746Y-3.1068
X5.7471Y-3.4702
X5.7838Y-3.8973
X5.7897Y-3.5528
X5.7975Y-3.3166
X5.811Y-5.2205
X5.8353Y-3.269
X5.8369Y-3.6906
X5.874Y-4.7736
X5.9392Y-3.3796
X6.0007Y-4.1115
X6.0579Y-4.7673
X6.0672Y-3.041
X6.0988Y-5.1594
X6.1007Y-3.352
X6.1007Y-3.7182
X6.1007Y-4.0174
X6.1016Y-4.8752
X6.1412Y-3.6717
X6.1518Y-3.352
X6.1558Y-4.0252
X6.1598Y-4.5409
X6.1723Y-4.1288
X6.2227Y-3.3501
X6.2542Y-3.7576
X6.2798Y-3.1788
X6.2857Y-3.3993
X6.2896Y-3.5095
X6.2896Y-4.5095
X6.2991Y-4.1619
X6.3231Y-3.0784
X6.329Y-3.163
X6.3644Y-3.4701
X6.3664Y-3.3245
X6.4077Y-3.1591
X6.4471Y-4.5213
X6.4566Y-3.0064
X6.4582Y-3.1442
X6.4865Y-4.1453
X6.4904Y-3.7693
X6.4944Y-4.0134
X6.5062Y-2.8934
X6.5397Y-4.4347
X6.579Y-3.5745
X6.623Y-4.815
X6.6243Y-3.6965
X6.682Y-4.624
X6.69Y-4.106
X6.7405Y-4.4308
X6.7441Y-5.4272
X6.7696Y-2.9469
X6.811Y-3.9715
X6.8716Y-3.0143
X6.8802Y-2.854
X6.8999Y-3.4406
X6.9097Y-3.0457
X6.9385Y-3.0894
X6.959Y-3.4013
X6.9783Y-4.1703
X6.999Y-4.4715
X7.0042Y-3.1867
X7.0069Y-4.2972
X7.0751Y-2.915
X7.0846Y-4.6181
X7.1223Y-2.7851
X7.3113Y-2.8599
X7.3612Y-5.5246
X7.4314Y-2.8501
X7.4412Y-2.5883
X7.5389Y-2.8233
X7.544Y-3.8028
X7.6259Y-3.6662
X7.6274Y-2.1746
X7.646Y-2.8658
X7.7255Y-3.669
X7.7326Y-3.3363
X7.8247Y-3.669
X7.9251Y-3.669
X8.0247Y-3.669
X8.182Y-2.376
X8.356Y-2.368
X8.5Y-2.7441
X8.5866Y-2.3209
X8.5866Y-2.4685
T3
X2.6587Y-2.5673
X2.6587Y-2.6476
X2.6587Y-3.3547
X2.6587Y-3.435
X2.6587Y-4.1421
X2.6587Y-4.2224
X2.6587Y-4.9295
X2.6587Y-5.0098
X2.7591Y-2.5272
X2.7591Y-2.6075
X2.7591Y-3.3146
X2.7591Y-3.3949
X2.7591Y-4.102
X2.7591Y-4.1823
X2.7591Y-4.8894
X2.7591Y-4.9697
X8.5687Y-2.5713
X8.5687Y-2.6713
X8.5687Y-4.485
X8.5687Y-4.585
X8.5687Y-4.685
X8.5687Y-4.785
X8.5687Y-4.885
X8.6687Y-2.5713
X8.6687Y-2.6713
X8.6687Y-4.485
X8.6687Y-4.585
X8.6687Y-4.685
X8.6687Y-4.785
X8.6687Y-4.885
T5
X8.0709Y-5.1612
X8.0709Y-5.3112
X8.234Y-3.2365
X8.234Y-3.3365
X8.234Y-3.4365
X8.234Y-3.9353
X8.234Y-4.0353
X8.234Y-4.1353
X8.334Y-3.1865
X8.334Y-3.2865
X8.334Y-3.3865
X8.334Y-3.8853
X8.334Y-3.9853
X8.334Y-4.0853
T6
X8.6543Y-2.2421
X8.6543Y-2.3421
T7
X5.2559Y-4.8992
X5.2559Y-5.2077
X5.3559Y-4.8992
X5.3559Y-5.2077
X5.4559Y-4.8992
X5.4559Y-5.2077
T8
X3.4123Y-3.3185
X3.4123Y-3.4185
X3.4123Y-3.5185
X3.4123Y-3.6185
X3.4123Y-3.7185
X3.4123Y-3.8185
X3.4123Y-3.9185
X3.4123Y-4.0185
X3.4123Y-4.1185
X3.4123Y-4.2185
X3.5123Y-3.3185
X3.5123Y-3.4185
X3.5123Y-3.5185
X3.5123Y-3.6185
X3.5123Y-3.7185
X3.5123Y-3.8185
X3.5123Y-3.9185
X3.5123Y-4.0185
X3.5123Y-4.1185
X3.5123Y-4.2185
X6.5515Y-3.8993
X6.946Y-3.6859
X6.946Y-3.7859
X7.046Y-3.6859
X7.046Y-3.7859
X7.146Y-3.6859
X7.146Y-3.7859
X7.246Y-3.6859
X7.246Y-3.7859
X7.346Y-3.6859
X7.346Y-3.7859
T10
X8.7111Y-3.0457
X8.7111Y-3.5796
X8.7111Y-3.7446
X8.7111Y-4.2784
T11
X2.587Y-2.0087
X2.587Y-5.5126
X8.637Y-2.0087
X8.637Y-5.5126
T12
X2.7536Y-2.0756
X2.7536Y-5.4604
X3.594Y-4.624
T4
X8.3701Y-5.2776G85X8.3701Y-5.1713
G05
X8.5118Y-5.0354G85X8.4252Y-5.0354
G05
X8.6063Y-5.2677G85X8.6063Y-5.1811
G05
T7
X2.6941Y-2.3756G85X2.639Y-2.3756
G05
X2.6941Y-2.7992G85X2.639Y-2.7992
G05
X2.6941Y-3.163G85X2.639Y-3.163
G05
X2.6941Y-3.5866G85X2.639Y-3.5866
G05
X2.6941Y-3.9504G85X2.639Y-3.9504
G05
X2.6941Y-4.374G85X2.639Y-4.374
G05
X2.6941Y-4.7378G85X2.639Y-4.7378
G05
X2.6941Y-5.1614G85X2.639Y-5.1614
G05
T9
X8.471Y-3.0176G85X8.471Y-3.0477
G05
X8.471Y-3.5776G85X8.471Y-3.6078
G05
X8.471Y-3.7164G85X8.471Y-3.7465
G05
X8.471Y-4.2765G85X8.471Y-4.3066
G05
T13
X8.591Y-3.5127G85X8.591Y-3.5377
G05
X8.591Y-4.2115G85X8.591Y-4.2365
G05
X8.5911Y-3.0877G85X8.5911Y-3.1127
G05
X8.5911Y-3.7865G85X8.5911Y-3.8115
G05
T0
M30
