G04 #@! TF.FileFunction,Soldermask,Bot*
%FSLAX46Y46*%
G04 Gerber Fmt 4.6, Leading zero omitted, Abs format (unit mm)*
G04 Created by KiCad (PCBNEW 4.0.4+e1-6308~48~ubuntu15.10.1-stable) date Fri Nov 17 08:43:39 2017*
%MOMM*%
%LPD*%
G01*
G04 APERTURE LIST*
%ADD10C,0.150000*%
%ADD11C,6.008000*%
%ADD12C,4.508000*%
%ADD13R,2.057400X2.308860*%
%ADD14R,1.397000X1.905000*%
%ADD15R,1.905000X1.905000*%
%ADD16C,1.905000*%
%ADD17R,1.208000X1.208000*%
%ADD18R,1.905000X1.397000*%
%ADD19C,1.668000*%
%ADD20O,3.708000X2.308000*%
%ADD21C,1.908000*%
%ADD22C,2.540000*%
%ADD23R,2.235200X2.235200*%
%ADD24O,2.308000X2.008000*%
%ADD25O,2.235200X2.235200*%
%ADD26R,2.032000X2.032000*%
%ADD27C,2.032000*%
%ADD28R,4.508500X2.506980*%
%ADD29R,2.506980X4.508500*%
%ADD30R,2.506980X5.509260*%
%ADD31R,1.508000X1.758000*%
%ADD32R,1.808000X1.208000*%
%ADD33R,2.208000X2.208000*%
%ADD34O,2.208000X2.208000*%
%ADD35O,2.608000X3.508000*%
%ADD36O,3.908000X4.543000*%
%ADD37C,3.008000*%
G04 APERTURE END LIST*
D10*
D11*
X208560900Y-51362000D03*
X80710000Y-51020000D03*
X80710000Y-140020000D03*
D12*
X219380000Y-140020000D03*
X219380000Y-51020000D03*
D11*
X65710000Y-138020000D03*
X65710000Y-53020000D03*
X208560900Y-139678000D03*
D13*
X213926020Y-71800000D03*
X211573980Y-71800000D03*
D14*
X168219500Y-86478600D03*
X170124500Y-86478600D03*
X168219500Y-84243400D03*
X170124500Y-84243400D03*
D15*
X205000000Y-131095000D03*
D16*
X205000000Y-134905000D03*
D17*
X167358580Y-107691440D03*
X168058580Y-107691440D03*
X168058580Y-108391440D03*
X167358580Y-108391440D03*
D18*
X73898000Y-64198500D03*
X73898000Y-62293500D03*
X73898000Y-66230500D03*
X73898000Y-68135500D03*
X73517000Y-83662900D03*
X73517000Y-81757900D03*
X73517000Y-86220300D03*
X73517000Y-88125300D03*
X73517000Y-104428100D03*
X73517000Y-102523100D03*
X73517000Y-107311700D03*
X73517000Y-109216700D03*
X73517000Y-124498100D03*
X73517000Y-122593100D03*
X73517000Y-126225300D03*
X73517000Y-128130300D03*
D19*
X70081200Y-106230000D03*
X70081200Y-104190000D03*
X67531200Y-105210000D03*
X67531200Y-107250000D03*
D20*
X67731200Y-111100000D03*
X67731200Y-100340000D03*
D21*
X220186200Y-67850000D03*
X217646200Y-67850000D03*
X220186200Y-65310000D03*
X217646200Y-65310000D03*
X219820000Y-56950000D03*
X219820000Y-59490000D03*
D22*
X162050000Y-54660000D03*
X110980000Y-122600000D03*
D11*
X91287600Y-117449600D03*
D19*
X70081200Y-126230000D03*
X70081200Y-124190000D03*
X67531200Y-125210000D03*
X67531200Y-127250000D03*
D20*
X67731200Y-131100000D03*
X67731200Y-120340000D03*
D19*
X70081200Y-86230000D03*
X70081200Y-84190000D03*
X67531200Y-85210000D03*
X67531200Y-87250000D03*
D20*
X67731200Y-91100000D03*
X67731200Y-80340000D03*
D19*
X70081200Y-66230000D03*
X70081200Y-64190000D03*
X67531200Y-65210000D03*
X67531200Y-67250000D03*
D20*
X67731200Y-71100000D03*
X67731200Y-60340000D03*
D23*
X86671200Y-84290000D03*
D24*
X89211200Y-84290000D03*
X86671200Y-86830000D03*
X89211200Y-86830000D03*
X86671200Y-89370000D03*
X89211200Y-89370000D03*
X86671200Y-91910000D03*
X89211200Y-91910000D03*
D25*
X86671200Y-94450000D03*
X89211200Y-94450000D03*
D24*
X86671200Y-96990000D03*
X89211200Y-96990000D03*
X86671200Y-99530000D03*
X89211200Y-99530000D03*
X86671200Y-102070000D03*
X89211200Y-102070000D03*
X86671200Y-104610000D03*
X89211200Y-104610000D03*
X86671200Y-107150000D03*
X89211200Y-107150000D03*
D26*
X176427600Y-96162000D03*
D27*
X176427600Y-93622000D03*
X178967600Y-96162000D03*
X178967600Y-93622000D03*
X181507600Y-96162000D03*
X181507600Y-93622000D03*
X184047600Y-96162000D03*
X184047600Y-93622000D03*
X186587600Y-96162000D03*
X186587600Y-93622000D03*
D28*
X215099260Y-127899400D03*
D29*
X218599380Y-132700000D03*
D30*
X212599900Y-132700000D03*
D26*
X166407600Y-99042000D03*
D21*
X220186200Y-124080000D03*
X217646200Y-124080000D03*
X220186200Y-121540000D03*
X217646200Y-121540000D03*
X220186200Y-119000000D03*
X217646200Y-119000000D03*
X220186200Y-116460000D03*
X217646200Y-116460000D03*
X220186200Y-113920000D03*
X217646200Y-113920000D03*
D31*
X211950000Y-67550000D03*
X213950000Y-67550000D03*
X211950000Y-69700000D03*
X213950000Y-69700000D03*
D32*
X217505280Y-73086000D03*
X217505280Y-71186000D03*
D33*
X138580000Y-124440000D03*
D34*
X136040000Y-124440000D03*
X133500000Y-124440000D03*
D33*
X138580000Y-132275000D03*
D34*
X136040000Y-132275000D03*
X133500000Y-132275000D03*
D35*
X215164480Y-91254500D03*
X215164480Y-77029500D03*
D27*
X209144140Y-84746520D03*
X209144140Y-82206520D03*
X209144140Y-87286520D03*
X211684140Y-80936520D03*
X211684140Y-83476520D03*
X211684140Y-86016520D03*
D36*
X218211940Y-89539500D03*
X218214480Y-78744500D03*
D37*
X221261940Y-77362000D03*
X221261940Y-90922000D03*
D35*
X215164480Y-109004500D03*
X215164480Y-94779500D03*
D27*
X209144140Y-102496520D03*
X209144140Y-99956520D03*
X209144140Y-105036520D03*
X211684140Y-98686520D03*
X211684140Y-101226520D03*
X211684140Y-103766520D03*
D36*
X218211940Y-107289500D03*
X218214480Y-96494500D03*
D37*
X221261940Y-95112000D03*
X221261940Y-108672000D03*
M02*
