G04 #@! TF.FileFunction,Legend,Bot*
%FSLAX46Y46*%
G04 Gerber Fmt 4.6, Leading zero omitted, Abs format (unit mm)*
G04 Created by KiCad (PCBNEW 4.0.4+e1-6308~48~ubuntu15.10.1-stable) date Fri Nov 17 08:43:39 2017*
%MOMM*%
%LPD*%
G01*
G04 APERTURE LIST*
%ADD10C,0.150000*%
%ADD11C,0.127000*%
%ADD12C,0.100000*%
G04 APERTURE END LIST*
D10*
X214909000Y-70530000D02*
X214909000Y-70403000D01*
X214655000Y-70657000D02*
X215163000Y-70657000D01*
X214909000Y-70911000D02*
X214909000Y-70530000D01*
X213385000Y-72435000D02*
X213385000Y-71165000D01*
X211734000Y-72435000D02*
X211734000Y-71165000D01*
X211734000Y-71165000D02*
X213766000Y-71165000D01*
X213766000Y-71165000D02*
X213766000Y-72435000D01*
X213766000Y-72435000D02*
X211734000Y-72435000D01*
D11*
X168664000Y-85716600D02*
X167648000Y-85716600D01*
X167648000Y-85716600D02*
X167648000Y-87240600D01*
X167648000Y-87240600D02*
X168664000Y-87240600D01*
X169680000Y-87240600D02*
X170696000Y-87240600D01*
X170696000Y-87240600D02*
X170696000Y-85716600D01*
X170696000Y-85716600D02*
X169680000Y-85716600D01*
X168664000Y-83481400D02*
X167648000Y-83481400D01*
X167648000Y-83481400D02*
X167648000Y-85005400D01*
X167648000Y-85005400D02*
X168664000Y-85005400D01*
X169680000Y-85005400D02*
X170696000Y-85005400D01*
X170696000Y-85005400D02*
X170696000Y-83481400D01*
X170696000Y-83481400D02*
X169680000Y-83481400D01*
X73136000Y-63754000D02*
X73136000Y-64770000D01*
X73136000Y-64770000D02*
X74660000Y-64770000D01*
X74660000Y-64770000D02*
X74660000Y-63754000D01*
X74660000Y-62738000D02*
X74660000Y-61722000D01*
X74660000Y-61722000D02*
X73136000Y-61722000D01*
X73136000Y-61722000D02*
X73136000Y-62738000D01*
X74660000Y-66675000D02*
X74660000Y-65659000D01*
X74660000Y-65659000D02*
X73136000Y-65659000D01*
X73136000Y-65659000D02*
X73136000Y-66675000D01*
X73136000Y-67691000D02*
X73136000Y-68707000D01*
X73136000Y-68707000D02*
X74660000Y-68707000D01*
X74660000Y-68707000D02*
X74660000Y-67691000D01*
X72755000Y-83218400D02*
X72755000Y-84234400D01*
X72755000Y-84234400D02*
X74279000Y-84234400D01*
X74279000Y-84234400D02*
X74279000Y-83218400D01*
X74279000Y-82202400D02*
X74279000Y-81186400D01*
X74279000Y-81186400D02*
X72755000Y-81186400D01*
X72755000Y-81186400D02*
X72755000Y-82202400D01*
X74279000Y-86664800D02*
X74279000Y-85648800D01*
X74279000Y-85648800D02*
X72755000Y-85648800D01*
X72755000Y-85648800D02*
X72755000Y-86664800D01*
X72755000Y-87680800D02*
X72755000Y-88696800D01*
X72755000Y-88696800D02*
X74279000Y-88696800D01*
X74279000Y-88696800D02*
X74279000Y-87680800D01*
X72755000Y-103983600D02*
X72755000Y-104999600D01*
X72755000Y-104999600D02*
X74279000Y-104999600D01*
X74279000Y-104999600D02*
X74279000Y-103983600D01*
X74279000Y-102967600D02*
X74279000Y-101951600D01*
X74279000Y-101951600D02*
X72755000Y-101951600D01*
X72755000Y-101951600D02*
X72755000Y-102967600D01*
X74279000Y-107756200D02*
X74279000Y-106740200D01*
X74279000Y-106740200D02*
X72755000Y-106740200D01*
X72755000Y-106740200D02*
X72755000Y-107756200D01*
X72755000Y-108772200D02*
X72755000Y-109788200D01*
X72755000Y-109788200D02*
X74279000Y-109788200D01*
X74279000Y-109788200D02*
X74279000Y-108772200D01*
X72755000Y-124053600D02*
X72755000Y-125069600D01*
X72755000Y-125069600D02*
X74279000Y-125069600D01*
X74279000Y-125069600D02*
X74279000Y-124053600D01*
X74279000Y-123037600D02*
X74279000Y-122021600D01*
X74279000Y-122021600D02*
X72755000Y-122021600D01*
X72755000Y-122021600D02*
X72755000Y-123037600D01*
X74279000Y-126669800D02*
X74279000Y-125653800D01*
X74279000Y-125653800D02*
X72755000Y-125653800D01*
X72755000Y-125653800D02*
X72755000Y-126669800D01*
X72755000Y-127685800D02*
X72755000Y-128701800D01*
X72755000Y-128701800D02*
X74279000Y-128701800D01*
X74279000Y-128701800D02*
X74279000Y-127685800D01*
D10*
X213450000Y-68400000D02*
X212450000Y-68400000D01*
X212450000Y-66700000D02*
X213450000Y-66700000D01*
X213450000Y-70550000D02*
X212450000Y-70550000D01*
X212450000Y-68850000D02*
X213450000Y-68850000D01*
X216630280Y-71536000D02*
X216630280Y-72736000D01*
X218380280Y-72736000D02*
X218380280Y-71536000D01*
D12*
X209885715Y-71489286D02*
X209914286Y-71517857D01*
X210000000Y-71546429D01*
X210057143Y-71546429D01*
X210142858Y-71517857D01*
X210200000Y-71460714D01*
X210228572Y-71403571D01*
X210257143Y-71289286D01*
X210257143Y-71203571D01*
X210228572Y-71089286D01*
X210200000Y-71032143D01*
X210142858Y-70975000D01*
X210057143Y-70946429D01*
X210000000Y-70946429D01*
X209914286Y-70975000D01*
X209885715Y-71003571D01*
X209685715Y-70946429D02*
X209314286Y-70946429D01*
X209514286Y-71175000D01*
X209428572Y-71175000D01*
X209371429Y-71203571D01*
X209342858Y-71232143D01*
X209314286Y-71289286D01*
X209314286Y-71432143D01*
X209342858Y-71489286D01*
X209371429Y-71517857D01*
X209428572Y-71546429D01*
X209600000Y-71546429D01*
X209657143Y-71517857D01*
X209685715Y-71489286D01*
X208800000Y-70946429D02*
X208914286Y-70946429D01*
X208971429Y-70975000D01*
X209000000Y-71003571D01*
X209057143Y-71089286D01*
X209085714Y-71203571D01*
X209085714Y-71432143D01*
X209057143Y-71489286D01*
X209028571Y-71517857D01*
X208971429Y-71546429D01*
X208857143Y-71546429D01*
X208800000Y-71517857D01*
X208771429Y-71489286D01*
X208742857Y-71432143D01*
X208742857Y-71289286D01*
X208771429Y-71232143D01*
X208800000Y-71203571D01*
X208857143Y-71175000D01*
X208971429Y-71175000D01*
X209028571Y-71203571D01*
X209057143Y-71232143D01*
X209085714Y-71289286D01*
X210167857Y-72496429D02*
X210510714Y-72496429D01*
X210339286Y-72496429D02*
X210339286Y-71896429D01*
X210396429Y-71982143D01*
X210453571Y-72039286D01*
X210510714Y-72067857D01*
X209796428Y-71896429D02*
X209739285Y-71896429D01*
X209682142Y-71925000D01*
X209653571Y-71953571D01*
X209625000Y-72010714D01*
X209596428Y-72125000D01*
X209596428Y-72267857D01*
X209625000Y-72382143D01*
X209653571Y-72439286D01*
X209682142Y-72467857D01*
X209739285Y-72496429D01*
X209796428Y-72496429D01*
X209853571Y-72467857D01*
X209882142Y-72439286D01*
X209910714Y-72382143D01*
X209939285Y-72267857D01*
X209939285Y-72125000D01*
X209910714Y-72010714D01*
X209882142Y-71953571D01*
X209853571Y-71925000D01*
X209796428Y-71896429D01*
X209082142Y-72096429D02*
X209082142Y-72496429D01*
X209339285Y-72096429D02*
X209339285Y-72410714D01*
X209310713Y-72467857D01*
X209253571Y-72496429D01*
X209167856Y-72496429D01*
X209110713Y-72467857D01*
X209082142Y-72439286D01*
X208596428Y-72182143D02*
X208796428Y-72182143D01*
X208796428Y-72496429D02*
X208796428Y-71896429D01*
X208510714Y-71896429D01*
X170413315Y-88180829D02*
X170613315Y-87895114D01*
X170756172Y-88180829D02*
X170756172Y-87580829D01*
X170527600Y-87580829D01*
X170470458Y-87609400D01*
X170441886Y-87637971D01*
X170413315Y-87695114D01*
X170413315Y-87780829D01*
X170441886Y-87837971D01*
X170470458Y-87866543D01*
X170527600Y-87895114D01*
X170756172Y-87895114D01*
X170213315Y-87580829D02*
X169841886Y-87580829D01*
X170041886Y-87809400D01*
X169956172Y-87809400D01*
X169899029Y-87837971D01*
X169870458Y-87866543D01*
X169841886Y-87923686D01*
X169841886Y-88066543D01*
X169870458Y-88123686D01*
X169899029Y-88152257D01*
X169956172Y-88180829D01*
X170127600Y-88180829D01*
X170184743Y-88152257D01*
X170213315Y-88123686D01*
X169613314Y-87637971D02*
X169584743Y-87609400D01*
X169527600Y-87580829D01*
X169384743Y-87580829D01*
X169327600Y-87609400D01*
X169299029Y-87637971D01*
X169270457Y-87695114D01*
X169270457Y-87752257D01*
X169299029Y-87837971D01*
X169641886Y-88180829D01*
X169270457Y-88180829D01*
X167922571Y-87707829D02*
X167865428Y-87707829D01*
X167808285Y-87736400D01*
X167779714Y-87764971D01*
X167751143Y-87822114D01*
X167722571Y-87936400D01*
X167722571Y-88079257D01*
X167751143Y-88193543D01*
X167779714Y-88250686D01*
X167808285Y-88279257D01*
X167865428Y-88307829D01*
X167922571Y-88307829D01*
X167979714Y-88279257D01*
X168008285Y-88250686D01*
X168036857Y-88193543D01*
X168065428Y-88079257D01*
X168065428Y-87936400D01*
X168036857Y-87822114D01*
X168008285Y-87764971D01*
X167979714Y-87736400D01*
X167922571Y-87707829D01*
X170362515Y-83100829D02*
X170562515Y-82815114D01*
X170705372Y-83100829D02*
X170705372Y-82500829D01*
X170476800Y-82500829D01*
X170419658Y-82529400D01*
X170391086Y-82557971D01*
X170362515Y-82615114D01*
X170362515Y-82700829D01*
X170391086Y-82757971D01*
X170419658Y-82786543D01*
X170476800Y-82815114D01*
X170705372Y-82815114D01*
X170133943Y-82557971D02*
X170105372Y-82529400D01*
X170048229Y-82500829D01*
X169905372Y-82500829D01*
X169848229Y-82529400D01*
X169819658Y-82557971D01*
X169791086Y-82615114D01*
X169791086Y-82672257D01*
X169819658Y-82757971D01*
X170162515Y-83100829D01*
X169791086Y-83100829D01*
X169591086Y-82500829D02*
X169191086Y-82500829D01*
X169448229Y-83100829D01*
X167846371Y-82526229D02*
X167789228Y-82526229D01*
X167732085Y-82554800D01*
X167703514Y-82583371D01*
X167674943Y-82640514D01*
X167646371Y-82754800D01*
X167646371Y-82897657D01*
X167674943Y-83011943D01*
X167703514Y-83069086D01*
X167732085Y-83097657D01*
X167789228Y-83126229D01*
X167846371Y-83126229D01*
X167903514Y-83097657D01*
X167932085Y-83069086D01*
X167960657Y-83011943D01*
X167989228Y-82897657D01*
X167989228Y-82754800D01*
X167960657Y-82640514D01*
X167932085Y-82583371D01*
X167903514Y-82554800D01*
X167846371Y-82526229D01*
X73634766Y-60076445D02*
X73663337Y-60047874D01*
X73691909Y-59962160D01*
X73691909Y-59905017D01*
X73663337Y-59819302D01*
X73606194Y-59762160D01*
X73549051Y-59733588D01*
X73434766Y-59705017D01*
X73349051Y-59705017D01*
X73234766Y-59733588D01*
X73177623Y-59762160D01*
X73120480Y-59819302D01*
X73091909Y-59905017D01*
X73091909Y-59962160D01*
X73120480Y-60047874D01*
X73149051Y-60076445D01*
X73091909Y-60619302D02*
X73091909Y-60333588D01*
X73377623Y-60305017D01*
X73349051Y-60333588D01*
X73320480Y-60390731D01*
X73320480Y-60533588D01*
X73349051Y-60590731D01*
X73377623Y-60619302D01*
X73434766Y-60647874D01*
X73577623Y-60647874D01*
X73634766Y-60619302D01*
X73663337Y-60590731D01*
X73691909Y-60533588D01*
X73691909Y-60390731D01*
X73663337Y-60333588D01*
X73634766Y-60305017D01*
X73691909Y-60933589D02*
X73691909Y-61047874D01*
X73663337Y-61105017D01*
X73634766Y-61133589D01*
X73549051Y-61190731D01*
X73434766Y-61219303D01*
X73206194Y-61219303D01*
X73149051Y-61190731D01*
X73120480Y-61162160D01*
X73091909Y-61105017D01*
X73091909Y-60990731D01*
X73120480Y-60933589D01*
X73149051Y-60905017D01*
X73206194Y-60876446D01*
X73349051Y-60876446D01*
X73406194Y-60905017D01*
X73434766Y-60933589D01*
X73463337Y-60990731D01*
X73463337Y-61105017D01*
X73434766Y-61162160D01*
X73406194Y-61190731D01*
X73349051Y-61219303D01*
X74668469Y-59752663D02*
X74668469Y-59409806D01*
X74668469Y-59581234D02*
X74068469Y-59581234D01*
X74154183Y-59524091D01*
X74211326Y-59466949D01*
X74239897Y-59409806D01*
X74068469Y-60124092D02*
X74068469Y-60181235D01*
X74097040Y-60238378D01*
X74125611Y-60266949D01*
X74182754Y-60295520D01*
X74297040Y-60324092D01*
X74439897Y-60324092D01*
X74554183Y-60295520D01*
X74611326Y-60266949D01*
X74639897Y-60238378D01*
X74668469Y-60181235D01*
X74668469Y-60124092D01*
X74639897Y-60066949D01*
X74611326Y-60038378D01*
X74554183Y-60009806D01*
X74439897Y-59981235D01*
X74297040Y-59981235D01*
X74182754Y-60009806D01*
X74125611Y-60038378D01*
X74097040Y-60066949D01*
X74068469Y-60124092D01*
X74268469Y-60838378D02*
X74668469Y-60838378D01*
X74268469Y-60581235D02*
X74582754Y-60581235D01*
X74639897Y-60609807D01*
X74668469Y-60666949D01*
X74668469Y-60752664D01*
X74639897Y-60809807D01*
X74611326Y-60838378D01*
X74354183Y-61324092D02*
X74354183Y-61124092D01*
X74668469Y-61124092D02*
X74068469Y-61124092D01*
X74068469Y-61409806D01*
X74589806Y-69581125D02*
X74618377Y-69552554D01*
X74646949Y-69466840D01*
X74646949Y-69409697D01*
X74618377Y-69323982D01*
X74561234Y-69266840D01*
X74504091Y-69238268D01*
X74389806Y-69209697D01*
X74304091Y-69209697D01*
X74189806Y-69238268D01*
X74132663Y-69266840D01*
X74075520Y-69323982D01*
X74046949Y-69409697D01*
X74046949Y-69466840D01*
X74075520Y-69552554D01*
X74104091Y-69581125D01*
X74046949Y-70123982D02*
X74046949Y-69838268D01*
X74332663Y-69809697D01*
X74304091Y-69838268D01*
X74275520Y-69895411D01*
X74275520Y-70038268D01*
X74304091Y-70095411D01*
X74332663Y-70123982D01*
X74389806Y-70152554D01*
X74532663Y-70152554D01*
X74589806Y-70123982D01*
X74618377Y-70095411D01*
X74646949Y-70038268D01*
X74646949Y-69895411D01*
X74618377Y-69838268D01*
X74589806Y-69809697D01*
X74304091Y-70495411D02*
X74275520Y-70438269D01*
X74246949Y-70409697D01*
X74189806Y-70381126D01*
X74161234Y-70381126D01*
X74104091Y-70409697D01*
X74075520Y-70438269D01*
X74046949Y-70495411D01*
X74046949Y-70609697D01*
X74075520Y-70666840D01*
X74104091Y-70695411D01*
X74161234Y-70723983D01*
X74189806Y-70723983D01*
X74246949Y-70695411D01*
X74275520Y-70666840D01*
X74304091Y-70609697D01*
X74304091Y-70495411D01*
X74332663Y-70438269D01*
X74361234Y-70409697D01*
X74418377Y-70381126D01*
X74532663Y-70381126D01*
X74589806Y-70409697D01*
X74618377Y-70438269D01*
X74646949Y-70495411D01*
X74646949Y-70609697D01*
X74618377Y-70666840D01*
X74589806Y-70695411D01*
X74532663Y-70723983D01*
X74418377Y-70723983D01*
X74361234Y-70695411D01*
X74332663Y-70666840D01*
X74304091Y-70609697D01*
X73670389Y-69390623D02*
X73670389Y-69047766D01*
X73670389Y-69219194D02*
X73070389Y-69219194D01*
X73156103Y-69162051D01*
X73213246Y-69104909D01*
X73241817Y-69047766D01*
X73070389Y-69762052D02*
X73070389Y-69819195D01*
X73098960Y-69876338D01*
X73127531Y-69904909D01*
X73184674Y-69933480D01*
X73298960Y-69962052D01*
X73441817Y-69962052D01*
X73556103Y-69933480D01*
X73613246Y-69904909D01*
X73641817Y-69876338D01*
X73670389Y-69819195D01*
X73670389Y-69762052D01*
X73641817Y-69704909D01*
X73613246Y-69676338D01*
X73556103Y-69647766D01*
X73441817Y-69619195D01*
X73298960Y-69619195D01*
X73184674Y-69647766D01*
X73127531Y-69676338D01*
X73098960Y-69704909D01*
X73070389Y-69762052D01*
X73270389Y-70476338D02*
X73670389Y-70476338D01*
X73270389Y-70219195D02*
X73584674Y-70219195D01*
X73641817Y-70247767D01*
X73670389Y-70304909D01*
X73670389Y-70390624D01*
X73641817Y-70447767D01*
X73613246Y-70476338D01*
X73356103Y-70962052D02*
X73356103Y-70762052D01*
X73670389Y-70762052D02*
X73070389Y-70762052D01*
X73070389Y-71047766D01*
X73253766Y-79540845D02*
X73282337Y-79512274D01*
X73310909Y-79426560D01*
X73310909Y-79369417D01*
X73282337Y-79283702D01*
X73225194Y-79226560D01*
X73168051Y-79197988D01*
X73053766Y-79169417D01*
X72968051Y-79169417D01*
X72853766Y-79197988D01*
X72796623Y-79226560D01*
X72739480Y-79283702D01*
X72710909Y-79369417D01*
X72710909Y-79426560D01*
X72739480Y-79512274D01*
X72768051Y-79540845D01*
X72710909Y-80055131D02*
X72710909Y-79940845D01*
X72739480Y-79883702D01*
X72768051Y-79855131D01*
X72853766Y-79797988D01*
X72968051Y-79769417D01*
X73196623Y-79769417D01*
X73253766Y-79797988D01*
X73282337Y-79826560D01*
X73310909Y-79883702D01*
X73310909Y-79997988D01*
X73282337Y-80055131D01*
X73253766Y-80083702D01*
X73196623Y-80112274D01*
X73053766Y-80112274D01*
X72996623Y-80083702D01*
X72968051Y-80055131D01*
X72939480Y-79997988D01*
X72939480Y-79883702D01*
X72968051Y-79826560D01*
X72996623Y-79797988D01*
X73053766Y-79769417D01*
X73310909Y-80683703D02*
X73310909Y-80340846D01*
X73310909Y-80512274D02*
X72710909Y-80512274D01*
X72796623Y-80455131D01*
X72853766Y-80397989D01*
X72882337Y-80340846D01*
X74287469Y-79217063D02*
X74287469Y-78874206D01*
X74287469Y-79045634D02*
X73687469Y-79045634D01*
X73773183Y-78988491D01*
X73830326Y-78931349D01*
X73858897Y-78874206D01*
X73687469Y-79588492D02*
X73687469Y-79645635D01*
X73716040Y-79702778D01*
X73744611Y-79731349D01*
X73801754Y-79759920D01*
X73916040Y-79788492D01*
X74058897Y-79788492D01*
X74173183Y-79759920D01*
X74230326Y-79731349D01*
X74258897Y-79702778D01*
X74287469Y-79645635D01*
X74287469Y-79588492D01*
X74258897Y-79531349D01*
X74230326Y-79502778D01*
X74173183Y-79474206D01*
X74058897Y-79445635D01*
X73916040Y-79445635D01*
X73801754Y-79474206D01*
X73744611Y-79502778D01*
X73716040Y-79531349D01*
X73687469Y-79588492D01*
X73887469Y-80302778D02*
X74287469Y-80302778D01*
X73887469Y-80045635D02*
X74201754Y-80045635D01*
X74258897Y-80074207D01*
X74287469Y-80131349D01*
X74287469Y-80217064D01*
X74258897Y-80274207D01*
X74230326Y-80302778D01*
X73973183Y-80788492D02*
X73973183Y-80588492D01*
X74287469Y-80588492D02*
X73687469Y-80588492D01*
X73687469Y-80874206D01*
X74208806Y-89570925D02*
X74237377Y-89542354D01*
X74265949Y-89456640D01*
X74265949Y-89399497D01*
X74237377Y-89313782D01*
X74180234Y-89256640D01*
X74123091Y-89228068D01*
X74008806Y-89199497D01*
X73923091Y-89199497D01*
X73808806Y-89228068D01*
X73751663Y-89256640D01*
X73694520Y-89313782D01*
X73665949Y-89399497D01*
X73665949Y-89456640D01*
X73694520Y-89542354D01*
X73723091Y-89570925D01*
X73665949Y-90085211D02*
X73665949Y-89970925D01*
X73694520Y-89913782D01*
X73723091Y-89885211D01*
X73808806Y-89828068D01*
X73923091Y-89799497D01*
X74151663Y-89799497D01*
X74208806Y-89828068D01*
X74237377Y-89856640D01*
X74265949Y-89913782D01*
X74265949Y-90028068D01*
X74237377Y-90085211D01*
X74208806Y-90113782D01*
X74151663Y-90142354D01*
X74008806Y-90142354D01*
X73951663Y-90113782D01*
X73923091Y-90085211D01*
X73894520Y-90028068D01*
X73894520Y-89913782D01*
X73923091Y-89856640D01*
X73951663Y-89828068D01*
X74008806Y-89799497D01*
X73665949Y-90513783D02*
X73665949Y-90570926D01*
X73694520Y-90628069D01*
X73723091Y-90656640D01*
X73780234Y-90685211D01*
X73894520Y-90713783D01*
X74037377Y-90713783D01*
X74151663Y-90685211D01*
X74208806Y-90656640D01*
X74237377Y-90628069D01*
X74265949Y-90570926D01*
X74265949Y-90513783D01*
X74237377Y-90456640D01*
X74208806Y-90428069D01*
X74151663Y-90399497D01*
X74037377Y-90370926D01*
X73894520Y-90370926D01*
X73780234Y-90399497D01*
X73723091Y-90428069D01*
X73694520Y-90456640D01*
X73665949Y-90513783D01*
X73289389Y-89380423D02*
X73289389Y-89037566D01*
X73289389Y-89208994D02*
X72689389Y-89208994D01*
X72775103Y-89151851D01*
X72832246Y-89094709D01*
X72860817Y-89037566D01*
X72689389Y-89751852D02*
X72689389Y-89808995D01*
X72717960Y-89866138D01*
X72746531Y-89894709D01*
X72803674Y-89923280D01*
X72917960Y-89951852D01*
X73060817Y-89951852D01*
X73175103Y-89923280D01*
X73232246Y-89894709D01*
X73260817Y-89866138D01*
X73289389Y-89808995D01*
X73289389Y-89751852D01*
X73260817Y-89694709D01*
X73232246Y-89666138D01*
X73175103Y-89637566D01*
X73060817Y-89608995D01*
X72917960Y-89608995D01*
X72803674Y-89637566D01*
X72746531Y-89666138D01*
X72717960Y-89694709D01*
X72689389Y-89751852D01*
X72889389Y-90466138D02*
X73289389Y-90466138D01*
X72889389Y-90208995D02*
X73203674Y-90208995D01*
X73260817Y-90237567D01*
X73289389Y-90294709D01*
X73289389Y-90380424D01*
X73260817Y-90437567D01*
X73232246Y-90466138D01*
X72975103Y-90951852D02*
X72975103Y-90751852D01*
X73289389Y-90751852D02*
X72689389Y-90751852D01*
X72689389Y-91037566D01*
X73253766Y-100306045D02*
X73282337Y-100277474D01*
X73310909Y-100191760D01*
X73310909Y-100134617D01*
X73282337Y-100048902D01*
X73225194Y-99991760D01*
X73168051Y-99963188D01*
X73053766Y-99934617D01*
X72968051Y-99934617D01*
X72853766Y-99963188D01*
X72796623Y-99991760D01*
X72739480Y-100048902D01*
X72710909Y-100134617D01*
X72710909Y-100191760D01*
X72739480Y-100277474D01*
X72768051Y-100306045D01*
X72710909Y-100848902D02*
X72710909Y-100563188D01*
X72996623Y-100534617D01*
X72968051Y-100563188D01*
X72939480Y-100620331D01*
X72939480Y-100763188D01*
X72968051Y-100820331D01*
X72996623Y-100848902D01*
X73053766Y-100877474D01*
X73196623Y-100877474D01*
X73253766Y-100848902D01*
X73282337Y-100820331D01*
X73310909Y-100763188D01*
X73310909Y-100620331D01*
X73282337Y-100563188D01*
X73253766Y-100534617D01*
X72710909Y-101420331D02*
X72710909Y-101134617D01*
X72996623Y-101106046D01*
X72968051Y-101134617D01*
X72939480Y-101191760D01*
X72939480Y-101334617D01*
X72968051Y-101391760D01*
X72996623Y-101420331D01*
X73053766Y-101448903D01*
X73196623Y-101448903D01*
X73253766Y-101420331D01*
X73282337Y-101391760D01*
X73310909Y-101334617D01*
X73310909Y-101191760D01*
X73282337Y-101134617D01*
X73253766Y-101106046D01*
X74287469Y-99982263D02*
X74287469Y-99639406D01*
X74287469Y-99810834D02*
X73687469Y-99810834D01*
X73773183Y-99753691D01*
X73830326Y-99696549D01*
X73858897Y-99639406D01*
X73687469Y-100353692D02*
X73687469Y-100410835D01*
X73716040Y-100467978D01*
X73744611Y-100496549D01*
X73801754Y-100525120D01*
X73916040Y-100553692D01*
X74058897Y-100553692D01*
X74173183Y-100525120D01*
X74230326Y-100496549D01*
X74258897Y-100467978D01*
X74287469Y-100410835D01*
X74287469Y-100353692D01*
X74258897Y-100296549D01*
X74230326Y-100267978D01*
X74173183Y-100239406D01*
X74058897Y-100210835D01*
X73916040Y-100210835D01*
X73801754Y-100239406D01*
X73744611Y-100267978D01*
X73716040Y-100296549D01*
X73687469Y-100353692D01*
X73887469Y-101067978D02*
X74287469Y-101067978D01*
X73887469Y-100810835D02*
X74201754Y-100810835D01*
X74258897Y-100839407D01*
X74287469Y-100896549D01*
X74287469Y-100982264D01*
X74258897Y-101039407D01*
X74230326Y-101067978D01*
X73973183Y-101553692D02*
X73973183Y-101353692D01*
X74287469Y-101353692D02*
X73687469Y-101353692D01*
X73687469Y-101639406D01*
X74208806Y-110662325D02*
X74237377Y-110633754D01*
X74265949Y-110548040D01*
X74265949Y-110490897D01*
X74237377Y-110405182D01*
X74180234Y-110348040D01*
X74123091Y-110319468D01*
X74008806Y-110290897D01*
X73923091Y-110290897D01*
X73808806Y-110319468D01*
X73751663Y-110348040D01*
X73694520Y-110405182D01*
X73665949Y-110490897D01*
X73665949Y-110548040D01*
X73694520Y-110633754D01*
X73723091Y-110662325D01*
X73665949Y-111205182D02*
X73665949Y-110919468D01*
X73951663Y-110890897D01*
X73923091Y-110919468D01*
X73894520Y-110976611D01*
X73894520Y-111119468D01*
X73923091Y-111176611D01*
X73951663Y-111205182D01*
X74008806Y-111233754D01*
X74151663Y-111233754D01*
X74208806Y-111205182D01*
X74237377Y-111176611D01*
X74265949Y-111119468D01*
X74265949Y-110976611D01*
X74237377Y-110919468D01*
X74208806Y-110890897D01*
X73865949Y-111748040D02*
X74265949Y-111748040D01*
X73637377Y-111605183D02*
X74065949Y-111462326D01*
X74065949Y-111833754D01*
X73289389Y-110471823D02*
X73289389Y-110128966D01*
X73289389Y-110300394D02*
X72689389Y-110300394D01*
X72775103Y-110243251D01*
X72832246Y-110186109D01*
X72860817Y-110128966D01*
X72689389Y-110843252D02*
X72689389Y-110900395D01*
X72717960Y-110957538D01*
X72746531Y-110986109D01*
X72803674Y-111014680D01*
X72917960Y-111043252D01*
X73060817Y-111043252D01*
X73175103Y-111014680D01*
X73232246Y-110986109D01*
X73260817Y-110957538D01*
X73289389Y-110900395D01*
X73289389Y-110843252D01*
X73260817Y-110786109D01*
X73232246Y-110757538D01*
X73175103Y-110728966D01*
X73060817Y-110700395D01*
X72917960Y-110700395D01*
X72803674Y-110728966D01*
X72746531Y-110757538D01*
X72717960Y-110786109D01*
X72689389Y-110843252D01*
X72889389Y-111557538D02*
X73289389Y-111557538D01*
X72889389Y-111300395D02*
X73203674Y-111300395D01*
X73260817Y-111328967D01*
X73289389Y-111386109D01*
X73289389Y-111471824D01*
X73260817Y-111528967D01*
X73232246Y-111557538D01*
X72975103Y-112043252D02*
X72975103Y-111843252D01*
X73289389Y-111843252D02*
X72689389Y-111843252D01*
X72689389Y-112128966D01*
X73253766Y-120376045D02*
X73282337Y-120347474D01*
X73310909Y-120261760D01*
X73310909Y-120204617D01*
X73282337Y-120118902D01*
X73225194Y-120061760D01*
X73168051Y-120033188D01*
X73053766Y-120004617D01*
X72968051Y-120004617D01*
X72853766Y-120033188D01*
X72796623Y-120061760D01*
X72739480Y-120118902D01*
X72710909Y-120204617D01*
X72710909Y-120261760D01*
X72739480Y-120347474D01*
X72768051Y-120376045D01*
X72710909Y-120918902D02*
X72710909Y-120633188D01*
X72996623Y-120604617D01*
X72968051Y-120633188D01*
X72939480Y-120690331D01*
X72939480Y-120833188D01*
X72968051Y-120890331D01*
X72996623Y-120918902D01*
X73053766Y-120947474D01*
X73196623Y-120947474D01*
X73253766Y-120918902D01*
X73282337Y-120890331D01*
X73310909Y-120833188D01*
X73310909Y-120690331D01*
X73282337Y-120633188D01*
X73253766Y-120604617D01*
X72710909Y-121147474D02*
X72710909Y-121547474D01*
X73310909Y-121290331D01*
X74287469Y-120052263D02*
X74287469Y-119709406D01*
X74287469Y-119880834D02*
X73687469Y-119880834D01*
X73773183Y-119823691D01*
X73830326Y-119766549D01*
X73858897Y-119709406D01*
X73687469Y-120423692D02*
X73687469Y-120480835D01*
X73716040Y-120537978D01*
X73744611Y-120566549D01*
X73801754Y-120595120D01*
X73916040Y-120623692D01*
X74058897Y-120623692D01*
X74173183Y-120595120D01*
X74230326Y-120566549D01*
X74258897Y-120537978D01*
X74287469Y-120480835D01*
X74287469Y-120423692D01*
X74258897Y-120366549D01*
X74230326Y-120337978D01*
X74173183Y-120309406D01*
X74058897Y-120280835D01*
X73916040Y-120280835D01*
X73801754Y-120309406D01*
X73744611Y-120337978D01*
X73716040Y-120366549D01*
X73687469Y-120423692D01*
X73887469Y-121137978D02*
X74287469Y-121137978D01*
X73887469Y-120880835D02*
X74201754Y-120880835D01*
X74258897Y-120909407D01*
X74287469Y-120966549D01*
X74287469Y-121052264D01*
X74258897Y-121109407D01*
X74230326Y-121137978D01*
X73973183Y-121623692D02*
X73973183Y-121423692D01*
X74287469Y-121423692D02*
X73687469Y-121423692D01*
X73687469Y-121709406D01*
X74208806Y-129575925D02*
X74237377Y-129547354D01*
X74265949Y-129461640D01*
X74265949Y-129404497D01*
X74237377Y-129318782D01*
X74180234Y-129261640D01*
X74123091Y-129233068D01*
X74008806Y-129204497D01*
X73923091Y-129204497D01*
X73808806Y-129233068D01*
X73751663Y-129261640D01*
X73694520Y-129318782D01*
X73665949Y-129404497D01*
X73665949Y-129461640D01*
X73694520Y-129547354D01*
X73723091Y-129575925D01*
X73665949Y-130118782D02*
X73665949Y-129833068D01*
X73951663Y-129804497D01*
X73923091Y-129833068D01*
X73894520Y-129890211D01*
X73894520Y-130033068D01*
X73923091Y-130090211D01*
X73951663Y-130118782D01*
X74008806Y-130147354D01*
X74151663Y-130147354D01*
X74208806Y-130118782D01*
X74237377Y-130090211D01*
X74265949Y-130033068D01*
X74265949Y-129890211D01*
X74237377Y-129833068D01*
X74208806Y-129804497D01*
X73665949Y-130661640D02*
X73665949Y-130547354D01*
X73694520Y-130490211D01*
X73723091Y-130461640D01*
X73808806Y-130404497D01*
X73923091Y-130375926D01*
X74151663Y-130375926D01*
X74208806Y-130404497D01*
X74237377Y-130433069D01*
X74265949Y-130490211D01*
X74265949Y-130604497D01*
X74237377Y-130661640D01*
X74208806Y-130690211D01*
X74151663Y-130718783D01*
X74008806Y-130718783D01*
X73951663Y-130690211D01*
X73923091Y-130661640D01*
X73894520Y-130604497D01*
X73894520Y-130490211D01*
X73923091Y-130433069D01*
X73951663Y-130404497D01*
X74008806Y-130375926D01*
X73289389Y-129385423D02*
X73289389Y-129042566D01*
X73289389Y-129213994D02*
X72689389Y-129213994D01*
X72775103Y-129156851D01*
X72832246Y-129099709D01*
X72860817Y-129042566D01*
X72689389Y-129756852D02*
X72689389Y-129813995D01*
X72717960Y-129871138D01*
X72746531Y-129899709D01*
X72803674Y-129928280D01*
X72917960Y-129956852D01*
X73060817Y-129956852D01*
X73175103Y-129928280D01*
X73232246Y-129899709D01*
X73260817Y-129871138D01*
X73289389Y-129813995D01*
X73289389Y-129756852D01*
X73260817Y-129699709D01*
X73232246Y-129671138D01*
X73175103Y-129642566D01*
X73060817Y-129613995D01*
X72917960Y-129613995D01*
X72803674Y-129642566D01*
X72746531Y-129671138D01*
X72717960Y-129699709D01*
X72689389Y-129756852D01*
X72889389Y-130471138D02*
X73289389Y-130471138D01*
X72889389Y-130213995D02*
X73203674Y-130213995D01*
X73260817Y-130242567D01*
X73289389Y-130299709D01*
X73289389Y-130385424D01*
X73260817Y-130442567D01*
X73232246Y-130471138D01*
X72975103Y-130956852D02*
X72975103Y-130756852D01*
X73289389Y-130756852D02*
X72689389Y-130756852D01*
X72689389Y-131042566D01*
X163696666Y-55564286D02*
X163863332Y-55564286D01*
X163863332Y-55826190D02*
X163863332Y-55326190D01*
X163625237Y-55326190D01*
X163482380Y-55326190D02*
X163172857Y-55326190D01*
X163339523Y-55516667D01*
X163268095Y-55516667D01*
X163220476Y-55540476D01*
X163196666Y-55564286D01*
X163172857Y-55611905D01*
X163172857Y-55730952D01*
X163196666Y-55778571D01*
X163220476Y-55802381D01*
X163268095Y-55826190D01*
X163410952Y-55826190D01*
X163458571Y-55802381D01*
X163482380Y-55778571D01*
X112626666Y-123504286D02*
X112793332Y-123504286D01*
X112793332Y-123766190D02*
X112793332Y-123266190D01*
X112555237Y-123266190D01*
X112102857Y-123766190D02*
X112388571Y-123766190D01*
X112245714Y-123766190D02*
X112245714Y-123266190D01*
X112293333Y-123337619D01*
X112340952Y-123385238D01*
X112388571Y-123409048D01*
X210560715Y-67339286D02*
X210589286Y-67367857D01*
X210675000Y-67396429D01*
X210732143Y-67396429D01*
X210817858Y-67367857D01*
X210875000Y-67310714D01*
X210903572Y-67253571D01*
X210932143Y-67139286D01*
X210932143Y-67053571D01*
X210903572Y-66939286D01*
X210875000Y-66882143D01*
X210817858Y-66825000D01*
X210732143Y-66796429D01*
X210675000Y-66796429D01*
X210589286Y-66825000D01*
X210560715Y-66853571D01*
X210360715Y-66796429D02*
X209989286Y-66796429D01*
X210189286Y-67025000D01*
X210103572Y-67025000D01*
X210046429Y-67053571D01*
X210017858Y-67082143D01*
X209989286Y-67139286D01*
X209989286Y-67282143D01*
X210017858Y-67339286D01*
X210046429Y-67367857D01*
X210103572Y-67396429D01*
X210275000Y-67396429D01*
X210332143Y-67367857D01*
X210360715Y-67339286D01*
X209475000Y-66996429D02*
X209475000Y-67396429D01*
X209617857Y-66767857D02*
X209760714Y-67196429D01*
X209389286Y-67196429D01*
X210778572Y-68271429D02*
X211121429Y-68271429D01*
X210950001Y-68271429D02*
X210950001Y-67671429D01*
X211007144Y-67757143D01*
X211064286Y-67814286D01*
X211121429Y-67842857D01*
X210407143Y-67671429D02*
X210350000Y-67671429D01*
X210292857Y-67700000D01*
X210264286Y-67728571D01*
X210235715Y-67785714D01*
X210207143Y-67900000D01*
X210207143Y-68042857D01*
X210235715Y-68157143D01*
X210264286Y-68214286D01*
X210292857Y-68242857D01*
X210350000Y-68271429D01*
X210407143Y-68271429D01*
X210464286Y-68242857D01*
X210492857Y-68214286D01*
X210521429Y-68157143D01*
X210550000Y-68042857D01*
X210550000Y-67900000D01*
X210521429Y-67785714D01*
X210492857Y-67728571D01*
X210464286Y-67700000D01*
X210407143Y-67671429D01*
X209835714Y-67671429D02*
X209778571Y-67671429D01*
X209721428Y-67700000D01*
X209692857Y-67728571D01*
X209664286Y-67785714D01*
X209635714Y-67900000D01*
X209635714Y-68042857D01*
X209664286Y-68157143D01*
X209692857Y-68214286D01*
X209721428Y-68242857D01*
X209778571Y-68271429D01*
X209835714Y-68271429D01*
X209892857Y-68242857D01*
X209921428Y-68214286D01*
X209950000Y-68157143D01*
X209978571Y-68042857D01*
X209978571Y-67900000D01*
X209950000Y-67785714D01*
X209921428Y-67728571D01*
X209892857Y-67700000D01*
X209835714Y-67671429D01*
X209378571Y-67871429D02*
X209378571Y-68271429D01*
X209378571Y-67928571D02*
X209349999Y-67900000D01*
X209292857Y-67871429D01*
X209207142Y-67871429D01*
X209149999Y-67900000D01*
X209121428Y-67957143D01*
X209121428Y-68271429D01*
X208635714Y-67957143D02*
X208835714Y-67957143D01*
X208835714Y-68271429D02*
X208835714Y-67671429D01*
X208550000Y-67671429D01*
X210735715Y-69489286D02*
X210764286Y-69517857D01*
X210850000Y-69546429D01*
X210907143Y-69546429D01*
X210992858Y-69517857D01*
X211050000Y-69460714D01*
X211078572Y-69403571D01*
X211107143Y-69289286D01*
X211107143Y-69203571D01*
X211078572Y-69089286D01*
X211050000Y-69032143D01*
X210992858Y-68975000D01*
X210907143Y-68946429D01*
X210850000Y-68946429D01*
X210764286Y-68975000D01*
X210735715Y-69003571D01*
X210535715Y-68946429D02*
X210164286Y-68946429D01*
X210364286Y-69175000D01*
X210278572Y-69175000D01*
X210221429Y-69203571D01*
X210192858Y-69232143D01*
X210164286Y-69289286D01*
X210164286Y-69432143D01*
X210192858Y-69489286D01*
X210221429Y-69517857D01*
X210278572Y-69546429D01*
X210450000Y-69546429D01*
X210507143Y-69517857D01*
X210535715Y-69489286D01*
X209621429Y-68946429D02*
X209907143Y-68946429D01*
X209935714Y-69232143D01*
X209907143Y-69203571D01*
X209850000Y-69175000D01*
X209707143Y-69175000D01*
X209650000Y-69203571D01*
X209621429Y-69232143D01*
X209592857Y-69289286D01*
X209592857Y-69432143D01*
X209621429Y-69489286D01*
X209650000Y-69517857D01*
X209707143Y-69546429D01*
X209850000Y-69546429D01*
X209907143Y-69517857D01*
X209935714Y-69489286D01*
X211000000Y-70071429D02*
X211000000Y-70471429D01*
X211142857Y-69842857D02*
X211285714Y-70271429D01*
X210914286Y-70271429D01*
X210742857Y-69871429D02*
X210342857Y-69871429D01*
X210600000Y-70471429D01*
X210114285Y-70071429D02*
X210114285Y-70471429D01*
X210114285Y-70128571D02*
X210085713Y-70100000D01*
X210028571Y-70071429D01*
X209942856Y-70071429D01*
X209885713Y-70100000D01*
X209857142Y-70157143D01*
X209857142Y-70471429D01*
X209371428Y-70157143D02*
X209571428Y-70157143D01*
X209571428Y-70471429D02*
X209571428Y-69871429D01*
X209285714Y-69871429D01*
X217376709Y-74250285D02*
X217090994Y-74050285D01*
X217376709Y-73907428D02*
X216776709Y-73907428D01*
X216776709Y-74136000D01*
X216805280Y-74193142D01*
X216833851Y-74221714D01*
X216890994Y-74250285D01*
X216976709Y-74250285D01*
X217033851Y-74221714D01*
X217062423Y-74193142D01*
X217090994Y-74136000D01*
X217090994Y-73907428D01*
X216833851Y-74478857D02*
X216805280Y-74507428D01*
X216776709Y-74564571D01*
X216776709Y-74707428D01*
X216805280Y-74764571D01*
X216833851Y-74793142D01*
X216890994Y-74821714D01*
X216948137Y-74821714D01*
X217033851Y-74793142D01*
X217376709Y-74450285D01*
X217376709Y-74821714D01*
X216776709Y-75336000D02*
X216776709Y-75221714D01*
X216805280Y-75164571D01*
X216833851Y-75136000D01*
X216919566Y-75078857D01*
X217033851Y-75050286D01*
X217262423Y-75050286D01*
X217319566Y-75078857D01*
X217348137Y-75107429D01*
X217376709Y-75164571D01*
X217376709Y-75278857D01*
X217348137Y-75336000D01*
X217319566Y-75364571D01*
X217262423Y-75393143D01*
X217119566Y-75393143D01*
X217062423Y-75364571D01*
X217033851Y-75336000D01*
X217005280Y-75278857D01*
X217005280Y-75164571D01*
X217033851Y-75107429D01*
X217062423Y-75078857D01*
X217119566Y-75050286D01*
X218276709Y-74136000D02*
X218276709Y-73793143D01*
X218276709Y-73964571D02*
X217676709Y-73964571D01*
X217762423Y-73907428D01*
X217819566Y-73850286D01*
X217848137Y-73793143D01*
X217733851Y-74364572D02*
X217705280Y-74393143D01*
X217676709Y-74450286D01*
X217676709Y-74593143D01*
X217705280Y-74650286D01*
X217733851Y-74678857D01*
X217790994Y-74707429D01*
X217848137Y-74707429D01*
X217933851Y-74678857D01*
X218276709Y-74336000D01*
X218276709Y-74707429D01*
X217676709Y-75078858D02*
X217676709Y-75136001D01*
X217705280Y-75193144D01*
X217733851Y-75221715D01*
X217790994Y-75250286D01*
X217905280Y-75278858D01*
X218048137Y-75278858D01*
X218162423Y-75250286D01*
X218219566Y-75221715D01*
X218248137Y-75193144D01*
X218276709Y-75136001D01*
X218276709Y-75078858D01*
X218248137Y-75021715D01*
X218219566Y-74993144D01*
X218162423Y-74964572D01*
X218048137Y-74936001D01*
X217905280Y-74936001D01*
X217790994Y-74964572D01*
X217733851Y-74993144D01*
X217705280Y-75021715D01*
X217676709Y-75078858D01*
M02*
