G04 #@! TF.FileFunction,Legend,Bot*
%FSLAX46Y46*%
G04 Gerber Fmt 4.6, Leading zero omitted, Abs format (unit mm)*
G04 Created by KiCad (PCBNEW 4.0.4+e1-6308~48~ubuntu15.10.1-stable) date Tue Jun 20 15:03:40 2017*
%MOMM*%
%LPD*%
G01*
G04 APERTURE LIST*
%ADD10C,0.150000*%
%ADD11C,0.100000*%
G04 APERTURE END LIST*
D10*
X213450000Y-68400000D02*
X212450000Y-68400000D01*
X212450000Y-66700000D02*
X213450000Y-66700000D01*
X213450000Y-70550000D02*
X212450000Y-70550000D01*
X212450000Y-68850000D02*
X213450000Y-68850000D01*
X213385000Y-72435000D02*
X213385000Y-71165000D01*
X211734000Y-72435000D02*
X211734000Y-71165000D01*
X211734000Y-71165000D02*
X213766000Y-71165000D01*
X213766000Y-71165000D02*
X213766000Y-72435000D01*
X213766000Y-72435000D02*
X211734000Y-72435000D01*
X216701400Y-72450400D02*
X216701400Y-73650400D01*
X218451400Y-73650400D02*
X218451400Y-72450400D01*
D11*
X163696666Y-55564286D02*
X163863332Y-55564286D01*
X163863332Y-55826190D02*
X163863332Y-55326190D01*
X163625237Y-55326190D01*
X163482380Y-55326190D02*
X163172857Y-55326190D01*
X163339523Y-55516667D01*
X163268095Y-55516667D01*
X163220476Y-55540476D01*
X163196666Y-55564286D01*
X163172857Y-55611905D01*
X163172857Y-55730952D01*
X163196666Y-55778571D01*
X163220476Y-55802381D01*
X163268095Y-55826190D01*
X163410952Y-55826190D01*
X163458571Y-55802381D01*
X163482380Y-55778571D01*
X112626666Y-123504286D02*
X112793332Y-123504286D01*
X112793332Y-123766190D02*
X112793332Y-123266190D01*
X112555237Y-123266190D01*
X112102857Y-123766190D02*
X112388571Y-123766190D01*
X112245714Y-123766190D02*
X112245714Y-123266190D01*
X112293333Y-123337619D01*
X112340952Y-123385238D01*
X112388571Y-123409048D01*
X210560715Y-67339286D02*
X210589286Y-67367857D01*
X210675000Y-67396429D01*
X210732143Y-67396429D01*
X210817858Y-67367857D01*
X210875000Y-67310714D01*
X210903572Y-67253571D01*
X210932143Y-67139286D01*
X210932143Y-67053571D01*
X210903572Y-66939286D01*
X210875000Y-66882143D01*
X210817858Y-66825000D01*
X210732143Y-66796429D01*
X210675000Y-66796429D01*
X210589286Y-66825000D01*
X210560715Y-66853571D01*
X210360715Y-66796429D02*
X209989286Y-66796429D01*
X210189286Y-67025000D01*
X210103572Y-67025000D01*
X210046429Y-67053571D01*
X210017858Y-67082143D01*
X209989286Y-67139286D01*
X209989286Y-67282143D01*
X210017858Y-67339286D01*
X210046429Y-67367857D01*
X210103572Y-67396429D01*
X210275000Y-67396429D01*
X210332143Y-67367857D01*
X210360715Y-67339286D01*
X209475000Y-66996429D02*
X209475000Y-67396429D01*
X209617857Y-66767857D02*
X209760714Y-67196429D01*
X209389286Y-67196429D01*
X210778572Y-68271429D02*
X211121429Y-68271429D01*
X210950001Y-68271429D02*
X210950001Y-67671429D01*
X211007144Y-67757143D01*
X211064286Y-67814286D01*
X211121429Y-67842857D01*
X210407143Y-67671429D02*
X210350000Y-67671429D01*
X210292857Y-67700000D01*
X210264286Y-67728571D01*
X210235715Y-67785714D01*
X210207143Y-67900000D01*
X210207143Y-68042857D01*
X210235715Y-68157143D01*
X210264286Y-68214286D01*
X210292857Y-68242857D01*
X210350000Y-68271429D01*
X210407143Y-68271429D01*
X210464286Y-68242857D01*
X210492857Y-68214286D01*
X210521429Y-68157143D01*
X210550000Y-68042857D01*
X210550000Y-67900000D01*
X210521429Y-67785714D01*
X210492857Y-67728571D01*
X210464286Y-67700000D01*
X210407143Y-67671429D01*
X209835714Y-67671429D02*
X209778571Y-67671429D01*
X209721428Y-67700000D01*
X209692857Y-67728571D01*
X209664286Y-67785714D01*
X209635714Y-67900000D01*
X209635714Y-68042857D01*
X209664286Y-68157143D01*
X209692857Y-68214286D01*
X209721428Y-68242857D01*
X209778571Y-68271429D01*
X209835714Y-68271429D01*
X209892857Y-68242857D01*
X209921428Y-68214286D01*
X209950000Y-68157143D01*
X209978571Y-68042857D01*
X209978571Y-67900000D01*
X209950000Y-67785714D01*
X209921428Y-67728571D01*
X209892857Y-67700000D01*
X209835714Y-67671429D01*
X209378571Y-67871429D02*
X209378571Y-68271429D01*
X209378571Y-67928571D02*
X209349999Y-67900000D01*
X209292857Y-67871429D01*
X209207142Y-67871429D01*
X209149999Y-67900000D01*
X209121428Y-67957143D01*
X209121428Y-68271429D01*
X208635714Y-67957143D02*
X208835714Y-67957143D01*
X208835714Y-68271429D02*
X208835714Y-67671429D01*
X208550000Y-67671429D01*
X210735715Y-69489286D02*
X210764286Y-69517857D01*
X210850000Y-69546429D01*
X210907143Y-69546429D01*
X210992858Y-69517857D01*
X211050000Y-69460714D01*
X211078572Y-69403571D01*
X211107143Y-69289286D01*
X211107143Y-69203571D01*
X211078572Y-69089286D01*
X211050000Y-69032143D01*
X210992858Y-68975000D01*
X210907143Y-68946429D01*
X210850000Y-68946429D01*
X210764286Y-68975000D01*
X210735715Y-69003571D01*
X210535715Y-68946429D02*
X210164286Y-68946429D01*
X210364286Y-69175000D01*
X210278572Y-69175000D01*
X210221429Y-69203571D01*
X210192858Y-69232143D01*
X210164286Y-69289286D01*
X210164286Y-69432143D01*
X210192858Y-69489286D01*
X210221429Y-69517857D01*
X210278572Y-69546429D01*
X210450000Y-69546429D01*
X210507143Y-69517857D01*
X210535715Y-69489286D01*
X209621429Y-68946429D02*
X209907143Y-68946429D01*
X209935714Y-69232143D01*
X209907143Y-69203571D01*
X209850000Y-69175000D01*
X209707143Y-69175000D01*
X209650000Y-69203571D01*
X209621429Y-69232143D01*
X209592857Y-69289286D01*
X209592857Y-69432143D01*
X209621429Y-69489286D01*
X209650000Y-69517857D01*
X209707143Y-69546429D01*
X209850000Y-69546429D01*
X209907143Y-69517857D01*
X209935714Y-69489286D01*
X211000000Y-70071429D02*
X211000000Y-70471429D01*
X211142857Y-69842857D02*
X211285714Y-70271429D01*
X210914286Y-70271429D01*
X210742857Y-69871429D02*
X210342857Y-69871429D01*
X210600000Y-70471429D01*
X210114285Y-70071429D02*
X210114285Y-70471429D01*
X210114285Y-70128571D02*
X210085713Y-70100000D01*
X210028571Y-70071429D01*
X209942856Y-70071429D01*
X209885713Y-70100000D01*
X209857142Y-70157143D01*
X209857142Y-70471429D01*
X209371428Y-70157143D02*
X209571428Y-70157143D01*
X209571428Y-70471429D02*
X209571428Y-69871429D01*
X209285714Y-69871429D01*
X209885715Y-71489286D02*
X209914286Y-71517857D01*
X210000000Y-71546429D01*
X210057143Y-71546429D01*
X210142858Y-71517857D01*
X210200000Y-71460714D01*
X210228572Y-71403571D01*
X210257143Y-71289286D01*
X210257143Y-71203571D01*
X210228572Y-71089286D01*
X210200000Y-71032143D01*
X210142858Y-70975000D01*
X210057143Y-70946429D01*
X210000000Y-70946429D01*
X209914286Y-70975000D01*
X209885715Y-71003571D01*
X209685715Y-70946429D02*
X209314286Y-70946429D01*
X209514286Y-71175000D01*
X209428572Y-71175000D01*
X209371429Y-71203571D01*
X209342858Y-71232143D01*
X209314286Y-71289286D01*
X209314286Y-71432143D01*
X209342858Y-71489286D01*
X209371429Y-71517857D01*
X209428572Y-71546429D01*
X209600000Y-71546429D01*
X209657143Y-71517857D01*
X209685715Y-71489286D01*
X208800000Y-70946429D02*
X208914286Y-70946429D01*
X208971429Y-70975000D01*
X209000000Y-71003571D01*
X209057143Y-71089286D01*
X209085714Y-71203571D01*
X209085714Y-71432143D01*
X209057143Y-71489286D01*
X209028571Y-71517857D01*
X208971429Y-71546429D01*
X208857143Y-71546429D01*
X208800000Y-71517857D01*
X208771429Y-71489286D01*
X208742857Y-71432143D01*
X208742857Y-71289286D01*
X208771429Y-71232143D01*
X208800000Y-71203571D01*
X208857143Y-71175000D01*
X208971429Y-71175000D01*
X209028571Y-71203571D01*
X209057143Y-71232143D01*
X209085714Y-71289286D01*
X210167857Y-72496429D02*
X210510714Y-72496429D01*
X210339286Y-72496429D02*
X210339286Y-71896429D01*
X210396429Y-71982143D01*
X210453571Y-72039286D01*
X210510714Y-72067857D01*
X209796428Y-71896429D02*
X209739285Y-71896429D01*
X209682142Y-71925000D01*
X209653571Y-71953571D01*
X209625000Y-72010714D01*
X209596428Y-72125000D01*
X209596428Y-72267857D01*
X209625000Y-72382143D01*
X209653571Y-72439286D01*
X209682142Y-72467857D01*
X209739285Y-72496429D01*
X209796428Y-72496429D01*
X209853571Y-72467857D01*
X209882142Y-72439286D01*
X209910714Y-72382143D01*
X209939285Y-72267857D01*
X209939285Y-72125000D01*
X209910714Y-72010714D01*
X209882142Y-71953571D01*
X209853571Y-71925000D01*
X209796428Y-71896429D01*
X209082142Y-72096429D02*
X209082142Y-72496429D01*
X209339285Y-72096429D02*
X209339285Y-72410714D01*
X209310713Y-72467857D01*
X209253571Y-72496429D01*
X209167856Y-72496429D01*
X209110713Y-72467857D01*
X209082142Y-72439286D01*
X208596428Y-72182143D02*
X208796428Y-72182143D01*
X208796428Y-72496429D02*
X208796428Y-71896429D01*
X208510714Y-71896429D01*
X217447829Y-75164685D02*
X217162114Y-74964685D01*
X217447829Y-74821828D02*
X216847829Y-74821828D01*
X216847829Y-75050400D01*
X216876400Y-75107542D01*
X216904971Y-75136114D01*
X216962114Y-75164685D01*
X217047829Y-75164685D01*
X217104971Y-75136114D01*
X217133543Y-75107542D01*
X217162114Y-75050400D01*
X217162114Y-74821828D01*
X216904971Y-75393257D02*
X216876400Y-75421828D01*
X216847829Y-75478971D01*
X216847829Y-75621828D01*
X216876400Y-75678971D01*
X216904971Y-75707542D01*
X216962114Y-75736114D01*
X217019257Y-75736114D01*
X217104971Y-75707542D01*
X217447829Y-75364685D01*
X217447829Y-75736114D01*
X216847829Y-76250400D02*
X216847829Y-76136114D01*
X216876400Y-76078971D01*
X216904971Y-76050400D01*
X216990686Y-75993257D01*
X217104971Y-75964686D01*
X217333543Y-75964686D01*
X217390686Y-75993257D01*
X217419257Y-76021829D01*
X217447829Y-76078971D01*
X217447829Y-76193257D01*
X217419257Y-76250400D01*
X217390686Y-76278971D01*
X217333543Y-76307543D01*
X217190686Y-76307543D01*
X217133543Y-76278971D01*
X217104971Y-76250400D01*
X217076400Y-76193257D01*
X217076400Y-76078971D01*
X217104971Y-76021829D01*
X217133543Y-75993257D01*
X217190686Y-75964686D01*
X218347829Y-75050400D02*
X218347829Y-74707543D01*
X218347829Y-74878971D02*
X217747829Y-74878971D01*
X217833543Y-74821828D01*
X217890686Y-74764686D01*
X217919257Y-74707543D01*
X217804971Y-75278972D02*
X217776400Y-75307543D01*
X217747829Y-75364686D01*
X217747829Y-75507543D01*
X217776400Y-75564686D01*
X217804971Y-75593257D01*
X217862114Y-75621829D01*
X217919257Y-75621829D01*
X218004971Y-75593257D01*
X218347829Y-75250400D01*
X218347829Y-75621829D01*
X217747829Y-75993258D02*
X217747829Y-76050401D01*
X217776400Y-76107544D01*
X217804971Y-76136115D01*
X217862114Y-76164686D01*
X217976400Y-76193258D01*
X218119257Y-76193258D01*
X218233543Y-76164686D01*
X218290686Y-76136115D01*
X218319257Y-76107544D01*
X218347829Y-76050401D01*
X218347829Y-75993258D01*
X218319257Y-75936115D01*
X218290686Y-75907544D01*
X218233543Y-75878972D01*
X218119257Y-75850401D01*
X217976400Y-75850401D01*
X217862114Y-75878972D01*
X217804971Y-75907544D01*
X217776400Y-75936115D01*
X217747829Y-75993258D01*
M02*
