G04 #@! TF.FileFunction,Legend,Bot*
%FSLAX46Y46*%
G04 Gerber Fmt 4.6, Leading zero omitted, Abs format (unit mm)*
G04 Created by KiCad (PCBNEW 4.0.4+e1-6308~48~ubuntu15.10.1-stable) date Thu Jan 25 11:02:50 2018*
%MOMM*%
%LPD*%
G01*
G04 APERTURE LIST*
%ADD10C,0.100000*%
%ADD11C,0.300000*%
G04 APERTURE END LIST*
D10*
D11*
X198329954Y-123349411D02*
X198615668Y-123349411D01*
X198758526Y-123420840D01*
X198901383Y-123563697D01*
X198972811Y-123849411D01*
X198972811Y-124349411D01*
X198901383Y-124635126D01*
X198758526Y-124777983D01*
X198615668Y-124849411D01*
X198329954Y-124849411D01*
X198187097Y-124777983D01*
X198044240Y-124635126D01*
X197972811Y-124349411D01*
X197972811Y-123849411D01*
X198044240Y-123563697D01*
X198187097Y-123420840D01*
X198329954Y-123349411D01*
X200115669Y-124063697D02*
X200329955Y-124135126D01*
X200401383Y-124206554D01*
X200472812Y-124349411D01*
X200472812Y-124563697D01*
X200401383Y-124706554D01*
X200329955Y-124777983D01*
X200187097Y-124849411D01*
X199615669Y-124849411D01*
X199615669Y-123349411D01*
X200115669Y-123349411D01*
X200258526Y-123420840D01*
X200329955Y-123492269D01*
X200401383Y-123635126D01*
X200401383Y-123777983D01*
X200329955Y-123920840D01*
X200258526Y-123992269D01*
X200115669Y-124063697D01*
X199615669Y-124063697D01*
X201044240Y-124777983D02*
X201258526Y-124849411D01*
X201615669Y-124849411D01*
X201758526Y-124777983D01*
X201829955Y-124706554D01*
X201901383Y-124563697D01*
X201901383Y-124420840D01*
X201829955Y-124277983D01*
X201758526Y-124206554D01*
X201615669Y-124135126D01*
X201329955Y-124063697D01*
X201187097Y-123992269D01*
X201115669Y-123920840D01*
X201044240Y-123777983D01*
X201044240Y-123635126D01*
X201115669Y-123492269D01*
X201187097Y-123420840D01*
X201329955Y-123349411D01*
X201687097Y-123349411D01*
X201901383Y-123420840D01*
X202544240Y-124706554D02*
X202615668Y-124777983D01*
X202544240Y-124849411D01*
X202472811Y-124777983D01*
X202544240Y-124706554D01*
X202544240Y-124849411D01*
X202544240Y-123920840D02*
X202615668Y-123992269D01*
X202544240Y-124063697D01*
X202472811Y-123992269D01*
X202544240Y-123920840D01*
X202544240Y-124063697D01*
X174008525Y-125899411D02*
X174865668Y-125899411D01*
X174437097Y-127399411D02*
X174437097Y-125899411D01*
X175579954Y-127399411D02*
X175437096Y-127327983D01*
X175365668Y-127256554D01*
X175294239Y-127113697D01*
X175294239Y-126685126D01*
X175365668Y-126542269D01*
X175437096Y-126470840D01*
X175579954Y-126399411D01*
X175794239Y-126399411D01*
X175937096Y-126470840D01*
X176008525Y-126542269D01*
X176079954Y-126685126D01*
X176079954Y-127113697D01*
X176008525Y-127256554D01*
X175937096Y-127327983D01*
X175794239Y-127399411D01*
X175579954Y-127399411D01*
X177365668Y-127399411D02*
X177365668Y-125899411D01*
X177365668Y-127327983D02*
X177222811Y-127399411D01*
X176937097Y-127399411D01*
X176794239Y-127327983D01*
X176722811Y-127256554D01*
X176651382Y-127113697D01*
X176651382Y-126685126D01*
X176722811Y-126542269D01*
X176794239Y-126470840D01*
X176937097Y-126399411D01*
X177222811Y-126399411D01*
X177365668Y-126470840D01*
X178294240Y-127399411D02*
X178151382Y-127327983D01*
X178079954Y-127256554D01*
X178008525Y-127113697D01*
X178008525Y-126685126D01*
X178079954Y-126542269D01*
X178151382Y-126470840D01*
X178294240Y-126399411D01*
X178508525Y-126399411D01*
X178651382Y-126470840D01*
X178722811Y-126542269D01*
X178794240Y-126685126D01*
X178794240Y-127113697D01*
X178722811Y-127256554D01*
X178651382Y-127327983D01*
X178508525Y-127399411D01*
X178294240Y-127399411D01*
X179365668Y-127327983D02*
X179508525Y-127399411D01*
X179794240Y-127399411D01*
X179937097Y-127327983D01*
X180008525Y-127185126D01*
X180008525Y-127113697D01*
X179937097Y-126970840D01*
X179794240Y-126899411D01*
X179579954Y-126899411D01*
X179437097Y-126827983D01*
X179365668Y-126685126D01*
X179365668Y-126613697D01*
X179437097Y-126470840D01*
X179579954Y-126399411D01*
X179794240Y-126399411D01*
X179937097Y-126470840D01*
X182008526Y-127399411D02*
X181865668Y-127327983D01*
X181794240Y-127256554D01*
X181722811Y-127113697D01*
X181722811Y-126685126D01*
X181794240Y-126542269D01*
X181865668Y-126470840D01*
X182008526Y-126399411D01*
X182222811Y-126399411D01*
X182365668Y-126470840D01*
X182437097Y-126542269D01*
X182508526Y-126685126D01*
X182508526Y-127113697D01*
X182437097Y-127256554D01*
X182365668Y-127327983D01*
X182222811Y-127399411D01*
X182008526Y-127399411D01*
X183079954Y-127327983D02*
X183222811Y-127399411D01*
X183508526Y-127399411D01*
X183651383Y-127327983D01*
X183722811Y-127185126D01*
X183722811Y-127113697D01*
X183651383Y-126970840D01*
X183508526Y-126899411D01*
X183294240Y-126899411D01*
X183151383Y-126827983D01*
X183079954Y-126685126D01*
X183079954Y-126613697D01*
X183151383Y-126470840D01*
X183294240Y-126399411D01*
X183508526Y-126399411D01*
X183651383Y-126470840D01*
X186151383Y-127327983D02*
X186008526Y-127399411D01*
X185722812Y-127399411D01*
X185579954Y-127327983D01*
X185508526Y-127256554D01*
X185437097Y-127113697D01*
X185437097Y-126685126D01*
X185508526Y-126542269D01*
X185579954Y-126470840D01*
X185722812Y-126399411D01*
X186008526Y-126399411D01*
X186151383Y-126470840D01*
X187008526Y-127399411D02*
X186865668Y-127327983D01*
X186794240Y-127256554D01*
X186722811Y-127113697D01*
X186722811Y-126685126D01*
X186794240Y-126542269D01*
X186865668Y-126470840D01*
X187008526Y-126399411D01*
X187222811Y-126399411D01*
X187365668Y-126470840D01*
X187437097Y-126542269D01*
X187508526Y-126685126D01*
X187508526Y-127113697D01*
X187437097Y-127256554D01*
X187365668Y-127327983D01*
X187222811Y-127399411D01*
X187008526Y-127399411D01*
X188151383Y-127399411D02*
X188151383Y-126399411D01*
X188151383Y-126685126D02*
X188222811Y-126542269D01*
X188294240Y-126470840D01*
X188437097Y-126399411D01*
X188579954Y-126399411D01*
X188865668Y-126399411D02*
X189437097Y-126399411D01*
X189079954Y-125899411D02*
X189079954Y-127185126D01*
X189151382Y-127327983D01*
X189294240Y-127399411D01*
X189437097Y-127399411D01*
X190508525Y-127327983D02*
X190365668Y-127399411D01*
X190079954Y-127399411D01*
X189937097Y-127327983D01*
X189865668Y-127185126D01*
X189865668Y-126613697D01*
X189937097Y-126470840D01*
X190079954Y-126399411D01*
X190365668Y-126399411D01*
X190508525Y-126470840D01*
X190579954Y-126613697D01*
X190579954Y-126756554D01*
X189865668Y-126899411D01*
X191151382Y-127327983D02*
X191294239Y-127399411D01*
X191579954Y-127399411D01*
X191722811Y-127327983D01*
X191794239Y-127185126D01*
X191794239Y-127113697D01*
X191722811Y-126970840D01*
X191579954Y-126899411D01*
X191365668Y-126899411D01*
X191222811Y-126827983D01*
X191151382Y-126685126D01*
X191151382Y-126613697D01*
X191222811Y-126470840D01*
X191365668Y-126399411D01*
X191579954Y-126399411D01*
X191722811Y-126470840D01*
X193579954Y-127399411D02*
X193579954Y-126399411D01*
X193579954Y-125899411D02*
X193508525Y-125970840D01*
X193579954Y-126042269D01*
X193651382Y-125970840D01*
X193579954Y-125899411D01*
X193579954Y-126042269D01*
X194294240Y-126399411D02*
X194294240Y-127399411D01*
X194294240Y-126542269D02*
X194365668Y-126470840D01*
X194508526Y-126399411D01*
X194722811Y-126399411D01*
X194865668Y-126470840D01*
X194937097Y-126613697D01*
X194937097Y-127399411D01*
X195437097Y-126399411D02*
X196008526Y-126399411D01*
X195651383Y-125899411D02*
X195651383Y-127185126D01*
X195722811Y-127327983D01*
X195865669Y-127399411D01*
X196008526Y-127399411D01*
X197079954Y-127327983D02*
X196937097Y-127399411D01*
X196651383Y-127399411D01*
X196508526Y-127327983D01*
X196437097Y-127185126D01*
X196437097Y-126613697D01*
X196508526Y-126470840D01*
X196651383Y-126399411D01*
X196937097Y-126399411D01*
X197079954Y-126470840D01*
X197151383Y-126613697D01*
X197151383Y-126756554D01*
X196437097Y-126899411D01*
X197794240Y-127399411D02*
X197794240Y-126399411D01*
X197794240Y-126685126D02*
X197865668Y-126542269D01*
X197937097Y-126470840D01*
X198079954Y-126399411D01*
X198222811Y-126399411D01*
X198722811Y-126399411D02*
X198722811Y-127399411D01*
X198722811Y-126542269D02*
X198794239Y-126470840D01*
X198937097Y-126399411D01*
X199151382Y-126399411D01*
X199294239Y-126470840D01*
X199365668Y-126613697D01*
X199365668Y-127399411D01*
X200294240Y-127399411D02*
X200151382Y-127327983D01*
X200079954Y-127256554D01*
X200008525Y-127113697D01*
X200008525Y-126685126D01*
X200079954Y-126542269D01*
X200151382Y-126470840D01*
X200294240Y-126399411D01*
X200508525Y-126399411D01*
X200651382Y-126470840D01*
X200722811Y-126542269D01*
X200794240Y-126685126D01*
X200794240Y-127113697D01*
X200722811Y-127256554D01*
X200651382Y-127327983D01*
X200508525Y-127399411D01*
X200294240Y-127399411D01*
X201365668Y-127327983D02*
X201508525Y-127399411D01*
X201794240Y-127399411D01*
X201937097Y-127327983D01*
X202008525Y-127185126D01*
X202008525Y-127113697D01*
X201937097Y-126970840D01*
X201794240Y-126899411D01*
X201579954Y-126899411D01*
X201437097Y-126827983D01*
X201365668Y-126685126D01*
X201365668Y-126613697D01*
X201437097Y-126470840D01*
X201579954Y-126399411D01*
X201794240Y-126399411D01*
X201937097Y-126470840D01*
X204437097Y-127399411D02*
X204437097Y-126613697D01*
X204365668Y-126470840D01*
X204222811Y-126399411D01*
X203937097Y-126399411D01*
X203794240Y-126470840D01*
X204437097Y-127327983D02*
X204294240Y-127399411D01*
X203937097Y-127399411D01*
X203794240Y-127327983D01*
X203722811Y-127185126D01*
X203722811Y-127042269D01*
X203794240Y-126899411D01*
X203937097Y-126827983D01*
X204294240Y-126827983D01*
X204437097Y-126756554D01*
X203937097Y-125827983D02*
X204151383Y-126042269D01*
X206294240Y-126399411D02*
X206294240Y-127899411D01*
X206294240Y-126470840D02*
X206437097Y-126399411D01*
X206722811Y-126399411D01*
X206865668Y-126470840D01*
X206937097Y-126542269D01*
X207008526Y-126685126D01*
X207008526Y-127113697D01*
X206937097Y-127256554D01*
X206865668Y-127327983D01*
X206722811Y-127399411D01*
X206437097Y-127399411D01*
X206294240Y-127327983D01*
X207865669Y-127399411D02*
X207722811Y-127327983D01*
X207651383Y-127185126D01*
X207651383Y-125899411D01*
X209079954Y-127399411D02*
X209079954Y-126613697D01*
X209008525Y-126470840D01*
X208865668Y-126399411D01*
X208579954Y-126399411D01*
X208437097Y-126470840D01*
X209079954Y-127327983D02*
X208937097Y-127399411D01*
X208579954Y-127399411D01*
X208437097Y-127327983D01*
X208365668Y-127185126D01*
X208365668Y-127042269D01*
X208437097Y-126899411D01*
X208579954Y-126827983D01*
X208937097Y-126827983D01*
X209079954Y-126756554D01*
X210437097Y-127327983D02*
X210294240Y-127399411D01*
X210008526Y-127399411D01*
X209865668Y-127327983D01*
X209794240Y-127256554D01*
X209722811Y-127113697D01*
X209722811Y-126685126D01*
X209794240Y-126542269D01*
X209865668Y-126470840D01*
X210008526Y-126399411D01*
X210294240Y-126399411D01*
X210437097Y-126470840D01*
X211722811Y-127399411D02*
X211722811Y-126613697D01*
X211651382Y-126470840D01*
X211508525Y-126399411D01*
X211222811Y-126399411D01*
X211079954Y-126470840D01*
X211722811Y-127327983D02*
X211579954Y-127399411D01*
X211222811Y-127399411D01*
X211079954Y-127327983D01*
X211008525Y-127185126D01*
X211008525Y-127042269D01*
X211079954Y-126899411D01*
X211222811Y-126827983D01*
X211579954Y-126827983D01*
X211722811Y-126756554D01*
X214008525Y-127970840D02*
X213937097Y-127899411D01*
X213794240Y-127685126D01*
X213722811Y-127542269D01*
X213651382Y-127327983D01*
X213579954Y-126970840D01*
X213579954Y-126685126D01*
X213651382Y-126327983D01*
X213722811Y-126113697D01*
X213794240Y-125970840D01*
X213937097Y-125756554D01*
X214008525Y-125685126D01*
X215437097Y-127256554D02*
X215365668Y-127327983D01*
X215151382Y-127399411D01*
X215008525Y-127399411D01*
X214794240Y-127327983D01*
X214651382Y-127185126D01*
X214579954Y-127042269D01*
X214508525Y-126756554D01*
X214508525Y-126542269D01*
X214579954Y-126256554D01*
X214651382Y-126113697D01*
X214794240Y-125970840D01*
X215008525Y-125899411D01*
X215151382Y-125899411D01*
X215365668Y-125970840D01*
X215437097Y-126042269D01*
X216079954Y-125899411D02*
X216079954Y-127113697D01*
X216151382Y-127256554D01*
X216222811Y-127327983D01*
X216365668Y-127399411D01*
X216651382Y-127399411D01*
X216794240Y-127327983D01*
X216865668Y-127256554D01*
X216937097Y-127113697D01*
X216937097Y-125899411D01*
X217437097Y-125899411D02*
X218294240Y-125899411D01*
X217865669Y-127399411D02*
X217865669Y-125899411D01*
X218794240Y-126827983D02*
X219937097Y-126827983D01*
X220937097Y-125899411D02*
X221222811Y-125899411D01*
X221365669Y-125970840D01*
X221508526Y-126113697D01*
X221579954Y-126399411D01*
X221579954Y-126899411D01*
X221508526Y-127185126D01*
X221365669Y-127327983D01*
X221222811Y-127399411D01*
X220937097Y-127399411D01*
X220794240Y-127327983D01*
X220651383Y-127185126D01*
X220579954Y-126899411D01*
X220579954Y-126399411D01*
X220651383Y-126113697D01*
X220794240Y-125970840D01*
X220937097Y-125899411D01*
X222222812Y-125899411D02*
X222222812Y-127113697D01*
X222294240Y-127256554D01*
X222365669Y-127327983D01*
X222508526Y-127399411D01*
X222794240Y-127399411D01*
X222937098Y-127327983D01*
X223008526Y-127256554D01*
X223079955Y-127113697D01*
X223079955Y-125899411D01*
X223579955Y-125899411D02*
X224437098Y-125899411D01*
X224008527Y-127399411D02*
X224008527Y-125899411D01*
X224794241Y-127970840D02*
X224865669Y-127899411D01*
X225008526Y-127685126D01*
X225079955Y-127542269D01*
X225151384Y-127327983D01*
X225222812Y-126970840D01*
X225222812Y-126685126D01*
X225151384Y-126327983D01*
X225079955Y-126113697D01*
X225008526Y-125970840D01*
X224865669Y-125756554D01*
X224794241Y-125685126D01*
X173294241Y-129949411D02*
X173294241Y-128449411D01*
X173294241Y-129877983D02*
X173151384Y-129949411D01*
X172865670Y-129949411D01*
X172722812Y-129877983D01*
X172651384Y-129806554D01*
X172579955Y-129663697D01*
X172579955Y-129235126D01*
X172651384Y-129092269D01*
X172722812Y-129020840D01*
X172865670Y-128949411D01*
X173151384Y-128949411D01*
X173294241Y-129020840D01*
X174579955Y-129877983D02*
X174437098Y-129949411D01*
X174151384Y-129949411D01*
X174008527Y-129877983D01*
X173937098Y-129735126D01*
X173937098Y-129163697D01*
X174008527Y-129020840D01*
X174151384Y-128949411D01*
X174437098Y-128949411D01*
X174579955Y-129020840D01*
X174651384Y-129163697D01*
X174651384Y-129306554D01*
X173937098Y-129449411D01*
X175151384Y-128949411D02*
X175508527Y-129949411D01*
X175865669Y-128949411D01*
X177008526Y-129877983D02*
X176865669Y-129949411D01*
X176579955Y-129949411D01*
X176437098Y-129877983D01*
X176365669Y-129735126D01*
X176365669Y-129163697D01*
X176437098Y-129020840D01*
X176579955Y-128949411D01*
X176865669Y-128949411D01*
X177008526Y-129020840D01*
X177079955Y-129163697D01*
X177079955Y-129306554D01*
X176365669Y-129449411D01*
X177722812Y-129949411D02*
X177722812Y-128949411D01*
X177722812Y-129092269D02*
X177794240Y-129020840D01*
X177937098Y-128949411D01*
X178151383Y-128949411D01*
X178294240Y-129020840D01*
X178365669Y-129163697D01*
X178365669Y-129949411D01*
X178365669Y-129163697D02*
X178437098Y-129020840D01*
X178579955Y-128949411D01*
X178794240Y-128949411D01*
X178937098Y-129020840D01*
X179008526Y-129163697D01*
X179008526Y-129949411D01*
X180794240Y-129877983D02*
X180937097Y-129949411D01*
X181222812Y-129949411D01*
X181365669Y-129877983D01*
X181437097Y-129735126D01*
X181437097Y-129663697D01*
X181365669Y-129520840D01*
X181222812Y-129449411D01*
X181008526Y-129449411D01*
X180865669Y-129377983D01*
X180794240Y-129235126D01*
X180794240Y-129163697D01*
X180865669Y-129020840D01*
X181008526Y-128949411D01*
X181222812Y-128949411D01*
X181365669Y-129020840D01*
X182651383Y-129877983D02*
X182508526Y-129949411D01*
X182222812Y-129949411D01*
X182079955Y-129877983D01*
X182008526Y-129735126D01*
X182008526Y-129163697D01*
X182079955Y-129020840D01*
X182222812Y-128949411D01*
X182508526Y-128949411D01*
X182651383Y-129020840D01*
X182722812Y-129163697D01*
X182722812Y-129306554D01*
X182008526Y-129449411D01*
X183365669Y-129949411D02*
X183365669Y-128949411D01*
X183365669Y-129235126D02*
X183437097Y-129092269D01*
X183508526Y-129020840D01*
X183651383Y-128949411D01*
X183794240Y-128949411D01*
X185222811Y-128949411D02*
X185794240Y-128949411D01*
X185437097Y-129949411D02*
X185437097Y-128663697D01*
X185508525Y-128520840D01*
X185651383Y-128449411D01*
X185794240Y-128449411D01*
X186865668Y-129877983D02*
X186722811Y-129949411D01*
X186437097Y-129949411D01*
X186294240Y-129877983D01*
X186222811Y-129735126D01*
X186222811Y-129163697D01*
X186294240Y-129020840D01*
X186437097Y-128949411D01*
X186722811Y-128949411D01*
X186865668Y-129020840D01*
X186937097Y-129163697D01*
X186937097Y-129306554D01*
X186222811Y-129449411D01*
X187579954Y-129949411D02*
X187579954Y-128949411D01*
X187579954Y-128449411D02*
X187508525Y-128520840D01*
X187579954Y-128592269D01*
X187651382Y-128520840D01*
X187579954Y-128449411D01*
X187579954Y-128592269D01*
X188079954Y-128949411D02*
X188651383Y-128949411D01*
X188294240Y-128449411D02*
X188294240Y-129735126D01*
X188365668Y-129877983D01*
X188508526Y-129949411D01*
X188651383Y-129949411D01*
X189365669Y-129949411D02*
X189222811Y-129877983D01*
X189151383Y-129806554D01*
X189079954Y-129663697D01*
X189079954Y-129235126D01*
X189151383Y-129092269D01*
X189222811Y-129020840D01*
X189365669Y-128949411D01*
X189579954Y-128949411D01*
X189722811Y-129020840D01*
X189794240Y-129092269D01*
X189865669Y-129235126D01*
X189865669Y-129663697D01*
X189794240Y-129806554D01*
X189722811Y-129877983D01*
X189579954Y-129949411D01*
X189365669Y-129949411D01*
X190437097Y-129877983D02*
X190579954Y-129949411D01*
X190865669Y-129949411D01*
X191008526Y-129877983D01*
X191079954Y-129735126D01*
X191079954Y-129663697D01*
X191008526Y-129520840D01*
X190865669Y-129449411D01*
X190651383Y-129449411D01*
X190508526Y-129377983D01*
X190437097Y-129235126D01*
X190437097Y-129163697D01*
X190508526Y-129020840D01*
X190651383Y-128949411D01*
X190865669Y-128949411D01*
X191008526Y-129020840D01*
X193508526Y-129877983D02*
X193365669Y-129949411D01*
X193079955Y-129949411D01*
X192937097Y-129877983D01*
X192865669Y-129806554D01*
X192794240Y-129663697D01*
X192794240Y-129235126D01*
X192865669Y-129092269D01*
X192937097Y-129020840D01*
X193079955Y-128949411D01*
X193365669Y-128949411D01*
X193508526Y-129020840D01*
X194365669Y-129949411D02*
X194222811Y-129877983D01*
X194151383Y-129806554D01*
X194079954Y-129663697D01*
X194079954Y-129235126D01*
X194151383Y-129092269D01*
X194222811Y-129020840D01*
X194365669Y-128949411D01*
X194579954Y-128949411D01*
X194722811Y-129020840D01*
X194794240Y-129092269D01*
X194865669Y-129235126D01*
X194865669Y-129663697D01*
X194794240Y-129806554D01*
X194722811Y-129877983D01*
X194579954Y-129949411D01*
X194365669Y-129949411D01*
X195508526Y-129949411D02*
X195508526Y-128949411D01*
X195508526Y-129092269D02*
X195579954Y-129020840D01*
X195722812Y-128949411D01*
X195937097Y-128949411D01*
X196079954Y-129020840D01*
X196151383Y-129163697D01*
X196151383Y-129949411D01*
X196151383Y-129163697D02*
X196222812Y-129020840D01*
X196365669Y-128949411D01*
X196579954Y-128949411D01*
X196722812Y-129020840D01*
X196794240Y-129163697D01*
X196794240Y-129949411D01*
X198437097Y-128949411D02*
X199008526Y-128949411D01*
X198651383Y-129949411D02*
X198651383Y-128663697D01*
X198722811Y-128520840D01*
X198865669Y-128449411D01*
X199008526Y-128449411D01*
X199508526Y-129949411D02*
X199508526Y-128949411D01*
X199508526Y-129235126D02*
X199579954Y-129092269D01*
X199651383Y-129020840D01*
X199794240Y-128949411D01*
X199937097Y-128949411D01*
X201008525Y-129877983D02*
X200865668Y-129949411D01*
X200579954Y-129949411D01*
X200437097Y-129877983D01*
X200365668Y-129735126D01*
X200365668Y-129163697D01*
X200437097Y-129020840D01*
X200579954Y-128949411D01*
X200865668Y-128949411D01*
X201008525Y-129020840D01*
X201079954Y-129163697D01*
X201079954Y-129306554D01*
X200365668Y-129449411D01*
X201651382Y-129877983D02*
X201794239Y-129949411D01*
X202079954Y-129949411D01*
X202222811Y-129877983D01*
X202294239Y-129735126D01*
X202294239Y-129663697D01*
X202222811Y-129520840D01*
X202079954Y-129449411D01*
X201865668Y-129449411D01*
X201722811Y-129377983D01*
X201651382Y-129235126D01*
X201651382Y-129163697D01*
X201722811Y-129020840D01*
X201865668Y-128949411D01*
X202079954Y-128949411D01*
X202222811Y-129020840D01*
X203579954Y-129949411D02*
X203579954Y-129163697D01*
X203508525Y-129020840D01*
X203365668Y-128949411D01*
X203079954Y-128949411D01*
X202937097Y-129020840D01*
X203579954Y-129877983D02*
X203437097Y-129949411D01*
X203079954Y-129949411D01*
X202937097Y-129877983D01*
X202865668Y-129735126D01*
X202865668Y-129592269D01*
X202937097Y-129449411D01*
X203079954Y-129377983D01*
X203437097Y-129377983D01*
X203579954Y-129306554D01*
X206079954Y-129949411D02*
X206079954Y-128449411D01*
X206079954Y-129877983D02*
X205937097Y-129949411D01*
X205651383Y-129949411D01*
X205508525Y-129877983D01*
X205437097Y-129806554D01*
X205365668Y-129663697D01*
X205365668Y-129235126D01*
X205437097Y-129092269D01*
X205508525Y-129020840D01*
X205651383Y-128949411D01*
X205937097Y-128949411D01*
X206079954Y-129020840D01*
X207365668Y-129877983D02*
X207222811Y-129949411D01*
X206937097Y-129949411D01*
X206794240Y-129877983D01*
X206722811Y-129735126D01*
X206722811Y-129163697D01*
X206794240Y-129020840D01*
X206937097Y-128949411D01*
X207222811Y-128949411D01*
X207365668Y-129020840D01*
X207437097Y-129163697D01*
X207437097Y-129306554D01*
X206722811Y-129449411D01*
X209865668Y-129949411D02*
X209865668Y-128449411D01*
X209865668Y-129877983D02*
X209722811Y-129949411D01*
X209437097Y-129949411D01*
X209294239Y-129877983D01*
X209222811Y-129806554D01*
X209151382Y-129663697D01*
X209151382Y-129235126D01*
X209222811Y-129092269D01*
X209294239Y-129020840D01*
X209437097Y-128949411D01*
X209722811Y-128949411D01*
X209865668Y-129020840D01*
X210579954Y-129949411D02*
X210579954Y-128949411D01*
X210579954Y-128449411D02*
X210508525Y-128520840D01*
X210579954Y-128592269D01*
X210651382Y-128520840D01*
X210579954Y-128449411D01*
X210579954Y-128592269D01*
X211937097Y-129949411D02*
X211937097Y-129163697D01*
X211865668Y-129020840D01*
X211722811Y-128949411D01*
X211437097Y-128949411D01*
X211294240Y-129020840D01*
X211937097Y-129877983D02*
X211794240Y-129949411D01*
X211437097Y-129949411D01*
X211294240Y-129877983D01*
X211222811Y-129735126D01*
X211222811Y-129592269D01*
X211294240Y-129449411D01*
X211437097Y-129377983D01*
X211794240Y-129377983D01*
X211937097Y-129306554D01*
X211294240Y-128592269D02*
X211579954Y-128377983D01*
X211865668Y-128592269D01*
X212651383Y-129949411D02*
X212651383Y-128949411D01*
X212651383Y-129092269D02*
X212722811Y-129020840D01*
X212865669Y-128949411D01*
X213079954Y-128949411D01*
X213222811Y-129020840D01*
X213294240Y-129163697D01*
X213294240Y-129949411D01*
X213294240Y-129163697D02*
X213365669Y-129020840D01*
X213508526Y-128949411D01*
X213722811Y-128949411D01*
X213865669Y-129020840D01*
X213937097Y-129163697D01*
X213937097Y-129949411D01*
X215222811Y-129877983D02*
X215079954Y-129949411D01*
X214794240Y-129949411D01*
X214651383Y-129877983D01*
X214579954Y-129735126D01*
X214579954Y-129163697D01*
X214651383Y-129020840D01*
X214794240Y-128949411D01*
X215079954Y-128949411D01*
X215222811Y-129020840D01*
X215294240Y-129163697D01*
X215294240Y-129306554D01*
X214579954Y-129449411D01*
X215722811Y-128949411D02*
X216294240Y-128949411D01*
X215937097Y-128449411D02*
X215937097Y-129735126D01*
X216008525Y-129877983D01*
X216151383Y-129949411D01*
X216294240Y-129949411D01*
X216794240Y-129949411D02*
X216794240Y-128949411D01*
X216794240Y-129235126D02*
X216865668Y-129092269D01*
X216937097Y-129020840D01*
X217079954Y-128949411D01*
X217222811Y-128949411D01*
X217937097Y-129949411D02*
X217794239Y-129877983D01*
X217722811Y-129806554D01*
X217651382Y-129663697D01*
X217651382Y-129235126D01*
X217722811Y-129092269D01*
X217794239Y-129020840D01*
X217937097Y-128949411D01*
X218151382Y-128949411D01*
X218294239Y-129020840D01*
X218365668Y-129092269D01*
X218437097Y-129235126D01*
X218437097Y-129663697D01*
X218365668Y-129806554D01*
X218294239Y-129877983D01*
X218151382Y-129949411D01*
X217937097Y-129949411D01*
X221365668Y-129877983D02*
X220222811Y-129877983D01*
X221365668Y-129592269D02*
X220222811Y-129163697D01*
X221365668Y-128735126D01*
X224008525Y-129949411D02*
X223151382Y-129949411D01*
X223579954Y-129949411D02*
X223579954Y-128449411D01*
X223437097Y-128663697D01*
X223294239Y-128806554D01*
X223151382Y-128877983D01*
X224651382Y-129949411D02*
X224651382Y-128949411D01*
X224651382Y-129092269D02*
X224722810Y-129020840D01*
X224865668Y-128949411D01*
X225079953Y-128949411D01*
X225222810Y-129020840D01*
X225294239Y-129163697D01*
X225294239Y-129949411D01*
X225294239Y-129163697D02*
X225365668Y-129020840D01*
X225508525Y-128949411D01*
X225722810Y-128949411D01*
X225865668Y-129020840D01*
X225937096Y-129163697D01*
X225937096Y-129949411D01*
X226651382Y-129949411D02*
X226651382Y-128949411D01*
X226651382Y-129092269D02*
X226722810Y-129020840D01*
X226865668Y-128949411D01*
X227079953Y-128949411D01*
X227222810Y-129020840D01*
X227294239Y-129163697D01*
X227294239Y-129949411D01*
X227294239Y-129163697D02*
X227365668Y-129020840D01*
X227508525Y-128949411D01*
X227722810Y-128949411D01*
X227865668Y-129020840D01*
X227937096Y-129163697D01*
X227937096Y-129949411D01*
X177829954Y-133549411D02*
X178115668Y-133549411D01*
X178258526Y-133620840D01*
X178401383Y-133763697D01*
X178472811Y-134049411D01*
X178472811Y-134549411D01*
X178401383Y-134835126D01*
X178258526Y-134977983D01*
X178115668Y-135049411D01*
X177829954Y-135049411D01*
X177687097Y-134977983D01*
X177544240Y-134835126D01*
X177472811Y-134549411D01*
X177472811Y-134049411D01*
X177544240Y-133763697D01*
X177687097Y-133620840D01*
X177829954Y-133549411D01*
X180901383Y-134977983D02*
X180758526Y-135049411D01*
X180472812Y-135049411D01*
X180329954Y-134977983D01*
X180258526Y-134906554D01*
X180187097Y-134763697D01*
X180187097Y-134335126D01*
X180258526Y-134192269D01*
X180329954Y-134120840D01*
X180472812Y-134049411D01*
X180758526Y-134049411D01*
X180901383Y-134120840D01*
X181758526Y-135049411D02*
X181615668Y-134977983D01*
X181544240Y-134906554D01*
X181472811Y-134763697D01*
X181472811Y-134335126D01*
X181544240Y-134192269D01*
X181615668Y-134120840D01*
X181758526Y-134049411D01*
X181972811Y-134049411D01*
X182115668Y-134120840D01*
X182187097Y-134192269D01*
X182258526Y-134335126D01*
X182258526Y-134763697D01*
X182187097Y-134906554D01*
X182115668Y-134977983D01*
X181972811Y-135049411D01*
X181758526Y-135049411D01*
X182044240Y-133477983D02*
X181829954Y-133692269D01*
X183544240Y-135049411D02*
X183544240Y-133549411D01*
X183544240Y-134977983D02*
X183401383Y-135049411D01*
X183115669Y-135049411D01*
X182972811Y-134977983D01*
X182901383Y-134906554D01*
X182829954Y-134763697D01*
X182829954Y-134335126D01*
X182901383Y-134192269D01*
X182972811Y-134120840D01*
X183115669Y-134049411D01*
X183401383Y-134049411D01*
X183544240Y-134120840D01*
X184258526Y-135049411D02*
X184258526Y-134049411D01*
X184258526Y-133549411D02*
X184187097Y-133620840D01*
X184258526Y-133692269D01*
X184329954Y-133620840D01*
X184258526Y-133549411D01*
X184258526Y-133692269D01*
X185615669Y-134049411D02*
X185615669Y-135263697D01*
X185544240Y-135406554D01*
X185472812Y-135477983D01*
X185329955Y-135549411D01*
X185115669Y-135549411D01*
X184972812Y-135477983D01*
X185615669Y-134977983D02*
X185472812Y-135049411D01*
X185187098Y-135049411D01*
X185044240Y-134977983D01*
X184972812Y-134906554D01*
X184901383Y-134763697D01*
X184901383Y-134335126D01*
X184972812Y-134192269D01*
X185044240Y-134120840D01*
X185187098Y-134049411D01*
X185472812Y-134049411D01*
X185615669Y-134120840D01*
X186544241Y-135049411D02*
X186401383Y-134977983D01*
X186329955Y-134906554D01*
X186258526Y-134763697D01*
X186258526Y-134335126D01*
X186329955Y-134192269D01*
X186401383Y-134120840D01*
X186544241Y-134049411D01*
X186758526Y-134049411D01*
X186901383Y-134120840D01*
X186972812Y-134192269D01*
X187044241Y-134335126D01*
X187044241Y-134763697D01*
X186972812Y-134906554D01*
X186901383Y-134977983D01*
X186758526Y-135049411D01*
X186544241Y-135049411D01*
X189472812Y-135049411D02*
X189472812Y-133549411D01*
X189472812Y-134977983D02*
X189329955Y-135049411D01*
X189044241Y-135049411D01*
X188901383Y-134977983D01*
X188829955Y-134906554D01*
X188758526Y-134763697D01*
X188758526Y-134335126D01*
X188829955Y-134192269D01*
X188901383Y-134120840D01*
X189044241Y-134049411D01*
X189329955Y-134049411D01*
X189472812Y-134120840D01*
X190758526Y-134977983D02*
X190615669Y-135049411D01*
X190329955Y-135049411D01*
X190187098Y-134977983D01*
X190115669Y-134835126D01*
X190115669Y-134263697D01*
X190187098Y-134120840D01*
X190329955Y-134049411D01*
X190615669Y-134049411D01*
X190758526Y-134120840D01*
X190829955Y-134263697D01*
X190829955Y-134406554D01*
X190115669Y-134549411D01*
X192615669Y-135049411D02*
X192615669Y-134049411D01*
X192615669Y-134335126D02*
X192687097Y-134192269D01*
X192758526Y-134120840D01*
X192901383Y-134049411D01*
X193044240Y-134049411D01*
X194187097Y-135049411D02*
X194187097Y-134263697D01*
X194115668Y-134120840D01*
X193972811Y-134049411D01*
X193687097Y-134049411D01*
X193544240Y-134120840D01*
X194187097Y-134977983D02*
X194044240Y-135049411D01*
X193687097Y-135049411D01*
X193544240Y-134977983D01*
X193472811Y-134835126D01*
X193472811Y-134692269D01*
X193544240Y-134549411D01*
X193687097Y-134477983D01*
X194044240Y-134477983D01*
X194187097Y-134406554D01*
X194829954Y-134977983D02*
X194972811Y-135049411D01*
X195258526Y-135049411D01*
X195401383Y-134977983D01*
X195472811Y-134835126D01*
X195472811Y-134763697D01*
X195401383Y-134620840D01*
X195258526Y-134549411D01*
X195044240Y-134549411D01*
X194901383Y-134477983D01*
X194829954Y-134335126D01*
X194829954Y-134263697D01*
X194901383Y-134120840D01*
X195044240Y-134049411D01*
X195258526Y-134049411D01*
X195401383Y-134120840D01*
X195901383Y-134049411D02*
X196472812Y-134049411D01*
X196115669Y-133549411D02*
X196115669Y-134835126D01*
X196187097Y-134977983D01*
X196329955Y-135049411D01*
X196472812Y-135049411D01*
X196972812Y-135049411D02*
X196972812Y-134049411D01*
X196972812Y-134335126D02*
X197044240Y-134192269D01*
X197115669Y-134120840D01*
X197258526Y-134049411D01*
X197401383Y-134049411D01*
X198472811Y-134977983D02*
X198329954Y-135049411D01*
X198044240Y-135049411D01*
X197901383Y-134977983D01*
X197829954Y-134835126D01*
X197829954Y-134263697D01*
X197901383Y-134120840D01*
X198044240Y-134049411D01*
X198329954Y-134049411D01*
X198472811Y-134120840D01*
X198544240Y-134263697D01*
X198544240Y-134406554D01*
X197829954Y-134549411D01*
X199829954Y-135049411D02*
X199829954Y-134263697D01*
X199758525Y-134120840D01*
X199615668Y-134049411D01*
X199329954Y-134049411D01*
X199187097Y-134120840D01*
X199829954Y-134977983D02*
X199687097Y-135049411D01*
X199329954Y-135049411D01*
X199187097Y-134977983D01*
X199115668Y-134835126D01*
X199115668Y-134692269D01*
X199187097Y-134549411D01*
X199329954Y-134477983D01*
X199687097Y-134477983D01*
X199829954Y-134406554D01*
X200544240Y-135049411D02*
X200544240Y-133549411D01*
X200544240Y-134120840D02*
X200687097Y-134049411D01*
X200972811Y-134049411D01*
X201115668Y-134120840D01*
X201187097Y-134192269D01*
X201258526Y-134335126D01*
X201258526Y-134763697D01*
X201187097Y-134906554D01*
X201115668Y-134977983D01*
X200972811Y-135049411D01*
X200687097Y-135049411D01*
X200544240Y-134977983D01*
X201901383Y-135049411D02*
X201901383Y-134049411D01*
X201901383Y-133549411D02*
X201829954Y-133620840D01*
X201901383Y-133692269D01*
X201972811Y-133620840D01*
X201901383Y-133549411D01*
X201901383Y-133692269D01*
X202829955Y-135049411D02*
X202687097Y-134977983D01*
X202615669Y-134835126D01*
X202615669Y-133549411D01*
X203401383Y-135049411D02*
X203401383Y-134049411D01*
X203401383Y-133549411D02*
X203329954Y-133620840D01*
X203401383Y-133692269D01*
X203472811Y-133620840D01*
X203401383Y-133549411D01*
X203401383Y-133692269D01*
X204758526Y-135049411D02*
X204758526Y-133549411D01*
X204758526Y-134977983D02*
X204615669Y-135049411D01*
X204329955Y-135049411D01*
X204187097Y-134977983D01*
X204115669Y-134906554D01*
X204044240Y-134763697D01*
X204044240Y-134335126D01*
X204115669Y-134192269D01*
X204187097Y-134120840D01*
X204329955Y-134049411D01*
X204615669Y-134049411D01*
X204758526Y-134120840D01*
X206115669Y-135049411D02*
X206115669Y-134263697D01*
X206044240Y-134120840D01*
X205901383Y-134049411D01*
X205615669Y-134049411D01*
X205472812Y-134120840D01*
X206115669Y-134977983D02*
X205972812Y-135049411D01*
X205615669Y-135049411D01*
X205472812Y-134977983D01*
X205401383Y-134835126D01*
X205401383Y-134692269D01*
X205472812Y-134549411D01*
X205615669Y-134477983D01*
X205972812Y-134477983D01*
X206115669Y-134406554D01*
X207472812Y-135049411D02*
X207472812Y-133549411D01*
X207472812Y-134977983D02*
X207329955Y-135049411D01*
X207044241Y-135049411D01*
X206901383Y-134977983D01*
X206829955Y-134906554D01*
X206758526Y-134763697D01*
X206758526Y-134335126D01*
X206829955Y-134192269D01*
X206901383Y-134120840D01*
X207044241Y-134049411D01*
X207329955Y-134049411D01*
X207472812Y-134120840D01*
X208758526Y-134977983D02*
X208615669Y-135049411D01*
X208329955Y-135049411D01*
X208187098Y-134977983D01*
X208115669Y-134835126D01*
X208115669Y-134263697D01*
X208187098Y-134120840D01*
X208329955Y-134049411D01*
X208615669Y-134049411D01*
X208758526Y-134120840D01*
X208829955Y-134263697D01*
X208829955Y-134406554D01*
X208115669Y-134549411D01*
X211258526Y-135049411D02*
X211258526Y-133549411D01*
X211258526Y-134977983D02*
X211115669Y-135049411D01*
X210829955Y-135049411D01*
X210687097Y-134977983D01*
X210615669Y-134906554D01*
X210544240Y-134763697D01*
X210544240Y-134335126D01*
X210615669Y-134192269D01*
X210687097Y-134120840D01*
X210829955Y-134049411D01*
X211115669Y-134049411D01*
X211258526Y-134120840D01*
X212615669Y-135049411D02*
X212615669Y-134263697D01*
X212544240Y-134120840D01*
X212401383Y-134049411D01*
X212115669Y-134049411D01*
X211972812Y-134120840D01*
X212615669Y-134977983D02*
X212472812Y-135049411D01*
X212115669Y-135049411D01*
X211972812Y-134977983D01*
X211901383Y-134835126D01*
X211901383Y-134692269D01*
X211972812Y-134549411D01*
X212115669Y-134477983D01*
X212472812Y-134477983D01*
X212615669Y-134406554D01*
X215187098Y-135049411D02*
X214472812Y-135049411D01*
X214472812Y-133549411D01*
X216329955Y-135049411D02*
X216329955Y-134263697D01*
X216258526Y-134120840D01*
X216115669Y-134049411D01*
X215829955Y-134049411D01*
X215687098Y-134120840D01*
X216329955Y-134977983D02*
X216187098Y-135049411D01*
X215829955Y-135049411D01*
X215687098Y-134977983D01*
X215615669Y-134835126D01*
X215615669Y-134692269D01*
X215687098Y-134549411D01*
X215829955Y-134477983D01*
X216187098Y-134477983D01*
X216329955Y-134406554D01*
X217687098Y-134049411D02*
X217687098Y-135049411D01*
X217044241Y-134049411D02*
X217044241Y-134835126D01*
X217115669Y-134977983D01*
X217258527Y-135049411D01*
X217472812Y-135049411D01*
X217615669Y-134977983D01*
X217687098Y-134906554D01*
X219044241Y-134049411D02*
X219044241Y-135549411D01*
X219044241Y-134977983D02*
X218901384Y-135049411D01*
X218615670Y-135049411D01*
X218472812Y-134977983D01*
X218401384Y-134906554D01*
X218329955Y-134763697D01*
X218329955Y-134335126D01*
X218401384Y-134192269D01*
X218472812Y-134120840D01*
X218615670Y-134049411D01*
X218901384Y-134049411D01*
X219044241Y-134120840D01*
X220401384Y-134049411D02*
X220401384Y-135049411D01*
X219758527Y-134049411D02*
X219758527Y-134835126D01*
X219829955Y-134977983D01*
X219972813Y-135049411D01*
X220187098Y-135049411D01*
X220329955Y-134977983D01*
X220401384Y-134906554D01*
X221687098Y-134977983D02*
X221544241Y-135049411D01*
X221258527Y-135049411D01*
X221115670Y-134977983D01*
X221044241Y-134835126D01*
X221044241Y-134263697D01*
X221115670Y-134120840D01*
X221258527Y-134049411D01*
X221544241Y-134049411D01*
X221687098Y-134120840D01*
X221758527Y-134263697D01*
X221758527Y-134406554D01*
X221044241Y-134549411D01*
X222401384Y-134049411D02*
X222401384Y-135049411D01*
X222401384Y-134192269D02*
X222472812Y-134120840D01*
X222615670Y-134049411D01*
X222829955Y-134049411D01*
X222972812Y-134120840D01*
X223044241Y-134263697D01*
X223044241Y-135049411D01*
X180972812Y-136599411D02*
X180972812Y-138099411D01*
X180972812Y-136670840D02*
X181115669Y-136599411D01*
X181401383Y-136599411D01*
X181544240Y-136670840D01*
X181615669Y-136742269D01*
X181687098Y-136885126D01*
X181687098Y-137313697D01*
X181615669Y-137456554D01*
X181544240Y-137527983D01*
X181401383Y-137599411D01*
X181115669Y-137599411D01*
X180972812Y-137527983D01*
X182544241Y-137599411D02*
X182401383Y-137527983D01*
X182329955Y-137456554D01*
X182258526Y-137313697D01*
X182258526Y-136885126D01*
X182329955Y-136742269D01*
X182401383Y-136670840D01*
X182544241Y-136599411D01*
X182758526Y-136599411D01*
X182901383Y-136670840D01*
X182972812Y-136742269D01*
X183044241Y-136885126D01*
X183044241Y-137313697D01*
X182972812Y-137456554D01*
X182901383Y-137527983D01*
X182758526Y-137599411D01*
X182544241Y-137599411D01*
X184329955Y-137599411D02*
X184329955Y-136099411D01*
X184329955Y-137527983D02*
X184187098Y-137599411D01*
X183901384Y-137599411D01*
X183758526Y-137527983D01*
X183687098Y-137456554D01*
X183615669Y-137313697D01*
X183615669Y-136885126D01*
X183687098Y-136742269D01*
X183758526Y-136670840D01*
X183901384Y-136599411D01*
X184187098Y-136599411D01*
X184329955Y-136670840D01*
X185615669Y-137527983D02*
X185472812Y-137599411D01*
X185187098Y-137599411D01*
X185044241Y-137527983D01*
X184972812Y-137385126D01*
X184972812Y-136813697D01*
X185044241Y-136670840D01*
X185187098Y-136599411D01*
X185472812Y-136599411D01*
X185615669Y-136670840D01*
X185687098Y-136813697D01*
X185687098Y-136956554D01*
X184972812Y-137099411D01*
X187401383Y-137527983D02*
X187544240Y-137599411D01*
X187829955Y-137599411D01*
X187972812Y-137527983D01*
X188044240Y-137385126D01*
X188044240Y-137313697D01*
X187972812Y-137170840D01*
X187829955Y-137099411D01*
X187615669Y-137099411D01*
X187472812Y-137027983D01*
X187401383Y-136885126D01*
X187401383Y-136813697D01*
X187472812Y-136670840D01*
X187615669Y-136599411D01*
X187829955Y-136599411D01*
X187972812Y-136670840D01*
X189258526Y-137527983D02*
X189115669Y-137599411D01*
X188829955Y-137599411D01*
X188687098Y-137527983D01*
X188615669Y-137385126D01*
X188615669Y-136813697D01*
X188687098Y-136670840D01*
X188829955Y-136599411D01*
X189115669Y-136599411D01*
X189258526Y-136670840D01*
X189329955Y-136813697D01*
X189329955Y-136956554D01*
X188615669Y-137099411D01*
X189972812Y-137599411D02*
X189972812Y-136599411D01*
X189972812Y-136885126D02*
X190044240Y-136742269D01*
X190115669Y-136670840D01*
X190258526Y-136599411D01*
X190401383Y-136599411D01*
X192044240Y-137599411D02*
X192044240Y-136599411D01*
X192044240Y-136099411D02*
X191972811Y-136170840D01*
X192044240Y-136242269D01*
X192115668Y-136170840D01*
X192044240Y-136099411D01*
X192044240Y-136242269D01*
X192758526Y-137599411D02*
X192758526Y-136599411D01*
X192758526Y-136742269D02*
X192829954Y-136670840D01*
X192972812Y-136599411D01*
X193187097Y-136599411D01*
X193329954Y-136670840D01*
X193401383Y-136813697D01*
X193401383Y-137599411D01*
X193401383Y-136813697D02*
X193472812Y-136670840D01*
X193615669Y-136599411D01*
X193829954Y-136599411D01*
X193972812Y-136670840D01*
X194044240Y-136813697D01*
X194044240Y-137599411D01*
X194758526Y-136599411D02*
X194758526Y-138099411D01*
X194758526Y-136670840D02*
X194901383Y-136599411D01*
X195187097Y-136599411D01*
X195329954Y-136670840D01*
X195401383Y-136742269D01*
X195472812Y-136885126D01*
X195472812Y-137313697D01*
X195401383Y-137456554D01*
X195329954Y-137527983D01*
X195187097Y-137599411D01*
X194901383Y-137599411D01*
X194758526Y-137527983D01*
X196115669Y-137599411D02*
X196115669Y-136599411D01*
X196115669Y-136885126D02*
X196187097Y-136742269D01*
X196258526Y-136670840D01*
X196401383Y-136599411D01*
X196544240Y-136599411D01*
X197615668Y-137527983D02*
X197472811Y-137599411D01*
X197187097Y-137599411D01*
X197044240Y-137527983D01*
X196972811Y-137385126D01*
X196972811Y-136813697D01*
X197044240Y-136670840D01*
X197187097Y-136599411D01*
X197472811Y-136599411D01*
X197615668Y-136670840D01*
X197687097Y-136813697D01*
X197687097Y-136956554D01*
X196972811Y-137099411D01*
X198258525Y-137527983D02*
X198401382Y-137599411D01*
X198687097Y-137599411D01*
X198829954Y-137527983D01*
X198901382Y-137385126D01*
X198901382Y-137313697D01*
X198829954Y-137170840D01*
X198687097Y-137099411D01*
X198472811Y-137099411D01*
X198329954Y-137027983D01*
X198258525Y-136885126D01*
X198258525Y-136813697D01*
X198329954Y-136670840D01*
X198472811Y-136599411D01*
X198687097Y-136599411D01*
X198829954Y-136670840D01*
X199472811Y-137527983D02*
X199615668Y-137599411D01*
X199901383Y-137599411D01*
X200044240Y-137527983D01*
X200115668Y-137385126D01*
X200115668Y-137313697D01*
X200044240Y-137170840D01*
X199901383Y-137099411D01*
X199687097Y-137099411D01*
X199544240Y-137027983D01*
X199472811Y-136885126D01*
X199472811Y-136813697D01*
X199544240Y-136670840D01*
X199687097Y-136599411D01*
X199901383Y-136599411D01*
X200044240Y-136670840D01*
X200972812Y-137599411D02*
X200829954Y-137527983D01*
X200758526Y-137456554D01*
X200687097Y-137313697D01*
X200687097Y-136885126D01*
X200758526Y-136742269D01*
X200829954Y-136670840D01*
X200972812Y-136599411D01*
X201187097Y-136599411D01*
X201329954Y-136670840D01*
X201401383Y-136742269D01*
X201472812Y-136885126D01*
X201472812Y-137313697D01*
X201401383Y-137456554D01*
X201329954Y-137527983D01*
X201187097Y-137599411D01*
X200972812Y-137599411D01*
X203258526Y-136599411D02*
X203258526Y-137599411D01*
X203258526Y-136742269D02*
X203329954Y-136670840D01*
X203472812Y-136599411D01*
X203687097Y-136599411D01*
X203829954Y-136670840D01*
X203901383Y-136813697D01*
X203901383Y-137599411D01*
X204829955Y-137599411D02*
X204687097Y-137527983D01*
X204615669Y-137456554D01*
X204544240Y-137313697D01*
X204544240Y-136885126D01*
X204615669Y-136742269D01*
X204687097Y-136670840D01*
X204829955Y-136599411D01*
X205044240Y-136599411D01*
X205187097Y-136670840D01*
X205258526Y-136742269D01*
X205329955Y-136885126D01*
X205329955Y-137313697D01*
X205258526Y-137456554D01*
X205187097Y-137527983D01*
X205044240Y-137599411D01*
X204829955Y-137599411D01*
X207615669Y-136813697D02*
X207829955Y-136885126D01*
X207901383Y-136956554D01*
X207972812Y-137099411D01*
X207972812Y-137313697D01*
X207901383Y-137456554D01*
X207829955Y-137527983D01*
X207687097Y-137599411D01*
X207115669Y-137599411D01*
X207115669Y-136099411D01*
X207615669Y-136099411D01*
X207758526Y-136170840D01*
X207829955Y-136242269D01*
X207901383Y-136385126D01*
X207901383Y-136527983D01*
X207829955Y-136670840D01*
X207758526Y-136742269D01*
X207615669Y-136813697D01*
X207115669Y-136813697D01*
X208829955Y-137599411D02*
X208687097Y-137527983D01*
X208615669Y-137456554D01*
X208544240Y-137313697D01*
X208544240Y-136885126D01*
X208615669Y-136742269D01*
X208687097Y-136670840D01*
X208829955Y-136599411D01*
X209044240Y-136599411D01*
X209187097Y-136670840D01*
X209258526Y-136742269D01*
X209329955Y-136885126D01*
X209329955Y-137313697D01*
X209258526Y-137456554D01*
X209187097Y-137527983D01*
X209044240Y-137599411D01*
X208829955Y-137599411D01*
X209758526Y-136599411D02*
X210329955Y-136599411D01*
X209972812Y-136099411D02*
X209972812Y-137385126D01*
X210044240Y-137527983D01*
X210187098Y-137599411D01*
X210329955Y-137599411D01*
X210615669Y-136599411D02*
X211187098Y-136599411D01*
X210829955Y-136099411D02*
X210829955Y-137385126D01*
X210901383Y-137527983D01*
X211044241Y-137599411D01*
X211187098Y-137599411D01*
X211901384Y-137599411D02*
X211758526Y-137527983D01*
X211687098Y-137456554D01*
X211615669Y-137313697D01*
X211615669Y-136885126D01*
X211687098Y-136742269D01*
X211758526Y-136670840D01*
X211901384Y-136599411D01*
X212115669Y-136599411D01*
X212258526Y-136670840D01*
X212329955Y-136742269D01*
X212401384Y-136885126D01*
X212401384Y-137313697D01*
X212329955Y-137456554D01*
X212258526Y-137527983D01*
X212115669Y-137599411D01*
X211901384Y-137599411D01*
X213044241Y-137599411D02*
X213044241Y-136599411D01*
X213044241Y-136742269D02*
X213115669Y-136670840D01*
X213258527Y-136599411D01*
X213472812Y-136599411D01*
X213615669Y-136670840D01*
X213687098Y-136813697D01*
X213687098Y-137599411D01*
X213687098Y-136813697D02*
X213758527Y-136670840D01*
X213901384Y-136599411D01*
X214115669Y-136599411D01*
X214258527Y-136670840D01*
X214329955Y-136813697D01*
X214329955Y-137599411D01*
X216115669Y-137527983D02*
X216329955Y-137599411D01*
X216687098Y-137599411D01*
X216829955Y-137527983D01*
X216901384Y-137456554D01*
X216972812Y-137313697D01*
X216972812Y-137170840D01*
X216901384Y-137027983D01*
X216829955Y-136956554D01*
X216687098Y-136885126D01*
X216401384Y-136813697D01*
X216258526Y-136742269D01*
X216187098Y-136670840D01*
X216115669Y-136527983D01*
X216115669Y-136385126D01*
X216187098Y-136242269D01*
X216258526Y-136170840D01*
X216401384Y-136099411D01*
X216758526Y-136099411D01*
X216972812Y-136170840D01*
X217615669Y-137599411D02*
X217615669Y-136599411D01*
X217615669Y-136099411D02*
X217544240Y-136170840D01*
X217615669Y-136242269D01*
X217687097Y-136170840D01*
X217615669Y-136099411D01*
X217615669Y-136242269D01*
X218544241Y-137599411D02*
X218401383Y-137527983D01*
X218329955Y-137385126D01*
X218329955Y-136099411D01*
X219115669Y-137599411D02*
X219115669Y-136099411D01*
X219258526Y-137027983D02*
X219687097Y-137599411D01*
X219687097Y-136599411D02*
X219115669Y-137170840D01*
X207052954Y-103354486D02*
X207124383Y-103425915D01*
X207195811Y-103640201D01*
X207195811Y-103783058D01*
X207124383Y-103997343D01*
X206981526Y-104140201D01*
X206838669Y-104211629D01*
X206552954Y-104283058D01*
X206338669Y-104283058D01*
X206052954Y-104211629D01*
X205910097Y-104140201D01*
X205767240Y-103997343D01*
X205695811Y-103783058D01*
X205695811Y-103640201D01*
X205767240Y-103425915D01*
X205838669Y-103354486D01*
X205695811Y-102711629D02*
X206910097Y-102711629D01*
X207052954Y-102640201D01*
X207124383Y-102568772D01*
X207195811Y-102425915D01*
X207195811Y-102140201D01*
X207124383Y-101997343D01*
X207052954Y-101925915D01*
X206910097Y-101854486D01*
X205695811Y-101854486D01*
X205695811Y-101354486D02*
X205695811Y-100497343D01*
X207195811Y-100925914D02*
X205695811Y-100925914D01*
X206624383Y-99997343D02*
X206624383Y-98854486D01*
X205695811Y-97854486D02*
X205695811Y-97568772D01*
X205767240Y-97425914D01*
X205910097Y-97283057D01*
X206195811Y-97211629D01*
X206695811Y-97211629D01*
X206981526Y-97283057D01*
X207124383Y-97425914D01*
X207195811Y-97568772D01*
X207195811Y-97854486D01*
X207124383Y-97997343D01*
X206981526Y-98140200D01*
X206695811Y-98211629D01*
X206195811Y-98211629D01*
X205910097Y-98140200D01*
X205767240Y-97997343D01*
X205695811Y-97854486D01*
X205695811Y-96568771D02*
X206910097Y-96568771D01*
X207052954Y-96497343D01*
X207124383Y-96425914D01*
X207195811Y-96283057D01*
X207195811Y-95997343D01*
X207124383Y-95854485D01*
X207052954Y-95783057D01*
X206910097Y-95711628D01*
X205695811Y-95711628D01*
X205695811Y-95211628D02*
X205695811Y-94354485D01*
X207195811Y-94783056D02*
X205695811Y-94783056D01*
X227322154Y-103176686D02*
X227393583Y-103248115D01*
X227465011Y-103462401D01*
X227465011Y-103605258D01*
X227393583Y-103819543D01*
X227250726Y-103962401D01*
X227107869Y-104033829D01*
X226822154Y-104105258D01*
X226607869Y-104105258D01*
X226322154Y-104033829D01*
X226179297Y-103962401D01*
X226036440Y-103819543D01*
X225965011Y-103605258D01*
X225965011Y-103462401D01*
X226036440Y-103248115D01*
X226107869Y-103176686D01*
X225965011Y-102533829D02*
X227179297Y-102533829D01*
X227322154Y-102462401D01*
X227393583Y-102390972D01*
X227465011Y-102248115D01*
X227465011Y-101962401D01*
X227393583Y-101819543D01*
X227322154Y-101748115D01*
X227179297Y-101676686D01*
X225965011Y-101676686D01*
X225965011Y-101176686D02*
X225965011Y-100319543D01*
X227465011Y-100748114D02*
X225965011Y-100748114D01*
X226893583Y-99819543D02*
X226893583Y-98676686D01*
X225965011Y-97676686D02*
X225965011Y-97390972D01*
X226036440Y-97248114D01*
X226179297Y-97105257D01*
X226465011Y-97033829D01*
X226965011Y-97033829D01*
X227250726Y-97105257D01*
X227393583Y-97248114D01*
X227465011Y-97390972D01*
X227465011Y-97676686D01*
X227393583Y-97819543D01*
X227250726Y-97962400D01*
X226965011Y-98033829D01*
X226465011Y-98033829D01*
X226179297Y-97962400D01*
X226036440Y-97819543D01*
X225965011Y-97676686D01*
X225965011Y-96390971D02*
X227179297Y-96390971D01*
X227322154Y-96319543D01*
X227393583Y-96248114D01*
X227465011Y-96105257D01*
X227465011Y-95819543D01*
X227393583Y-95676685D01*
X227322154Y-95605257D01*
X227179297Y-95533828D01*
X225965011Y-95533828D01*
X225965011Y-95033828D02*
X225965011Y-94176685D01*
X227465011Y-94605256D02*
X225965011Y-94605256D01*
X227322154Y-82287726D02*
X227393583Y-82359155D01*
X227465011Y-82573441D01*
X227465011Y-82716298D01*
X227393583Y-82930583D01*
X227250726Y-83073441D01*
X227107869Y-83144869D01*
X226822154Y-83216298D01*
X226607869Y-83216298D01*
X226322154Y-83144869D01*
X226179297Y-83073441D01*
X226036440Y-82930583D01*
X225965011Y-82716298D01*
X225965011Y-82573441D01*
X226036440Y-82359155D01*
X226107869Y-82287726D01*
X225965011Y-81644869D02*
X227179297Y-81644869D01*
X227322154Y-81573441D01*
X227393583Y-81502012D01*
X227465011Y-81359155D01*
X227465011Y-81073441D01*
X227393583Y-80930583D01*
X227322154Y-80859155D01*
X227179297Y-80787726D01*
X225965011Y-80787726D01*
X225965011Y-80287726D02*
X225965011Y-79430583D01*
X227465011Y-79859154D02*
X225965011Y-79859154D01*
X226893583Y-78930583D02*
X226893583Y-77787726D01*
X225965011Y-76787726D02*
X225965011Y-76502012D01*
X226036440Y-76359154D01*
X226179297Y-76216297D01*
X226465011Y-76144869D01*
X226965011Y-76144869D01*
X227250726Y-76216297D01*
X227393583Y-76359154D01*
X227465011Y-76502012D01*
X227465011Y-76787726D01*
X227393583Y-76930583D01*
X227250726Y-77073440D01*
X226965011Y-77144869D01*
X226465011Y-77144869D01*
X226179297Y-77073440D01*
X226036440Y-76930583D01*
X225965011Y-76787726D01*
X225965011Y-75502011D02*
X227179297Y-75502011D01*
X227322154Y-75430583D01*
X227393583Y-75359154D01*
X227465011Y-75216297D01*
X227465011Y-74930583D01*
X227393583Y-74787725D01*
X227322154Y-74716297D01*
X227179297Y-74644868D01*
X225965011Y-74644868D01*
X225965011Y-74144868D02*
X225965011Y-73287725D01*
X227465011Y-73716296D02*
X225965011Y-73716296D01*
X206961514Y-82287726D02*
X207032943Y-82359155D01*
X207104371Y-82573441D01*
X207104371Y-82716298D01*
X207032943Y-82930583D01*
X206890086Y-83073441D01*
X206747229Y-83144869D01*
X206461514Y-83216298D01*
X206247229Y-83216298D01*
X205961514Y-83144869D01*
X205818657Y-83073441D01*
X205675800Y-82930583D01*
X205604371Y-82716298D01*
X205604371Y-82573441D01*
X205675800Y-82359155D01*
X205747229Y-82287726D01*
X205604371Y-81644869D02*
X206818657Y-81644869D01*
X206961514Y-81573441D01*
X207032943Y-81502012D01*
X207104371Y-81359155D01*
X207104371Y-81073441D01*
X207032943Y-80930583D01*
X206961514Y-80859155D01*
X206818657Y-80787726D01*
X205604371Y-80787726D01*
X205604371Y-80287726D02*
X205604371Y-79430583D01*
X207104371Y-79859154D02*
X205604371Y-79859154D01*
X206532943Y-78930583D02*
X206532943Y-77787726D01*
X205604371Y-76787726D02*
X205604371Y-76502012D01*
X205675800Y-76359154D01*
X205818657Y-76216297D01*
X206104371Y-76144869D01*
X206604371Y-76144869D01*
X206890086Y-76216297D01*
X207032943Y-76359154D01*
X207104371Y-76502012D01*
X207104371Y-76787726D01*
X207032943Y-76930583D01*
X206890086Y-77073440D01*
X206604371Y-77144869D01*
X206104371Y-77144869D01*
X205818657Y-77073440D01*
X205675800Y-76930583D01*
X205604371Y-76787726D01*
X205604371Y-75502011D02*
X206818657Y-75502011D01*
X206961514Y-75430583D01*
X207032943Y-75359154D01*
X207104371Y-75216297D01*
X207104371Y-74930583D01*
X207032943Y-74787725D01*
X206961514Y-74716297D01*
X206818657Y-74644868D01*
X205604371Y-74644868D01*
X205604371Y-74144868D02*
X205604371Y-73287725D01*
X207104371Y-73716296D02*
X205604371Y-73716296D01*
X187225714Y-103176686D02*
X187297143Y-103248115D01*
X187368571Y-103462401D01*
X187368571Y-103605258D01*
X187297143Y-103819543D01*
X187154286Y-103962401D01*
X187011429Y-104033829D01*
X186725714Y-104105258D01*
X186511429Y-104105258D01*
X186225714Y-104033829D01*
X186082857Y-103962401D01*
X185940000Y-103819543D01*
X185868571Y-103605258D01*
X185868571Y-103462401D01*
X185940000Y-103248115D01*
X186011429Y-103176686D01*
X185868571Y-102533829D02*
X187082857Y-102533829D01*
X187225714Y-102462401D01*
X187297143Y-102390972D01*
X187368571Y-102248115D01*
X187368571Y-101962401D01*
X187297143Y-101819543D01*
X187225714Y-101748115D01*
X187082857Y-101676686D01*
X185868571Y-101676686D01*
X185868571Y-101176686D02*
X185868571Y-100319543D01*
X187368571Y-100748114D02*
X185868571Y-100748114D01*
X186797143Y-99819543D02*
X186797143Y-98676686D01*
X185868571Y-97676686D02*
X185868571Y-97390972D01*
X185940000Y-97248114D01*
X186082857Y-97105257D01*
X186368571Y-97033829D01*
X186868571Y-97033829D01*
X187154286Y-97105257D01*
X187297143Y-97248114D01*
X187368571Y-97390972D01*
X187368571Y-97676686D01*
X187297143Y-97819543D01*
X187154286Y-97962400D01*
X186868571Y-98033829D01*
X186368571Y-98033829D01*
X186082857Y-97962400D01*
X185940000Y-97819543D01*
X185868571Y-97676686D01*
X185868571Y-96390971D02*
X187082857Y-96390971D01*
X187225714Y-96319543D01*
X187297143Y-96248114D01*
X187368571Y-96105257D01*
X187368571Y-95819543D01*
X187297143Y-95676685D01*
X187225714Y-95605257D01*
X187082857Y-95533828D01*
X185868571Y-95533828D01*
X185868571Y-95033828D02*
X185868571Y-94176685D01*
X187368571Y-94605256D02*
X185868571Y-94605256D01*
X167312114Y-103354486D02*
X167383543Y-103425915D01*
X167454971Y-103640201D01*
X167454971Y-103783058D01*
X167383543Y-103997343D01*
X167240686Y-104140201D01*
X167097829Y-104211629D01*
X166812114Y-104283058D01*
X166597829Y-104283058D01*
X166312114Y-104211629D01*
X166169257Y-104140201D01*
X166026400Y-103997343D01*
X165954971Y-103783058D01*
X165954971Y-103640201D01*
X166026400Y-103425915D01*
X166097829Y-103354486D01*
X165954971Y-102711629D02*
X167169257Y-102711629D01*
X167312114Y-102640201D01*
X167383543Y-102568772D01*
X167454971Y-102425915D01*
X167454971Y-102140201D01*
X167383543Y-101997343D01*
X167312114Y-101925915D01*
X167169257Y-101854486D01*
X165954971Y-101854486D01*
X165954971Y-101354486D02*
X165954971Y-100497343D01*
X167454971Y-100925914D02*
X165954971Y-100925914D01*
X166883543Y-99997343D02*
X166883543Y-98854486D01*
X165954971Y-97854486D02*
X165954971Y-97568772D01*
X166026400Y-97425914D01*
X166169257Y-97283057D01*
X166454971Y-97211629D01*
X166954971Y-97211629D01*
X167240686Y-97283057D01*
X167383543Y-97425914D01*
X167454971Y-97568772D01*
X167454971Y-97854486D01*
X167383543Y-97997343D01*
X167240686Y-98140200D01*
X166954971Y-98211629D01*
X166454971Y-98211629D01*
X166169257Y-98140200D01*
X166026400Y-97997343D01*
X165954971Y-97854486D01*
X165954971Y-96568771D02*
X167169257Y-96568771D01*
X167312114Y-96497343D01*
X167383543Y-96425914D01*
X167454971Y-96283057D01*
X167454971Y-95997343D01*
X167383543Y-95854485D01*
X167312114Y-95783057D01*
X167169257Y-95711628D01*
X165954971Y-95711628D01*
X165954971Y-95211628D02*
X165954971Y-94354485D01*
X167454971Y-94783056D02*
X165954971Y-94783056D01*
X187225714Y-82109926D02*
X187297143Y-82181355D01*
X187368571Y-82395641D01*
X187368571Y-82538498D01*
X187297143Y-82752783D01*
X187154286Y-82895641D01*
X187011429Y-82967069D01*
X186725714Y-83038498D01*
X186511429Y-83038498D01*
X186225714Y-82967069D01*
X186082857Y-82895641D01*
X185940000Y-82752783D01*
X185868571Y-82538498D01*
X185868571Y-82395641D01*
X185940000Y-82181355D01*
X186011429Y-82109926D01*
X185868571Y-81467069D02*
X187082857Y-81467069D01*
X187225714Y-81395641D01*
X187297143Y-81324212D01*
X187368571Y-81181355D01*
X187368571Y-80895641D01*
X187297143Y-80752783D01*
X187225714Y-80681355D01*
X187082857Y-80609926D01*
X185868571Y-80609926D01*
X185868571Y-80109926D02*
X185868571Y-79252783D01*
X187368571Y-79681354D02*
X185868571Y-79681354D01*
X186797143Y-78752783D02*
X186797143Y-77609926D01*
X185868571Y-76609926D02*
X185868571Y-76324212D01*
X185940000Y-76181354D01*
X186082857Y-76038497D01*
X186368571Y-75967069D01*
X186868571Y-75967069D01*
X187154286Y-76038497D01*
X187297143Y-76181354D01*
X187368571Y-76324212D01*
X187368571Y-76609926D01*
X187297143Y-76752783D01*
X187154286Y-76895640D01*
X186868571Y-76967069D01*
X186368571Y-76967069D01*
X186082857Y-76895640D01*
X185940000Y-76752783D01*
X185868571Y-76609926D01*
X185868571Y-75324211D02*
X187082857Y-75324211D01*
X187225714Y-75252783D01*
X187297143Y-75181354D01*
X187368571Y-75038497D01*
X187368571Y-74752783D01*
X187297143Y-74609925D01*
X187225714Y-74538497D01*
X187082857Y-74467068D01*
X185868571Y-74467068D01*
X185868571Y-73967068D02*
X185868571Y-73109925D01*
X187368571Y-73538496D02*
X185868571Y-73538496D01*
X167134314Y-82109926D02*
X167205743Y-82181355D01*
X167277171Y-82395641D01*
X167277171Y-82538498D01*
X167205743Y-82752783D01*
X167062886Y-82895641D01*
X166920029Y-82967069D01*
X166634314Y-83038498D01*
X166420029Y-83038498D01*
X166134314Y-82967069D01*
X165991457Y-82895641D01*
X165848600Y-82752783D01*
X165777171Y-82538498D01*
X165777171Y-82395641D01*
X165848600Y-82181355D01*
X165920029Y-82109926D01*
X165777171Y-81467069D02*
X166991457Y-81467069D01*
X167134314Y-81395641D01*
X167205743Y-81324212D01*
X167277171Y-81181355D01*
X167277171Y-80895641D01*
X167205743Y-80752783D01*
X167134314Y-80681355D01*
X166991457Y-80609926D01*
X165777171Y-80609926D01*
X165777171Y-80109926D02*
X165777171Y-79252783D01*
X167277171Y-79681354D02*
X165777171Y-79681354D01*
X166705743Y-78752783D02*
X166705743Y-77609926D01*
X165777171Y-76609926D02*
X165777171Y-76324212D01*
X165848600Y-76181354D01*
X165991457Y-76038497D01*
X166277171Y-75967069D01*
X166777171Y-75967069D01*
X167062886Y-76038497D01*
X167205743Y-76181354D01*
X167277171Y-76324212D01*
X167277171Y-76609926D01*
X167205743Y-76752783D01*
X167062886Y-76895640D01*
X166777171Y-76967069D01*
X166277171Y-76967069D01*
X165991457Y-76895640D01*
X165848600Y-76752783D01*
X165777171Y-76609926D01*
X165777171Y-75324211D02*
X166991457Y-75324211D01*
X167134314Y-75252783D01*
X167205743Y-75181354D01*
X167277171Y-75038497D01*
X167277171Y-74752783D01*
X167205743Y-74609925D01*
X167134314Y-74538497D01*
X166991457Y-74467068D01*
X165777171Y-74467068D01*
X165777171Y-73967068D02*
X165777171Y-73109925D01*
X167277171Y-73538496D02*
X165777171Y-73538496D01*
M02*
