M48
;DRILL file {Pcbnew (2012-01-19 BZR 3256)-stable} date 23/11/2012 15:29:51
;FORMAT={-:-/ absolute / inch / decimal}
FMAT,2
INCH,TZ
T1C0.025
T2C0.032
T3C0.032
T4C0.040
T5C0.118
T6C0.138
%
G90
G05
M72
T1
X1.715Y-4.965
X1.835Y-3.970
X1.855Y-3.790
X1.855Y-4.975
X1.870Y-3.555
X1.878Y-3.225
X1.885Y-3.430
X1.900Y-4.220
X1.910Y-3.985
X1.935Y-4.615
X1.945Y-3.920
X1.960Y-3.540
X1.970Y-3.985
X1.990Y-5.115
X2.060Y-3.570
X2.145Y-5.110
X2.290Y-3.315
X2.290Y-3.665
X2.335Y-4.230
X2.340Y-3.980
X2.405Y-3.800
X2.440Y-3.278
X2.460Y-4.229
X2.475Y-4.346
X2.535Y-3.745
X2.535Y-4.160
X2.550Y-3.295
X2.595Y-4.995
X2.615Y-3.295
X2.625Y-3.530
X2.630Y-3.460
X2.640Y-3.880
X2.661Y-4.602
X2.700Y-3.290
X2.720Y-4.497
X2.750Y-4.071
X2.900Y-4.494
X2.941Y-5.039
X3.014Y-4.191
X3.028Y-5.541
X3.041Y-4.831
X3.093Y-4.187
X3.104Y-4.587
X3.143Y-4.221
X3.170Y-4.433
X3.285Y-4.422
X3.313Y-4.189
X3.354Y-4.413
X3.360Y-4.689
X3.385Y-5.000
X3.438Y-4.561
X3.483Y-3.543
X3.588Y-4.472
X3.630Y-4.812
X3.644Y-5.211
X3.684Y-3.863
X3.697Y-3.663
X3.702Y-3.763
X3.710Y-3.963
X3.719Y-4.063
X3.801Y-3.471
X3.805Y-3.396
X3.819Y-3.286
X3.841Y-4.679
X4.114Y-4.147
X4.140Y-3.006
X4.199Y-4.984
X4.242Y-4.293
X4.308Y-4.339
X4.417Y-4.846
X4.506Y-3.339
X4.506Y-3.616
X4.554Y-4.529
X4.596Y-4.577
X4.616Y-3.672
X4.764Y-2.900
X4.811Y-5.341
X4.826Y-4.417
X4.846Y-3.446
X4.857Y-4.987
X4.991Y-4.493
X5.010Y-5.128
X5.084Y-4.813
X5.142Y-5.142
X5.165Y-3.540
X5.210Y-3.654
X5.259Y-3.698
X5.307Y-3.762
X5.317Y-2.792
X5.435Y-3.296
T3
X1.925Y-2.775
X1.961Y-2.875
X2.005Y-2.775
X2.030Y-5.225
X2.045Y-2.875
X2.070Y-5.325
X2.114Y-5.225
X2.150Y-5.325
X2.580Y-2.775
X2.616Y-2.875
X2.660Y-2.775
X2.665Y-5.230
X2.700Y-2.875
X2.705Y-5.330
X2.749Y-5.230
X2.785Y-5.330
X3.220Y-2.780
X3.256Y-2.880
X3.300Y-2.780
X3.300Y-5.235
X3.340Y-2.880
X3.340Y-5.335
X3.384Y-5.235
X3.420Y-5.335
X3.870Y-2.785
X3.906Y-2.885
X3.935Y-5.240
X3.950Y-2.785
X3.975Y-5.340
X3.990Y-2.885
X4.019Y-5.240
X4.055Y-5.340
X5.434Y-3.592
X5.434Y-3.692
X5.434Y-3.792
X5.434Y-4.280
X5.434Y-4.380
X5.434Y-4.480
X5.534Y-3.542
X5.534Y-3.642
X5.534Y-3.742
X5.534Y-4.230
X5.534Y-4.330
X5.534Y-4.430
T4
X3.360Y-3.663
X3.360Y-3.763
X3.360Y-3.863
X3.360Y-3.963
X3.360Y-4.063
X3.415Y-4.222
X3.460Y-3.663
X3.460Y-3.763
X3.460Y-3.863
X3.460Y-3.963
X3.460Y-4.063
X3.612Y-3.139
X3.612Y-3.239
X3.612Y-3.339
X3.612Y-3.439
X3.612Y-3.539
X3.712Y-3.139
X3.712Y-3.239
X3.712Y-3.339
X3.712Y-3.439
X3.712Y-3.539
T5
X1.763Y-2.695
X1.840Y-5.405
X2.235Y-2.695
X2.312Y-5.405
X2.418Y-2.695
X2.475Y-5.410
X2.890Y-2.695
X2.947Y-5.410
X3.058Y-2.700
X3.110Y-5.415
X3.530Y-2.700
X3.582Y-5.415
X3.708Y-2.705
X3.745Y-5.420
X4.180Y-2.705
X4.217Y-5.420
T6
X5.800Y-3.473
X5.800Y-3.861
X5.800Y-4.161
X5.800Y-4.549
T2
X5.339Y-5.262G85X5.339Y-5.156
G05
X5.480Y-5.020G85X5.394Y-5.020
G05
X5.575Y-5.252G85X5.575Y-5.165
G05
T0
M30
