G04 #@! TF.FileFunction,Legend,Top*
%FSLAX46Y46*%
G04 Gerber Fmt 4.6, Leading zero omitted, Abs format (unit mm)*
G04 Created by KiCad (PCBNEW 4.0.4+e1-6308~48~ubuntu15.10.1-stable) date Tue Nov  7 09:16:07 2017*
%MOMM*%
%LPD*%
G01*
G04 APERTURE LIST*
%ADD10C,0.100000*%
%ADD11C,0.300000*%
%ADD12C,1.300000*%
%ADD13C,0.200000*%
%ADD14C,0.010000*%
G04 APERTURE END LIST*
D10*
D11*
X49520037Y-81711029D02*
X49386108Y-81639600D01*
X49323609Y-81568171D01*
X49270037Y-81425314D01*
X49278965Y-81353886D01*
X49368251Y-81211029D01*
X49448608Y-81139600D01*
X49600395Y-81068171D01*
X49886109Y-81068171D01*
X50020037Y-81139600D01*
X50082537Y-81211029D01*
X50136108Y-81353886D01*
X50127180Y-81425314D01*
X50037895Y-81568171D01*
X49957537Y-81639600D01*
X49805751Y-81711029D01*
X49520037Y-81711029D01*
X49368251Y-81782457D01*
X49287894Y-81853886D01*
X49198608Y-81996743D01*
X49162894Y-82282457D01*
X49216466Y-82425314D01*
X49278965Y-82496743D01*
X49412895Y-82568171D01*
X49698609Y-82568171D01*
X49850394Y-82496743D01*
X49930752Y-82425314D01*
X50020037Y-82282457D01*
X50055751Y-81996743D01*
X50002180Y-81853886D01*
X49939680Y-81782457D01*
X49805751Y-81711029D01*
X50698608Y-81996743D02*
X51841465Y-81996743D01*
X53136108Y-82496743D02*
X52984323Y-82568171D01*
X52698609Y-82568171D01*
X52564679Y-82496743D01*
X52502180Y-82425314D01*
X52448608Y-82282457D01*
X52502179Y-81853886D01*
X52591465Y-81711029D01*
X52671822Y-81639600D01*
X52823609Y-81568171D01*
X53109323Y-81568171D01*
X53243251Y-81639600D01*
X53770037Y-82568171D02*
X53957537Y-81068171D01*
X54412894Y-82568171D02*
X54511108Y-81782457D01*
X54457536Y-81639600D01*
X54323608Y-81568171D01*
X54109323Y-81568171D01*
X53957536Y-81639600D01*
X53877179Y-81711029D01*
X55770037Y-82568171D02*
X55868251Y-81782457D01*
X55814679Y-81639600D01*
X55680751Y-81568171D01*
X55395037Y-81568171D01*
X55243251Y-81639600D01*
X55778965Y-82496743D02*
X55627180Y-82568171D01*
X55270037Y-82568171D01*
X55136108Y-82496743D01*
X55082536Y-82353886D01*
X55100393Y-82211029D01*
X55189680Y-82068171D01*
X55341465Y-81996743D01*
X55698608Y-81996743D01*
X55850394Y-81925314D01*
X56609323Y-81568171D02*
X56484323Y-82568171D01*
X56591465Y-81711029D02*
X56671822Y-81639600D01*
X56823609Y-81568171D01*
X57037894Y-81568171D01*
X57171822Y-81639600D01*
X57225394Y-81782457D01*
X57127180Y-82568171D01*
X57966466Y-81568171D02*
X57841466Y-82568171D01*
X57948608Y-81711029D02*
X58028965Y-81639600D01*
X58180752Y-81568171D01*
X58395037Y-81568171D01*
X58528965Y-81639600D01*
X58582537Y-81782457D01*
X58484323Y-82568171D01*
X59778965Y-82496743D02*
X59627180Y-82568171D01*
X59341466Y-82568171D01*
X59207537Y-82496743D01*
X59153965Y-82353886D01*
X59225394Y-81782457D01*
X59314680Y-81639600D01*
X59466466Y-81568171D01*
X59752180Y-81568171D01*
X59886108Y-81639600D01*
X59939680Y-81782457D01*
X59921823Y-81925314D01*
X59189680Y-82068171D01*
X60698609Y-82568171D02*
X60564679Y-82496743D01*
X60511108Y-82353886D01*
X60671823Y-81068171D01*
X62412894Y-82568171D02*
X62600394Y-81068171D01*
X63171822Y-81068171D01*
X63305751Y-81139600D01*
X63368250Y-81211029D01*
X63421822Y-81353886D01*
X63395037Y-81568171D01*
X63305750Y-81711029D01*
X63225394Y-81782457D01*
X63073607Y-81853886D01*
X62502179Y-81853886D01*
X63823608Y-81568171D02*
X64395037Y-81568171D01*
X64100394Y-81068171D02*
X63939679Y-82353886D01*
X63993250Y-82496743D01*
X64127180Y-82568171D01*
X64270037Y-82568171D01*
X65555751Y-82568171D02*
X64698608Y-82568171D01*
X65127180Y-82568171D02*
X65314680Y-81068171D01*
X65145037Y-81282457D01*
X64984322Y-81425314D01*
X64832536Y-81496743D01*
X66671822Y-81068171D02*
X66814679Y-81068171D01*
X66948607Y-81139600D01*
X67011107Y-81211029D01*
X67064679Y-81353886D01*
X67100393Y-81639600D01*
X67055750Y-81996743D01*
X66948608Y-82282457D01*
X66859322Y-82425314D01*
X66778964Y-82496743D01*
X66627179Y-82568171D01*
X66484322Y-82568171D01*
X66350393Y-82496743D01*
X66287893Y-82425314D01*
X66234322Y-82282457D01*
X66198607Y-81996743D01*
X66243250Y-81639600D01*
X66350393Y-81353886D01*
X66439678Y-81211029D01*
X66520036Y-81139600D01*
X66671822Y-81068171D01*
X68100393Y-81068171D02*
X68243250Y-81068171D01*
X68377178Y-81139600D01*
X68439678Y-81211029D01*
X68493250Y-81353886D01*
X68528964Y-81639600D01*
X68484321Y-81996743D01*
X68377179Y-82282457D01*
X68287893Y-82425314D01*
X68207535Y-82496743D01*
X68055750Y-82568171D01*
X67912893Y-82568171D01*
X67778964Y-82496743D01*
X67716464Y-82425314D01*
X67662893Y-82282457D01*
X67627178Y-81996743D01*
X67671821Y-81639600D01*
X67778964Y-81353886D01*
X67868249Y-81211029D01*
X67948607Y-81139600D01*
X68100393Y-81068171D01*
X69127178Y-81996743D02*
X70270035Y-81996743D01*
X70912893Y-82568171D02*
X71100393Y-81068171D01*
X71028964Y-81639600D02*
X71180750Y-81568171D01*
X71466464Y-81568171D01*
X71600392Y-81639600D01*
X71662892Y-81711029D01*
X71716464Y-81853886D01*
X71662893Y-82282457D01*
X71573607Y-82425314D01*
X71493249Y-82496743D01*
X71341464Y-82568171D01*
X71055750Y-82568171D01*
X70921821Y-82496743D01*
X72912893Y-82568171D02*
X73011107Y-81782457D01*
X72957535Y-81639600D01*
X72823607Y-81568171D01*
X72537893Y-81568171D01*
X72386107Y-81639600D01*
X72921821Y-82496743D02*
X72770036Y-82568171D01*
X72412893Y-82568171D01*
X72278964Y-82496743D01*
X72225392Y-82353886D01*
X72243249Y-82211029D01*
X72332536Y-82068171D01*
X72484321Y-81996743D01*
X72841464Y-81996743D01*
X72993250Y-81925314D01*
X73564678Y-82496743D02*
X73698607Y-82568171D01*
X73984322Y-82568171D01*
X74136107Y-82496743D01*
X74225392Y-82353886D01*
X74234321Y-82282457D01*
X74180750Y-82139600D01*
X74046822Y-82068171D01*
X73832536Y-82068171D01*
X73698607Y-81996743D01*
X73645035Y-81853886D01*
X73653964Y-81782457D01*
X73743250Y-81639600D01*
X73895036Y-81568171D01*
X74109322Y-81568171D01*
X74243250Y-81639600D01*
X75421821Y-82496743D02*
X75270036Y-82568171D01*
X74984322Y-82568171D01*
X74850393Y-82496743D01*
X74796821Y-82353886D01*
X74868250Y-81782457D01*
X74957536Y-81639600D01*
X75109322Y-81568171D01*
X75395036Y-81568171D01*
X75528964Y-81639600D01*
X75582536Y-81782457D01*
X75564679Y-81925314D01*
X74832536Y-82068171D01*
X76770036Y-82568171D02*
X76957536Y-81068171D01*
X76778964Y-82496743D02*
X76627179Y-82568171D01*
X76341465Y-82568171D01*
X76207535Y-82496743D01*
X76145036Y-82425314D01*
X76091464Y-82282457D01*
X76145035Y-81853886D01*
X76234321Y-81711029D01*
X76314678Y-81639600D01*
X76466465Y-81568171D01*
X76752179Y-81568171D01*
X76886107Y-81639600D01*
X78600393Y-81068171D02*
X79457536Y-81068171D01*
X78841465Y-82568171D02*
X79028965Y-81068171D01*
X80350392Y-82496743D02*
X80198607Y-82568171D01*
X79912893Y-82568171D01*
X79778964Y-82496743D01*
X79725392Y-82353886D01*
X79796821Y-81782457D01*
X79886107Y-81639600D01*
X80037893Y-81568171D01*
X80323607Y-81568171D01*
X80457535Y-81639600D01*
X80511107Y-81782457D01*
X80493250Y-81925314D01*
X79761107Y-82068171D01*
X81055750Y-82568171D02*
X81180750Y-81568171D01*
X81162892Y-81711029D02*
X81243249Y-81639600D01*
X81395036Y-81568171D01*
X81609321Y-81568171D01*
X81743249Y-81639600D01*
X81796821Y-81782457D01*
X81698607Y-82568171D01*
X81796821Y-81782457D02*
X81886107Y-81639600D01*
X82037893Y-81568171D01*
X82252178Y-81568171D01*
X82386107Y-81639600D01*
X82439678Y-81782457D01*
X82341464Y-82568171D01*
X83180750Y-81568171D02*
X82993250Y-83068171D01*
X83171821Y-81639600D02*
X83323607Y-81568171D01*
X83609321Y-81568171D01*
X83743249Y-81639600D01*
X83805749Y-81711029D01*
X83859321Y-81853886D01*
X83805750Y-82282457D01*
X83716464Y-82425314D01*
X83636106Y-82496743D01*
X83484321Y-82568171D01*
X83198607Y-82568171D01*
X83064678Y-82496743D01*
X84993249Y-82496743D02*
X84841464Y-82568171D01*
X84555750Y-82568171D01*
X84421821Y-82496743D01*
X84368249Y-82353886D01*
X84439678Y-81782457D01*
X84528964Y-81639600D01*
X84680750Y-81568171D01*
X84966464Y-81568171D01*
X85100392Y-81639600D01*
X85153964Y-81782457D01*
X85136107Y-81925314D01*
X84403964Y-82068171D01*
X85698607Y-82568171D02*
X85823607Y-81568171D01*
X85787892Y-81853886D02*
X85877177Y-81711029D01*
X85957535Y-81639600D01*
X86109321Y-81568171D01*
X86252178Y-81568171D01*
X87270035Y-82568171D02*
X87368249Y-81782457D01*
X87314677Y-81639600D01*
X87180749Y-81568171D01*
X86895035Y-81568171D01*
X86743249Y-81639600D01*
X87278963Y-82496743D02*
X87127178Y-82568171D01*
X86770035Y-82568171D01*
X86636106Y-82496743D01*
X86582534Y-82353886D01*
X86600391Y-82211029D01*
X86689678Y-82068171D01*
X86841463Y-81996743D01*
X87198606Y-81996743D01*
X87350392Y-81925314D01*
X87895035Y-81568171D02*
X88466464Y-81568171D01*
X88171821Y-81068171D02*
X88011106Y-82353886D01*
X88064677Y-82496743D01*
X88198607Y-82568171D01*
X88341464Y-82568171D01*
X89609321Y-81568171D02*
X89484321Y-82568171D01*
X88966464Y-81568171D02*
X88868249Y-82353886D01*
X88921820Y-82496743D01*
X89055750Y-82568171D01*
X89270035Y-82568171D01*
X89421820Y-82496743D01*
X89502178Y-82425314D01*
X90198607Y-82568171D02*
X90323607Y-81568171D01*
X90287892Y-81853886D02*
X90377177Y-81711029D01*
X90457535Y-81639600D01*
X90609321Y-81568171D01*
X90752178Y-81568171D01*
X91707534Y-82496743D02*
X91555749Y-82568171D01*
X91270035Y-82568171D01*
X91136106Y-82496743D01*
X91082534Y-82353886D01*
X91153963Y-81782457D01*
X91243249Y-81639600D01*
X91395035Y-81568171D01*
X91680749Y-81568171D01*
X91814677Y-81639600D01*
X91868249Y-81782457D01*
X91850392Y-81925314D01*
X91118249Y-82068171D01*
X93555749Y-82568171D02*
X93743249Y-81068171D01*
X94109320Y-82139600D01*
X94743249Y-81068171D01*
X94555749Y-82568171D01*
X95484321Y-82568171D02*
X95350391Y-82496743D01*
X95287892Y-82425314D01*
X95234320Y-82282457D01*
X95287891Y-81853886D01*
X95377177Y-81711029D01*
X95457534Y-81639600D01*
X95609321Y-81568171D01*
X95823606Y-81568171D01*
X95957534Y-81639600D01*
X96020034Y-81711029D01*
X96073606Y-81853886D01*
X96020035Y-82282457D01*
X95930749Y-82425314D01*
X95850391Y-82496743D01*
X95698606Y-82568171D01*
X95484321Y-82568171D01*
X96752178Y-81568171D02*
X96627178Y-82568171D01*
X96734320Y-81711029D02*
X96814677Y-81639600D01*
X96966464Y-81568171D01*
X97180749Y-81568171D01*
X97314677Y-81639600D01*
X97368249Y-81782457D01*
X97270035Y-82568171D01*
X97984321Y-82568171D02*
X98109321Y-81568171D01*
X98171821Y-81068171D02*
X98091463Y-81139600D01*
X98153963Y-81211029D01*
X98234320Y-81139600D01*
X98171821Y-81068171D01*
X98153963Y-81211029D01*
X98609321Y-81568171D02*
X99180750Y-81568171D01*
X98886107Y-81068171D02*
X98725392Y-82353886D01*
X98778963Y-82496743D01*
X98912893Y-82568171D01*
X99055750Y-82568171D01*
X99770036Y-82568171D02*
X99636106Y-82496743D01*
X99573607Y-82425314D01*
X99520035Y-82282457D01*
X99573606Y-81853886D01*
X99662892Y-81711029D01*
X99743249Y-81639600D01*
X99895036Y-81568171D01*
X100109321Y-81568171D01*
X100243249Y-81639600D01*
X100305749Y-81711029D01*
X100359321Y-81853886D01*
X100305750Y-82282457D01*
X100216464Y-82425314D01*
X100136106Y-82496743D01*
X99984321Y-82568171D01*
X99770036Y-82568171D01*
X100912893Y-82568171D02*
X101037893Y-81568171D01*
X101002178Y-81853886D02*
X101091463Y-81711029D01*
X101171821Y-81639600D01*
X101323607Y-81568171D01*
X101466464Y-81568171D01*
X101841464Y-82568171D02*
X101966464Y-81568171D01*
X102028964Y-81068171D02*
X101948606Y-81139600D01*
X102011106Y-81211029D01*
X102091463Y-81139600D01*
X102028964Y-81068171D01*
X102011106Y-81211029D01*
X102680750Y-81568171D02*
X102555750Y-82568171D01*
X102662892Y-81711029D02*
X102743249Y-81639600D01*
X102895036Y-81568171D01*
X103109321Y-81568171D01*
X103243249Y-81639600D01*
X103296821Y-81782457D01*
X103198607Y-82568171D01*
X104680750Y-81568171D02*
X104528964Y-82782457D01*
X104439678Y-82925314D01*
X104359321Y-82996743D01*
X104207536Y-83068171D01*
X103993250Y-83068171D01*
X103859321Y-82996743D01*
X104564678Y-82496743D02*
X104412893Y-82568171D01*
X104127179Y-82568171D01*
X103993249Y-82496743D01*
X103930750Y-82425314D01*
X103877178Y-82282457D01*
X103930749Y-81853886D01*
X104020035Y-81711029D01*
X104100392Y-81639600D01*
X104252179Y-81568171D01*
X104537893Y-81568171D01*
X104671821Y-81639600D01*
D12*
X57882668Y-76572667D02*
X57882668Y-69572667D01*
X60216001Y-74572667D01*
X62549334Y-69572667D01*
X62549334Y-76572667D01*
X68216001Y-72906000D02*
X69216001Y-73239333D01*
X69549334Y-73572667D01*
X69882668Y-74239333D01*
X69882668Y-75239333D01*
X69549334Y-75906000D01*
X69216001Y-76239333D01*
X68549334Y-76572667D01*
X65882668Y-76572667D01*
X65882668Y-69572667D01*
X68216001Y-69572667D01*
X68882668Y-69906000D01*
X69216001Y-70239333D01*
X69549334Y-70906000D01*
X69549334Y-71572667D01*
X69216001Y-72239333D01*
X68882668Y-72572667D01*
X68216001Y-72906000D01*
X65882668Y-72906000D01*
X71882668Y-69572667D02*
X75882668Y-69572667D01*
X73882668Y-76572667D02*
X73882668Y-69572667D01*
X80882667Y-76239333D02*
X80216001Y-76572667D01*
X78882667Y-76572667D01*
X78216001Y-76239333D01*
X77882667Y-75572667D01*
X77882667Y-72906000D01*
X78216001Y-72239333D01*
X78882667Y-71906000D01*
X80216001Y-71906000D01*
X80882667Y-72239333D01*
X81216001Y-72906000D01*
X81216001Y-73572667D01*
X77882667Y-74239333D01*
X84216001Y-76572667D02*
X84216001Y-71906000D01*
X84216001Y-72572667D02*
X84549334Y-72239333D01*
X85216001Y-71906000D01*
X86216001Y-71906000D01*
X86882667Y-72239333D01*
X87216001Y-72906000D01*
X87216001Y-76572667D01*
X87216001Y-72906000D02*
X87549334Y-72239333D01*
X88216001Y-71906000D01*
X89216001Y-71906000D01*
X89882667Y-72239333D01*
X90216001Y-72906000D01*
X90216001Y-76572667D01*
X93549334Y-71906000D02*
X93549334Y-78906000D01*
X93549334Y-72239333D02*
X94216000Y-71906000D01*
X95549334Y-71906000D01*
X96216000Y-72239333D01*
X96549334Y-72572667D01*
X96882667Y-73239333D01*
X96882667Y-75239333D01*
X96549334Y-75906000D01*
X96216000Y-76239333D01*
X95549334Y-76572667D01*
X94216000Y-76572667D01*
X93549334Y-76239333D01*
D13*
X55712360Y-92974160D02*
X71638160Y-92974160D01*
D11*
X55716839Y-92322253D02*
X55716839Y-90922253D01*
X56183506Y-91922253D01*
X56650173Y-90922253D01*
X56650173Y-92322253D01*
X57516839Y-92322253D02*
X57383506Y-92255587D01*
X57316839Y-92188920D01*
X57250173Y-92055587D01*
X57250173Y-91655587D01*
X57316839Y-91522253D01*
X57383506Y-91455587D01*
X57516839Y-91388920D01*
X57716839Y-91388920D01*
X57850173Y-91455587D01*
X57916839Y-91522253D01*
X57983506Y-91655587D01*
X57983506Y-92055587D01*
X57916839Y-92188920D01*
X57850173Y-92255587D01*
X57716839Y-92322253D01*
X57516839Y-92322253D01*
X59183506Y-92322253D02*
X59183506Y-90922253D01*
X59183506Y-92255587D02*
X59050173Y-92322253D01*
X58783506Y-92322253D01*
X58650173Y-92255587D01*
X58583506Y-92188920D01*
X58516840Y-92055587D01*
X58516840Y-91655587D01*
X58583506Y-91522253D01*
X58650173Y-91455587D01*
X58783506Y-91388920D01*
X59050173Y-91388920D01*
X59183506Y-91455587D01*
X60450173Y-91388920D02*
X60450173Y-92322253D01*
X59850173Y-91388920D02*
X59850173Y-92122253D01*
X59916840Y-92255587D01*
X60050173Y-92322253D01*
X60250173Y-92322253D01*
X60383507Y-92255587D01*
X60450173Y-92188920D01*
X61316840Y-92322253D02*
X61183507Y-92255587D01*
X61116840Y-92122253D01*
X61116840Y-90922253D01*
X62383507Y-92255587D02*
X62250173Y-92322253D01*
X61983507Y-92322253D01*
X61850173Y-92255587D01*
X61783507Y-92122253D01*
X61783507Y-91588920D01*
X61850173Y-91455587D01*
X61983507Y-91388920D01*
X62250173Y-91388920D01*
X62383507Y-91455587D01*
X62450173Y-91588920D01*
X62450173Y-91722253D01*
X61783507Y-91855587D01*
X64050174Y-91922253D02*
X64716840Y-91922253D01*
X63916840Y-92322253D02*
X64383507Y-90922253D01*
X64850174Y-92322253D01*
X65916840Y-92322253D02*
X65916840Y-90922253D01*
X65916840Y-92255587D02*
X65783507Y-92322253D01*
X65516840Y-92322253D01*
X65383507Y-92255587D01*
X65316840Y-92188920D01*
X65250174Y-92055587D01*
X65250174Y-91655587D01*
X65316840Y-91522253D01*
X65383507Y-91455587D01*
X65516840Y-91388920D01*
X65783507Y-91388920D01*
X65916840Y-91455587D01*
X67183507Y-92322253D02*
X67183507Y-90922253D01*
X67183507Y-92255587D02*
X67050174Y-92322253D01*
X66783507Y-92322253D01*
X66650174Y-92255587D01*
X66583507Y-92188920D01*
X66516841Y-92055587D01*
X66516841Y-91655587D01*
X66583507Y-91522253D01*
X66650174Y-91455587D01*
X66783507Y-91388920D01*
X67050174Y-91388920D01*
X67183507Y-91455587D01*
X67850174Y-92322253D02*
X67850174Y-91388920D01*
X67850174Y-91655587D02*
X67916841Y-91522253D01*
X67983508Y-91455587D01*
X68116841Y-91388920D01*
X68250174Y-91388920D01*
X69250175Y-92255587D02*
X69116841Y-92322253D01*
X68850175Y-92322253D01*
X68716841Y-92255587D01*
X68650175Y-92122253D01*
X68650175Y-91588920D01*
X68716841Y-91455587D01*
X68850175Y-91388920D01*
X69116841Y-91388920D01*
X69250175Y-91455587D01*
X69316841Y-91588920D01*
X69316841Y-91722253D01*
X68650175Y-91855587D01*
X69850175Y-92255587D02*
X69983508Y-92322253D01*
X70250175Y-92322253D01*
X70383508Y-92255587D01*
X70450175Y-92122253D01*
X70450175Y-92055587D01*
X70383508Y-91922253D01*
X70250175Y-91855587D01*
X70050175Y-91855587D01*
X69916841Y-91788920D01*
X69850175Y-91655587D01*
X69850175Y-91588920D01*
X69916841Y-91455587D01*
X70050175Y-91388920D01*
X70250175Y-91388920D01*
X70383508Y-91455587D01*
X70983508Y-92255587D02*
X71116841Y-92322253D01*
X71383508Y-92322253D01*
X71516841Y-92255587D01*
X71583508Y-92122253D01*
X71583508Y-92055587D01*
X71516841Y-91922253D01*
X71383508Y-91855587D01*
X71183508Y-91855587D01*
X71050174Y-91788920D01*
X70983508Y-91655587D01*
X70983508Y-91588920D01*
X71050174Y-91455587D01*
X71183508Y-91388920D01*
X71383508Y-91388920D01*
X71516841Y-91455587D01*
X58524774Y-94933373D02*
X57724774Y-94933373D01*
X58124774Y-94933373D02*
X58124774Y-93533373D01*
X57991440Y-93733373D01*
X57858107Y-93866707D01*
X57724774Y-93933373D01*
X60124774Y-93666707D02*
X60191440Y-93600040D01*
X60324774Y-93533373D01*
X60658107Y-93533373D01*
X60791440Y-93600040D01*
X60858107Y-93666707D01*
X60924774Y-93800040D01*
X60924774Y-93933373D01*
X60858107Y-94133373D01*
X60058107Y-94933373D01*
X60924774Y-94933373D01*
X63191440Y-94000040D02*
X63191440Y-94933373D01*
X62858107Y-93466707D02*
X62524774Y-94466707D01*
X63391440Y-94466707D01*
X65191440Y-94133373D02*
X65058107Y-94066707D01*
X64991440Y-94000040D01*
X64924774Y-93866707D01*
X64924774Y-93800040D01*
X64991440Y-93666707D01*
X65058107Y-93600040D01*
X65191440Y-93533373D01*
X65458107Y-93533373D01*
X65591440Y-93600040D01*
X65658107Y-93666707D01*
X65724774Y-93800040D01*
X65724774Y-93866707D01*
X65658107Y-94000040D01*
X65591440Y-94066707D01*
X65458107Y-94133373D01*
X65191440Y-94133373D01*
X65058107Y-94200040D01*
X64991440Y-94266707D01*
X64924774Y-94400040D01*
X64924774Y-94666707D01*
X64991440Y-94800040D01*
X65058107Y-94866707D01*
X65191440Y-94933373D01*
X65458107Y-94933373D01*
X65591440Y-94866707D01*
X65658107Y-94800040D01*
X65724774Y-94666707D01*
X65724774Y-94400040D01*
X65658107Y-94266707D01*
X65591440Y-94200040D01*
X65458107Y-94133373D01*
X68124774Y-94933373D02*
X67324774Y-94933373D01*
X67724774Y-94933373D02*
X67724774Y-93533373D01*
X67591440Y-93733373D01*
X67458107Y-93866707D01*
X67324774Y-93933373D01*
X69324773Y-93533373D02*
X69058107Y-93533373D01*
X68924773Y-93600040D01*
X68858107Y-93666707D01*
X68724773Y-93866707D01*
X68658107Y-94133373D01*
X68658107Y-94666707D01*
X68724773Y-94800040D01*
X68791440Y-94866707D01*
X68924773Y-94933373D01*
X69191440Y-94933373D01*
X69324773Y-94866707D01*
X69391440Y-94800040D01*
X69458107Y-94666707D01*
X69458107Y-94333373D01*
X69391440Y-94200040D01*
X69324773Y-94133373D01*
X69191440Y-94066707D01*
X68924773Y-94066707D01*
X68791440Y-94133373D01*
X68724773Y-94200040D01*
X68658107Y-94333373D01*
D13*
X73492360Y-107203240D02*
X105963720Y-107203240D01*
D11*
X86760717Y-109096895D02*
X86404765Y-108477848D01*
X86017860Y-109096895D02*
X86180360Y-107796895D01*
X86675598Y-107796895D01*
X86791669Y-107858800D01*
X86845836Y-107920705D01*
X86892265Y-108044514D01*
X86869050Y-108230229D01*
X86791669Y-108354038D01*
X86722026Y-108415943D01*
X86590479Y-108477848D01*
X86095241Y-108477848D01*
X87263693Y-109034990D02*
X87441669Y-109096895D01*
X87751193Y-109096895D01*
X87882741Y-109034990D01*
X87952383Y-108973086D01*
X88029765Y-108849276D01*
X88045241Y-108725467D01*
X87998812Y-108601657D01*
X87944646Y-108539752D01*
X87828574Y-108477848D01*
X87588693Y-108415943D01*
X87472622Y-108354038D01*
X87418455Y-108292133D01*
X87372027Y-108168324D01*
X87387503Y-108044514D01*
X87464884Y-107920705D01*
X87534527Y-107858800D01*
X87666074Y-107796895D01*
X87975598Y-107796895D01*
X88153574Y-107858800D01*
X88617860Y-108601657D02*
X89608336Y-108601657D01*
X90830955Y-108230229D02*
X90722622Y-109096895D01*
X90583336Y-107734990D02*
X90157741Y-108663562D01*
X90962503Y-108663562D01*
X91682145Y-108354038D02*
X91566074Y-108292133D01*
X91511907Y-108230229D01*
X91465479Y-108106419D01*
X91473217Y-108044514D01*
X91550598Y-107920705D01*
X91620241Y-107858800D01*
X91751788Y-107796895D01*
X91999407Y-107796895D01*
X92115479Y-107858800D01*
X92169645Y-107920705D01*
X92216074Y-108044514D01*
X92208336Y-108106419D01*
X92130954Y-108230229D01*
X92061312Y-108292133D01*
X91929764Y-108354038D01*
X91682145Y-108354038D01*
X91550598Y-108415943D01*
X91480955Y-108477848D01*
X91403574Y-108601657D01*
X91372622Y-108849276D01*
X91419050Y-108973086D01*
X91473217Y-109034990D01*
X91589288Y-109096895D01*
X91836907Y-109096895D01*
X91968455Y-109034990D01*
X92038097Y-108973086D01*
X92115479Y-108849276D01*
X92146431Y-108601657D01*
X92100002Y-108477848D01*
X92045836Y-108415943D01*
X91929764Y-108354038D01*
X93423216Y-107796895D02*
X92804169Y-107796895D01*
X92664883Y-108415943D01*
X92734526Y-108354038D01*
X92866073Y-108292133D01*
X93175597Y-108292133D01*
X93291669Y-108354038D01*
X93345835Y-108415943D01*
X93392264Y-108539752D01*
X93353574Y-108849276D01*
X93276192Y-108973086D01*
X93206550Y-109034990D01*
X93075002Y-109096895D01*
X92765478Y-109096895D01*
X92649407Y-109034990D01*
X92595240Y-108973086D01*
X46280636Y-112580811D02*
X46468136Y-111080811D01*
X46994922Y-112580811D02*
X47182422Y-111080811D01*
X47539565Y-111080811D01*
X47744921Y-111152240D01*
X47869922Y-111295097D01*
X47923493Y-111437954D01*
X47959207Y-111723669D01*
X47932422Y-111937954D01*
X47825278Y-112223669D01*
X47735993Y-112366526D01*
X47575278Y-112509383D01*
X47352065Y-112580811D01*
X46994922Y-112580811D01*
X48512779Y-112437954D02*
X48575278Y-112509383D01*
X48494922Y-112580811D01*
X48432421Y-112509383D01*
X48512779Y-112437954D01*
X48494922Y-112580811D01*
X48610993Y-111652240D02*
X48673492Y-111723669D01*
X48593136Y-111795097D01*
X48530635Y-111723669D01*
X48610993Y-111652240D01*
X48593136Y-111795097D01*
X106966065Y-111467754D02*
X106885707Y-111539183D01*
X106662493Y-111610611D01*
X106519636Y-111610611D01*
X106314279Y-111539183D01*
X106189278Y-111396326D01*
X106135707Y-111253469D01*
X106099993Y-110967754D01*
X106126778Y-110753469D01*
X106233922Y-110467754D01*
X106323207Y-110324897D01*
X106483922Y-110182040D01*
X106707136Y-110110611D01*
X106849993Y-110110611D01*
X107055350Y-110182040D01*
X107117850Y-110253469D01*
X107805351Y-111610611D02*
X107671421Y-111539183D01*
X107608922Y-111467754D01*
X107555350Y-111324897D01*
X107608921Y-110896326D01*
X107698207Y-110753469D01*
X107778564Y-110682040D01*
X107930351Y-110610611D01*
X108144636Y-110610611D01*
X108278564Y-110682040D01*
X108341064Y-110753469D01*
X108394636Y-110896326D01*
X108341065Y-111324897D01*
X108251779Y-111467754D01*
X108171421Y-111539183D01*
X108019636Y-111610611D01*
X107805351Y-111610611D01*
X109073208Y-110610611D02*
X108948208Y-111610611D01*
X109055350Y-110753469D02*
X109135707Y-110682040D01*
X109287494Y-110610611D01*
X109501779Y-110610611D01*
X109635707Y-110682040D01*
X109689279Y-110824897D01*
X109591065Y-111610611D01*
X110216065Y-110610611D02*
X110787494Y-110610611D01*
X110492851Y-110110611D02*
X110332136Y-111396326D01*
X110385707Y-111539183D01*
X110519637Y-111610611D01*
X110662494Y-111610611D01*
X111162494Y-111610611D02*
X111287494Y-110610611D01*
X111251779Y-110896326D02*
X111341064Y-110753469D01*
X111421422Y-110682040D01*
X111573208Y-110610611D01*
X111716065Y-110610611D01*
X112305351Y-111610611D02*
X112171421Y-111539183D01*
X112108922Y-111467754D01*
X112055350Y-111324897D01*
X112108921Y-110896326D01*
X112198207Y-110753469D01*
X112278564Y-110682040D01*
X112430351Y-110610611D01*
X112644636Y-110610611D01*
X112778564Y-110682040D01*
X112841064Y-110753469D01*
X112894636Y-110896326D01*
X112841065Y-111324897D01*
X112751779Y-111467754D01*
X112671421Y-111539183D01*
X112519636Y-111610611D01*
X112305351Y-111610611D01*
X113662494Y-111610611D02*
X113528564Y-111539183D01*
X113474993Y-111396326D01*
X113635708Y-110110611D01*
X114171421Y-111539183D02*
X114305350Y-111610611D01*
X114591065Y-111610611D01*
X114742850Y-111539183D01*
X114832135Y-111396326D01*
X114841064Y-111324897D01*
X114787493Y-111182040D01*
X114653565Y-111110611D01*
X114439279Y-111110611D01*
X114305350Y-111039183D01*
X114251778Y-110896326D01*
X114260707Y-110824897D01*
X114349993Y-110682040D01*
X114501779Y-110610611D01*
X114716065Y-110610611D01*
X114849993Y-110682040D01*
X117555350Y-110182040D02*
X117421422Y-110110611D01*
X117207136Y-110110611D01*
X116983922Y-110182040D01*
X116823207Y-110324897D01*
X116733922Y-110467754D01*
X116626778Y-110753469D01*
X116599993Y-110967754D01*
X116635707Y-111253469D01*
X116689278Y-111396326D01*
X116814279Y-111539183D01*
X117019636Y-111610611D01*
X117162493Y-111610611D01*
X117385707Y-111539183D01*
X117466065Y-111467754D01*
X117528565Y-110967754D01*
X117242850Y-110967754D01*
X118091065Y-111610611D02*
X118216065Y-110610611D01*
X118180350Y-110896326D02*
X118269635Y-110753469D01*
X118349993Y-110682040D01*
X118501779Y-110610611D01*
X118644636Y-110610611D01*
X119233922Y-111610611D02*
X119099992Y-111539183D01*
X119037493Y-111467754D01*
X118983921Y-111324897D01*
X119037492Y-110896326D01*
X119126778Y-110753469D01*
X119207135Y-110682040D01*
X119358922Y-110610611D01*
X119573207Y-110610611D01*
X119707135Y-110682040D01*
X119769635Y-110753469D01*
X119823207Y-110896326D01*
X119769636Y-111324897D01*
X119680350Y-111467754D01*
X119599992Y-111539183D01*
X119448207Y-111610611D01*
X119233922Y-111610611D01*
X121144636Y-110610611D02*
X121019636Y-111610611D01*
X120501779Y-110610611D02*
X120403564Y-111396326D01*
X120457135Y-111539183D01*
X120591065Y-111610611D01*
X120805350Y-111610611D01*
X120957135Y-111539183D01*
X121037493Y-111467754D01*
X121858922Y-110610611D02*
X121671422Y-112110611D01*
X121849993Y-110682040D02*
X122001779Y-110610611D01*
X122287493Y-110610611D01*
X122421421Y-110682040D01*
X122483921Y-110753469D01*
X122537493Y-110896326D01*
X122483922Y-111324897D01*
X122394636Y-111467754D01*
X122314278Y-111539183D01*
X122162493Y-111610611D01*
X121876779Y-111610611D01*
X121742850Y-111539183D01*
X124591064Y-112182040D02*
X124528565Y-112110611D01*
X124412493Y-111896326D01*
X124358921Y-111753469D01*
X124314278Y-111539183D01*
X124287493Y-111182040D01*
X124323207Y-110896326D01*
X124439278Y-110539183D01*
X124537493Y-110324897D01*
X124626779Y-110182040D01*
X124796422Y-109967754D01*
X124876778Y-109896326D01*
X126108922Y-111467754D02*
X126028564Y-111539183D01*
X125805350Y-111610611D01*
X125662493Y-111610611D01*
X125457136Y-111539183D01*
X125332135Y-111396326D01*
X125278564Y-111253469D01*
X125242850Y-110967754D01*
X125269635Y-110753469D01*
X125376779Y-110467754D01*
X125466064Y-110324897D01*
X125626779Y-110182040D01*
X125849993Y-110110611D01*
X125992850Y-110110611D01*
X126198207Y-110182040D01*
X126260707Y-110253469D01*
X127207136Y-110110611D02*
X127492850Y-110110611D01*
X127626779Y-110182040D01*
X127751779Y-110324897D01*
X127787493Y-110610611D01*
X127724993Y-111110611D01*
X127617850Y-111396326D01*
X127457136Y-111539183D01*
X127305350Y-111610611D01*
X127019636Y-111610611D01*
X126885707Y-111539183D01*
X126760707Y-111396326D01*
X126724993Y-111110611D01*
X126787493Y-110610611D01*
X126894636Y-110324897D01*
X127055350Y-110182040D01*
X127207136Y-110110611D01*
X128305351Y-111610611D02*
X128492851Y-110110611D01*
X129162494Y-111610611D01*
X129349994Y-110110611D01*
X129662494Y-112182040D02*
X129742851Y-112110611D01*
X129912493Y-111896326D01*
X130001779Y-111753469D01*
X130099994Y-111539183D01*
X130216065Y-111182040D01*
X130251779Y-110896326D01*
X130224994Y-110539183D01*
X130180351Y-110324897D01*
X130126779Y-110182040D01*
X130010708Y-109967754D01*
X129948208Y-109896326D01*
X115724993Y-112803469D02*
X115805351Y-112732040D01*
X115957137Y-112660611D01*
X116314280Y-112660611D01*
X116448208Y-112732040D01*
X116510708Y-112803469D01*
X116564279Y-112946326D01*
X116546422Y-113089183D01*
X116448208Y-113303469D01*
X115483923Y-114160611D01*
X116412494Y-114160611D01*
X117528565Y-112660611D02*
X117671422Y-112660611D01*
X117805350Y-112732040D01*
X117867850Y-112803469D01*
X117921422Y-112946326D01*
X117957136Y-113232040D01*
X117912493Y-113589183D01*
X117805351Y-113874897D01*
X117716065Y-114017754D01*
X117635707Y-114089183D01*
X117483922Y-114160611D01*
X117341065Y-114160611D01*
X117207136Y-114089183D01*
X117144636Y-114017754D01*
X117091065Y-113874897D01*
X117055350Y-113589183D01*
X117099993Y-113232040D01*
X117207136Y-112946326D01*
X117296421Y-112803469D01*
X117376779Y-112732040D01*
X117528565Y-112660611D01*
X119269636Y-114160611D02*
X118412493Y-114160611D01*
X118841065Y-114160611D02*
X119028565Y-112660611D01*
X118858922Y-112874897D01*
X118698207Y-113017754D01*
X118546421Y-113089183D01*
X119957136Y-112660611D02*
X120957136Y-112660611D01*
X120126779Y-114160611D01*
X116512114Y-104929286D02*
X116583543Y-105000715D01*
X116654971Y-105215001D01*
X116654971Y-105357858D01*
X116583543Y-105572143D01*
X116440686Y-105715001D01*
X116297829Y-105786429D01*
X116012114Y-105857858D01*
X115797829Y-105857858D01*
X115512114Y-105786429D01*
X115369257Y-105715001D01*
X115226400Y-105572143D01*
X115154971Y-105357858D01*
X115154971Y-105215001D01*
X115226400Y-105000715D01*
X115297829Y-104929286D01*
X115154971Y-104286429D02*
X116369257Y-104286429D01*
X116512114Y-104215001D01*
X116583543Y-104143572D01*
X116654971Y-104000715D01*
X116654971Y-103715001D01*
X116583543Y-103572143D01*
X116512114Y-103500715D01*
X116369257Y-103429286D01*
X115154971Y-103429286D01*
X115154971Y-102929286D02*
X115154971Y-102072143D01*
X116654971Y-102500714D02*
X115154971Y-102500714D01*
X116083543Y-101572143D02*
X116083543Y-100429286D01*
X115154971Y-99429286D02*
X115154971Y-99143572D01*
X115226400Y-99000714D01*
X115369257Y-98857857D01*
X115654971Y-98786429D01*
X116154971Y-98786429D01*
X116440686Y-98857857D01*
X116583543Y-99000714D01*
X116654971Y-99143572D01*
X116654971Y-99429286D01*
X116583543Y-99572143D01*
X116440686Y-99715000D01*
X116154971Y-99786429D01*
X115654971Y-99786429D01*
X115369257Y-99715000D01*
X115226400Y-99572143D01*
X115154971Y-99429286D01*
X115154971Y-98143571D02*
X116369257Y-98143571D01*
X116512114Y-98072143D01*
X116583543Y-98000714D01*
X116654971Y-97857857D01*
X116654971Y-97572143D01*
X116583543Y-97429285D01*
X116512114Y-97357857D01*
X116369257Y-97286428D01*
X115154971Y-97286428D01*
X115154971Y-96786428D02*
X115154971Y-95929285D01*
X116654971Y-96357856D02*
X115154971Y-96357856D01*
X50238434Y-104538126D02*
X50309863Y-104609555D01*
X50381291Y-104823841D01*
X50381291Y-104966698D01*
X50309863Y-105180983D01*
X50167006Y-105323841D01*
X50024149Y-105395269D01*
X49738434Y-105466698D01*
X49524149Y-105466698D01*
X49238434Y-105395269D01*
X49095577Y-105323841D01*
X48952720Y-105180983D01*
X48881291Y-104966698D01*
X48881291Y-104823841D01*
X48952720Y-104609555D01*
X49024149Y-104538126D01*
X48881291Y-103895269D02*
X50095577Y-103895269D01*
X50238434Y-103823841D01*
X50309863Y-103752412D01*
X50381291Y-103609555D01*
X50381291Y-103323841D01*
X50309863Y-103180983D01*
X50238434Y-103109555D01*
X50095577Y-103038126D01*
X48881291Y-103038126D01*
X48881291Y-102538126D02*
X48881291Y-101680983D01*
X50381291Y-102109554D02*
X48881291Y-102109554D01*
X49809863Y-101180983D02*
X49809863Y-100038126D01*
X48881291Y-99038126D02*
X48881291Y-98752412D01*
X48952720Y-98609554D01*
X49095577Y-98466697D01*
X49381291Y-98395269D01*
X49881291Y-98395269D01*
X50167006Y-98466697D01*
X50309863Y-98609554D01*
X50381291Y-98752412D01*
X50381291Y-99038126D01*
X50309863Y-99180983D01*
X50167006Y-99323840D01*
X49881291Y-99395269D01*
X49381291Y-99395269D01*
X49095577Y-99323840D01*
X48952720Y-99180983D01*
X48881291Y-99038126D01*
X48881291Y-97752411D02*
X50095577Y-97752411D01*
X50238434Y-97680983D01*
X50309863Y-97609554D01*
X50381291Y-97466697D01*
X50381291Y-97180983D01*
X50309863Y-97038125D01*
X50238434Y-96966697D01*
X50095577Y-96895268D01*
X48881291Y-96895268D01*
X48881291Y-96395268D02*
X48881291Y-95538125D01*
X50381291Y-95966696D02*
X48881291Y-95966696D01*
X59789714Y-101373714D02*
X59718285Y-101445143D01*
X59503999Y-101516571D01*
X59361142Y-101516571D01*
X59146857Y-101445143D01*
X59003999Y-101302286D01*
X58932571Y-101159429D01*
X58861142Y-100873714D01*
X58861142Y-100659429D01*
X58932571Y-100373714D01*
X59003999Y-100230857D01*
X59146857Y-100088000D01*
X59361142Y-100016571D01*
X59503999Y-100016571D01*
X59718285Y-100088000D01*
X59789714Y-100159429D01*
X60432571Y-100016571D02*
X60432571Y-101230857D01*
X60503999Y-101373714D01*
X60575428Y-101445143D01*
X60718285Y-101516571D01*
X61003999Y-101516571D01*
X61146857Y-101445143D01*
X61218285Y-101373714D01*
X61289714Y-101230857D01*
X61289714Y-100016571D01*
X61789714Y-100016571D02*
X62646857Y-100016571D01*
X62218286Y-101516571D02*
X62218286Y-100016571D01*
X63146857Y-100945143D02*
X64289714Y-100945143D01*
X65289714Y-100016571D02*
X65575428Y-100016571D01*
X65718286Y-100088000D01*
X65861143Y-100230857D01*
X65932571Y-100516571D01*
X65932571Y-101016571D01*
X65861143Y-101302286D01*
X65718286Y-101445143D01*
X65575428Y-101516571D01*
X65289714Y-101516571D01*
X65146857Y-101445143D01*
X65004000Y-101302286D01*
X64932571Y-101016571D01*
X64932571Y-100516571D01*
X65004000Y-100230857D01*
X65146857Y-100088000D01*
X65289714Y-100016571D01*
X66575429Y-100016571D02*
X66575429Y-101230857D01*
X66646857Y-101373714D01*
X66718286Y-101445143D01*
X66861143Y-101516571D01*
X67146857Y-101516571D01*
X67289715Y-101445143D01*
X67361143Y-101373714D01*
X67432572Y-101230857D01*
X67432572Y-100016571D01*
X67932572Y-100016571D02*
X68789715Y-100016571D01*
X68361144Y-101516571D02*
X68361144Y-100016571D01*
X93952714Y-100484714D02*
X93881285Y-100556143D01*
X93666999Y-100627571D01*
X93524142Y-100627571D01*
X93309857Y-100556143D01*
X93166999Y-100413286D01*
X93095571Y-100270429D01*
X93024142Y-99984714D01*
X93024142Y-99770429D01*
X93095571Y-99484714D01*
X93166999Y-99341857D01*
X93309857Y-99199000D01*
X93524142Y-99127571D01*
X93666999Y-99127571D01*
X93881285Y-99199000D01*
X93952714Y-99270429D01*
X94595571Y-99127571D02*
X94595571Y-100341857D01*
X94666999Y-100484714D01*
X94738428Y-100556143D01*
X94881285Y-100627571D01*
X95166999Y-100627571D01*
X95309857Y-100556143D01*
X95381285Y-100484714D01*
X95452714Y-100341857D01*
X95452714Y-99127571D01*
X95952714Y-99127571D02*
X96809857Y-99127571D01*
X96381286Y-100627571D02*
X96381286Y-99127571D01*
X97309857Y-100056143D02*
X98452714Y-100056143D01*
X99452714Y-99127571D02*
X99738428Y-99127571D01*
X99881286Y-99199000D01*
X100024143Y-99341857D01*
X100095571Y-99627571D01*
X100095571Y-100127571D01*
X100024143Y-100413286D01*
X99881286Y-100556143D01*
X99738428Y-100627571D01*
X99452714Y-100627571D01*
X99309857Y-100556143D01*
X99167000Y-100413286D01*
X99095571Y-100127571D01*
X99095571Y-99627571D01*
X99167000Y-99341857D01*
X99309857Y-99199000D01*
X99452714Y-99127571D01*
X100738429Y-99127571D02*
X100738429Y-100341857D01*
X100809857Y-100484714D01*
X100881286Y-100556143D01*
X101024143Y-100627571D01*
X101309857Y-100627571D01*
X101452715Y-100556143D01*
X101524143Y-100484714D01*
X101595572Y-100341857D01*
X101595572Y-99127571D01*
X102095572Y-99127571D02*
X102952715Y-99127571D01*
X102524144Y-100627571D02*
X102524144Y-99127571D01*
X76045714Y-100103714D02*
X75974285Y-100175143D01*
X75759999Y-100246571D01*
X75617142Y-100246571D01*
X75402857Y-100175143D01*
X75259999Y-100032286D01*
X75188571Y-99889429D01*
X75117142Y-99603714D01*
X75117142Y-99389429D01*
X75188571Y-99103714D01*
X75259999Y-98960857D01*
X75402857Y-98818000D01*
X75617142Y-98746571D01*
X75759999Y-98746571D01*
X75974285Y-98818000D01*
X76045714Y-98889429D01*
X76688571Y-98746571D02*
X76688571Y-99960857D01*
X76759999Y-100103714D01*
X76831428Y-100175143D01*
X76974285Y-100246571D01*
X77259999Y-100246571D01*
X77402857Y-100175143D01*
X77474285Y-100103714D01*
X77545714Y-99960857D01*
X77545714Y-98746571D01*
X78045714Y-98746571D02*
X78902857Y-98746571D01*
X78474286Y-100246571D02*
X78474286Y-98746571D01*
X79402857Y-99675143D02*
X80545714Y-99675143D01*
X81545714Y-98746571D02*
X81831428Y-98746571D01*
X81974286Y-98818000D01*
X82117143Y-98960857D01*
X82188571Y-99246571D01*
X82188571Y-99746571D01*
X82117143Y-100032286D01*
X81974286Y-100175143D01*
X81831428Y-100246571D01*
X81545714Y-100246571D01*
X81402857Y-100175143D01*
X81260000Y-100032286D01*
X81188571Y-99746571D01*
X81188571Y-99246571D01*
X81260000Y-98960857D01*
X81402857Y-98818000D01*
X81545714Y-98746571D01*
X82831429Y-98746571D02*
X82831429Y-99960857D01*
X82902857Y-100103714D01*
X82974286Y-100175143D01*
X83117143Y-100246571D01*
X83402857Y-100246571D01*
X83545715Y-100175143D01*
X83617143Y-100103714D01*
X83688572Y-99960857D01*
X83688572Y-98746571D01*
X84188572Y-98746571D02*
X85045715Y-98746571D01*
X84617144Y-100246571D02*
X84617144Y-98746571D01*
D13*
X112135217Y-105576976D02*
X112135217Y-106148405D01*
X110935217Y-105998405D01*
X112135217Y-104662690D02*
X111506646Y-104584119D01*
X111392360Y-104626976D01*
X111335217Y-104734119D01*
X111335217Y-104962690D01*
X111392360Y-105084119D01*
X112078074Y-104655547D02*
X112135217Y-104776976D01*
X112135217Y-105062690D01*
X112078074Y-105169833D01*
X111963789Y-105212691D01*
X111849503Y-105198405D01*
X111735217Y-105126976D01*
X111678074Y-105005547D01*
X111678074Y-104719833D01*
X111620931Y-104598404D01*
X112078074Y-104141262D02*
X112135217Y-104034119D01*
X112135217Y-103805547D01*
X112078074Y-103684119D01*
X111963789Y-103612691D01*
X111906646Y-103605548D01*
X111792360Y-103648405D01*
X111735217Y-103755547D01*
X111735217Y-103926976D01*
X111678074Y-104034119D01*
X111563789Y-104076977D01*
X111506646Y-104069834D01*
X111392360Y-103998405D01*
X111335217Y-103876976D01*
X111335217Y-103705547D01*
X111392360Y-103598405D01*
X111335217Y-103191261D02*
X111335217Y-102734118D01*
X110935217Y-102969833D02*
X111963789Y-103098405D01*
X112078074Y-103055547D01*
X112135217Y-102948404D01*
X112135217Y-102834118D01*
X112135217Y-101519833D02*
X110935217Y-101369833D01*
X111792360Y-101076976D01*
X110935217Y-100569833D01*
X112135217Y-100719833D01*
X112135217Y-99976975D02*
X112078074Y-100084118D01*
X112020931Y-100134118D01*
X111906646Y-100176976D01*
X111563789Y-100134119D01*
X111449503Y-100062690D01*
X111392360Y-99998404D01*
X111335217Y-99876975D01*
X111335217Y-99705547D01*
X111392360Y-99598404D01*
X111449503Y-99548404D01*
X111563789Y-99505547D01*
X111906646Y-99548404D01*
X112020931Y-99619832D01*
X112078074Y-99684118D01*
X112135217Y-99805547D01*
X112135217Y-99976975D01*
X112135217Y-98548404D02*
X110935217Y-98398404D01*
X112078074Y-98541261D02*
X112135217Y-98662690D01*
X112135217Y-98891261D01*
X112078074Y-98998404D01*
X112020931Y-99048404D01*
X111906646Y-99091262D01*
X111563789Y-99048405D01*
X111449503Y-98976976D01*
X111392360Y-98912690D01*
X111335217Y-98791261D01*
X111335217Y-98562690D01*
X111392360Y-98455547D01*
X111335217Y-97362690D02*
X112135217Y-97462690D01*
X111335217Y-97876976D02*
X111963789Y-97955548D01*
X112078074Y-97912690D01*
X112135217Y-97805547D01*
X112135217Y-97634119D01*
X112078074Y-97512690D01*
X112020931Y-97448404D01*
X112135217Y-96719833D02*
X112078074Y-96826976D01*
X111963789Y-96869834D01*
X110935217Y-96741262D01*
X112078074Y-95798405D02*
X112135217Y-95919834D01*
X112135217Y-96148405D01*
X112078074Y-96255548D01*
X111963789Y-96298406D01*
X111506646Y-96241263D01*
X111392360Y-96169834D01*
X111335217Y-96048405D01*
X111335217Y-95819834D01*
X111392360Y-95712691D01*
X111506646Y-95669834D01*
X111620931Y-95684119D01*
X111735217Y-96269834D01*
D14*
G36*
X121445327Y-85802395D02*
X121450977Y-85823088D01*
X121468900Y-85913807D01*
X121489037Y-86052723D01*
X121507096Y-86210152D01*
X121507463Y-86213857D01*
X121523704Y-86357752D01*
X121540244Y-86470688D01*
X121553777Y-86530475D01*
X121554981Y-86532923D01*
X121592557Y-86531559D01*
X121658843Y-86485441D01*
X121667624Y-86477410D01*
X121748211Y-86419016D01*
X121787172Y-86420880D01*
X121774789Y-86471914D01*
X121722271Y-86539753D01*
X121667603Y-86611199D01*
X121653519Y-86658678D01*
X121655746Y-86662101D01*
X121703087Y-86676056D01*
X121810217Y-86693352D01*
X121959001Y-86711342D01*
X122062952Y-86721568D01*
X122270912Y-86741313D01*
X122404056Y-86757046D01*
X122465526Y-86770252D01*
X122458467Y-86782410D01*
X122386021Y-86795005D01*
X122251332Y-86809517D01*
X122249809Y-86809665D01*
X122076143Y-86827039D01*
X121902050Y-86845364D01*
X121787300Y-86858149D01*
X121598329Y-86880164D01*
X121706297Y-86992859D01*
X121773277Y-87078692D01*
X121786094Y-87128423D01*
X121750767Y-87131212D01*
X121673312Y-87076221D01*
X121664521Y-87068105D01*
X121611620Y-87022508D01*
X121575451Y-87010449D01*
X121551116Y-87041753D01*
X121533717Y-87126245D01*
X121518357Y-87273749D01*
X121509513Y-87379055D01*
X121488020Y-87564587D01*
X121460145Y-87680332D01*
X121426931Y-87723425D01*
X121393459Y-87697930D01*
X121378881Y-87642002D01*
X121362538Y-87529741D01*
X121347437Y-87382822D01*
X121344179Y-87342832D01*
X121328271Y-87173815D01*
X121309592Y-87074562D01*
X121283892Y-87036698D01*
X121246920Y-87051848D01*
X121214271Y-87086830D01*
X121157861Y-87135954D01*
X121131332Y-87145446D01*
X121097947Y-87119823D01*
X121109689Y-87058416D01*
X121160398Y-86984412D01*
X121178925Y-86966223D01*
X121260809Y-86892118D01*
X121169155Y-86866369D01*
X121075334Y-86849747D01*
X120943902Y-86837441D01*
X120882117Y-86834473D01*
X120727228Y-86824125D01*
X120573905Y-86805583D01*
X120530425Y-86798115D01*
X120453395Y-86782068D01*
X120429494Y-86770748D01*
X120465782Y-86760681D01*
X120569316Y-86748392D01*
X120647655Y-86740415D01*
X120816929Y-86722785D01*
X120982547Y-86704532D01*
X121091657Y-86691672D01*
X121262121Y-86670418D01*
X121153122Y-86556647D01*
X121086424Y-86471319D01*
X121072167Y-86420492D01*
X121105021Y-86415383D01*
X121179656Y-86467211D01*
X121190764Y-86477410D01*
X121258636Y-86528102D01*
X121300565Y-86535560D01*
X121302712Y-86532923D01*
X121316024Y-86479817D01*
X121332560Y-86372865D01*
X121347481Y-86246676D01*
X121365456Y-86088564D01*
X121385004Y-85940471D01*
X121398250Y-85855907D01*
X121415447Y-85768492D01*
X121428161Y-85752509D01*
X121445327Y-85802395D01*
X121445327Y-85802395D01*
G37*
X121445327Y-85802395D02*
X121450977Y-85823088D01*
X121468900Y-85913807D01*
X121489037Y-86052723D01*
X121507096Y-86210152D01*
X121507463Y-86213857D01*
X121523704Y-86357752D01*
X121540244Y-86470688D01*
X121553777Y-86530475D01*
X121554981Y-86532923D01*
X121592557Y-86531559D01*
X121658843Y-86485441D01*
X121667624Y-86477410D01*
X121748211Y-86419016D01*
X121787172Y-86420880D01*
X121774789Y-86471914D01*
X121722271Y-86539753D01*
X121667603Y-86611199D01*
X121653519Y-86658678D01*
X121655746Y-86662101D01*
X121703087Y-86676056D01*
X121810217Y-86693352D01*
X121959001Y-86711342D01*
X122062952Y-86721568D01*
X122270912Y-86741313D01*
X122404056Y-86757046D01*
X122465526Y-86770252D01*
X122458467Y-86782410D01*
X122386021Y-86795005D01*
X122251332Y-86809517D01*
X122249809Y-86809665D01*
X122076143Y-86827039D01*
X121902050Y-86845364D01*
X121787300Y-86858149D01*
X121598329Y-86880164D01*
X121706297Y-86992859D01*
X121773277Y-87078692D01*
X121786094Y-87128423D01*
X121750767Y-87131212D01*
X121673312Y-87076221D01*
X121664521Y-87068105D01*
X121611620Y-87022508D01*
X121575451Y-87010449D01*
X121551116Y-87041753D01*
X121533717Y-87126245D01*
X121518357Y-87273749D01*
X121509513Y-87379055D01*
X121488020Y-87564587D01*
X121460145Y-87680332D01*
X121426931Y-87723425D01*
X121393459Y-87697930D01*
X121378881Y-87642002D01*
X121362538Y-87529741D01*
X121347437Y-87382822D01*
X121344179Y-87342832D01*
X121328271Y-87173815D01*
X121309592Y-87074562D01*
X121283892Y-87036698D01*
X121246920Y-87051848D01*
X121214271Y-87086830D01*
X121157861Y-87135954D01*
X121131332Y-87145446D01*
X121097947Y-87119823D01*
X121109689Y-87058416D01*
X121160398Y-86984412D01*
X121178925Y-86966223D01*
X121260809Y-86892118D01*
X121169155Y-86866369D01*
X121075334Y-86849747D01*
X120943902Y-86837441D01*
X120882117Y-86834473D01*
X120727228Y-86824125D01*
X120573905Y-86805583D01*
X120530425Y-86798115D01*
X120453395Y-86782068D01*
X120429494Y-86770748D01*
X120465782Y-86760681D01*
X120569316Y-86748392D01*
X120647655Y-86740415D01*
X120816929Y-86722785D01*
X120982547Y-86704532D01*
X121091657Y-86691672D01*
X121262121Y-86670418D01*
X121153122Y-86556647D01*
X121086424Y-86471319D01*
X121072167Y-86420492D01*
X121105021Y-86415383D01*
X121179656Y-86467211D01*
X121190764Y-86477410D01*
X121258636Y-86528102D01*
X121300565Y-86535560D01*
X121302712Y-86532923D01*
X121316024Y-86479817D01*
X121332560Y-86372865D01*
X121347481Y-86246676D01*
X121365456Y-86088564D01*
X121385004Y-85940471D01*
X121398250Y-85855907D01*
X121415447Y-85768492D01*
X121428161Y-85752509D01*
X121445327Y-85802395D01*
G36*
X123408509Y-86405574D02*
X123482815Y-86417048D01*
X123514050Y-86442964D01*
X123519809Y-86481138D01*
X123510866Y-86525536D01*
X123471911Y-86549141D01*
X123384754Y-86558298D01*
X123295117Y-86559505D01*
X123070425Y-86559719D01*
X123334194Y-86717978D01*
X123477573Y-86810137D01*
X123560853Y-86881001D01*
X123595317Y-86941093D01*
X123597963Y-86963949D01*
X123583355Y-87049941D01*
X123531305Y-87104864D01*
X123429476Y-87134625D01*
X123265531Y-87145131D01*
X123218917Y-87145446D01*
X123071485Y-87143501D01*
X122985774Y-87134673D01*
X122945386Y-87114469D01*
X122933924Y-87078397D01*
X122933655Y-87067292D01*
X122941922Y-87024312D01*
X122978427Y-87000639D01*
X123060732Y-86990616D01*
X123177886Y-86988607D01*
X123422117Y-86988077D01*
X123177886Y-86843315D01*
X123045718Y-86759751D01*
X122970406Y-86695632D01*
X122938124Y-86637052D01*
X122933655Y-86597660D01*
X122949183Y-86501187D01*
X123004151Y-86441388D01*
X123111141Y-86411060D01*
X123273625Y-86402984D01*
X123408509Y-86405574D01*
X123408509Y-86405574D01*
G37*
X123408509Y-86405574D02*
X123482815Y-86417048D01*
X123514050Y-86442964D01*
X123519809Y-86481138D01*
X123510866Y-86525536D01*
X123471911Y-86549141D01*
X123384754Y-86558298D01*
X123295117Y-86559505D01*
X123070425Y-86559719D01*
X123334194Y-86717978D01*
X123477573Y-86810137D01*
X123560853Y-86881001D01*
X123595317Y-86941093D01*
X123597963Y-86963949D01*
X123583355Y-87049941D01*
X123531305Y-87104864D01*
X123429476Y-87134625D01*
X123265531Y-87145131D01*
X123218917Y-87145446D01*
X123071485Y-87143501D01*
X122985774Y-87134673D01*
X122945386Y-87114469D01*
X122933924Y-87078397D01*
X122933655Y-87067292D01*
X122941922Y-87024312D01*
X122978427Y-87000639D01*
X123060732Y-86990616D01*
X123177886Y-86988607D01*
X123422117Y-86988077D01*
X123177886Y-86843315D01*
X123045718Y-86759751D01*
X122970406Y-86695632D01*
X122938124Y-86637052D01*
X122933655Y-86597660D01*
X122949183Y-86501187D01*
X123004151Y-86441388D01*
X123111141Y-86411060D01*
X123273625Y-86402984D01*
X123408509Y-86405574D01*
G36*
X124014451Y-86405562D02*
X124042994Y-86423055D01*
X124058675Y-86470104D01*
X124065347Y-86561346D01*
X124066861Y-86711421D01*
X124066886Y-86774215D01*
X124066208Y-86946193D01*
X124061604Y-87054656D01*
X124049223Y-87114244D01*
X124025212Y-87139596D01*
X123985718Y-87145352D01*
X123969194Y-87145446D01*
X123923936Y-87142868D01*
X123895393Y-87125374D01*
X123879712Y-87078326D01*
X123873041Y-86987084D01*
X123871526Y-86837009D01*
X123871501Y-86774215D01*
X123872180Y-86602237D01*
X123876783Y-86493774D01*
X123889164Y-86434186D01*
X123913176Y-86408833D01*
X123952669Y-86403078D01*
X123969194Y-86402984D01*
X124014451Y-86405562D01*
X124014451Y-86405562D01*
G37*
X124014451Y-86405562D02*
X124042994Y-86423055D01*
X124058675Y-86470104D01*
X124065347Y-86561346D01*
X124066861Y-86711421D01*
X124066886Y-86774215D01*
X124066208Y-86946193D01*
X124061604Y-87054656D01*
X124049223Y-87114244D01*
X124025212Y-87139596D01*
X123985718Y-87145352D01*
X123969194Y-87145446D01*
X123923936Y-87142868D01*
X123895393Y-87125374D01*
X123879712Y-87078326D01*
X123873041Y-86987084D01*
X123871526Y-86837009D01*
X123871501Y-86774215D01*
X123872180Y-86602237D01*
X123876783Y-86493774D01*
X123889164Y-86434186D01*
X123913176Y-86408833D01*
X123952669Y-86403078D01*
X123969194Y-86402984D01*
X124014451Y-86405562D01*
G36*
X124815278Y-86405574D02*
X124889585Y-86417048D01*
X124920819Y-86442964D01*
X124926578Y-86481138D01*
X124917250Y-86526303D01*
X124876916Y-86549831D01*
X124787056Y-86558458D01*
X124711655Y-86559292D01*
X124496732Y-86559292D01*
X124496732Y-86852369D01*
X124494886Y-87002215D01*
X124486469Y-87090136D01*
X124467162Y-87132328D01*
X124432647Y-87144986D01*
X124418578Y-87145446D01*
X124380211Y-87139132D01*
X124356947Y-87109888D01*
X124345063Y-87042260D01*
X124340836Y-86920796D01*
X124340425Y-86821107D01*
X124346323Y-86639962D01*
X124362940Y-86511526D01*
X124387317Y-86449876D01*
X124450843Y-86424308D01*
X124567740Y-86407491D01*
X124680394Y-86402984D01*
X124815278Y-86405574D01*
X124815278Y-86405574D01*
G37*
X124815278Y-86405574D02*
X124889585Y-86417048D01*
X124920819Y-86442964D01*
X124926578Y-86481138D01*
X124917250Y-86526303D01*
X124876916Y-86549831D01*
X124787056Y-86558458D01*
X124711655Y-86559292D01*
X124496732Y-86559292D01*
X124496732Y-86852369D01*
X124494886Y-87002215D01*
X124486469Y-87090136D01*
X124467162Y-87132328D01*
X124432647Y-87144986D01*
X124418578Y-87145446D01*
X124380211Y-87139132D01*
X124356947Y-87109888D01*
X124345063Y-87042260D01*
X124340836Y-86920796D01*
X124340425Y-86821107D01*
X124346323Y-86639962D01*
X124362940Y-86511526D01*
X124387317Y-86449876D01*
X124450843Y-86424308D01*
X124567740Y-86407491D01*
X124680394Y-86402984D01*
X124815278Y-86405574D01*
G36*
X125343066Y-86405562D02*
X125371609Y-86423055D01*
X125387291Y-86470104D01*
X125393962Y-86561346D01*
X125395477Y-86711421D01*
X125395501Y-86774215D01*
X125394823Y-86946193D01*
X125390219Y-87054656D01*
X125377838Y-87114244D01*
X125353827Y-87139596D01*
X125314334Y-87145352D01*
X125297809Y-87145446D01*
X125252552Y-87142868D01*
X125224009Y-87125374D01*
X125208328Y-87078326D01*
X125201656Y-86987084D01*
X125200142Y-86837009D01*
X125200117Y-86774215D01*
X125200795Y-86602237D01*
X125205399Y-86493774D01*
X125217780Y-86434186D01*
X125241791Y-86408833D01*
X125281284Y-86403078D01*
X125297809Y-86402984D01*
X125343066Y-86405562D01*
X125343066Y-86405562D01*
G37*
X125343066Y-86405562D02*
X125371609Y-86423055D01*
X125387291Y-86470104D01*
X125393962Y-86561346D01*
X125395477Y-86711421D01*
X125395501Y-86774215D01*
X125394823Y-86946193D01*
X125390219Y-87054656D01*
X125377838Y-87114244D01*
X125353827Y-87139596D01*
X125314334Y-87145352D01*
X125297809Y-87145446D01*
X125252552Y-87142868D01*
X125224009Y-87125374D01*
X125208328Y-87078326D01*
X125201656Y-86987084D01*
X125200142Y-86837009D01*
X125200117Y-86774215D01*
X125200795Y-86602237D01*
X125205399Y-86493774D01*
X125217780Y-86434186D01*
X125241791Y-86408833D01*
X125281284Y-86403078D01*
X125297809Y-86402984D01*
X125343066Y-86405562D01*
G36*
X126293561Y-86409298D02*
X126316825Y-86438542D01*
X126328709Y-86506170D01*
X126332936Y-86627633D01*
X126333348Y-86727323D01*
X126327449Y-86908468D01*
X126310832Y-87036904D01*
X126286455Y-87098553D01*
X126227363Y-87120701D01*
X126117560Y-87136459D01*
X125983148Y-87144908D01*
X125850229Y-87145126D01*
X125744903Y-87136196D01*
X125695091Y-87119394D01*
X125683432Y-87071006D01*
X125674469Y-86963889D01*
X125669563Y-86817456D01*
X125669040Y-86748164D01*
X125670392Y-86582917D01*
X125676716Y-86480802D01*
X125691407Y-86426811D01*
X125717864Y-86405936D01*
X125747194Y-86402984D01*
X125787153Y-86409906D01*
X125810598Y-86441470D01*
X125821850Y-86513871D01*
X125825225Y-86643305D01*
X125825348Y-86696061D01*
X125825348Y-86989138D01*
X126177040Y-86989138D01*
X126177040Y-86696061D01*
X126178886Y-86546214D01*
X126187303Y-86458293D01*
X126206610Y-86416102D01*
X126241126Y-86403444D01*
X126255194Y-86402984D01*
X126293561Y-86409298D01*
X126293561Y-86409298D01*
G37*
X126293561Y-86409298D02*
X126316825Y-86438542D01*
X126328709Y-86506170D01*
X126332936Y-86627633D01*
X126333348Y-86727323D01*
X126327449Y-86908468D01*
X126310832Y-87036904D01*
X126286455Y-87098553D01*
X126227363Y-87120701D01*
X126117560Y-87136459D01*
X125983148Y-87144908D01*
X125850229Y-87145126D01*
X125744903Y-87136196D01*
X125695091Y-87119394D01*
X125683432Y-87071006D01*
X125674469Y-86963889D01*
X125669563Y-86817456D01*
X125669040Y-86748164D01*
X125670392Y-86582917D01*
X125676716Y-86480802D01*
X125691407Y-86426811D01*
X125717864Y-86405936D01*
X125747194Y-86402984D01*
X125787153Y-86409906D01*
X125810598Y-86441470D01*
X125821850Y-86513871D01*
X125825225Y-86643305D01*
X125825348Y-86696061D01*
X125825348Y-86989138D01*
X126177040Y-86989138D01*
X126177040Y-86696061D01*
X126178886Y-86546214D01*
X126187303Y-86458293D01*
X126206610Y-86416102D01*
X126241126Y-86403444D01*
X126255194Y-86402984D01*
X126293561Y-86409298D01*
G36*
X127081740Y-86405574D02*
X127156046Y-86417048D01*
X127187280Y-86442964D01*
X127193040Y-86481138D01*
X127184097Y-86525536D01*
X127145142Y-86549141D01*
X127057985Y-86558298D01*
X126968348Y-86559505D01*
X126743655Y-86559719D01*
X127007425Y-86717978D01*
X127150804Y-86810137D01*
X127234084Y-86881001D01*
X127268548Y-86941093D01*
X127271194Y-86963949D01*
X127256585Y-87049941D01*
X127204535Y-87104864D01*
X127102707Y-87134625D01*
X126938762Y-87145131D01*
X126892148Y-87145446D01*
X126744716Y-87143501D01*
X126659004Y-87134673D01*
X126618616Y-87114469D01*
X126607155Y-87078397D01*
X126606886Y-87067292D01*
X126615152Y-87024312D01*
X126651658Y-87000639D01*
X126733963Y-86990616D01*
X126851117Y-86988607D01*
X127095348Y-86988077D01*
X126851117Y-86843315D01*
X126718949Y-86759751D01*
X126643637Y-86695632D01*
X126611355Y-86637052D01*
X126606886Y-86597660D01*
X126622413Y-86501187D01*
X126677382Y-86441388D01*
X126784372Y-86411060D01*
X126946855Y-86402984D01*
X127081740Y-86405574D01*
X127081740Y-86405574D01*
G37*
X127081740Y-86405574D02*
X127156046Y-86417048D01*
X127187280Y-86442964D01*
X127193040Y-86481138D01*
X127184097Y-86525536D01*
X127145142Y-86549141D01*
X127057985Y-86558298D01*
X126968348Y-86559505D01*
X126743655Y-86559719D01*
X127007425Y-86717978D01*
X127150804Y-86810137D01*
X127234084Y-86881001D01*
X127268548Y-86941093D01*
X127271194Y-86963949D01*
X127256585Y-87049941D01*
X127204535Y-87104864D01*
X127102707Y-87134625D01*
X126938762Y-87145131D01*
X126892148Y-87145446D01*
X126744716Y-87143501D01*
X126659004Y-87134673D01*
X126618616Y-87114469D01*
X126607155Y-87078397D01*
X126606886Y-87067292D01*
X126615152Y-87024312D01*
X126651658Y-87000639D01*
X126733963Y-86990616D01*
X126851117Y-86988607D01*
X127095348Y-86988077D01*
X126851117Y-86843315D01*
X126718949Y-86759751D01*
X126643637Y-86695632D01*
X126611355Y-86637052D01*
X126606886Y-86597660D01*
X126622413Y-86501187D01*
X126677382Y-86441388D01*
X126784372Y-86411060D01*
X126946855Y-86402984D01*
X127081740Y-86405574D01*
G36*
X121057963Y-86344369D02*
X121038425Y-86363907D01*
X121018886Y-86344369D01*
X121038425Y-86324830D01*
X121057963Y-86344369D01*
X121057963Y-86344369D01*
G37*
X121057963Y-86344369D02*
X121038425Y-86363907D01*
X121018886Y-86344369D01*
X121038425Y-86324830D01*
X121057963Y-86344369D01*
G36*
X124045800Y-85991455D02*
X124066886Y-86051292D01*
X124043990Y-86112577D01*
X123969194Y-86129446D01*
X123892587Y-86111129D01*
X123871501Y-86051292D01*
X123894398Y-85990006D01*
X123969194Y-85973138D01*
X124045800Y-85991455D01*
X124045800Y-85991455D01*
G37*
X124045800Y-85991455D02*
X124066886Y-86051292D01*
X124043990Y-86112577D01*
X123969194Y-86129446D01*
X123892587Y-86111129D01*
X123871501Y-86051292D01*
X123894398Y-85990006D01*
X123969194Y-85973138D01*
X124045800Y-85991455D01*
G36*
X125374416Y-85991455D02*
X125395501Y-86051292D01*
X125372605Y-86112577D01*
X125297809Y-86129446D01*
X125221202Y-86111129D01*
X125200117Y-86051292D01*
X125223013Y-85990006D01*
X125297809Y-85973138D01*
X125374416Y-85991455D01*
X125374416Y-85991455D01*
G37*
X125374416Y-85991455D02*
X125395501Y-86051292D01*
X125372605Y-86112577D01*
X125297809Y-86129446D01*
X125221202Y-86111129D01*
X125200117Y-86051292D01*
X125223013Y-85990006D01*
X125297809Y-85973138D01*
X125374416Y-85991455D01*
G36*
X127388425Y-85582369D02*
X112734578Y-85582369D01*
X112734578Y-85269753D01*
X127388425Y-85269753D01*
X127388425Y-85582369D01*
X127388425Y-85582369D01*
G37*
X127388425Y-85582369D02*
X112734578Y-85582369D01*
X112734578Y-85269753D01*
X127388425Y-85269753D01*
X127388425Y-85582369D01*
G36*
X113398886Y-83434914D02*
X113398615Y-83714833D01*
X113404188Y-83926266D01*
X113425184Y-84078793D01*
X113471182Y-84181994D01*
X113551763Y-84245448D01*
X113676505Y-84278735D01*
X113854988Y-84291433D01*
X114096792Y-84293123D01*
X114256802Y-84292830D01*
X114922886Y-84292830D01*
X114922886Y-84644523D01*
X114091012Y-84644523D01*
X113813145Y-84644082D01*
X113601430Y-84642061D01*
X113443870Y-84637411D01*
X113328464Y-84629083D01*
X113243214Y-84616030D01*
X113176121Y-84597202D01*
X113115185Y-84571552D01*
X113084781Y-84556600D01*
X112935559Y-84454641D01*
X112831108Y-84310970D01*
X112822501Y-84294320D01*
X112790267Y-84224845D01*
X112767006Y-84154652D01*
X112751270Y-84069754D01*
X112741614Y-83956170D01*
X112736591Y-83799915D01*
X112734755Y-83587005D01*
X112734578Y-83444396D01*
X112734578Y-82768830D01*
X113398886Y-82768830D01*
X113398886Y-83434914D01*
X113398886Y-83434914D01*
G37*
X113398886Y-83434914D02*
X113398615Y-83714833D01*
X113404188Y-83926266D01*
X113425184Y-84078793D01*
X113471182Y-84181994D01*
X113551763Y-84245448D01*
X113676505Y-84278735D01*
X113854988Y-84291433D01*
X114096792Y-84293123D01*
X114256802Y-84292830D01*
X114922886Y-84292830D01*
X114922886Y-84644523D01*
X114091012Y-84644523D01*
X113813145Y-84644082D01*
X113601430Y-84642061D01*
X113443870Y-84637411D01*
X113328464Y-84629083D01*
X113243214Y-84616030D01*
X113176121Y-84597202D01*
X113115185Y-84571552D01*
X113084781Y-84556600D01*
X112935559Y-84454641D01*
X112831108Y-84310970D01*
X112822501Y-84294320D01*
X112790267Y-84224845D01*
X112767006Y-84154652D01*
X112751270Y-84069754D01*
X112741614Y-83956170D01*
X112736591Y-83799915D01*
X112734755Y-83587005D01*
X112734578Y-83444396D01*
X112734578Y-82768830D01*
X113398886Y-82768830D01*
X113398886Y-83434914D01*
G36*
X119182271Y-84644523D02*
X118616518Y-84644523D01*
X117981087Y-84009967D01*
X117345655Y-83375411D01*
X117345655Y-84644523D01*
X116720425Y-84644523D01*
X116720425Y-82768830D01*
X116984194Y-82769716D01*
X117247963Y-82770603D01*
X118517963Y-83987427D01*
X118517963Y-82768830D01*
X119182271Y-82768830D01*
X119182271Y-84644523D01*
X119182271Y-84644523D01*
G37*
X119182271Y-84644523D02*
X118616518Y-84644523D01*
X117981087Y-84009967D01*
X117345655Y-83375411D01*
X117345655Y-84644523D01*
X116720425Y-84644523D01*
X116720425Y-82768830D01*
X116984194Y-82769716D01*
X117247963Y-82770603D01*
X118517963Y-83987427D01*
X118517963Y-82768830D01*
X119182271Y-82768830D01*
X119182271Y-84644523D01*
G36*
X121761348Y-83434914D02*
X121761707Y-83677749D01*
X121763838Y-83854973D01*
X121769319Y-83979131D01*
X121779729Y-84062767D01*
X121796647Y-84118423D01*
X121821652Y-84158644D01*
X121856324Y-84195974D01*
X121857264Y-84196914D01*
X121894676Y-84231831D01*
X121934686Y-84257044D01*
X121989838Y-84274134D01*
X122072675Y-84284678D01*
X122195742Y-84290256D01*
X122371581Y-84292447D01*
X122612736Y-84292830D01*
X123285348Y-84292830D01*
X123285348Y-84644523D01*
X122453474Y-84644523D01*
X122175606Y-84644082D01*
X121963892Y-84642061D01*
X121806331Y-84637411D01*
X121690926Y-84629083D01*
X121605676Y-84616030D01*
X121538582Y-84597202D01*
X121477647Y-84571552D01*
X121447243Y-84556600D01*
X121298021Y-84454641D01*
X121193569Y-84310970D01*
X121184963Y-84294320D01*
X121152729Y-84224845D01*
X121129467Y-84154652D01*
X121113732Y-84069754D01*
X121104076Y-83956170D01*
X121099053Y-83799915D01*
X121097216Y-83587005D01*
X121097040Y-83444396D01*
X121097040Y-82768830D01*
X121761348Y-82768830D01*
X121761348Y-83434914D01*
X121761348Y-83434914D01*
G37*
X121761348Y-83434914D02*
X121761707Y-83677749D01*
X121763838Y-83854973D01*
X121769319Y-83979131D01*
X121779729Y-84062767D01*
X121796647Y-84118423D01*
X121821652Y-84158644D01*
X121856324Y-84195974D01*
X121857264Y-84196914D01*
X121894676Y-84231831D01*
X121934686Y-84257044D01*
X121989838Y-84274134D01*
X122072675Y-84284678D01*
X122195742Y-84290256D01*
X122371581Y-84292447D01*
X122612736Y-84292830D01*
X123285348Y-84292830D01*
X123285348Y-84644523D01*
X122453474Y-84644523D01*
X122175606Y-84644082D01*
X121963892Y-84642061D01*
X121806331Y-84637411D01*
X121690926Y-84629083D01*
X121605676Y-84616030D01*
X121538582Y-84597202D01*
X121477647Y-84571552D01*
X121447243Y-84556600D01*
X121298021Y-84454641D01*
X121193569Y-84310970D01*
X121184963Y-84294320D01*
X121152729Y-84224845D01*
X121129467Y-84154652D01*
X121113732Y-84069754D01*
X121104076Y-83956170D01*
X121099053Y-83799915D01*
X121097216Y-83587005D01*
X121097040Y-83444396D01*
X121097040Y-82768830D01*
X121761348Y-82768830D01*
X121761348Y-83434914D01*
G36*
X127232117Y-83120523D02*
X125670842Y-83120523D01*
X125608548Y-83215594D01*
X125573482Y-83326962D01*
X125610365Y-83428332D01*
X125713127Y-83505141D01*
X125732575Y-83513162D01*
X125805225Y-83526272D01*
X125939483Y-83537378D01*
X126118810Y-83545586D01*
X126326669Y-83550003D01*
X126423815Y-83550515D01*
X126657378Y-83551618D01*
X126827170Y-83555841D01*
X126947557Y-83564754D01*
X127032904Y-83579929D01*
X127097580Y-83602935D01*
X127146545Y-83629524D01*
X127278920Y-83752642D01*
X127359589Y-83916598D01*
X127384162Y-84100028D01*
X127348248Y-84281567D01*
X127299722Y-84374975D01*
X127242625Y-84454031D01*
X127182702Y-84515954D01*
X127110009Y-84562824D01*
X127014601Y-84596721D01*
X126886533Y-84619722D01*
X126715863Y-84633909D01*
X126492644Y-84641360D01*
X126206933Y-84644155D01*
X126010963Y-84644462D01*
X125082886Y-84644523D01*
X125082886Y-84292830D01*
X125838830Y-84292830D01*
X126102561Y-84292221D01*
X126299226Y-84289750D01*
X126439906Y-84284452D01*
X126535683Y-84275362D01*
X126597639Y-84261515D01*
X126636856Y-84241947D01*
X126659445Y-84221369D01*
X126717548Y-84111433D01*
X126705141Y-84002554D01*
X126637268Y-83923815D01*
X126587770Y-83899708D01*
X126511102Y-83882615D01*
X126395251Y-83871501D01*
X126228201Y-83865328D01*
X125997939Y-83863062D01*
X125931943Y-83862984D01*
X125660067Y-83860582D01*
X125454063Y-83851220D01*
X125301739Y-83831669D01*
X125190902Y-83798697D01*
X125109358Y-83749073D01*
X125044916Y-83679566D01*
X125003150Y-83616856D01*
X124941747Y-83451872D01*
X124930144Y-83262859D01*
X124968506Y-83084376D01*
X125000265Y-83019703D01*
X125049911Y-82946756D01*
X125105981Y-82889415D01*
X125178021Y-82845821D01*
X125275580Y-82814118D01*
X125408206Y-82792450D01*
X125585446Y-82778960D01*
X125816848Y-82771792D01*
X126111961Y-82769088D01*
X126290407Y-82768830D01*
X127232117Y-82768830D01*
X127232117Y-83120523D01*
X127232117Y-83120523D01*
G37*
X127232117Y-83120523D02*
X125670842Y-83120523D01*
X125608548Y-83215594D01*
X125573482Y-83326962D01*
X125610365Y-83428332D01*
X125713127Y-83505141D01*
X125732575Y-83513162D01*
X125805225Y-83526272D01*
X125939483Y-83537378D01*
X126118810Y-83545586D01*
X126326669Y-83550003D01*
X126423815Y-83550515D01*
X126657378Y-83551618D01*
X126827170Y-83555841D01*
X126947557Y-83564754D01*
X127032904Y-83579929D01*
X127097580Y-83602935D01*
X127146545Y-83629524D01*
X127278920Y-83752642D01*
X127359589Y-83916598D01*
X127384162Y-84100028D01*
X127348248Y-84281567D01*
X127299722Y-84374975D01*
X127242625Y-84454031D01*
X127182702Y-84515954D01*
X127110009Y-84562824D01*
X127014601Y-84596721D01*
X126886533Y-84619722D01*
X126715863Y-84633909D01*
X126492644Y-84641360D01*
X126206933Y-84644155D01*
X126010963Y-84644462D01*
X125082886Y-84644523D01*
X125082886Y-84292830D01*
X125838830Y-84292830D01*
X126102561Y-84292221D01*
X126299226Y-84289750D01*
X126439906Y-84284452D01*
X126535683Y-84275362D01*
X126597639Y-84261515D01*
X126636856Y-84241947D01*
X126659445Y-84221369D01*
X126717548Y-84111433D01*
X126705141Y-84002554D01*
X126637268Y-83923815D01*
X126587770Y-83899708D01*
X126511102Y-83882615D01*
X126395251Y-83871501D01*
X126228201Y-83865328D01*
X125997939Y-83863062D01*
X125931943Y-83862984D01*
X125660067Y-83860582D01*
X125454063Y-83851220D01*
X125301739Y-83831669D01*
X125190902Y-83798697D01*
X125109358Y-83749073D01*
X125044916Y-83679566D01*
X125003150Y-83616856D01*
X124941747Y-83451872D01*
X124930144Y-83262859D01*
X124968506Y-83084376D01*
X125000265Y-83019703D01*
X125049911Y-82946756D01*
X125105981Y-82889415D01*
X125178021Y-82845821D01*
X125275580Y-82814118D01*
X125408206Y-82792450D01*
X125585446Y-82778960D01*
X125816848Y-82771792D01*
X126111961Y-82769088D01*
X126290407Y-82768830D01*
X127232117Y-82768830D01*
X127232117Y-83120523D01*
G36*
X127486117Y-82241292D02*
X120070083Y-82251162D01*
X119144167Y-82252303D01*
X118293594Y-82253149D01*
X117515555Y-82253686D01*
X116807241Y-82253898D01*
X116165840Y-82253770D01*
X115588544Y-82253289D01*
X115072544Y-82252439D01*
X114615028Y-82251205D01*
X114213187Y-82249573D01*
X113864213Y-82247528D01*
X113565294Y-82245055D01*
X113313621Y-82242139D01*
X113106385Y-82238766D01*
X112940775Y-82234920D01*
X112813982Y-82230588D01*
X112723197Y-82225754D01*
X112665609Y-82220403D01*
X112638408Y-82214521D01*
X112635432Y-82212085D01*
X112633408Y-82168151D01*
X112631572Y-82050291D01*
X112629929Y-81862730D01*
X112628485Y-81609696D01*
X112627246Y-81295415D01*
X112626218Y-80924113D01*
X112625407Y-80500019D01*
X112624818Y-80027357D01*
X112624458Y-79510356D01*
X112624332Y-78953242D01*
X112624447Y-78360240D01*
X112624807Y-77735579D01*
X112625420Y-77083485D01*
X112626291Y-76408184D01*
X112626850Y-76047600D01*
X112636469Y-70186061D01*
X112890886Y-70186061D01*
X112890886Y-81987292D01*
X113848271Y-81987292D01*
X114112501Y-81986858D01*
X114348794Y-81985639D01*
X114546581Y-81983758D01*
X114695291Y-81981337D01*
X114784357Y-81978500D01*
X114805655Y-81976168D01*
X114793329Y-81936664D01*
X114761166Y-81844561D01*
X114720539Y-81731937D01*
X114656774Y-81488454D01*
X114620449Y-81200209D01*
X114612295Y-80895888D01*
X114633043Y-80604177D01*
X114683424Y-80353763D01*
X114685261Y-80347649D01*
X114841555Y-79959698D01*
X115058220Y-79613441D01*
X115327707Y-79314574D01*
X115642466Y-79068795D01*
X115994948Y-78881800D01*
X116377603Y-78759285D01*
X116782882Y-78706948D01*
X116861629Y-78705408D01*
X117176218Y-78720354D01*
X117452361Y-78771844D01*
X117724297Y-78867703D01*
X117873194Y-78936589D01*
X118236655Y-79156815D01*
X118545333Y-79428701D01*
X118795362Y-79745126D01*
X118982881Y-80098970D01*
X119104024Y-80483111D01*
X119154928Y-80890429D01*
X119137922Y-81267516D01*
X119108319Y-81447482D01*
X119066822Y-81628774D01*
X119024434Y-81766257D01*
X118982357Y-81878569D01*
X118954532Y-81955925D01*
X118947829Y-81977523D01*
X118985834Y-81979185D01*
X119095586Y-81980759D01*
X119270677Y-81982219D01*
X119504699Y-81983542D01*
X119791245Y-81984704D01*
X120123907Y-81985680D01*
X120496277Y-81986447D01*
X120901949Y-81986981D01*
X121334515Y-81987258D01*
X121552823Y-81987292D01*
X124157837Y-81987292D01*
X123672746Y-81495358D01*
X122992518Y-80850627D01*
X122297789Y-80281952D01*
X121586645Y-79788257D01*
X120857172Y-79368464D01*
X120107457Y-79021497D01*
X119335585Y-78746277D01*
X118539643Y-78541728D01*
X118361655Y-78506206D01*
X118143355Y-78464216D01*
X117949477Y-78425759D01*
X117794143Y-78393728D01*
X117691477Y-78371018D01*
X117658271Y-78362126D01*
X117656058Y-78344826D01*
X117723087Y-78323430D01*
X117850627Y-78299175D01*
X118029949Y-78273296D01*
X118252321Y-78247031D01*
X118509014Y-78221616D01*
X118791297Y-78198286D01*
X118841084Y-78194625D01*
X119688604Y-78171711D01*
X120547594Y-78223125D01*
X121411030Y-78347256D01*
X122271890Y-78542498D01*
X123123150Y-78807243D01*
X123957788Y-79139881D01*
X124768780Y-79538806D01*
X124810405Y-79561460D01*
X124981081Y-79656171D01*
X125203548Y-79781684D01*
X125462268Y-79929117D01*
X125741702Y-80089586D01*
X126026314Y-80254209D01*
X126243472Y-80380699D01*
X126489157Y-80523852D01*
X126712611Y-80653184D01*
X126905037Y-80763674D01*
X127057638Y-80850299D01*
X127161616Y-80908038D01*
X127208176Y-80931869D01*
X127209568Y-80932215D01*
X127212260Y-80893882D01*
X127214859Y-80781856D01*
X127217348Y-80600600D01*
X127219709Y-80354574D01*
X127221921Y-80048242D01*
X127223967Y-79686063D01*
X127225828Y-79272499D01*
X127227484Y-78812013D01*
X127228918Y-78309066D01*
X127230111Y-77768119D01*
X127231044Y-77193633D01*
X127231697Y-76590072D01*
X127232054Y-75961895D01*
X127232117Y-75559138D01*
X127232117Y-70186061D01*
X112890886Y-70186061D01*
X112636469Y-70186061D01*
X112636886Y-69932061D01*
X127486117Y-69932061D01*
X127486117Y-82241292D01*
X127486117Y-82241292D01*
G37*
X127486117Y-82241292D02*
X120070083Y-82251162D01*
X119144167Y-82252303D01*
X118293594Y-82253149D01*
X117515555Y-82253686D01*
X116807241Y-82253898D01*
X116165840Y-82253770D01*
X115588544Y-82253289D01*
X115072544Y-82252439D01*
X114615028Y-82251205D01*
X114213187Y-82249573D01*
X113864213Y-82247528D01*
X113565294Y-82245055D01*
X113313621Y-82242139D01*
X113106385Y-82238766D01*
X112940775Y-82234920D01*
X112813982Y-82230588D01*
X112723197Y-82225754D01*
X112665609Y-82220403D01*
X112638408Y-82214521D01*
X112635432Y-82212085D01*
X112633408Y-82168151D01*
X112631572Y-82050291D01*
X112629929Y-81862730D01*
X112628485Y-81609696D01*
X112627246Y-81295415D01*
X112626218Y-80924113D01*
X112625407Y-80500019D01*
X112624818Y-80027357D01*
X112624458Y-79510356D01*
X112624332Y-78953242D01*
X112624447Y-78360240D01*
X112624807Y-77735579D01*
X112625420Y-77083485D01*
X112626291Y-76408184D01*
X112626850Y-76047600D01*
X112636469Y-70186061D01*
X112890886Y-70186061D01*
X112890886Y-81987292D01*
X113848271Y-81987292D01*
X114112501Y-81986858D01*
X114348794Y-81985639D01*
X114546581Y-81983758D01*
X114695291Y-81981337D01*
X114784357Y-81978500D01*
X114805655Y-81976168D01*
X114793329Y-81936664D01*
X114761166Y-81844561D01*
X114720539Y-81731937D01*
X114656774Y-81488454D01*
X114620449Y-81200209D01*
X114612295Y-80895888D01*
X114633043Y-80604177D01*
X114683424Y-80353763D01*
X114685261Y-80347649D01*
X114841555Y-79959698D01*
X115058220Y-79613441D01*
X115327707Y-79314574D01*
X115642466Y-79068795D01*
X115994948Y-78881800D01*
X116377603Y-78759285D01*
X116782882Y-78706948D01*
X116861629Y-78705408D01*
X117176218Y-78720354D01*
X117452361Y-78771844D01*
X117724297Y-78867703D01*
X117873194Y-78936589D01*
X118236655Y-79156815D01*
X118545333Y-79428701D01*
X118795362Y-79745126D01*
X118982881Y-80098970D01*
X119104024Y-80483111D01*
X119154928Y-80890429D01*
X119137922Y-81267516D01*
X119108319Y-81447482D01*
X119066822Y-81628774D01*
X119024434Y-81766257D01*
X118982357Y-81878569D01*
X118954532Y-81955925D01*
X118947829Y-81977523D01*
X118985834Y-81979185D01*
X119095586Y-81980759D01*
X119270677Y-81982219D01*
X119504699Y-81983542D01*
X119791245Y-81984704D01*
X120123907Y-81985680D01*
X120496277Y-81986447D01*
X120901949Y-81986981D01*
X121334515Y-81987258D01*
X121552823Y-81987292D01*
X124157837Y-81987292D01*
X123672746Y-81495358D01*
X122992518Y-80850627D01*
X122297789Y-80281952D01*
X121586645Y-79788257D01*
X120857172Y-79368464D01*
X120107457Y-79021497D01*
X119335585Y-78746277D01*
X118539643Y-78541728D01*
X118361655Y-78506206D01*
X118143355Y-78464216D01*
X117949477Y-78425759D01*
X117794143Y-78393728D01*
X117691477Y-78371018D01*
X117658271Y-78362126D01*
X117656058Y-78344826D01*
X117723087Y-78323430D01*
X117850627Y-78299175D01*
X118029949Y-78273296D01*
X118252321Y-78247031D01*
X118509014Y-78221616D01*
X118791297Y-78198286D01*
X118841084Y-78194625D01*
X119688604Y-78171711D01*
X120547594Y-78223125D01*
X121411030Y-78347256D01*
X122271890Y-78542498D01*
X123123150Y-78807243D01*
X123957788Y-79139881D01*
X124768780Y-79538806D01*
X124810405Y-79561460D01*
X124981081Y-79656171D01*
X125203548Y-79781684D01*
X125462268Y-79929117D01*
X125741702Y-80089586D01*
X126026314Y-80254209D01*
X126243472Y-80380699D01*
X126489157Y-80523852D01*
X126712611Y-80653184D01*
X126905037Y-80763674D01*
X127057638Y-80850299D01*
X127161616Y-80908038D01*
X127208176Y-80931869D01*
X127209568Y-80932215D01*
X127212260Y-80893882D01*
X127214859Y-80781856D01*
X127217348Y-80600600D01*
X127219709Y-80354574D01*
X127221921Y-80048242D01*
X127223967Y-79686063D01*
X127225828Y-79272499D01*
X127227484Y-78812013D01*
X127228918Y-78309066D01*
X127230111Y-77768119D01*
X127231044Y-77193633D01*
X127231697Y-76590072D01*
X127232054Y-75961895D01*
X127232117Y-75559138D01*
X127232117Y-70186061D01*
X112890886Y-70186061D01*
X112636469Y-70186061D01*
X112636886Y-69932061D01*
X127486117Y-69932061D01*
X127486117Y-82241292D01*
G36*
X117051193Y-70574397D02*
X117122773Y-70616602D01*
X117252103Y-70691768D01*
X117429074Y-70794091D01*
X117643575Y-70917764D01*
X117885497Y-71056980D01*
X118144729Y-71205935D01*
X118411162Y-71358821D01*
X118674686Y-71509833D01*
X118925190Y-71653165D01*
X119152565Y-71783009D01*
X119346701Y-71893560D01*
X119465512Y-71960944D01*
X119625937Y-72053522D01*
X119758106Y-72133284D01*
X119848953Y-72192093D01*
X119885411Y-72221808D01*
X119885589Y-72222606D01*
X119855142Y-72252342D01*
X119771811Y-72316573D01*
X119647690Y-72406368D01*
X119494873Y-72512794D01*
X119465578Y-72532804D01*
X118694571Y-73084827D01*
X117996918Y-73641917D01*
X117367819Y-74209216D01*
X116802475Y-74791868D01*
X116296086Y-75395017D01*
X115843852Y-76023804D01*
X115440974Y-76683375D01*
X115237426Y-77063600D01*
X115022166Y-77506450D01*
X114842830Y-77925858D01*
X114691980Y-78343724D01*
X114562179Y-78781947D01*
X114445988Y-79262426D01*
X114375484Y-79601468D01*
X114321180Y-79870054D01*
X114278987Y-80063842D01*
X114248303Y-80185145D01*
X114228527Y-80236277D01*
X114219057Y-80219552D01*
X114218262Y-80206035D01*
X114212367Y-80154275D01*
X114197474Y-80043536D01*
X114176097Y-79892141D01*
X114159745Y-79779446D01*
X114138104Y-79600180D01*
X114116783Y-79367634D01*
X114097710Y-79106665D01*
X114082816Y-78842130D01*
X114077836Y-78724369D01*
X114083515Y-77826529D01*
X114166999Y-76931795D01*
X114327958Y-76041459D01*
X114566064Y-75156816D01*
X114880987Y-74279159D01*
X115272400Y-73409781D01*
X115573805Y-72838771D01*
X115671847Y-72665316D01*
X115800450Y-72440557D01*
X115950393Y-72180459D01*
X116112450Y-71900987D01*
X116277400Y-71618106D01*
X116391046Y-71424227D01*
X116932577Y-70502665D01*
X117051193Y-70574397D01*
X117051193Y-70574397D01*
G37*
X117051193Y-70574397D02*
X117122773Y-70616602D01*
X117252103Y-70691768D01*
X117429074Y-70794091D01*
X117643575Y-70917764D01*
X117885497Y-71056980D01*
X118144729Y-71205935D01*
X118411162Y-71358821D01*
X118674686Y-71509833D01*
X118925190Y-71653165D01*
X119152565Y-71783009D01*
X119346701Y-71893560D01*
X119465512Y-71960944D01*
X119625937Y-72053522D01*
X119758106Y-72133284D01*
X119848953Y-72192093D01*
X119885411Y-72221808D01*
X119885589Y-72222606D01*
X119855142Y-72252342D01*
X119771811Y-72316573D01*
X119647690Y-72406368D01*
X119494873Y-72512794D01*
X119465578Y-72532804D01*
X118694571Y-73084827D01*
X117996918Y-73641917D01*
X117367819Y-74209216D01*
X116802475Y-74791868D01*
X116296086Y-75395017D01*
X115843852Y-76023804D01*
X115440974Y-76683375D01*
X115237426Y-77063600D01*
X115022166Y-77506450D01*
X114842830Y-77925858D01*
X114691980Y-78343724D01*
X114562179Y-78781947D01*
X114445988Y-79262426D01*
X114375484Y-79601468D01*
X114321180Y-79870054D01*
X114278987Y-80063842D01*
X114248303Y-80185145D01*
X114228527Y-80236277D01*
X114219057Y-80219552D01*
X114218262Y-80206035D01*
X114212367Y-80154275D01*
X114197474Y-80043536D01*
X114176097Y-79892141D01*
X114159745Y-79779446D01*
X114138104Y-79600180D01*
X114116783Y-79367634D01*
X114097710Y-79106665D01*
X114082816Y-78842130D01*
X114077836Y-78724369D01*
X114083515Y-77826529D01*
X114166999Y-76931795D01*
X114327958Y-76041459D01*
X114566064Y-75156816D01*
X114880987Y-74279159D01*
X115272400Y-73409781D01*
X115573805Y-72838771D01*
X115671847Y-72665316D01*
X115800450Y-72440557D01*
X115950393Y-72180459D01*
X116112450Y-71900987D01*
X116277400Y-71618106D01*
X116391046Y-71424227D01*
X116932577Y-70502665D01*
X117051193Y-70574397D01*
G36*
X124585487Y-75788934D02*
X124794105Y-75793386D01*
X125981655Y-75822115D01*
X125981655Y-77537011D01*
X125981010Y-77894479D01*
X125979165Y-78226557D01*
X125976254Y-78525369D01*
X125972413Y-78783039D01*
X125967777Y-78991690D01*
X125962480Y-79143445D01*
X125956657Y-79230427D01*
X125952348Y-79248558D01*
X125908008Y-79230615D01*
X125808529Y-79184140D01*
X125668411Y-79116071D01*
X125502156Y-79033349D01*
X125493194Y-79028840D01*
X124643689Y-78629477D01*
X123815888Y-78298933D01*
X123000128Y-78034441D01*
X122186748Y-77833236D01*
X121366084Y-77692553D01*
X120537021Y-77610180D01*
X119738587Y-77590483D01*
X118955216Y-77638302D01*
X118176325Y-77755186D01*
X117391328Y-77942682D01*
X116659719Y-78177056D01*
X116496288Y-78232973D01*
X116359015Y-78275315D01*
X116265142Y-78299034D01*
X116233940Y-78301694D01*
X116238131Y-78273236D01*
X116300595Y-78210346D01*
X116412657Y-78118913D01*
X116565641Y-78004825D01*
X116750870Y-77873971D01*
X116959669Y-77732240D01*
X117183362Y-77585520D01*
X117413271Y-77439700D01*
X117640723Y-77300670D01*
X117857040Y-77174316D01*
X118053546Y-77066529D01*
X118054542Y-77066005D01*
X118617576Y-76787616D01*
X119178447Y-76546899D01*
X119745471Y-76342285D01*
X120326963Y-76172202D01*
X120931242Y-76035081D01*
X121566622Y-75929351D01*
X122241420Y-75853442D01*
X122963953Y-75805783D01*
X123742537Y-75784804D01*
X124585487Y-75788934D01*
X124585487Y-75788934D01*
G37*
X124585487Y-75788934D02*
X124794105Y-75793386D01*
X125981655Y-75822115D01*
X125981655Y-77537011D01*
X125981010Y-77894479D01*
X125979165Y-78226557D01*
X125976254Y-78525369D01*
X125972413Y-78783039D01*
X125967777Y-78991690D01*
X125962480Y-79143445D01*
X125956657Y-79230427D01*
X125952348Y-79248558D01*
X125908008Y-79230615D01*
X125808529Y-79184140D01*
X125668411Y-79116071D01*
X125502156Y-79033349D01*
X125493194Y-79028840D01*
X124643689Y-78629477D01*
X123815888Y-78298933D01*
X123000128Y-78034441D01*
X122186748Y-77833236D01*
X121366084Y-77692553D01*
X120537021Y-77610180D01*
X119738587Y-77590483D01*
X118955216Y-77638302D01*
X118176325Y-77755186D01*
X117391328Y-77942682D01*
X116659719Y-78177056D01*
X116496288Y-78232973D01*
X116359015Y-78275315D01*
X116265142Y-78299034D01*
X116233940Y-78301694D01*
X116238131Y-78273236D01*
X116300595Y-78210346D01*
X116412657Y-78118913D01*
X116565641Y-78004825D01*
X116750870Y-77873971D01*
X116959669Y-77732240D01*
X117183362Y-77585520D01*
X117413271Y-77439700D01*
X117640723Y-77300670D01*
X117857040Y-77174316D01*
X118053546Y-77066529D01*
X118054542Y-77066005D01*
X118617576Y-76787616D01*
X119178447Y-76546899D01*
X119745471Y-76342285D01*
X120326963Y-76172202D01*
X120931242Y-76035081D01*
X121566622Y-75929351D01*
X122241420Y-75853442D01*
X122963953Y-75805783D01*
X123742537Y-75784804D01*
X124585487Y-75788934D01*
G36*
X122248199Y-72111241D02*
X122297729Y-72193466D01*
X122376961Y-72327741D01*
X122480943Y-72505477D01*
X122604723Y-72718085D01*
X122743351Y-72956977D01*
X122891873Y-73213562D01*
X123045339Y-73479252D01*
X123198796Y-73745458D01*
X123347294Y-74003591D01*
X123485881Y-74245061D01*
X123609604Y-74461279D01*
X123713512Y-74643657D01*
X123792654Y-74783605D01*
X123842078Y-74872534D01*
X123857035Y-74901919D01*
X123818083Y-74907350D01*
X123713496Y-74918183D01*
X123555519Y-74933251D01*
X123356393Y-74951387D01*
X123128464Y-74971413D01*
X122550268Y-75027348D01*
X122035160Y-75090484D01*
X121568224Y-75163135D01*
X121134546Y-75247614D01*
X120729525Y-75343571D01*
X119845362Y-75603023D01*
X119020014Y-75911171D01*
X118249169Y-76270636D01*
X117528516Y-76684037D01*
X116853745Y-77153995D01*
X116220542Y-77683128D01*
X115624598Y-78274057D01*
X115294262Y-78646215D01*
X115159072Y-78805540D01*
X115066550Y-78913712D01*
X115008632Y-78979027D01*
X114977249Y-79009778D01*
X114964337Y-79014261D01*
X114961829Y-79000770D01*
X114961963Y-78987931D01*
X114977651Y-78929019D01*
X115020539Y-78813950D01*
X115084366Y-78657198D01*
X115162870Y-78473233D01*
X115249787Y-78276527D01*
X115338855Y-78081552D01*
X115423813Y-77902780D01*
X115481846Y-77786523D01*
X115868924Y-77091764D01*
X116289887Y-76452608D01*
X116759054Y-75848991D01*
X117266878Y-75285600D01*
X117582682Y-74966250D01*
X117892937Y-74672598D01*
X118207323Y-74397495D01*
X118535519Y-74133791D01*
X118887205Y-73874337D01*
X119272059Y-73611985D01*
X119699762Y-73339584D01*
X120179992Y-73049986D01*
X120706271Y-72745248D01*
X120926850Y-72619963D01*
X121158585Y-72489117D01*
X121388377Y-72360031D01*
X121603128Y-72240024D01*
X121789736Y-72136414D01*
X121935103Y-72056523D01*
X122026129Y-72007669D01*
X122028337Y-72006525D01*
X122145753Y-71945807D01*
X122248199Y-72111241D01*
X122248199Y-72111241D01*
G37*
X122248199Y-72111241D02*
X122297729Y-72193466D01*
X122376961Y-72327741D01*
X122480943Y-72505477D01*
X122604723Y-72718085D01*
X122743351Y-72956977D01*
X122891873Y-73213562D01*
X123045339Y-73479252D01*
X123198796Y-73745458D01*
X123347294Y-74003591D01*
X123485881Y-74245061D01*
X123609604Y-74461279D01*
X123713512Y-74643657D01*
X123792654Y-74783605D01*
X123842078Y-74872534D01*
X123857035Y-74901919D01*
X123818083Y-74907350D01*
X123713496Y-74918183D01*
X123555519Y-74933251D01*
X123356393Y-74951387D01*
X123128464Y-74971413D01*
X122550268Y-75027348D01*
X122035160Y-75090484D01*
X121568224Y-75163135D01*
X121134546Y-75247614D01*
X120729525Y-75343571D01*
X119845362Y-75603023D01*
X119020014Y-75911171D01*
X118249169Y-76270636D01*
X117528516Y-76684037D01*
X116853745Y-77153995D01*
X116220542Y-77683128D01*
X115624598Y-78274057D01*
X115294262Y-78646215D01*
X115159072Y-78805540D01*
X115066550Y-78913712D01*
X115008632Y-78979027D01*
X114977249Y-79009778D01*
X114964337Y-79014261D01*
X114961829Y-79000770D01*
X114961963Y-78987931D01*
X114977651Y-78929019D01*
X115020539Y-78813950D01*
X115084366Y-78657198D01*
X115162870Y-78473233D01*
X115249787Y-78276527D01*
X115338855Y-78081552D01*
X115423813Y-77902780D01*
X115481846Y-77786523D01*
X115868924Y-77091764D01*
X116289887Y-76452608D01*
X116759054Y-75848991D01*
X117266878Y-75285600D01*
X117582682Y-74966250D01*
X117892937Y-74672598D01*
X118207323Y-74397495D01*
X118535519Y-74133791D01*
X118887205Y-73874337D01*
X119272059Y-73611985D01*
X119699762Y-73339584D01*
X120179992Y-73049986D01*
X120706271Y-72745248D01*
X120926850Y-72619963D01*
X121158585Y-72489117D01*
X121388377Y-72360031D01*
X121603128Y-72240024D01*
X121789736Y-72136414D01*
X121935103Y-72056523D01*
X122026129Y-72007669D01*
X122028337Y-72006525D01*
X122145753Y-71945807D01*
X122248199Y-72111241D01*
M02*
