G04 #@! TF.FileFunction,Drawing*
%FSLAX46Y46*%
G04 Gerber Fmt 4.6, Leading zero omitted, Abs format (unit mm)*
G04 Created by KiCad (PCBNEW 4.0.4+e1-6308~48~ubuntu15.10.1-stable) date Thu Jan 25 11:04:30 2018*
%MOMM*%
%LPD*%
G01*
G04 APERTURE LIST*
%ADD10C,0.100000*%
G04 APERTURE END LIST*
D10*
X70947522Y-95748040D02*
X70947522Y-106048040D01*
X56487522Y-95748040D02*
X70947522Y-95748040D01*
X56487522Y-106048040D02*
X56487522Y-95748040D01*
X70947522Y-106048040D02*
X56487522Y-106048040D01*
X119562522Y-95748040D02*
X119562522Y-106048040D01*
X112712522Y-95748040D02*
X119562522Y-95748040D01*
X112712522Y-106048040D02*
X112712522Y-95748040D01*
X119562522Y-106048040D02*
X112712522Y-106048040D01*
X105925522Y-106148040D02*
X91225522Y-106148040D01*
X105925522Y-93248040D02*
X105925522Y-106148040D01*
X91225522Y-93248040D02*
X105925522Y-93248040D01*
X91225522Y-106148040D02*
X91225522Y-93248040D01*
X88175522Y-106148040D02*
X73475522Y-106148040D01*
X88175522Y-93248040D02*
X88175522Y-106148040D01*
X73475522Y-93248040D02*
X88175522Y-93248040D01*
X73475522Y-106148040D02*
X73475522Y-93248040D01*
X54417522Y-94848040D02*
X54614822Y-94848040D01*
X54614822Y-94848040D02*
X54617522Y-95048040D01*
X54614822Y-106148040D02*
X54617522Y-105948040D01*
X54417522Y-106148040D02*
X54614822Y-106148040D01*
X45617522Y-94848040D02*
X45420222Y-94848040D01*
X45420222Y-94848040D02*
X45417522Y-95048040D01*
X45420222Y-106148040D02*
X45417522Y-105948040D01*
X45617522Y-106148040D02*
X45420222Y-106148040D01*
X54617522Y-105948040D02*
X54617522Y-95048040D01*
X45617522Y-106148040D02*
X54417522Y-106148040D01*
X45617522Y-94848040D02*
X54417522Y-94848040D01*
X45417522Y-95048040D02*
X45417522Y-105948040D01*
M02*
