G04 #@! TF.FileFunction,Copper,L2,Bot,Signal*
%FSLAX46Y46*%
G04 Gerber Fmt 4.6, Leading zero omitted, Abs format (unit mm)*
G04 Created by KiCad (PCBNEW 4.0.4+e1-6308~48~ubuntu15.10.1-stable) date Thu Jan 25 11:04:30 2018*
%MOMM*%
%LPD*%
G01*
G04 APERTURE LIST*
%ADD10C,0.100000*%
%ADD11C,6.000000*%
%ADD12C,3.000000*%
%ADD13C,0.254000*%
G04 APERTURE END LIST*
D10*
D11*
X39532560Y-66746120D03*
X134548880Y-66715640D03*
X134543800Y-111739680D03*
D12*
X124495560Y-101371400D03*
D11*
X39517320Y-111739680D03*
D13*
G36*
X136003567Y-63208491D02*
X137239468Y-64034294D01*
X138065271Y-65270195D01*
X138358722Y-66745473D01*
X138358722Y-111730607D01*
X138065271Y-113205885D01*
X137239468Y-114441786D01*
X136003567Y-115267589D01*
X134528289Y-115561040D01*
X39543155Y-115561040D01*
X38067877Y-115267589D01*
X36831976Y-114441786D01*
X36006173Y-113205885D01*
X35712722Y-111730607D01*
X35712722Y-101733218D01*
X122668244Y-101733218D01*
X122945802Y-102404960D01*
X123459296Y-102919352D01*
X124130553Y-103198082D01*
X124857378Y-103198716D01*
X125529120Y-102921158D01*
X126043512Y-102407664D01*
X126322242Y-101736407D01*
X126322876Y-101009582D01*
X126045318Y-100337840D01*
X125531824Y-99823448D01*
X124860567Y-99544718D01*
X124133742Y-99544084D01*
X123462000Y-99821642D01*
X122947608Y-100335136D01*
X122668878Y-101006393D01*
X122668244Y-101733218D01*
X35712722Y-101733218D01*
X35712722Y-66745473D01*
X36006173Y-65270195D01*
X36831976Y-64034294D01*
X38067877Y-63208491D01*
X39543155Y-62915040D01*
X134528289Y-62915040D01*
X136003567Y-63208491D01*
X136003567Y-63208491D01*
G37*
X136003567Y-63208491D02*
X137239468Y-64034294D01*
X138065271Y-65270195D01*
X138358722Y-66745473D01*
X138358722Y-111730607D01*
X138065271Y-113205885D01*
X137239468Y-114441786D01*
X136003567Y-115267589D01*
X134528289Y-115561040D01*
X39543155Y-115561040D01*
X38067877Y-115267589D01*
X36831976Y-114441786D01*
X36006173Y-113205885D01*
X35712722Y-111730607D01*
X35712722Y-101733218D01*
X122668244Y-101733218D01*
X122945802Y-102404960D01*
X123459296Y-102919352D01*
X124130553Y-103198082D01*
X124857378Y-103198716D01*
X125529120Y-102921158D01*
X126043512Y-102407664D01*
X126322242Y-101736407D01*
X126322876Y-101009582D01*
X126045318Y-100337840D01*
X125531824Y-99823448D01*
X124860567Y-99544718D01*
X124133742Y-99544084D01*
X123462000Y-99821642D01*
X122947608Y-100335136D01*
X122668878Y-101006393D01*
X122668244Y-101733218D01*
X35712722Y-101733218D01*
X35712722Y-66745473D01*
X36006173Y-65270195D01*
X36831976Y-64034294D01*
X38067877Y-63208491D01*
X39543155Y-62915040D01*
X134528289Y-62915040D01*
X136003567Y-63208491D01*
M02*
